<svg width='200' height='200' fill="#000000" xmlns:dc="http://purl.org/dc/elements/1.1/" xmlns:cc="http://creativecommons.org/ns#" xmlns:rdf="http://www.w3.org/1999/02/22-rdf-syntax-ns#" xmlns:svg="http://www.w3.org/2000/svg" xmlns="http://www.w3.org/2000/svg" xmlns:sodipodi="http://sodipodi.sourceforge.net/DTD/sodipodi-0.dtd" xmlns:inkscape="http://www.inkscape.org/namespaces/inkscape" viewBox="0 0 48 48.000001" version="1.1" x="0px" y="0px"><g transform="translate(0,-1004.3622)"><path style="color:#000000;font-style:normal;font-variant:normal;font-weight:normal;font-stretch:normal;font-size:medium;line-height:normal;font-family:sans-serif;text-indent:0;text-align:start;text-decoration:none;text-decoration-line:none;text-decoration-style:solid;text-decoration-color:#000000;letter-spacing:normal;word-spacing:normal;text-transform:none;direction:ltr;block-progression:tb;writing-mode:lr-tb;baseline-shift:baseline;text-anchor:start;white-space:normal;clip-rule:nonzero;display:inline;overflow:visible;visibility:visible;opacity:1;isolation:auto;mix-blend-mode:normal;color-interpolation:sRGB;color-interpolation-filters:linearRGB;solid-color:#000000;solid-opacity:1;fill:#000000;fill-opacity:1;fill-rule:evenodd;stroke:none;stroke-width:1.99999988;stroke-linecap:round;stroke-linejoin:round;stroke-miterlimit:4;stroke-dasharray:none;stroke-dashoffset:0;stroke-opacity:1;color-rendering:auto;image-rendering:auto;shape-rendering:auto;text-rendering:auto;enable-background:accumulate" d="m 34.995311,1041.3603 a 0.99978362,1.0001301 0 0 0 -0.451029,0.1133 l -3.549659,1.7696 -3.549658,-1.7696 a 0.99978362,1.0001301 0 0 0 -0.892296,0 l -3.549658,1.7696 -3.54966,-1.7696 a 0.99978362,1.0001301 0 0 0 -0.892294,0 l -3.547707,1.7696 -3.549658,-1.7696 a 0.99978362,1.0001301 0 0 0 -0.892296,0 l -3.5496583,1.7696 -3.5496582,-1.7696 a 0.99978362,1.0001301 0 1 0 -0.892296,1.7892 l 3.9948301,1.9941 a 0.99978362,1.0001301 0 0 0 0.8922958,0 l 3.5496586,-1.7715 3.549659,1.7715 a 0.99978362,1.0001301 0 0 0 0.892296,0 l 3.549658,-1.7715 3.549658,1.7715 a 0.99978362,1.0001301 0 0 0 0.892295,0 l 3.549659,-1.7715 3.547706,1.7715 a 0.99978362,1.0001301 0 0 0 0.894248,0 l 3.994831,-1.9941 a 0.99978362,1.0001301 0 0 0 -0.441267,-1.9025 z"/><path style="color:#000000;font-style:normal;font-variant:normal;font-weight:normal;font-stretch:normal;font-size:medium;line-height:normal;font-family:sans-serif;text-indent:0;text-align:start;text-decoration:none;text-decoration-line:none;text-decoration-style:solid;text-decoration-color:#000000;letter-spacing:normal;word-spacing:normal;text-transform:none;direction:ltr;block-progression:tb;writing-mode:lr-tb;baseline-shift:baseline;text-anchor:start;white-space:normal;clip-rule:nonzero;display:inline;overflow:visible;visibility:visible;opacity:1;isolation:auto;mix-blend-mode:normal;color-interpolation:sRGB;color-interpolation-filters:linearRGB;solid-color:#000000;solid-opacity:1;fill:#000000;fill-opacity:1;fill-rule:evenodd;stroke:none;stroke-width:1.99999988;stroke-linecap:round;stroke-linejoin:round;stroke-miterlimit:4;stroke-dasharray:none;stroke-dashoffset:0;stroke-opacity:1;color-rendering:auto;image-rendering:auto;shape-rendering:auto;text-rendering:auto;enable-background:accumulate" d="m 34.995311,1046.3605 a 0.99978362,1.0001301 0 0 0 -0.451029,0.1133 l -3.549659,1.7695 -3.549658,-1.7695 a 0.99978362,1.0001301 0 0 0 -0.892296,0 l -3.549658,1.7695 -3.54966,-1.7695 a 0.99978362,1.0001301 0 0 0 -0.892294,0 l -3.547707,1.7695 -3.549658,-1.7695 a 0.99978362,1.0001301 0 0 0 -0.892296,0 l -3.5496583,1.7695 -3.5496582,-1.7695 a 0.99978362,1.0001301 0 1 0 -0.892296,1.7891 l 3.9948301,1.9942 a 0.99978362,1.0001301 0 0 0 0.8922958,0 l 3.5496586,-1.7716 3.549659,1.7716 a 0.99978362,1.0001301 0 0 0 0.892296,0 l 3.549658,-1.7716 3.549658,1.7716 a 0.99978362,1.0001301 0 0 0 0.892295,0 l 3.549659,-1.7716 3.549658,1.7716 a 0.99978362,1.0001301 0 0 0 0.892296,0 l 3.994831,-1.9942 a 0.99978362,1.0001301 0 0 0 -0.441267,-1.9024 z"/><path style="color:#000000;font-style:normal;font-variant:normal;font-weight:normal;font-stretch:normal;font-size:medium;line-height:normal;font-family:sans-serif;text-indent:0;text-align:start;text-decoration:none;text-decoration-line:none;text-decoration-style:solid;text-decoration-color:#000000;letter-spacing:normal;word-spacing:normal;text-transform:none;direction:ltr;block-progression:tb;writing-mode:lr-tb;baseline-shift:baseline;text-anchor:start;white-space:normal;clip-rule:nonzero;display:inline;overflow:visible;visibility:visible;opacity:1;isolation:auto;mix-blend-mode:normal;color-interpolation:sRGB;color-interpolation-filters:linearRGB;solid-color:#000000;solid-opacity:1;fill:#000000;fill-opacity:1;fill-rule:evenodd;stroke:none;stroke-width:2;stroke-linecap:round;stroke-linejoin:round;stroke-miterlimit:4;stroke-dasharray:none;stroke-dashoffset:0;stroke-opacity:1;color-rendering:auto;image-rendering:auto;shape-rendering:auto;text-rendering:auto;enable-background:accumulate" d="m 8.9957226,1008.3601 a 0.99978372,1.0000452 0 0 0 -0.9840637,1.0157 l 0,6.9703 a 0.99978372,1.0000452 0 1 0 1.9993671,0 l 0,-6.9703 a 0.99978372,1.0000452 0 0 0 -1.0153034,-1.0157 z"/><path style="color:#000000;font-style:normal;font-variant:normal;font-weight:normal;font-stretch:normal;font-size:medium;line-height:normal;font-family:sans-serif;text-indent:0;text-align:start;text-decoration:none;text-decoration-line:none;text-decoration-style:solid;text-decoration-color:#000000;letter-spacing:normal;word-spacing:normal;text-transform:none;direction:ltr;block-progression:tb;writing-mode:lr-tb;baseline-shift:baseline;text-anchor:start;white-space:normal;clip-rule:nonzero;display:inline;overflow:visible;visibility:visible;opacity:1;isolation:auto;mix-blend-mode:normal;color-interpolation:sRGB;color-interpolation-filters:linearRGB;solid-color:#000000;solid-opacity:1;fill:#000000;fill-opacity:1;fill-rule:evenodd;stroke:none;stroke-width:1.99999988;stroke-linecap:round;stroke-linejoin:round;stroke-miterlimit:4;stroke-dasharray:none;stroke-dashoffset:0;stroke-opacity:1;color-rendering:auto;image-rendering:auto;shape-rendering:auto;text-rendering:auto;enable-background:accumulate" d="m 11.996411,1010.3606 a 1.0014779,1.0016549 0 0 0 -0.451793,0.1135 l -5.982844,2.991 a 1.0015113,1.0016883 0 0 0 0.895764,1.7918 l 5.982843,-2.991 a 1.0014779,1.0016549 0 0 0 -0.44397,-1.9053 z"/><path style="color:#000000;font-style:normal;font-variant:normal;font-weight:normal;font-stretch:normal;font-size:medium;line-height:normal;font-family:sans-serif;text-indent:0;text-align:start;text-decoration:none;text-decoration-line:none;text-decoration-style:solid;text-decoration-color:#000000;letter-spacing:normal;word-spacing:normal;text-transform:none;direction:ltr;block-progression:tb;writing-mode:lr-tb;baseline-shift:baseline;text-anchor:start;white-space:normal;clip-rule:nonzero;display:inline;overflow:visible;visibility:visible;opacity:1;isolation:auto;mix-blend-mode:normal;color-interpolation:sRGB;color-interpolation-filters:linearRGB;solid-color:#000000;solid-opacity:1;fill:#000000;fill-opacity:1;fill-rule:evenodd;stroke:none;stroke-width:1.99999988;stroke-linecap:round;stroke-linejoin:round;stroke-miterlimit:4;stroke-dasharray:none;stroke-dashoffset:0;stroke-opacity:1;color-rendering:auto;image-rendering:auto;shape-rendering:auto;text-rendering:auto;enable-background:accumulate" d="m 5.9946511,1010.3605 a 1.0009253,1.0012362 0 0 0 -0.4124496,1.9045 l 5.9795405,2.9897 a 1.0009682,1.0012791 0 1 0 0.89527,-1.7911 l -5.979541,-2.9897 a 1.0009253,1.0012362 0 0 0 -0.4828199,-0.1134 z"/><path style="color:#000000;font-style:normal;font-variant:normal;font-weight:normal;font-stretch:normal;font-size:medium;line-height:normal;font-family:sans-serif;text-indent:0;text-align:start;text-decoration:none;text-decoration-line:none;text-decoration-style:solid;text-decoration-color:#000000;letter-spacing:normal;word-spacing:normal;text-transform:none;direction:ltr;block-progression:tb;writing-mode:lr-tb;baseline-shift:baseline;text-anchor:start;white-space:normal;clip-rule:nonzero;display:inline;overflow:visible;visibility:visible;opacity:1;isolation:auto;mix-blend-mode:normal;color-interpolation:sRGB;color-interpolation-filters:linearRGB;solid-color:#000000;solid-opacity:1;fill:#000000;fill-opacity:1;fill-rule:evenodd;stroke:none;stroke-width:2;stroke-linecap:round;stroke-linejoin:round;stroke-miterlimit:4;stroke-dasharray:none;stroke-dashoffset:0;stroke-opacity:1;color-rendering:auto;image-rendering:auto;shape-rendering:auto;text-rendering:auto;enable-background:accumulate" d="m 41.985287,1033.3609 a 0.99978372,1.0000452 0 0 0 -0.984063,1.0156 l 0,6.9703 a 0.99978372,1.0000452 0 1 0 1.999366,0 l 0,-6.9703 a 0.99978372,1.0000452 0 0 0 -1.015303,-1.0156 z"/><path style="color:#000000;font-style:normal;font-variant:normal;font-weight:normal;font-stretch:normal;font-size:medium;line-height:normal;font-family:sans-serif;text-indent:0;text-align:start;text-decoration:none;text-decoration-line:none;text-decoration-style:solid;text-decoration-color:#000000;letter-spacing:normal;word-spacing:normal;text-transform:none;direction:ltr;block-progression:tb;writing-mode:lr-tb;baseline-shift:baseline;text-anchor:start;white-space:normal;clip-rule:nonzero;display:inline;overflow:visible;visibility:visible;opacity:1;isolation:auto;mix-blend-mode:normal;color-interpolation:sRGB;color-interpolation-filters:linearRGB;solid-color:#000000;solid-opacity:1;fill:#000000;fill-opacity:1;fill-rule:evenodd;stroke:none;stroke-width:1.99999988;stroke-linecap:round;stroke-linejoin:round;stroke-miterlimit:4;stroke-dasharray:none;stroke-dashoffset:0;stroke-opacity:1;color-rendering:auto;image-rendering:auto;shape-rendering:auto;text-rendering:auto;enable-background:accumulate" d="m 44.986647,1035.361 a 1.0008959,1.0012421 0 0 0 -0.451531,0.1135 l -5.979366,2.9897 a 1.0009546,1.0013009 0 0 0 0.895244,1.7912 l 5.979365,-2.9897 a 1.0008959,1.0012421 0 0 0 -0.443712,-1.9047 z"/><path style="color:#000000;font-style:normal;font-variant:normal;font-weight:normal;font-stretch:normal;font-size:medium;line-height:normal;font-family:sans-serif;text-indent:0;text-align:start;text-decoration:none;text-decoration-line:none;text-decoration-style:solid;text-decoration-color:#000000;letter-spacing:normal;word-spacing:normal;text-transform:none;direction:ltr;block-progression:tb;writing-mode:lr-tb;baseline-shift:baseline;text-anchor:start;white-space:normal;clip-rule:nonzero;display:inline;overflow:visible;visibility:visible;opacity:1;isolation:auto;mix-blend-mode:normal;color-interpolation:sRGB;color-interpolation-filters:linearRGB;solid-color:#000000;solid-opacity:1;fill:#000000;fill-opacity:1;fill-rule:evenodd;stroke:none;stroke-width:1.99999988;stroke-linecap:round;stroke-linejoin:round;stroke-miterlimit:4;stroke-dasharray:none;stroke-dashoffset:0;stroke-opacity:1;color-rendering:auto;image-rendering:auto;shape-rendering:auto;text-rendering:auto;enable-background:accumulate" d="m 38.982516,1035.361 a 0.99923473,0.99993281 0 0 0 -0.411754,1.9021 l 5.969443,2.9858 a 0.9992679,0.99996601 0 1 0 0.893757,-1.7886 l -5.969442,-2.9859 a 0.99923473,0.99993281 0 0 0 -0.482004,-0.1134 z"/><path style="color:#000000;font-style:normal;font-variant:normal;font-weight:normal;font-stretch:normal;font-size:medium;line-height:normal;font-family:sans-serif;text-indent:0;text-align:start;text-decoration:none;text-decoration-line:none;text-decoration-style:solid;text-decoration-color:#000000;letter-spacing:normal;word-spacing:normal;text-transform:none;direction:ltr;block-progression:tb;writing-mode:lr-tb;baseline-shift:baseline;text-anchor:start;white-space:normal;clip-rule:nonzero;display:inline;overflow:visible;visibility:visible;opacity:1;isolation:auto;mix-blend-mode:normal;color-interpolation:sRGB;color-interpolation-filters:linearRGB;solid-color:#000000;solid-opacity:1;fill:#000000;fill-opacity:1;fill-rule:nonzero;stroke:none;stroke-width:2;stroke-linecap:round;stroke-linejoin:round;stroke-miterlimit:4;stroke-dasharray:none;stroke-dashoffset:0;stroke-opacity:1;color-rendering:auto;image-rendering:auto;shape-rendering:auto;text-rendering:auto;enable-background:accumulate" d="m 35.864177,1007.3622 c -0.04317,0 -0.08622,0 -0.128866,0.012 -0.0025,-10e-5 -0.005,0 -0.0078,0 -0.110711,0.018 -0.217638,0.054 -0.316305,0.1074 -3.800826,0.7002 -6.715237,3.7212 -7.294568,7.4748 -1.013802,-0.363 -2.050942,-0.5399 -3.081056,-0.5937 -0.165622,-0.01 -0.806767,0 -1.028985,0 -4.171106,-0.037 -7.383508,2.4521 -9.668803,6.1174 -3.253287,-1.0572 -6.9244589,-0.7484 -9.477471,1.7364 -2.6894367,2.6182 -3.5681858,6.5787 -2.2297632,10.0765 1.3383913,3.4977 4.6384471,5.88 8.3977212,6.0704 13.978,0 -0.01757,0 13.958475,-0.098 5.47057,-0.3767 10.013751,-4.5161 10.87156,-10.0706 0.151292,-0.9796 0.174081,-1.9528 0.09372,-2.9063 0.370644,0.053 0.750178,0.055 1.068022,0.074 3.257907,0 6.26231,-1.7736 7.852985,-4.6251 0.406543,-0.7272 -0.201921,-1.6036 -1.025068,-1.4766 -0.324127,0.05 -0.650352,0.076 -0.978205,0.08 l -0.002,0 c -3.881936,-6e-4 -7.011298,-3.1405 -7.011454,-7.0452 0.0014,-1.2067 0.311693,-2.3937 0.900105,-3.4454 0.375022,-0.6739 -0.121397,-1.5008 -0.892247,-1.4863 z m -1.698683,2.6114 c -0.200283,0.7543 -0.307798,1.5334 -0.308495,2.3203 1.83e-4,4.6018 3.50148,8.2727 7.942799,8.8284 -1.294458,1.2973 -2.90013,2.236 -4.779737,2.2384 -0.477068,-4e-4 -0.945377,-0.1001 -1.411662,-0.1973 -0.676981,-2.7727 -2.345624,-5.1554 -4.678209,-6.7424 -0.27243,-0.1928 -0.555045,-0.3727 -0.845436,-0.5429 0.17168,-2.6373 1.758197,-4.8535 4.08074,-5.9045 z m -9.204119,6.3889 0,0 0.0098,0 c 0.832463,0.031 1.666875,0.1857 2.485543,0.4804 4.456115,1.6057 7.167193,6.2418 6.425701,11.0433 -0.737896,4.7781 -4.667202,8.3086 -9.356415,8.4632 -0.03334,0 -0.06657,0 -0.09958,0.01 l -13.306337,0 c -2.9745857,-0.1547 -5.5674285,-2.0321 -6.6209858,-4.7854 -1.0547204,-2.7563 -0.3695562,-5.8593 1.7553042,-7.9279 2.0710638,-2.0159 5.2125776,-2.2468 8.0579986,-1.1211 l 0.01172,0 c 0.02754,0.011 0.05555,0.021 0.08396,0.029 0.02321,0.01 0.04666,0.013 0.07029,0.018 0.0412,0.01 0.08294,0.016 0.12496,0.02 0.02992,0 0.05989,0 0.08981,0 0.06622,0 0.132278,-0.01 0.197204,-0.02 0.03295,-0.01 0.06553,-0.015 0.09763,-0.025 0.03177,-0.01 0.06305,-0.021 0.09372,-0.033 0.03063,-0.013 0.06061,-0.027 0.08981,-0.043 0.0295,-0.016 0.05818,-0.034 0.08591,-0.053 0.04141,-0.029 0.08058,-0.061 0.117149,-0.096 l 0.002,0 c 0.0113,-0.01 0.02236,-0.021 0.03319,-0.031 l 0.113246,-0.1036 c 0.07524,-0.071 0.139119,-0.1522 0.189392,-0.2422 1.933401,-3.4482 5.622143,-5.7183 9.249027,-5.586 z"/></g></svg>