<svg width='200' height='200' fill="#000000" xmlns:dc="http://purl.org/dc/elements/1.1/" xmlns:cc="http://creativecommons.org/ns#" xmlns:rdf="http://www.w3.org/1999/02/22-rdf-syntax-ns#" xmlns:svg="http://www.w3.org/2000/svg" xmlns="http://www.w3.org/2000/svg" xmlns:sodipodi="http://sodipodi.sourceforge.net/DTD/sodipodi-0.dtd" xmlns:inkscape="http://www.inkscape.org/namespaces/inkscape" viewBox="0 0 48 48.000001" version="1.1" x="0px" y="0px"><g transform="translate(0,-1004.3622)"><path style="color:#000000;font-style:normal;font-variant:normal;font-weight:normal;font-stretch:normal;font-size:medium;line-height:normal;font-family:sans-serif;text-indent:0;text-align:start;text-decoration:none;text-decoration-line:none;text-decoration-style:solid;text-decoration-color:#000000;letter-spacing:normal;word-spacing:normal;text-transform:none;direction:ltr;block-progression:tb;writing-mode:lr-tb;baseline-shift:baseline;text-anchor:start;white-space:normal;clip-rule:nonzero;display:inline;overflow:visible;visibility:visible;opacity:1;isolation:auto;mix-blend-mode:normal;color-interpolation:sRGB;color-interpolation-filters:linearRGB;solid-color:#000000;solid-opacity:1;fill:#000000;fill-opacity:1;fill-rule:nonzero;stroke:none;stroke-width:2;stroke-linecap:round;stroke-linejoin:round;stroke-miterlimit:4;stroke-dasharray:none;stroke-dashoffset:0;stroke-opacity:1;color-rendering:auto;image-rendering:auto;shape-rendering:auto;text-rendering:auto;enable-background:accumulate" d="m 15.222656,1025.3672 c -1.155036,0.043 -2.317478,0.2627 -3.453125,0.6758 a 1.0001,1.0001 0 0 0 -0.002,0 c -5.9859787,2.1783 -9.5916005,8.4473 -8.6074218,14.8828 0.9578499,6.2629 6.0405275,10.937 12.1640628,11.3398 a 1.0001,1.0001 0 0 0 0.425781,0.096 l 15.171875,0 a 1.0001,1.0001 0 0 0 0.05078,0 c 4.185542,-0.2141 7.855688,-2.8907 9.341797,-6.8125 1.486148,-3.9217 0.513323,-8.3596 -2.476562,-11.2988 -2.853584,-2.8047 -6.979699,-3.1429 -10.626953,-1.9199 -2.548133,-4.1868 -6.981588,-6.9695 -11.677735,-6.9239 a 1.0001,1.0001 0 0 0 -0.310547,-0.039 z m 0.06445,2.0019 a 1.0001,1.0001 0 0 0 0.0098,0 c 4.131016,-0.1521 8.320138,2.4512 10.519531,6.4121 a 1.0001,1.0001 0 0 0 0.1875,0.2422 l 0.164063,0.1543 0.002,0 a 1.0001,1.0001 0 0 0 0.07422,0.064 1.0001,1.0001 0 0 0 0.002,0 1.0001,1.0001 0 0 0 0.08008,0.055 1.0001,1.0001 0 0 0 0.002,0 1.0001,1.0001 0 0 0 0.08594,0.047 1.0001,1.0001 0 0 0 0.002,0 1.0001,1.0001 0 0 0 0.08789,0.037 1.0001,1.0001 0 0 0 0.03711,0.012 1.0001,1.0001 0 0 0 0.05859,0.02 1.0001,1.0001 0 0 0 0.0039,0 1.0001,1.0001 0 0 0 0.09375,0.02 1.0001,1.0001 0 0 0 0.08008,0.01 1.0001,1.0001 0 0 0 0.01953,0 1.0001,1.0001 0 0 0 0.05859,0 1.0001,1.0001 0 0 0 0.296875,-0.045 1.0001,1.0001 0 0 0 0.07617,-0.027 c 0.0014,-6e-4 0.0026,-0 0.0039,-0 a 1.0001,1.0001 0 0 0 0.01367,-0 c 3.234663,-1.2906 6.816715,-1.0294 9.189453,1.3027 2.427797,2.3867 3.214759,5.9772 2.007812,9.1621 -1.205766,3.182 -4.169711,5.3439 -7.5625,5.5215 l -14.996093,0 a 1.0001,1.0001 0 0 0 -0.09766,-0.01 c -5.332487,-0.1775 -9.8078377,-4.2342 -10.6484371,-9.7305 -0.8446773,-5.5233 2.2458767,-10.8566 7.3144531,-12.7011 0.933866,-0.3397 1.884385,-0.5168 2.833984,-0.5528 z"/><path style="color:#000000;font-style:normal;font-variant:normal;font-weight:normal;font-stretch:normal;font-size:medium;line-height:normal;font-family:sans-serif;text-indent:0;text-align:start;text-decoration:none;text-decoration-line:none;text-decoration-style:solid;text-decoration-color:#000000;letter-spacing:normal;word-spacing:normal;text-transform:none;direction:ltr;block-progression:tb;writing-mode:lr-tb;baseline-shift:baseline;text-anchor:start;white-space:normal;clip-rule:nonzero;display:inline;overflow:visible;visibility:visible;opacity:1;isolation:auto;mix-blend-mode:normal;color-interpolation:sRGB;color-interpolation-filters:linearRGB;solid-color:#000000;solid-opacity:1;fill:#000000;fill-opacity:1;fill-rule:nonzero;stroke:none;stroke-width:3.28838873;stroke-linecap:round;stroke-linejoin:round;stroke-miterlimit:4;stroke-dasharray:none;stroke-dashoffset:0;stroke-opacity:1;color-rendering:auto;image-rendering:auto;shape-rendering:auto;text-rendering:auto;enable-background:accumulate" d="m 21.854642,1012.3736 a 0.98335712,1.0188899 0 0 1 1.132343,0.9975 l -0.0092,1.9054 1.751347,-0.5813 a 0.98335712,1.0188899 0 0 1 0.598682,1.9409 l -1.750183,0.5812 1.073026,1.5457 a 0.98335712,1.0188899 0 0 1 -1.596117,1.1896 l -1.073027,-1.5457 -1.087426,1.536 a 0.98369416,1.0192391 0 1 1 -1.586271,-1.2058 l 1.087426,-1.5359 -1.745221,-0.5964 a 0.98335712,1.0188899 0 0 1 0.615855,-1.9345 l 1.746374,0.596 0.0083,-1.9041 a 0.98335712,1.0188899 0 0 1 0.834173,-0.9886 z"/><path style="color:#000000;font-style:normal;font-variant:normal;font-weight:normal;font-stretch:normal;font-size:medium;line-height:normal;font-family:sans-serif;text-indent:0;text-align:start;text-decoration:none;text-decoration-line:none;text-decoration-style:solid;text-decoration-color:#000000;letter-spacing:normal;word-spacing:normal;text-transform:none;direction:ltr;block-progression:tb;writing-mode:lr-tb;baseline-shift:baseline;text-anchor:start;white-space:normal;clip-rule:nonzero;display:inline;overflow:visible;visibility:visible;opacity:1;isolation:auto;mix-blend-mode:normal;color-interpolation:sRGB;color-interpolation-filters:linearRGB;solid-color:#000000;solid-opacity:1;fill:#000000;fill-opacity:1;fill-rule:evenodd;stroke:none;stroke-width:2;stroke-linecap:round;stroke-linejoin:round;stroke-miterlimit:4;stroke-dasharray:none;stroke-dashoffset:0;stroke-opacity:1;color-rendering:auto;image-rendering:auto;shape-rendering:auto;text-rendering:auto;enable-background:accumulate" d="m 31.984359,1004.3624 a 0.99995738,0.99995738 0 0 0 -0.984235,1.0156 l 0,5.9698 a 0.99995738,0.99995738 0 1 0 1.999715,0 l 0,-5.9698 a 0.99995738,0.99995738 0 0 0 -1.01548,-1.0156 z"/><path style="color:#000000;font-style:normal;font-variant:normal;font-weight:normal;font-stretch:normal;font-size:medium;line-height:normal;font-family:sans-serif;text-indent:0;text-align:start;text-decoration:none;text-decoration-line:none;text-decoration-style:solid;text-decoration-color:#000000;letter-spacing:normal;word-spacing:normal;text-transform:none;direction:ltr;block-progression:tb;writing-mode:lr-tb;baseline-shift:baseline;text-anchor:start;white-space:normal;clip-rule:nonzero;display:inline;overflow:visible;visibility:visible;opacity:1;isolation:auto;mix-blend-mode:normal;color-interpolation:sRGB;color-interpolation-filters:linearRGB;solid-color:#000000;solid-opacity:1;fill:#000000;fill-opacity:1;fill-rule:evenodd;stroke:none;stroke-width:2;stroke-linecap:round;stroke-linejoin:round;stroke-miterlimit:4;stroke-dasharray:none;stroke-dashoffset:0;stroke-opacity:1;color-rendering:auto;image-rendering:auto;shape-rendering:auto;text-rendering:auto;enable-background:accumulate" d="m 29.014481,1007.3624 a 0.99982894,0.99995738 0 1 0 0,1.9997 l 5.971038,0 a 0.99982894,0.99995738 0 1 0 0,-1.9997 l -5.971038,0 z"/><path d="m 11.854642,1004.3736 a 0.98335712,1.0188899 0 0 1 1.132343,0.9975 l -0.0092,1.9054 1.751347,-0.5813 a 0.98335712,1.0188899 0 0 1 0.598682,1.9409 l -1.750183,0.5812 1.073026,1.5457 a 0.98335712,1.0188899 0 0 1 -1.596117,1.1896 l -1.073027,-1.5457 -1.087426,1.536 a 0.98369416,1.0192391 0 1 1 -1.5862706,-1.2058 l 1.0874256,-1.5359 -1.7452206,-0.5964 a 0.98335712,1.0188899 0 0 1 0.615855,-1.9345 l 1.7463736,0.596 0.0083,-1.9041 a 0.98335712,1.0188899 0 0 1 0.834173,-0.9886 z" style="color:#000000;font-style:normal;font-variant:normal;font-weight:normal;font-stretch:normal;font-size:medium;line-height:normal;font-family:sans-serif;text-indent:0;text-align:start;text-decoration:none;text-decoration-line:none;text-decoration-style:solid;text-decoration-color:#000000;letter-spacing:normal;word-spacing:normal;text-transform:none;direction:ltr;block-progression:tb;writing-mode:lr-tb;baseline-shift:baseline;text-anchor:start;white-space:normal;clip-rule:nonzero;display:inline;overflow:visible;visibility:visible;opacity:1;isolation:auto;mix-blend-mode:normal;color-interpolation:sRGB;color-interpolation-filters:linearRGB;solid-color:#000000;solid-opacity:1;fill:#000000;fill-opacity:1;fill-rule:nonzero;stroke:none;stroke-width:3.28838873;stroke-linecap:round;stroke-linejoin:round;stroke-miterlimit:4;stroke-dasharray:none;stroke-dashoffset:0;stroke-opacity:1;color-rendering:auto;image-rendering:auto;shape-rendering:auto;text-rendering:auto;enable-background:accumulate"/><path d="m 41.854642,1012.3736 a 0.98335712,1.0188899 0 0 1 1.132343,0.9975 l -0.0092,1.9054 1.751347,-0.5813 a 0.98335712,1.0188899 0 0 1 0.598682,1.9409 l -1.750183,0.5812 1.073026,1.5457 a 0.98335712,1.0188899 0 0 1 -1.596117,1.1896 l -1.073027,-1.5457 -1.087426,1.536 a 0.98369416,1.0192391 0 1 1 -1.586271,-1.2058 l 1.087426,-1.5359 -1.745221,-0.5964 a 0.98335712,1.0188899 0 0 1 0.615855,-1.9345 l 1.746374,0.596 0.0083,-1.9041 a 0.98335712,1.0188899 0 0 1 0.834173,-0.9886 z" style="color:#000000;font-style:normal;font-variant:normal;font-weight:normal;font-stretch:normal;font-size:medium;line-height:normal;font-family:sans-serif;text-indent:0;text-align:start;text-decoration:none;text-decoration-line:none;text-decoration-style:solid;text-decoration-color:#000000;letter-spacing:normal;word-spacing:normal;text-transform:none;direction:ltr;block-progression:tb;writing-mode:lr-tb;baseline-shift:baseline;text-anchor:start;white-space:normal;clip-rule:nonzero;display:inline;overflow:visible;visibility:visible;opacity:1;isolation:auto;mix-blend-mode:normal;color-interpolation:sRGB;color-interpolation-filters:linearRGB;solid-color:#000000;solid-opacity:1;fill:#000000;fill-opacity:1;fill-rule:nonzero;stroke:none;stroke-width:3.28838873;stroke-linecap:round;stroke-linejoin:round;stroke-miterlimit:4;stroke-dasharray:none;stroke-dashoffset:0;stroke-opacity:1;color-rendering:auto;image-rendering:auto;shape-rendering:auto;text-rendering:auto;enable-background:accumulate"/><path d="m 31.984359,1020.3627 a 0.99995738,0.99995738 0 0 0 -0.984235,1.0156 l 0,5.9698 a 0.99995738,0.99995738 0 1 0 1.999715,0 l 0,-5.9698 a 0.99995738,0.99995738 0 0 0 -1.01548,-1.0156 z" style="color:#000000;font-style:normal;font-variant:normal;font-weight:normal;font-stretch:normal;font-size:medium;line-height:normal;font-family:sans-serif;text-indent:0;text-align:start;text-decoration:none;text-decoration-line:none;text-decoration-style:solid;text-decoration-color:#000000;letter-spacing:normal;word-spacing:normal;text-transform:none;direction:ltr;block-progression:tb;writing-mode:lr-tb;baseline-shift:baseline;text-anchor:start;white-space:normal;clip-rule:nonzero;display:inline;overflow:visible;visibility:visible;opacity:1;isolation:auto;mix-blend-mode:normal;color-interpolation:sRGB;color-interpolation-filters:linearRGB;solid-color:#000000;solid-opacity:1;fill:#000000;fill-opacity:1;fill-rule:evenodd;stroke:none;stroke-width:2;stroke-linecap:round;stroke-linejoin:round;stroke-miterlimit:4;stroke-dasharray:none;stroke-dashoffset:0;stroke-opacity:1;color-rendering:auto;image-rendering:auto;shape-rendering:auto;text-rendering:auto;enable-background:accumulate"/><path d="m 29.014481,1023.3627 a 0.99982894,0.99995738 0 1 0 0,1.9997 l 5.971038,0 a 0.99982894,0.99995738 0 1 0 0,-1.9997 l -5.971038,0 z" style="color:#000000;font-style:normal;font-variant:normal;font-weight:normal;font-stretch:normal;font-size:medium;line-height:normal;font-family:sans-serif;text-indent:0;text-align:start;text-decoration:none;text-decoration-line:none;text-decoration-style:solid;text-decoration-color:#000000;letter-spacing:normal;word-spacing:normal;text-transform:none;direction:ltr;block-progression:tb;writing-mode:lr-tb;baseline-shift:baseline;text-anchor:start;white-space:normal;clip-rule:nonzero;display:inline;overflow:visible;visibility:visible;opacity:1;isolation:auto;mix-blend-mode:normal;color-interpolation:sRGB;color-interpolation-filters:linearRGB;solid-color:#000000;solid-opacity:1;fill:#000000;fill-opacity:1;fill-rule:evenodd;stroke:none;stroke-width:2;stroke-linecap:round;stroke-linejoin:round;stroke-miterlimit:4;stroke-dasharray:none;stroke-dashoffset:0;stroke-opacity:1;color-rendering:auto;image-rendering:auto;shape-rendering:auto;text-rendering:auto;enable-background:accumulate"/><path style="color:#000000;font-style:normal;font-variant:normal;font-weight:normal;font-stretch:normal;font-size:medium;line-height:normal;font-family:sans-serif;text-indent:0;text-align:start;text-decoration:none;text-decoration-line:none;text-decoration-style:solid;text-decoration-color:#000000;letter-spacing:normal;word-spacing:normal;text-transform:none;direction:ltr;block-progression:tb;writing-mode:lr-tb;baseline-shift:baseline;text-anchor:start;white-space:normal;clip-rule:nonzero;display:inline;overflow:visible;visibility:visible;opacity:1;isolation:auto;mix-blend-mode:normal;color-interpolation:sRGB;color-interpolation-filters:linearRGB;solid-color:#000000;solid-opacity:1;fill:#000000;fill-opacity:1;fill-rule:evenodd;stroke:none;stroke-width:2;stroke-linecap:round;stroke-linejoin:round;stroke-miterlimit:4;stroke-dasharray:none;stroke-dashoffset:0;stroke-opacity:1;color-rendering:auto;image-rendering:auto;shape-rendering:auto;text-rendering:auto;enable-background:accumulate" d="m 5.984359,1016.3627 a 0.99995738,0.99995738 0 0 0 -0.984235,1.0156 l 0,5.9698 a 0.99995738,0.99995738 0 1 0 1.999715,0 l 0,-5.9698 a 0.99995738,0.99995738 0 0 0 -1.01548,-1.0156 z"/><path style="color:#000000;font-style:normal;font-variant:normal;font-weight:normal;font-stretch:normal;font-size:medium;line-height:normal;font-family:sans-serif;text-indent:0;text-align:start;text-decoration:none;text-decoration-line:none;text-decoration-style:solid;text-decoration-color:#000000;letter-spacing:normal;word-spacing:normal;text-transform:none;direction:ltr;block-progression:tb;writing-mode:lr-tb;baseline-shift:baseline;text-anchor:start;white-space:normal;clip-rule:nonzero;display:inline;overflow:visible;visibility:visible;opacity:1;isolation:auto;mix-blend-mode:normal;color-interpolation:sRGB;color-interpolation-filters:linearRGB;solid-color:#000000;solid-opacity:1;fill:#000000;fill-opacity:1;fill-rule:evenodd;stroke:none;stroke-width:2;stroke-linecap:round;stroke-linejoin:round;stroke-miterlimit:4;stroke-dasharray:none;stroke-dashoffset:0;stroke-opacity:1;color-rendering:auto;image-rendering:auto;shape-rendering:auto;text-rendering:auto;enable-background:accumulate" d="m 3.014481,1019.3627 a 0.99982894,0.99995738 0 1 0 0,1.9997 l 5.971038,0 a 0.99982894,0.99995738 0 1 0 0,-1.9997 l -5.971038,0 z"/></g></svg>