<svg width='200' height='200' fill="#000000" xmlns:dc="http://purl.org/dc/elements/1.1/" xmlns:cc="http://creativecommons.org/ns#" xmlns:rdf="http://www.w3.org/1999/02/22-rdf-syntax-ns#" xmlns:svg="http://www.w3.org/2000/svg" xmlns="http://www.w3.org/2000/svg" xmlns:sodipodi="http://sodipodi.sourceforge.net/DTD/sodipodi-0.dtd" xmlns:inkscape="http://www.inkscape.org/namespaces/inkscape" viewBox="0 0 48 48.000001" version="1.1" x="0px" y="0px"><g transform="translate(0,-1004.3622)"><path style="color:#000000;font-style:normal;font-variant:normal;font-weight:normal;font-stretch:normal;font-size:medium;line-height:normal;font-family:sans-serif;text-indent:0;text-align:start;text-decoration:none;text-decoration-line:none;text-decoration-style:solid;text-decoration-color:#000000;letter-spacing:normal;word-spacing:normal;text-transform:none;direction:ltr;block-progression:tb;writing-mode:lr-tb;baseline-shift:baseline;text-anchor:start;white-space:normal;clip-rule:nonzero;display:inline;overflow:visible;visibility:visible;opacity:1;isolation:auto;mix-blend-mode:normal;color-interpolation:sRGB;color-interpolation-filters:linearRGB;solid-color:#000000;solid-opacity:1;fill:#000000;fill-opacity:1;fill-rule:nonzero;stroke:none;stroke-width:2;stroke-linecap:round;stroke-linejoin:round;stroke-miterlimit:4;stroke-dasharray:none;stroke-dashoffset:0;stroke-opacity:1;color-rendering:auto;image-rendering:auto;shape-rendering:auto;text-rendering:auto;enable-background:accumulate" d="m 30.467616,1005.3628 c -4.696147,-0.046 -9.129602,2.7416 -11.677735,6.9354 -3.647254,-1.2251 -7.773368,-0.8863 -10.6269525,1.923 -2.9898846,2.9441 -3.9627107,7.3894 -2.4765625,11.3177 1.4861084,3.9283 5.156255,6.6093 9.341797,6.8238 5.204671,-0.03 10.572076,0.015 15.251945,-0.01 6.309342,-0.2105 11.579103,-5.0299 12.558594,-11.4448 0.984178,-6.4463 -2.61949,-12.7257 -8.605469,-14.9076 l -0.002,0 c -1.400043,-0.5163 -2.475868,-0.6421 -3.763617,-0.6375 z m 0.236327,1.9661 0.0098,0 c 0.949599,0.036 1.900118,0.2134 2.833984,0.5537 5.068577,1.8476 8.15913,7.1898 7.314453,12.7223 -0.84006,5.5019 -5.3107,9.5621 -10.638672,9.7448 -4.992774,0.032 -10.067975,0 -15.103515,0.01 -3.392789,-0.1779 -6.3567339,-2.3434 -7.5625003,-5.5307 -1.2069464,-3.1902 -0.4199843,-6.7867 2.0078125,-9.1773 2.3770318,-2.3403 5.9677788,-2.5998 9.2070308,-1.2991 0.361917,0.1453 0.775115,0.067 1.058594,-0.2015 0.05786,-0.055 0.112751,-0.1065 0.164063,-0.1546 0.07542,-0.071 0.139338,-0.1537 0.189453,-0.2446 2.199393,-3.9674 6.388515,-6.5751 10.519531,-6.4227 z"/><path style="color:#000000;font-style:normal;font-variant:normal;font-weight:normal;font-stretch:normal;font-size:medium;line-height:normal;font-family:sans-serif;text-indent:0;text-align:start;text-decoration:none;text-decoration-line:none;text-decoration-style:solid;text-decoration-color:#000000;letter-spacing:normal;word-spacing:normal;text-transform:none;direction:ltr;block-progression:tb;writing-mode:lr-tb;baseline-shift:baseline;text-anchor:start;white-space:normal;clip-rule:nonzero;display:inline;overflow:visible;visibility:visible;opacity:1;isolation:auto;mix-blend-mode:normal;color-interpolation:sRGB;color-interpolation-filters:linearRGB;solid-color:#000000;solid-opacity:1;fill:#000000;fill-opacity:1;fill-rule:nonzero;stroke:none;stroke-width:2;stroke-linecap:round;stroke-linejoin:round;stroke-miterlimit:4;stroke-dasharray:none;stroke-dashoffset:0;stroke-opacity:1;color-rendering:auto;image-rendering:auto;shape-rendering:auto;text-rendering:auto;enable-background:accumulate" d="m 14.966797,1035.3639 a 1.0001,1.0001204 0 0 0 -0.789063,0.4297 c 0,0 -0.519709,0.7503 -1.042968,1.6523 -0.26163,0.451 -0.52682,0.9425 -0.738282,1.4238 C 12.185023,1039.3512 12,1039.7841 12,1040.362 c 0,1.6451 1.355009,3 3,3 1.644991,0 3,-1.3549 3,-3 0,-0.5779 -0.185023,-1.0108 -0.396484,-1.4923 -0.211462,-0.4813 -0.476652,-0.9728 -0.738282,-1.4238 -0.523259,-0.902 -1.042968,-1.6523 -1.042968,-1.6523 a 1.0001,1.0001204 0 0 0 -0.855469,-0.4297 z M 15,1038.235 c 0.06613,0.1095 0.06744,0.099 0.134766,0.2148 0.23837,0.4109 0.47318,0.8525 0.636718,1.2247 0.163539,0.3723 0.228516,0.7131 0.228516,0.6875 0,0.5642 -0.435853,1 -1,1 -0.564147,0 -1,-0.4358 -1,-1 0,0.026 0.06498,-0.3152 0.228516,-0.6875 0.163538,-0.3722 0.398348,-0.8138 0.636718,-1.2247 0.06733,-0.116 0.06863,-0.1053 0.134766,-0.2148 z"/><path style="color:#000000;font-style:normal;font-variant:normal;font-weight:normal;font-stretch:normal;font-size:medium;line-height:normal;font-family:sans-serif;text-indent:0;text-align:start;text-decoration:none;text-decoration-line:none;text-decoration-style:solid;text-decoration-color:#000000;letter-spacing:normal;word-spacing:normal;text-transform:none;direction:ltr;block-progression:tb;writing-mode:lr-tb;baseline-shift:baseline;text-anchor:start;white-space:normal;clip-rule:nonzero;display:inline;overflow:visible;visibility:visible;opacity:1;isolation:auto;mix-blend-mode:normal;color-interpolation:sRGB;color-interpolation-filters:linearRGB;solid-color:#000000;solid-opacity:1;fill:#000000;fill-opacity:1;fill-rule:nonzero;stroke:none;stroke-width:2;stroke-linecap:round;stroke-linejoin:round;stroke-miterlimit:4;stroke-dasharray:none;stroke-dashoffset:0;stroke-opacity:1;color-rendering:auto;image-rendering:auto;shape-rendering:auto;text-rendering:auto;enable-background:accumulate" d="m 32.966797,1035.3639 a 1.0001,1.0001204 0 0 0 -0.789063,0.4297 c 0,0 -0.519709,0.7503 -1.042968,1.6523 -0.26163,0.451 -0.52682,0.9425 -0.738282,1.4238 C 30.185023,1039.3512 30,1039.7841 30,1040.362 c 0,1.6451 1.355009,3 3,3 1.644991,0 3,-1.3549 3,-3 0,-0.5779 -0.185023,-1.0108 -0.396484,-1.4923 -0.211462,-0.4813 -0.476652,-0.9728 -0.738282,-1.4238 -0.523259,-0.902 -1.042968,-1.6523 -1.042968,-1.6523 a 1.0001,1.0001204 0 0 0 -0.855469,-0.4297 z M 33,1038.235 c 0.06613,0.1095 0.06744,0.099 0.134766,0.2148 0.23837,0.4109 0.47318,0.8525 0.636718,1.2247 0.163539,0.3723 0.228516,0.7131 0.228516,0.6875 0,0.5642 -0.435853,1 -1,1 -0.564147,0 -1,-0.4358 -1,-1 0,0.026 0.06498,-0.3152 0.228516,-0.6875 0.163538,-0.3722 0.398348,-0.8138 0.636718,-1.2247 0.06733,-0.116 0.06863,-0.1053 0.134766,-0.2148 z"/><path style="color:#000000;font-style:normal;font-variant:normal;font-weight:normal;font-stretch:normal;font-size:medium;line-height:normal;font-family:sans-serif;text-indent:0;text-align:start;text-decoration:none;text-decoration-line:none;text-decoration-style:solid;text-decoration-color:#000000;letter-spacing:normal;word-spacing:normal;text-transform:none;direction:ltr;block-progression:tb;writing-mode:lr-tb;baseline-shift:baseline;text-anchor:start;white-space:normal;clip-rule:nonzero;display:inline;overflow:visible;visibility:visible;opacity:1;isolation:auto;mix-blend-mode:normal;color-interpolation:sRGB;color-interpolation-filters:linearRGB;solid-color:#000000;solid-opacity:1;fill:#000000;fill-opacity:1;fill-rule:nonzero;stroke:none;stroke-width:2;stroke-linecap:round;stroke-linejoin:round;stroke-miterlimit:4;stroke-dasharray:none;stroke-dashoffset:0;stroke-opacity:1;color-rendering:auto;image-rendering:auto;shape-rendering:auto;text-rendering:auto;enable-background:accumulate" d="m 23.966797,1043.364 a 1.0001,1.0001204 0 0 0 -0.789063,0.4297 c 0,0 -0.519709,0.7504 -1.042968,1.6524 -0.26163,0.451 -0.52682,0.9425 -0.738282,1.4238 C 21.185023,1047.3513 21,1047.7842 21,1048.3621 c 0,1.6452 1.355009,3.0001 3,3.0001 1.644991,0 3,-1.3549 3,-3.0001 0,-0.5779 -0.185023,-1.0108 -0.396484,-1.4922 -0.211462,-0.4813 -0.476652,-0.9728 -0.738282,-1.4238 -0.523259,-0.902 -1.042968,-1.6524 -1.042968,-1.6524 a 1.0001,1.0001204 0 0 0 -0.855469,-0.4297 z M 24,1046.2352 c 0.06613,0.1095 0.06744,0.099 0.134766,0.2148 0.23837,0.4109 0.47318,0.8524 0.636718,1.2246 0.163539,0.3723 0.228516,0.7131 0.228516,0.6875 0,0.5643 -0.435853,1.0001 -1,1.0001 -0.564147,0 -1,-0.4358 -1,-1.0001 0,0.026 0.06498,-0.3152 0.228516,-0.6875 0.163538,-0.3722 0.398348,-0.8137 0.636718,-1.2246 0.06733,-0.116 0.06863,-0.1053 0.134766,-0.2148 z"/></g></svg>