<svg width='200' height='200' fill="#000000" xmlns:dc="http://purl.org/dc/elements/1.1/" xmlns:cc="http://creativecommons.org/ns#" xmlns:rdf="http://www.w3.org/1999/02/22-rdf-syntax-ns#" xmlns:svg="http://www.w3.org/2000/svg" xmlns="http://www.w3.org/2000/svg" xmlns:sodipodi="http://sodipodi.sourceforge.net/DTD/sodipodi-0.dtd" xmlns:inkscape="http://www.inkscape.org/namespaces/inkscape" viewBox="0 0 48 48.000001" version="1.1" x="0px" y="0px"><g transform="translate(0,-1004.3622)"><path style="color:#000000;font-style:normal;font-variant:normal;font-weight:normal;font-stretch:normal;font-size:medium;line-height:normal;font-family:sans-serif;text-indent:0;text-align:start;text-decoration:none;text-decoration-line:none;text-decoration-style:solid;text-decoration-color:#000000;letter-spacing:normal;word-spacing:normal;text-transform:none;direction:ltr;block-progression:tb;writing-mode:lr-tb;baseline-shift:baseline;text-anchor:start;white-space:normal;clip-rule:nonzero;display:inline;overflow:visible;visibility:visible;opacity:1;isolation:auto;mix-blend-mode:normal;color-interpolation:sRGB;color-interpolation-filters:linearRGB;solid-color:#000000;solid-opacity:1;fill:#000000;fill-opacity:1;fill-rule:nonzero;stroke:none;stroke-width:1.99999988;stroke-linecap:round;stroke-linejoin:round;stroke-miterlimit:4;stroke-dasharray:none;stroke-dashoffset:0;stroke-opacity:1;color-rendering:auto;image-rendering:auto;shape-rendering:auto;text-rendering:auto;enable-background:accumulate" d="m 20.40472,1004.365 a 1.000137,1.000137 0 0 0 -0.234383,0.037 C 13.56574,1006.3035 9.0045942,1012.2795 9,1019.0706 c 3.6e-6,8.4429 6.970499,15.2916 15.524014,15.2916 a 1.000137,1.000137 0 0 0 0.002,0 c 6.336612,0 12.043915,-3.8075 14.400925,-9.6137 a 1.000137,1.000137 0 0 0 -1.205123,-1.3359 c -1.233689,0.3578 -2.512467,0.5404 -3.798969,0.543 -7.489834,0 -13.523936,-5.949 -13.523939,-13.2935 0.0038,-1.6865 0.333118,-3.3563 0.972692,-4.9221 a 1.000137,1.000137 0 0 0 -0.966833,-1.3769 z m -1.550838,2.8399 c -0.270826,1.1345 -0.45261,2.2866 -0.455095,3.4572 3e-6,8.4429 6.970503,15.2936 15.524013,15.2936 a 1.000137,1.000137 0 0 0 0.002,0 c 0.733837,0 1.443557,-0.2075 2.16805,-0.3106 -2.388586,4.0551 -6.695144,6.7132 -11.568789,6.717 -7.489838,0 -13.523937,-5.947 -13.52394,-13.2915 0.0035,-5.2007 3.170987,-9.7019 7.853808,-11.8676 z"/><path style="color:#000000;font-style:normal;font-variant:normal;font-weight:normal;font-stretch:normal;font-size:medium;line-height:normal;font-family:sans-serif;text-indent:0;text-align:start;text-decoration:none;text-decoration-line:none;text-decoration-style:solid;text-decoration-color:#000000;letter-spacing:normal;word-spacing:normal;text-transform:none;direction:ltr;block-progression:tb;writing-mode:lr-tb;baseline-shift:baseline;text-anchor:start;white-space:normal;clip-rule:nonzero;display:inline;overflow:visible;visibility:visible;opacity:1;isolation:auto;mix-blend-mode:normal;color-interpolation:sRGB;color-interpolation-filters:linearRGB;solid-color:#000000;solid-opacity:1;fill:#000000;fill-opacity:1;fill-rule:nonzero;stroke:none;stroke-width:2;stroke-linecap:round;stroke-linejoin:round;stroke-miterlimit:4;stroke-dasharray:none;stroke-dashoffset:0;stroke-opacity:1;color-rendering:auto;image-rendering:auto;shape-rendering:auto;text-rendering:auto;enable-background:accumulate" d="m 14.966797,1036.3628 a 1.0001,1.0002795 0 0 0 -0.789063,0.4297 c 0,0 -0.519709,0.7505 -1.042968,1.6526 -0.26163,0.4511 -0.52682,0.9427 -0.738282,1.4241 C 12.185023,1040.3507 12,1040.7837 12,1041.3617 c 0,1.6454 1.355009,3.0005 3,3.0005 1.644991,0 3,-1.3551 3,-3.0005 0,-0.578 -0.185023,-1.011 -0.396484,-1.4925 -0.211462,-0.4814 -0.476652,-0.973 -0.738282,-1.4241 -0.523259,-0.9021 -1.042968,-1.6526 -1.042968,-1.6526 a 1.0001,1.0002795 0 0 0 -0.855469,-0.4297 z M 15,1039.2344 c 0.06613,0.1095 0.06744,0.099 0.134766,0.2148 0.23837,0.411 0.47318,0.8526 0.636718,1.2248 0.163539,0.3724 0.228516,0.7133 0.228516,0.6877 0,0.5643 -0.435853,1.0001 -1,1.0001 -0.564147,0 -1,-0.4358 -1,-1.0001 0,0.026 0.06498,-0.3153 0.228516,-0.6877 0.163538,-0.3722 0.398348,-0.8138 0.636718,-1.2248 0.06733,-0.116 0.06863,-0.1053 0.134766,-0.2148 z"/><path style="color:#000000;font-style:normal;font-variant:normal;font-weight:normal;font-stretch:normal;font-size:medium;line-height:normal;font-family:sans-serif;text-indent:0;text-align:start;text-decoration:none;text-decoration-line:none;text-decoration-style:solid;text-decoration-color:#000000;letter-spacing:normal;word-spacing:normal;text-transform:none;direction:ltr;block-progression:tb;writing-mode:lr-tb;baseline-shift:baseline;text-anchor:start;white-space:normal;clip-rule:nonzero;display:inline;overflow:visible;visibility:visible;opacity:1;isolation:auto;mix-blend-mode:normal;color-interpolation:sRGB;color-interpolation-filters:linearRGB;solid-color:#000000;solid-opacity:1;fill:#000000;fill-opacity:1;fill-rule:nonzero;stroke:none;stroke-width:2;stroke-linecap:round;stroke-linejoin:round;stroke-miterlimit:4;stroke-dasharray:none;stroke-dashoffset:0;stroke-opacity:1;color-rendering:auto;image-rendering:auto;shape-rendering:auto;text-rendering:auto;enable-background:accumulate" d="m 32.966797,1036.3628 a 1.0001,1.0002795 0 0 0 -0.789063,0.4297 c 0,0 -0.519709,0.7505 -1.042968,1.6526 -0.26163,0.4511 -0.52682,0.9427 -0.738282,1.4241 C 30.185023,1040.3507 30,1040.7837 30,1041.3617 c 0,1.6454 1.355009,3.0005 3,3.0005 1.644991,0 3,-1.3551 3,-3.0005 0,-0.578 -0.185023,-1.011 -0.396484,-1.4925 -0.211462,-0.4814 -0.476652,-0.973 -0.738282,-1.4241 -0.523259,-0.9021 -1.042968,-1.6526 -1.042968,-1.6526 a 1.0001,1.0002795 0 0 0 -0.855469,-0.4297 z M 33,1039.2344 c 0.06613,0.1095 0.06744,0.099 0.134766,0.2148 0.23837,0.411 0.47318,0.8526 0.636718,1.2248 0.163539,0.3724 0.228516,0.7133 0.228516,0.6877 0,0.5643 -0.435853,1.0001 -1,1.0001 -0.564147,0 -1,-0.4358 -1,-1.0001 0,0.026 0.06498,-0.3153 0.228516,-0.6877 0.163538,-0.3722 0.398348,-0.8138 0.636718,-1.2248 0.06733,-0.116 0.06863,-0.1053 0.134766,-0.2148 z"/><path style="color:#000000;font-style:normal;font-variant:normal;font-weight:normal;font-stretch:normal;font-size:medium;line-height:normal;font-family:sans-serif;text-indent:0;text-align:start;text-decoration:none;text-decoration-line:none;text-decoration-style:solid;text-decoration-color:#000000;letter-spacing:normal;word-spacing:normal;text-transform:none;direction:ltr;block-progression:tb;writing-mode:lr-tb;baseline-shift:baseline;text-anchor:start;white-space:normal;clip-rule:nonzero;display:inline;overflow:visible;visibility:visible;opacity:1;isolation:auto;mix-blend-mode:normal;color-interpolation:sRGB;color-interpolation-filters:linearRGB;solid-color:#000000;solid-opacity:1;fill:#000000;fill-opacity:1;fill-rule:nonzero;stroke:none;stroke-width:2;stroke-linecap:round;stroke-linejoin:round;stroke-miterlimit:4;stroke-dasharray:none;stroke-dashoffset:0;stroke-opacity:1;color-rendering:auto;image-rendering:auto;shape-rendering:auto;text-rendering:auto;enable-background:accumulate" d="m 23.966797,1044.3628 a 1.0001,1.0002795 0 0 0 -0.789063,0.4297 c 0,0 -0.519709,0.7505 -1.042968,1.6526 -0.26163,0.4511 -0.52682,0.9427 -0.738282,1.4241 C 21.185023,1048.3507 21,1048.7837 21,1049.3617 c 0,1.6454 1.355009,3.0005 3,3.0005 1.644991,0 3,-1.3551 3,-3.0005 0,-0.578 -0.185023,-1.011 -0.396484,-1.4925 -0.211462,-0.4814 -0.476652,-0.973 -0.738282,-1.4241 -0.523259,-0.9021 -1.042968,-1.6526 -1.042968,-1.6526 a 1.0001,1.0002795 0 0 0 -0.855469,-0.4297 z M 24,1047.2344 c 0.06613,0.1095 0.06744,0.099 0.134766,0.2148 0.23837,0.411 0.47318,0.8526 0.636718,1.2248 0.163539,0.3724 0.228516,0.7133 0.228516,0.6877 0,0.5643 -0.435853,1.0001 -1,1.0001 -0.564147,0 -1,-0.4358 -1,-1.0001 0,0.026 0.06498,-0.3153 0.228516,-0.6877 0.163538,-0.3722 0.398348,-0.8138 0.636718,-1.2248 0.06733,-0.116 0.06863,-0.1053 0.134766,-0.2148 z"/></g></svg>