<svg width='200' height='200' fill="#000000" xmlns:dc="http://purl.org/dc/elements/1.1/" xmlns:cc="http://creativecommons.org/ns#" xmlns:rdf="http://www.w3.org/1999/02/22-rdf-syntax-ns#" xmlns:svg="http://www.w3.org/2000/svg" xmlns="http://www.w3.org/2000/svg" xmlns:sodipodi="http://sodipodi.sourceforge.net/DTD/sodipodi-0.dtd" xmlns:inkscape="http://www.inkscape.org/namespaces/inkscape" viewBox="0 0 48 48.000001" version="1.1" x="0px" y="0px"><g transform="translate(0,-1004.3622)"><path style="color:#000000;font-style:normal;font-variant:normal;font-weight:normal;font-stretch:normal;font-size:medium;line-height:normal;font-family:sans-serif;text-indent:0;text-align:start;text-decoration:none;text-decoration-line:none;text-decoration-style:solid;text-decoration-color:#000000;letter-spacing:normal;word-spacing:normal;text-transform:none;direction:ltr;block-progression:tb;writing-mode:lr-tb;baseline-shift:baseline;text-anchor:start;white-space:normal;clip-rule:nonzero;display:inline;overflow:visible;visibility:visible;opacity:1;isolation:auto;mix-blend-mode:normal;color-interpolation:sRGB;color-interpolation-filters:linearRGB;solid-color:#000000;solid-opacity:1;fill:#000000;fill-opacity:1;fill-rule:nonzero;stroke:none;stroke-width:2;stroke-linecap:round;stroke-linejoin:round;stroke-miterlimit:4;stroke-dasharray:none;stroke-dashoffset:0;stroke-opacity:1;color-rendering:auto;image-rendering:auto;shape-rendering:auto;text-rendering:auto;enable-background:accumulate" d="m 32.616334,1023.3844 c -2.765686,0.2179 -5.306714,1.9448 -6.512831,4.6447 a 0.99967115,1.0001406 0 1 0 1.823437,0.8164 c 1.216101,-2.7222 4.143191,-4.0815 6.907193,-3.2423 2.764015,0.8392 4.526005,3.6481 4.109564,6.6195 -0.416408,2.9712 -2.863259,5.137 -5.741677,5.1388 a 0.99967115,1.0001406 0 1 0 0.002,2.0001 c 3.884749,0 7.170639,-2.9464 7.719344,-6.8616 0.548747,-3.9153 -1.784826,-7.6786 -5.507403,-8.809 -0.930639,-0.2826 -1.877684,-0.3793 -2.79958,-0.3066 z"/><path style="color:#000000;font-style:normal;font-variant:normal;font-weight:normal;font-stretch:normal;font-size:medium;line-height:normal;font-family:sans-serif;text-indent:0;text-align:start;text-decoration:none;text-decoration-line:none;text-decoration-style:solid;text-decoration-color:#000000;letter-spacing:normal;word-spacing:normal;text-transform:none;direction:ltr;block-progression:tb;writing-mode:lr-tb;baseline-shift:baseline;text-anchor:start;white-space:normal;clip-rule:nonzero;display:inline;overflow:visible;visibility:visible;opacity:1;isolation:auto;mix-blend-mode:normal;color-interpolation:sRGB;color-interpolation-filters:linearRGB;solid-color:#000000;solid-opacity:1;fill:#000000;fill-opacity:1;fill-rule:evenodd;stroke:none;stroke-width:2;stroke-linecap:round;stroke-linejoin:round;stroke-miterlimit:4;stroke-dasharray:none;stroke-dashoffset:0;stroke-opacity:1;color-rendering:auto;image-rendering:auto;shape-rendering:auto;text-rendering:auto;enable-background:accumulate" d="m 32.991173,1016.3606 a 0.99967115,1.0001406 0 0 0 -0.983953,1.0158 l 0,2.9708 a 0.99967115,1.0001406 0 1 0 1.999143,0 l 0,-2.9708 a 0.99967115,1.0001406 0 0 0 -1.01519,-1.0158 z"/><path style="color:#000000;font-style:normal;font-variant:normal;font-weight:normal;font-stretch:normal;font-size:medium;line-height:normal;font-family:sans-serif;text-indent:0;text-align:start;text-decoration:none;text-decoration-line:none;text-decoration-style:solid;text-decoration-color:#000000;letter-spacing:normal;word-spacing:normal;text-transform:none;direction:ltr;block-progression:tb;writing-mode:lr-tb;baseline-shift:baseline;text-anchor:start;white-space:normal;clip-rule:nonzero;display:inline;overflow:visible;visibility:visible;opacity:1;isolation:auto;mix-blend-mode:normal;color-interpolation:sRGB;color-interpolation-filters:linearRGB;solid-color:#000000;solid-opacity:1;fill:#000000;fill-opacity:1;fill-rule:evenodd;stroke:none;stroke-width:1.99999988;stroke-linecap:round;stroke-linejoin:round;stroke-miterlimit:4;stroke-dasharray:none;stroke-dashoffset:0;stroke-opacity:1;color-rendering:auto;image-rendering:auto;shape-rendering:auto;text-rendering:auto;enable-background:accumulate" d="m 42.973219,1020.3628 a 0.99967105,1.0001405 0 0 0 -0.687205,0.3027 l -1.97962,1.9786 a 0.99967105,1.0001405 0 1 0 1.413456,1.4141 l 1.979621,-1.9785 a 0.99967105,1.0001405 0 0 0 -0.726252,-1.7169 z"/><path style="color:#000000;font-style:normal;font-variant:normal;font-weight:normal;font-stretch:normal;font-size:medium;line-height:normal;font-family:sans-serif;text-indent:0;text-align:start;text-decoration:none;text-decoration-line:none;text-decoration-style:solid;text-decoration-color:#000000;letter-spacing:normal;word-spacing:normal;text-transform:none;direction:ltr;block-progression:tb;writing-mode:lr-tb;baseline-shift:baseline;text-anchor:start;white-space:normal;clip-rule:nonzero;display:inline;overflow:visible;visibility:visible;opacity:1;isolation:auto;mix-blend-mode:normal;color-interpolation:sRGB;color-interpolation-filters:linearRGB;solid-color:#000000;solid-opacity:1;fill:#000000;fill-opacity:1;fill-rule:evenodd;stroke:none;stroke-width:1.99999988;stroke-linecap:round;stroke-linejoin:round;stroke-miterlimit:4;stroke-dasharray:none;stroke-dashoffset:0;stroke-opacity:1;color-rendering:auto;image-rendering:auto;shape-rendering:auto;text-rendering:auto;enable-background:accumulate" d="m 41.003361,1038.3615 a 0.99967105,1.0001405 0 0 0 -0.696967,1.7189 l 1.97962,1.9786 a 0.99967105,1.0001405 0 1 0 1.413457,-1.4142 l -1.979621,-1.9786 a 0.99967105,1.0001405 0 0 0 -0.716489,-0.3047 z"/><path style="color:#000000;font-style:normal;font-variant:normal;font-weight:normal;font-stretch:normal;font-size:medium;line-height:normal;font-family:sans-serif;text-indent:0;text-align:start;text-decoration:none;text-decoration-line:none;text-decoration-style:solid;text-decoration-color:#000000;letter-spacing:normal;word-spacing:normal;text-transform:none;direction:ltr;block-progression:tb;writing-mode:lr-tb;baseline-shift:baseline;text-anchor:start;white-space:normal;clip-rule:nonzero;display:inline;overflow:visible;visibility:visible;opacity:1;isolation:auto;mix-blend-mode:normal;color-interpolation:sRGB;color-interpolation-filters:linearRGB;solid-color:#000000;solid-opacity:1;fill:#000000;fill-opacity:1;fill-rule:evenodd;stroke:none;stroke-width:1.99999988;stroke-linecap:round;stroke-linejoin:round;stroke-miterlimit:4;stroke-dasharray:none;stroke-dashoffset:0;stroke-opacity:1;color-rendering:auto;image-rendering:auto;shape-rendering:auto;text-rendering:auto;enable-background:accumulate" d="m 44.01574,1029.3611 a 0.99967105,1.0001405 0 1 0 0,2.0001 l 2.971382,0 a 0.99967105,1.0001405 0 1 0 0,-2.0001 l -2.971382,0 z"/><path style="color:#000000;font-style:normal;font-variant:normal;font-weight:normal;font-stretch:normal;font-size:medium;line-height:normal;font-family:sans-serif;text-indent:0;text-align:start;text-decoration:none;text-decoration-line:none;text-decoration-style:solid;text-decoration-color:#000000;letter-spacing:normal;word-spacing:normal;text-transform:none;direction:ltr;block-progression:tb;writing-mode:lr-tb;baseline-shift:baseline;text-anchor:start;white-space:normal;clip-rule:nonzero;display:inline;overflow:visible;visibility:visible;opacity:1;isolation:auto;mix-blend-mode:normal;color-interpolation:sRGB;color-interpolation-filters:linearRGB;solid-color:#000000;solid-opacity:1;fill:#000000;fill-opacity:1;fill-rule:evenodd;stroke:none;stroke-width:1.99999988;stroke-linecap:round;stroke-linejoin:round;stroke-miterlimit:4;stroke-dasharray:none;stroke-dashoffset:0;stroke-opacity:1;color-rendering:auto;image-rendering:auto;shape-rendering:auto;text-rendering:auto;enable-background:accumulate" d="m 23.011079,1020.3608 a 0.99967105,1.0001405 0 0 0 -0.696967,1.7189 l 1.97962,1.9785 a 0.99967105,1.0001405 0 1 0 1.413457,-1.4141 l -1.97962,-1.9786 a 0.99967105,1.0001405 0 0 0 -0.71649,-0.3047 z"/><path style="color:#000000;font-style:normal;font-variant:normal;font-weight:normal;font-stretch:normal;font-size:medium;line-height:normal;font-family:sans-serif;text-indent:0;text-align:start;text-decoration:none;text-decoration-line:none;text-decoration-style:solid;text-decoration-color:#000000;letter-spacing:normal;word-spacing:normal;text-transform:none;direction:ltr;block-progression:tb;writing-mode:lr-tb;baseline-shift:baseline;text-anchor:start;white-space:normal;clip-rule:nonzero;display:inline;overflow:visible;visibility:visible;opacity:1;isolation:auto;mix-blend-mode:normal;color-interpolation:sRGB;color-interpolation-filters:linearRGB;solid-color:#000000;solid-opacity:1;fill:#000000;fill-opacity:1;fill-rule:nonzero;stroke:none;stroke-width:2;stroke-linecap:round;stroke-linejoin:round;stroke-miterlimit:4;stroke-dasharray:none;stroke-dashoffset:0;stroke-opacity:1;color-rendering:auto;image-rendering:auto;shape-rendering:auto;text-rendering:auto;enable-background:accumulate" d="m 1.0654163,1005.3622 a 0.99967115,1.0001406 0 0 1 0.070282,0.01 c 5.5370404,0.5593 10.6265307,3.3065 14.1462747,7.6351 3.51974,4.3286 5.182953,9.8839 4.624969,15.444 a 0.99967115,1.0001406 0 1 1 -1.989381,-0.1993 c 0.505305,-5.0351 -1.001808,-10.065 -4.187657,-13.983 -3.185852,-3.9178 -7.7873551,-6.4006 -12.79529136,-6.9064 a 0.99977299,1.0002425 0 1 1 0.13080326,-1.9962 z"/><path style="color:#000000;font-style:normal;font-variant:normal;font-weight:normal;font-stretch:normal;font-size:medium;line-height:normal;font-family:sans-serif;text-indent:0;text-align:start;text-decoration:none;text-decoration-line:none;text-decoration-style:solid;text-decoration-color:#000000;letter-spacing:normal;word-spacing:normal;text-transform:none;direction:ltr;block-progression:tb;writing-mode:lr-tb;baseline-shift:baseline;text-anchor:start;white-space:normal;clip-rule:nonzero;display:inline;overflow:visible;visibility:visible;opacity:1;isolation:auto;mix-blend-mode:normal;color-interpolation:sRGB;color-interpolation-filters:linearRGB;solid-color:#000000;solid-opacity:1;fill:#000000;fill-opacity:1;fill-rule:nonzero;stroke:none;stroke-width:2;stroke-linecap:round;stroke-linejoin:round;stroke-miterlimit:4;stroke-dasharray:none;stroke-dashoffset:0;stroke-opacity:1;color-rendering:auto;image-rendering:auto;shape-rendering:auto;text-rendering:auto;enable-background:accumulate" d="m 23.03646,1027.365 a 0.99967115,1.0001406 0 0 0 -0.308462,0.039 c -4.157027,-0.026 -8.081142,2.2855 -10.376408,5.801 -3.2487768,-1.0166 -6.9034997,-0.733 -9.468594,1.6505 -2.6949606,2.5044 -3.5905842,6.3314 -2.24122608,9.6976 1.34931678,3.3662 4.65337988,5.6279 8.39483618,5.8088 a 0.99967115,1.0001406 0 0 0 0.046855,0 l 13.4824979,0 a 0.99967115,1.0001406 0 0 0 0.413884,-0.09 c 5.454771,-0.3548 10.017306,-4.2998 10.882051,-9.6449 0.89033,-5.5036 -2.383853,-10.8506 -7.736916,-12.692 -1.016553,-0.3497 -2.056525,-0.5343 -3.088518,-0.5703 z m -0.06833,2.002 a 0.99967115,1.0001406 0 0 0 0.01952,0 c 0.834515,0.031 1.668411,0.1774 2.487215,0.4591 4.469949,1.5375 7.14805,5.9388 6.413264,10.4808 -0.731233,4.52 -4.646268,7.8988 -9.357315,8.0472 a 0.99967115,1.0001406 0 0 0 -0.09957,0.01 l -13.3087432,0 c -2.992051,-0.1485 -5.581554,-1.952 -6.6241115,-4.5529 -1.0437212,-2.6037 -0.3738233,-5.5192 1.7453451,-7.4886 2.0671782,-1.9207 5.2436557,-2.1489 8.1000406,-1.0664 a 0.99967115,1.0001406 0 0 0 0.03124,0.01 0.99967115,1.0001406 0 0 0 0.02538,0.01 0.99967115,1.0001406 0 0 0 0.06052,0.016 0.99967115,1.0001406 0 0 0 0.07419,0.016 0.99967115,1.0001406 0 0 0 0.08395,0.01 0.99967115,1.0001406 0 0 0 0.0781,0 0.99967115,1.0001406 0 0 0 0.644255,-0.2344 0.99967115,1.0001406 0 0 0 0.02147,-0.02 l 0.148375,-0.1309 a 0.99967115,1.0001406 0 0 0 0.195228,-0.2402 c 1.922991,-3.274 5.615304,-5.4534 9.261652,-5.3265 z"/><path style="color:#000000;font-style:normal;font-variant:normal;font-weight:normal;font-stretch:normal;font-size:medium;line-height:normal;font-family:sans-serif;text-indent:0;text-align:start;text-decoration:none;text-decoration-line:none;text-decoration-style:solid;text-decoration-color:#000000;letter-spacing:normal;word-spacing:normal;text-transform:none;direction:ltr;block-progression:tb;writing-mode:lr-tb;baseline-shift:baseline;text-anchor:start;white-space:normal;clip-rule:nonzero;display:inline;overflow:visible;visibility:visible;opacity:1;isolation:auto;mix-blend-mode:normal;color-interpolation:sRGB;color-interpolation-filters:linearRGB;solid-color:#000000;solid-opacity:1;fill:#000000;fill-opacity:1;fill-rule:nonzero;stroke:none;stroke-width:2;stroke-linecap:round;stroke-linejoin:round;stroke-miterlimit:4;stroke-dasharray:none;stroke-dashoffset:0;stroke-opacity:1;color-rendering:auto;image-rendering:auto;shape-rendering:auto;text-rendering:auto;enable-background:accumulate" d="m 1.0341798,1013.3625 a 0.99967115,1.0001406 0 0 1 0.1678966,0.016 c 4.4220869,0.7562 8.1444063,3.7627 9.8434336,7.9417 1.699022,4.1791 1.141718,8.9465 -1.4778817,12.6118 a 0.99967115,1.0001406 0 1 1 -1.6262555,-1.1621 c 2.2206872,-3.1072 2.6948042,-7.1522 1.2533686,-10.6976 -1.4414402,-3.5456 -4.5893516,-6.0836 -8.32845842,-6.723 a 0.99967115,1.0001406 0 0 1 0.16789682,-1.9864 z"/><path style="color:#000000;font-style:normal;font-variant:normal;font-weight:normal;font-stretch:normal;font-size:medium;line-height:normal;font-family:sans-serif;text-indent:0;text-align:start;text-decoration:none;text-decoration-line:none;text-decoration-style:solid;text-decoration-color:#000000;letter-spacing:normal;word-spacing:normal;text-transform:none;direction:ltr;block-progression:tb;writing-mode:lr-tb;baseline-shift:baseline;text-anchor:start;white-space:normal;clip-rule:nonzero;display:inline;overflow:visible;visibility:visible;opacity:1;isolation:auto;mix-blend-mode:normal;color-interpolation:sRGB;color-interpolation-filters:linearRGB;solid-color:#000000;solid-opacity:1;fill:#000000;fill-opacity:1;fill-rule:nonzero;stroke:none;stroke-width:1.99999976;stroke-linecap:round;stroke-linejoin:round;stroke-miterlimit:4;stroke-dasharray:none;stroke-dashoffset:0;stroke-opacity:1;color-rendering:auto;image-rendering:auto;shape-rendering:auto;text-rendering:auto;enable-background:accumulate" d="m 0.99122938,1009.3623 a 0.99967105,1.0001405 0 0 1 0.16984912,0.01 c 5.4321216,0.69 10.1999715,3.9761 12.8050535,8.8168 2.60508,4.8407 2.730501,10.6481 0.337745,15.5983 a 0.99967105,1.0001405 0 1 1 -1.798057,-0.8711 c 2.114008,-4.3736 2.002726,-9.5035 -0.2987,-13.7799 -2.3014245,-4.2764 -6.5066915,-7.1711 -11.29788668,-7.7796 a 0.99967105,1.0001405 0 0 1 0.081996,-1.9923 z"/></g></svg>