<svg width='200' height='200' fill="#000000" xmlns:dc="http://purl.org/dc/elements/1.1/" xmlns:cc="http://creativecommons.org/ns#" xmlns:rdf="http://www.w3.org/1999/02/22-rdf-syntax-ns#" xmlns:svg="http://www.w3.org/2000/svg" xmlns="http://www.w3.org/2000/svg" xmlns:sodipodi="http://sodipodi.sourceforge.net/DTD/sodipodi-0.dtd" xmlns:inkscape="http://www.inkscape.org/namespaces/inkscape" viewBox="0 0 48 48.000001" version="1.1" x="0px" y="0px"><g transform="translate(0,-1004.3622)"><path style="color:#000000;font-style:normal;font-variant:normal;font-weight:normal;font-stretch:normal;font-size:medium;line-height:normal;font-family:sans-serif;text-indent:0;text-align:start;text-decoration:none;text-decoration-line:none;text-decoration-style:solid;text-decoration-color:#000000;letter-spacing:normal;word-spacing:normal;text-transform:none;direction:ltr;block-progression:tb;writing-mode:lr-tb;baseline-shift:baseline;text-anchor:start;white-space:normal;clip-rule:nonzero;display:inline;overflow:visible;visibility:visible;opacity:1;isolation:auto;mix-blend-mode:normal;color-interpolation:sRGB;color-interpolation-filters:linearRGB;solid-color:#000000;solid-opacity:1;fill:#000000;fill-opacity:1;fill-rule:nonzero;stroke:none;stroke-width:1.99999952;stroke-linecap:round;stroke-linejoin:round;stroke-miterlimit:4;stroke-dasharray:none;stroke-dashoffset:0;stroke-opacity:1;color-rendering:auto;image-rendering:auto;shape-rendering:auto;text-rendering:auto;enable-background:accumulate" d="m 13.60188,1018.4146 c -2.803697,-0.2917 -5.6551447,0.6496 -7.7348198,2.6739 -2.7729028,2.6992 -3.6278322,6.805 -2.1536549,10.3713 1.4741768,3.5663 4.9802379,5.8954 8.8643187,5.9025 a 0.99889616,1.0001214 0 1 0 0.0039,-2.0001 c -3.0900174,-0.01 -5.8589733,-1.8505 -7.0227872,-4.666 -1.163814,-2.8155 -0.4972782,-6.0361 1.6991245,-8.174 2.1964005,-2.1381 5.4840127,-2.7547 8.3239537,-1.5568 a 0.99889616,1.0001214 0 1 0 0.776414,-1.8418 c -0.893641,-0.3769 -1.821879,-0.6118 -2.756444,-0.709 z"/><path style="color:#000000;font-style:normal;font-variant:normal;font-weight:normal;font-stretch:normal;font-size:medium;line-height:normal;font-family:sans-serif;text-indent:0;text-align:start;text-decoration:none;text-decoration-line:none;text-decoration-style:solid;text-decoration-color:#000000;letter-spacing:normal;word-spacing:normal;text-transform:none;direction:ltr;block-progression:tb;writing-mode:lr-tb;baseline-shift:baseline;text-anchor:start;white-space:normal;clip-rule:nonzero;display:inline;overflow:visible;visibility:visible;opacity:1;isolation:auto;mix-blend-mode:normal;color-interpolation:sRGB;color-interpolation-filters:linearRGB;solid-color:#000000;solid-opacity:1;fill:#000000;fill-opacity:1;fill-rule:evenodd;stroke:none;stroke-width:1.99999952;stroke-linecap:round;stroke-linejoin:round;stroke-miterlimit:4;stroke-dasharray:none;stroke-dashoffset:0;stroke-opacity:1;color-rendering:auto;image-rendering:auto;shape-rendering:auto;text-rendering:auto;enable-background:accumulate" d="m 13.013672,1035.3615 a 1.0000998,1.0000866 0 1 0 0,2 l 12.472656,0 a 1.0000998,1.0000866 0 1 0 0,-2 l -12.472656,0 z"/><path style="color:#000000;font-style:normal;font-variant:normal;font-weight:normal;font-stretch:normal;font-size:medium;line-height:normal;font-family:sans-serif;text-indent:0;text-align:start;text-decoration:none;text-decoration-line:none;text-decoration-style:solid;text-decoration-color:#000000;letter-spacing:normal;word-spacing:normal;text-transform:none;direction:ltr;block-progression:tb;writing-mode:lr-tb;baseline-shift:baseline;text-anchor:start;white-space:normal;clip-rule:nonzero;display:inline;overflow:visible;visibility:visible;opacity:1;isolation:auto;mix-blend-mode:normal;color-interpolation:sRGB;color-interpolation-filters:linearRGB;solid-color:#000000;solid-opacity:1;fill:#000000;fill-opacity:1;fill-rule:nonzero;stroke:none;stroke-width:2;stroke-linecap:round;stroke-linejoin:round;stroke-miterlimit:4;stroke-dasharray:none;stroke-dashoffset:0;stroke-opacity:1;color-rendering:auto;image-rendering:auto;shape-rendering:auto;text-rendering:auto;enable-background:accumulate" d="m 36.851562,1007.3623 a 1.0001,1.0001742 0 0 0 -0.113281,0.01 1.0001,1.0001742 0 0 0 -0.002,0 1.0001,1.0001742 0 0 0 -0.333984,0.1133 c -4.248893,0.7857 -7.397335,4.4649 -7.402344,8.8307 a 1.0001,1.0001742 0 0 0 0.002,0.055 c 0.0014,0.026 0.0023,0.051 0.0039,0.076 a 1.0001,1.0001742 0 0 0 0.56836,0.8419 c 2.778354,1.3188 4.746784,3.9051 5.279297,6.9419 a 1.0001,1.0001742 0 0 0 0.710937,0.7891 c 0.797184,0.2268 1.622529,0.3411 2.451172,0.3418 a 1.0001,1.0001742 0 0 0 0.002,0 c 3.258919,0 6.264267,-1.7738 7.855469,-4.6253 a 1.0001,1.0001742 0 0 0 -1.025391,-1.4766 c -0.32423,0.05 -0.650559,0.076 -0.978515,0.08 -6.67e-4,0 -0.0013,0 -0.002,0 -3.883184,-6e-4 -7.013539,-3.1406 -7.013672,-7.0454 0.0014,-1.2068 0.311788,-2.394 0.90039,-3.4456 a 1.0001,1.0001742 0 0 0 0.126953,-0.4883 1.0001,1.0001742 0 0 0 -1.029297,-0.9981 z m -1.689453,2.6115 c -0.200347,0.7543 -0.307898,1.5335 -0.308593,2.3205 1.56e-4,4.6021 3.502287,8.2732 7.945312,8.8287 -1.294874,1.2973 -2.903008,2.2361 -4.783203,2.2385 -0.477049,-4e-4 -0.943883,-0.1001 -1.410156,-0.1972 -0.757119,-3.1002 -2.74661,-5.7195 -5.527344,-7.2759 0.168393,-2.6418 1.757781,-4.8623 4.083984,-5.9146 z"/><path style="color:#000000;font-style:normal;font-variant:normal;font-weight:normal;font-stretch:normal;font-size:medium;line-height:normal;font-family:sans-serif;text-indent:0;text-align:start;text-decoration:none;text-decoration-line:none;text-decoration-style:solid;text-decoration-color:#000000;letter-spacing:normal;word-spacing:normal;text-transform:none;direction:ltr;block-progression:tb;writing-mode:lr-tb;baseline-shift:baseline;text-anchor:start;white-space:normal;clip-rule:nonzero;display:inline;overflow:visible;visibility:visible;opacity:1;isolation:auto;mix-blend-mode:normal;color-interpolation:sRGB;color-interpolation-filters:linearRGB;solid-color:#000000;solid-opacity:1;fill:#000000;fill-opacity:1;fill-rule:nonzero;stroke:none;stroke-width:1.99999988;stroke-linecap:round;stroke-linejoin:round;stroke-miterlimit:4;stroke-dasharray:none;stroke-dashoffset:0;stroke-opacity:1;color-rendering:auto;image-rendering:auto;shape-rendering:auto;text-rendering:auto;enable-background:accumulate" d="m 24.661029,1014.3954 c -4.05879,0.3091 -7.787921,2.7768 -9.571649,6.6655 a 1.0005924,1.0001644 0 0 0 1.818985,0.8339 c 1.970721,-4.2963 6.769203,-6.4798 11.292942,-5.1421 4.523743,1.3377 7.373073,5.7856 6.699568,10.4659 -0.673507,4.6803 -4.659886,8.1409 -9.376268,8.1438 a 1.0004436,1.0000157 0 1 0 0.002,1.9999 c 5.698086,0 10.542828,-4.2114 11.355463,-9.8586 0.812635,-5.6472 -2.647399,-11.0529 -8.112161,-12.6688 -1.366189,-0.404 -2.755904,-0.5425 -4.108833,-0.4395 z"/><path style="color:#000000;font-style:normal;font-variant:normal;font-weight:normal;font-stretch:normal;font-size:medium;line-height:normal;font-family:sans-serif;text-indent:0;text-align:start;text-decoration:none;text-decoration-line:none;text-decoration-style:solid;text-decoration-color:#000000;letter-spacing:normal;word-spacing:normal;text-transform:none;direction:ltr;block-progression:tb;writing-mode:lr-tb;baseline-shift:baseline;text-anchor:start;white-space:normal;clip-rule:nonzero;display:inline;overflow:visible;visibility:visible;opacity:1;isolation:auto;mix-blend-mode:normal;color-interpolation:sRGB;color-interpolation-filters:linearRGB;solid-color:#000000;solid-opacity:1;fill:#000000;fill-opacity:1;fill-rule:evenodd;stroke:none;stroke-width:2;stroke-linecap:round;stroke-linejoin:round;stroke-miterlimit:4;stroke-dasharray:none;stroke-dashoffset:0;stroke-opacity:1;color-rendering:auto;image-rendering:auto;shape-rendering:auto;text-rendering:auto;enable-background:accumulate" d="m 21.014183,1035.3623 a 1.0003462,0.99812956 0 0 0 -0.826375,0.4289 l -5.001231,6.9745 a 1.0003462,0.99812956 0 0 0 0.976802,1.5653 l 3.618079,-0.6004 -3.594635,5.0135 a 1.0003462,0.99812956 0 1 0 1.6254,1.1598 l 5.001231,-6.9725 a 1.0003462,0.99812956 0 0 0 -0.976803,-1.5653 l -3.618078,0.6004 3.594635,-5.0135 a 1.0003462,0.99812956 0 0 0 -0.799025,-1.5907 z"/></g></svg>