<svg width='200' height='200' fill="#000000" xmlns:dc="http://purl.org/dc/elements/1.1/" xmlns:cc="http://creativecommons.org/ns#" xmlns:rdf="http://www.w3.org/1999/02/22-rdf-syntax-ns#" xmlns:svg="http://www.w3.org/2000/svg" xmlns="http://www.w3.org/2000/svg" xmlns:sodipodi="http://sodipodi.sourceforge.net/DTD/sodipodi-0.dtd" xmlns:inkscape="http://www.inkscape.org/namespaces/inkscape" viewBox="0 0 48 48.000001" version="1.1" x="0px" y="0px"><g transform="translate(0,-1004.3622)"><path style="color:#000000;font-style:normal;font-variant:normal;font-weight:normal;font-stretch:normal;font-size:medium;line-height:normal;font-family:sans-serif;text-indent:0;text-align:start;text-decoration:none;text-decoration-line:none;text-decoration-style:solid;text-decoration-color:#000000;letter-spacing:normal;word-spacing:normal;text-transform:none;direction:ltr;block-progression:tb;writing-mode:lr-tb;baseline-shift:baseline;text-anchor:start;white-space:normal;clip-rule:nonzero;display:inline;overflow:visible;visibility:visible;opacity:1;isolation:auto;mix-blend-mode:normal;color-interpolation:sRGB;color-interpolation-filters:linearRGB;solid-color:#000000;solid-opacity:1;fill:#000000;fill-opacity:1;fill-rule:nonzero;stroke:none;stroke-width:1.99999988;stroke-linecap:butt;stroke-linejoin:miter;stroke-miterlimit:4;stroke-dasharray:none;stroke-dashoffset:0;stroke-opacity:1;color-rendering:auto;image-rendering:auto;shape-rendering:auto;text-rendering:auto;enable-background:accumulate" d="m 16.005674,1008.3622 c -2.747995,0 -5.004057,2.233 -5.011566,4.974 -3e-6,7.2071 0,14.4203 0,21.6297 -2.5256777,2.0914 -3.6192369,5.5087 -2.6358132,8.6959 1.0432454,3.381 4.1414242,5.7021 7.6454242,5.7004 3.503762,-8e-4 6.599667,-2.3248 7.639559,-5.7062 0.980006,-3.1867 -0.11094,-6.6013 -2.637769,-8.6901 0,-7.2061 0,-14.4121 0,-21.618 -0.0013,-2.741 -2.251835,-4.9857 -4.999835,-4.9857 z m -0.002,2.0056 c 1.670354,0 2.998747,1.3278 2.99951,2.9859 0,7.5093 0,15.0187 0,22.528 l 0.422355,0.2988 c 2.156981,1.5256 3.093203,4.3195 2.303404,6.8877 -0.789607,2.5675 -3.107328,4.2943 -5.727224,4.2943 -2.62049,0 -4.939188,-1.7219 -5.731135,-4.2885 -0.7917466,-2.566 0.147759,-5.3657 2.303404,-6.8935 l 0.422355,-0.2988 c 0,-7.5113 0,-15.0226 0,-22.5338 0.0045,-1.6581 1.33698,-2.9801 3.007331,-2.9801 z"/><path style="color:#000000;font-style:normal;font-variant:normal;font-weight:normal;font-stretch:normal;font-size:medium;line-height:normal;font-family:sans-serif;text-indent:0;text-align:start;text-decoration:none;text-decoration-line:none;text-decoration-style:solid;text-decoration-color:#000000;letter-spacing:normal;word-spacing:normal;text-transform:none;direction:ltr;block-progression:tb;writing-mode:lr-tb;baseline-shift:baseline;text-anchor:start;white-space:normal;clip-rule:nonzero;display:inline;overflow:visible;visibility:visible;opacity:1;isolation:auto;mix-blend-mode:normal;color-interpolation:sRGB;color-interpolation-filters:linearRGB;solid-color:#000000;solid-opacity:1;fill:#000000;fill-opacity:1;fill-rule:nonzero;stroke:none;stroke-width:2;stroke-linecap:butt;stroke-linejoin:miter;stroke-miterlimit:4;stroke-dasharray:none;stroke-dashoffset:0;stroke-opacity:1;color-rendering:auto;image-rendering:auto;shape-rendering:auto;text-rendering:auto;enable-background:accumulate" d="m 16,1037.3622 c -2.197294,0 -4,1.8027 -4,4 0,2.1973 1.802706,4 4,4 2.197294,0 4,-1.8027 4,-4 0,-2.1973 -1.802706,-4 -4,-4 z m 0,2 c 1.116414,0 2,0.8836 2,2 0,1.1164 -0.883586,2 -2,2 -1.116414,0 -2,-0.8836 -2,-2 0,-1.1164 0.883586,-2 2,-2 z"/><path style="color:#000000;font-style:normal;font-variant:normal;font-weight:normal;font-stretch:normal;font-size:medium;line-height:normal;font-family:sans-serif;text-indent:0;text-align:start;text-decoration:none;text-decoration-line:none;text-decoration-style:solid;text-decoration-color:#000000;letter-spacing:normal;word-spacing:normal;text-transform:none;direction:ltr;block-progression:tb;writing-mode:lr-tb;baseline-shift:baseline;text-anchor:start;white-space:normal;clip-rule:nonzero;display:inline;overflow:visible;visibility:visible;opacity:1;isolation:auto;mix-blend-mode:normal;color-interpolation:sRGB;color-interpolation-filters:linearRGB;solid-color:#000000;solid-opacity:1;fill:#000000;fill-opacity:1;fill-rule:evenodd;stroke:none;stroke-width:2;stroke-linecap:round;stroke-linejoin:round;stroke-miterlimit:4;stroke-dasharray:none;stroke-dashoffset:0;stroke-opacity:1;color-rendering:auto;image-rendering:auto;shape-rendering:auto;text-rendering:auto;enable-background:accumulate" d="M 15.984375,1031.3621 A 1.0001,1.0002545 0 0 0 15,1032.3759 l 0,5.9716 a 1.0001,1.0002545 0 1 0 2,0 l 0,-5.9716 a 1.0001,1.0002545 0 0 0 -1.015625,-1.0138 z"/><path style="color:#000000;font-style:normal;font-variant:normal;font-weight:normal;font-stretch:normal;font-size:medium;line-height:normal;font-family:sans-serif;text-indent:0;text-align:start;text-decoration:none;text-decoration-line:none;text-decoration-style:solid;text-decoration-color:#000000;letter-spacing:normal;word-spacing:normal;text-transform:none;direction:ltr;block-progression:tb;writing-mode:lr-tb;baseline-shift:baseline;text-anchor:start;white-space:normal;clip-rule:nonzero;display:inline;overflow:visible;visibility:visible;opacity:1;isolation:auto;mix-blend-mode:normal;color-interpolation:sRGB;color-interpolation-filters:linearRGB;solid-color:#000000;solid-opacity:1;fill:#000000;fill-opacity:1;fill-rule:nonzero;stroke:none;stroke-width:1.99999988;stroke-linecap:round;stroke-linejoin:round;stroke-miterlimit:4;stroke-dasharray:none;stroke-dashoffset:0;stroke-opacity:1;color-rendering:auto;image-rendering:auto;shape-rendering:auto;text-rendering:auto;enable-background:accumulate" d="m 34.503437,1007.3624 a 1.0001795,1.0002255 0 0 0 -0.906322,1.3771 c 0.246441,0.6034 0.373653,1.2474 0.37503,1.8968 -0.0011,2.8325 -2.318532,5.1226 -5.223072,5.1237 -0.498205,0 -0.993274,-0.072 -1.47082,-0.211 a 1.0001795,1.0002255 0 0 0 -1.205174,1.3361 c 1.09845,2.7059 3.757724,4.4748 6.701705,4.4771 3.969885,0 7.225191,-3.1933 7.225185,-7.1259 -0.0021,-3.1659 -2.130868,-5.9532 -5.199633,-6.8368 a 1.0001795,1.0002255 0 0 0 -0.296899,-0.037 z m 1.371203,2.7758 c 1.302677,0.9468 2.124052,2.4436 2.125169,4.1001 -0.0011,2.8332 -2.319545,5.1236 -5.225025,5.1236 -1.440891,0 -2.628189,-0.7201 -3.590129,-1.6896 3.757609,-0.236 6.787655,-3.2589 6.787649,-7.0379 -3.58e-4,-0.1689 -0.0852,-0.3244 -0.09767,-0.4923 z"/></g></svg>