<svg width='200' height='200' fill="#000000" xmlns:dc="http://purl.org/dc/elements/1.1/" xmlns:cc="http://creativecommons.org/ns#" xmlns:rdf="http://www.w3.org/1999/02/22-rdf-syntax-ns#" xmlns:svg="http://www.w3.org/2000/svg" xmlns="http://www.w3.org/2000/svg" xmlns:sodipodi="http://sodipodi.sourceforge.net/DTD/sodipodi-0.dtd" xmlns:inkscape="http://www.inkscape.org/namespaces/inkscape" viewBox="0 0 48 48.000001" version="1.1" x="0px" y="0px"><g transform="translate(0,-1004.3622)"><path style="color:#000000;font-style:normal;font-variant:normal;font-weight:normal;font-stretch:normal;font-size:medium;line-height:normal;font-family:sans-serif;text-indent:0;text-align:start;text-decoration:none;text-decoration-line:none;text-decoration-style:solid;text-decoration-color:#000000;letter-spacing:normal;word-spacing:normal;text-transform:none;direction:ltr;block-progression:tb;writing-mode:lr-tb;baseline-shift:baseline;text-anchor:start;white-space:normal;clip-rule:nonzero;display:inline;overflow:visible;visibility:visible;opacity:1;isolation:auto;mix-blend-mode:normal;color-interpolation:sRGB;color-interpolation-filters:linearRGB;solid-color:#000000;solid-opacity:1;fill:#000000;fill-opacity:1;fill-rule:evenodd;stroke:none;stroke-width:1.99999988;stroke-linecap:round;stroke-linejoin:round;stroke-miterlimit:4;stroke-dasharray:none;stroke-dashoffset:0;stroke-opacity:1;color-rendering:auto;image-rendering:auto;shape-rendering:auto;text-rendering:auto;enable-background:accumulate" d="m 3.9852912,1040.3621 a 1.0004019,1.0005907 0 0 0 -0.595883,1.7919 c 0,0 0.6701403,0.5314 1.541481,1.065 0.8713406,0.5335 1.8883247,1.1431 3.0790544,1.1431 1.1907297,0 1.9948114,-0.7134 2.6218854,-1.2116 0.627075,-0.498 1.077977,-0.7796 1.377369,-0.7796 0.299393,0 0.750295,0.2816 1.377368,0.7796 0.627075,0.4982 1.429203,1.2116 2.619933,1.2116 1.190729,0 1.99481,-0.7134 2.621885,-1.2116 0.627073,-0.498 1.077975,-0.7796 1.377368,-0.7796 0.299393,0 0.750296,0.2816 1.37737,0.7796 0.627074,0.4982 1.431155,1.2116 2.621885,1.2116 1.19073,0 1.992858,-0.7134 2.619932,-1.2116 0.627073,-0.498 1.077977,-0.7796 1.377369,-0.7796 0.29939,0 0.750294,0.2816 1.377368,0.7796 0.627073,0.4982 1.431155,1.2116 2.621886,1.2116 1.190729,0 2.207713,-0.6096 3.079054,-1.1431 0.87134,-0.5336 1.54148,-1.065 1.54148,-1.065 a 1.0005167,1.0007054 0 1 0 -1.244515,-1.5672 c 0,0 -0.584912,0.4638 -1.340249,0.9263 -0.755338,0.4624 -1.736379,0.848 -2.03577,0.848 -0.299393,0 -0.750296,-0.2797 -1.37737,-0.7777 -0.627074,-0.498 -1.431155,-1.2135 -2.621884,-1.2135 -1.190731,0 -1.994812,0.7155 -2.621886,1.2135 -0.627074,0.498 -1.076023,0.7777 -1.375415,0.7777 -0.299392,0 -0.750295,-0.2797 -1.377369,-0.7777 -0.627074,-0.498 -1.431156,-1.2135 -2.621886,-1.2135 -1.190729,0 -1.994811,0.7155 -2.621885,1.2135 -0.627073,0.498 -1.077976,0.7777 -1.377368,0.7777 -0.299393,0 -0.748342,-0.2797 -1.375416,-0.7777 -0.627073,-0.498 -1.431155,-1.2135 -2.621885,-1.2135 -1.19073,0 -1.994811,0.7155 -2.6218855,1.2135 -0.6270738,0.498 -1.0779769,0.7777 -1.3773689,0.7777 -0.299392,0 -1.2804331,-0.3856 -2.0357709,-0.848 -0.7553375,-0.4625 -1.3402482,-0.9263 -1.3402482,-0.9263 a 1.0004019,1.0005907 0 0 0 -0.6486333,-0.2247 z"/><path style="color:#000000;font-style:normal;font-variant:normal;font-weight:normal;font-stretch:normal;font-size:medium;line-height:normal;font-family:sans-serif;text-indent:0;text-align:start;text-decoration:none;text-decoration-line:none;text-decoration-style:solid;text-decoration-color:#000000;letter-spacing:normal;word-spacing:normal;text-transform:none;direction:ltr;block-progression:tb;writing-mode:lr-tb;baseline-shift:baseline;text-anchor:start;white-space:normal;clip-rule:nonzero;display:inline;overflow:visible;visibility:visible;opacity:1;isolation:auto;mix-blend-mode:normal;color-interpolation:sRGB;color-interpolation-filters:linearRGB;solid-color:#000000;solid-opacity:1;fill:#000000;fill-opacity:1;fill-rule:nonzero;stroke:none;stroke-width:2;stroke-linecap:round;stroke-linejoin:round;stroke-miterlimit:4;stroke-dasharray:none;stroke-dashoffset:0;stroke-opacity:1;color-rendering:auto;image-rendering:auto;shape-rendering:auto;text-rendering:auto;enable-background:accumulate" d="m 35.861172,1006.3622 a 1.0000764,1.0001256 0 0 0 -0.128903,0.012 l 0.0059,0 c -0.0048,7e-4 -0.0088,0 -0.01367,0 a 1.0000764,1.0001256 0 0 0 -0.316398,0.1074 c -4.252066,0.7831 -7.4031,4.4664 -7.408028,8.8342 a 1.0000764,1.0001256 0 0 0 0.002,0.055 c 0.0014,0.026 0.0023,0.051 0.0039,0.076 a 1.0000764,1.0001256 0 0 0 0.5703,0.8419 c 2.778275,1.3187 4.744707,3.9049 5.277219,6.9415 a 1.0000764,1.0001256 0 0 0 0.710921,0.7891 c 0.797169,0.2268 1.622486,0.3411 2.451114,0.3418 a 1.0000764,1.0001256 0 0 0 0.002,0 c 3.25886,0 6.264143,-1.7737 7.855284,-4.6252 a 1.0000764,1.0001256 0 0 0 -1.025367,-1.4765 c -0.324223,0.05 -0.650544,0.076 -0.978492,0.08 -6.67e-4,0 -0.0013,0 -0.002,0 -3.883072,-6e-4 -7.013351,-3.1405 -7.013507,-7.0451 0.0014,-1.2067 0.311785,-2.3937 0.900369,-3.4454 a 1.0000764,1.0001256 0 0 0 -0.892557,-1.4863 z m -1.699179,2.6114 c -0.200342,0.7543 -0.307889,1.5334 -0.308586,2.3203 1.83e-4,4.6017 3.502506,8.2726 7.945125,8.8284 -1.294837,1.2972 -2.90098,2.2359 -4.781137,2.2383 -0.477208,-4e-4 -0.945654,-0.1 -1.412076,-0.1972 -0.75711,-3.1 -2.746556,-5.7191 -5.527213,-7.2756 0.168344,-2.6416 1.757712,-4.8618 4.083887,-5.9142 z"/><path style="color:#000000;font-style:normal;font-variant:normal;font-weight:normal;font-stretch:normal;font-size:medium;line-height:normal;font-family:sans-serif;text-indent:0;text-align:start;text-decoration:none;text-decoration-line:none;text-decoration-style:solid;text-decoration-color:#000000;letter-spacing:normal;word-spacing:normal;text-transform:none;direction:ltr;block-progression:tb;writing-mode:lr-tb;baseline-shift:baseline;text-anchor:start;white-space:normal;clip-rule:nonzero;display:inline;overflow:visible;visibility:visible;opacity:1;isolation:auto;mix-blend-mode:normal;color-interpolation:sRGB;color-interpolation-filters:linearRGB;solid-color:#000000;solid-opacity:1;fill:#000000;fill-opacity:1;fill-rule:nonzero;stroke:none;stroke-width:2;stroke-linecap:round;stroke-linejoin:round;stroke-miterlimit:4;stroke-dasharray:none;stroke-dashoffset:0;stroke-opacity:1;color-rendering:auto;image-rendering:auto;shape-rendering:auto;text-rendering:auto;enable-background:accumulate" d="m 25.027444,1013.3643 c -0.106981,0 -0.213806,0.011 -0.316399,0.041 -4.173067,-0.025 -8.096281,2.4066 -10.382568,6.0724 -3.25456,-1.0578 -6.9261433,-0.7489 -9.4802453,1.7364 -2.690224,2.6181 -3.5692304,6.5787 -2.2304161,10.0764 1.3387961,3.4977 4.6398182,5.8801 8.4001924,6.0705 22.180737,-0.092 -10.96544576,0.092 13.754976,-0.024 6.9768,-0.034 10.772369,-6.1355 11.082328,-10.1421 0.883952,-5.7223 -2.357533,-11.2967 -7.72638,-13.2308 -1.019691,-0.3671 -2.064401,-0.5618 -3.101489,-0.5996 z m -0.07227,2.002 0.0098,0 c 0.833335,0.031 1.666767,0.1854 2.48627,0.4805 4.45742,1.6058 7.169291,6.2417 6.427582,11.0432 -0.738112,4.778 -4.668568,8.3085 -9.359154,8.4631 -5.166011,0.1094 -7.881779,0.076 -13.409841,0.01 -2.9754232,-0.1547 -5.5690251,-2.0319 -6.6228909,-4.7852 -1.0550292,-2.7563 -0.3696644,-5.8594 1.755818,-7.928 1.999092,-2.2335 4.8813309,-2.0941 8.0603569,-1.1211 0.482714,0.1478 1.123674,-0.1545 1.400363,-0.5767 2.076209,-3.1686 5.623788,-5.7184 9.251734,-5.5861 z"/><path d="m 3.9852912,1045.3622 a 1.0004019,1.0005907 0 0 0 -0.595883,1.7919 c 0,0 0.6701403,0.5315 1.541481,1.0651 0.8713406,0.5334 1.8883247,1.143 3.0790544,1.143 1.1907297,0 1.9948114,-0.7134 2.6218854,-1.2115 0.627075,-0.498 1.077977,-0.7797 1.377369,-0.7797 0.299393,0 0.750295,0.2817 1.377368,0.7797 0.627075,0.4981 1.429203,1.2115 2.619933,1.2115 1.190729,0 1.99481,-0.7134 2.621885,-1.2115 0.627073,-0.498 1.077975,-0.7797 1.377368,-0.7797 0.299393,0 0.750296,0.2817 1.37737,0.7797 0.627074,0.4981 1.431155,1.2115 2.621885,1.2115 1.19073,0 1.992858,-0.7134 2.619932,-1.2115 0.627073,-0.498 1.077977,-0.7797 1.377369,-0.7797 0.29939,0 0.750294,0.2817 1.377368,0.7797 0.627073,0.4981 1.431155,1.2115 2.621886,1.2115 1.190729,0 2.207713,-0.6096 3.079054,-1.143 0.87134,-0.5336 1.54148,-1.0651 1.54148,-1.0651 a 1.0005167,1.0007054 0 1 0 -1.244515,-1.5672 c 0,0 -0.584912,0.4638 -1.340249,0.9263 -0.755338,0.4624 -1.736379,0.848 -2.03577,0.848 -0.299393,0 -0.750296,-0.2797 -1.37737,-0.7777 -0.627074,-0.498 -1.431155,-1.2135 -2.621884,-1.2135 -1.190731,0 -1.994812,0.7155 -2.621886,1.2135 -0.627074,0.498 -1.076023,0.7777 -1.375415,0.7777 -0.299392,0 -0.750295,-0.2797 -1.377369,-0.7777 -0.627074,-0.498 -1.431156,-1.2135 -2.621886,-1.2135 -1.190729,0 -1.994811,0.7155 -2.621885,1.2135 -0.627073,0.498 -1.077976,0.7777 -1.377368,0.7777 -0.299393,0 -0.748342,-0.2797 -1.375416,-0.7777 -0.627073,-0.498 -1.431155,-1.2135 -2.621885,-1.2135 -1.19073,0 -1.994811,0.7155 -2.6218855,1.2135 -0.6270738,0.498 -1.0779769,0.7777 -1.3773689,0.7777 -0.299392,0 -1.2804331,-0.3856 -2.0357709,-0.848 -0.7553375,-0.4625 -1.3402482,-0.9263 -1.3402482,-0.9263 a 1.0004019,1.0005907 0 0 0 -0.6486333,-0.2247 z" style="color:#000000;font-style:normal;font-variant:normal;font-weight:normal;font-stretch:normal;font-size:medium;line-height:normal;font-family:sans-serif;text-indent:0;text-align:start;text-decoration:none;text-decoration-line:none;text-decoration-style:solid;text-decoration-color:#000000;letter-spacing:normal;word-spacing:normal;text-transform:none;direction:ltr;block-progression:tb;writing-mode:lr-tb;baseline-shift:baseline;text-anchor:start;white-space:normal;clip-rule:nonzero;display:inline;overflow:visible;visibility:visible;opacity:1;isolation:auto;mix-blend-mode:normal;color-interpolation:sRGB;color-interpolation-filters:linearRGB;solid-color:#000000;solid-opacity:1;fill:#000000;fill-opacity:1;fill-rule:evenodd;stroke:none;stroke-width:1.99999988;stroke-linecap:round;stroke-linejoin:round;stroke-miterlimit:4;stroke-dasharray:none;stroke-dashoffset:0;stroke-opacity:1;color-rendering:auto;image-rendering:auto;shape-rendering:auto;text-rendering:auto;enable-background:accumulate"/></g></svg>