<svg width='200' height='200' fill="#000000" xmlns:dc="http://purl.org/dc/elements/1.1/" xmlns:cc="http://creativecommons.org/ns#" xmlns:rdf="http://www.w3.org/1999/02/22-rdf-syntax-ns#" xmlns:svg="http://www.w3.org/2000/svg" xmlns="http://www.w3.org/2000/svg" xmlns:sodipodi="http://sodipodi.sourceforge.net/DTD/sodipodi-0.dtd" xmlns:inkscape="http://www.inkscape.org/namespaces/inkscape" viewBox="0 0 48 48.000001" version="1.1" x="0px" y="0px"><g transform="translate(0,-1004.3622)"><path style="color:#000000;font-style:normal;font-variant:normal;font-weight:normal;font-stretch:normal;font-size:medium;line-height:normal;font-family:sans-serif;text-indent:0;text-align:start;text-decoration:none;text-decoration-line:none;text-decoration-style:solid;text-decoration-color:#000000;letter-spacing:normal;word-spacing:normal;text-transform:none;direction:ltr;block-progression:tb;writing-mode:lr-tb;baseline-shift:baseline;text-anchor:start;white-space:normal;clip-rule:nonzero;display:inline;overflow:visible;visibility:visible;opacity:1;isolation:auto;mix-blend-mode:normal;color-interpolation:sRGB;color-interpolation-filters:linearRGB;solid-color:#000000;solid-opacity:1;fill:#000000;fill-opacity:1;fill-rule:evenodd;stroke:none;stroke-width:2;stroke-linecap:round;stroke-linejoin:round;stroke-miterlimit:4;stroke-dasharray:none;stroke-dashoffset:0;stroke-opacity:1;color-rendering:auto;image-rendering:auto;shape-rendering:auto;text-rendering:auto;enable-background:accumulate" d="m 21.990577,1033.3625 a 1.0002481,0.99954799 0 0 0 -0.757924,0.3689 l -5.000741,5.985 a 1.0002481,0.99954799 0 0 0 0.931778,1.6261 l 3.340339,-0.5564 -3.271969,3.9177 a 1.0002481,0.99954799 0 1 0 1.535384,1.2806 l 5.00074,-5.985 a 1.0002481,0.99954799 0 0 0 -0.931778,-1.626 l -3.340338,0.5563 3.271968,-3.9177 a 1.0002481,0.99954799 0 0 0 -0.777459,-1.6495 z"/><g><path d="M 4.984375,1034.3621 A 1.0001,1.000015 0 0 0 4,1035.3777 l 0,6.9701 a 1.0001,1.000015 0 1 0 2,0 l 0,-6.9701 a 1.0001,1.000015 0 0 0 -1.015625,-1.0156 z" style="color:#000000;font-style:normal;font-variant:normal;font-weight:normal;font-stretch:normal;font-size:medium;line-height:normal;font-family:sans-serif;text-indent:0;text-align:start;text-decoration:none;text-decoration-line:none;text-decoration-style:solid;text-decoration-color:#000000;letter-spacing:normal;word-spacing:normal;text-transform:none;direction:ltr;block-progression:tb;writing-mode:lr-tb;baseline-shift:baseline;text-anchor:start;white-space:normal;clip-rule:nonzero;display:inline;overflow:visible;visibility:visible;opacity:1;isolation:auto;mix-blend-mode:normal;color-interpolation:sRGB;color-interpolation-filters:linearRGB;solid-color:#000000;solid-opacity:1;fill:#000000;fill-opacity:1;fill-rule:evenodd;stroke:none;stroke-width:2;stroke-linecap:round;stroke-linejoin:round;stroke-miterlimit:4;stroke-dasharray:none;stroke-dashoffset:0;stroke-opacity:1;color-rendering:auto;image-rendering:auto;shape-rendering:auto;text-rendering:auto;enable-background:accumulate"/><path d="m 7.9917418,1036.3622 a 0.99819398,0.9987061 0 0 0 -0.4503121,0.1131 l -5.9632228,2.9822 a 0.99819398,0.9987061 0 1 0 0.8908771,1.7866 l 5.9632228,-2.9822 a 0.99819398,0.9987061 0 0 0 -0.440565,-1.8997 z" style="color:#000000;font-style:normal;font-variant:normal;font-weight:normal;font-stretch:normal;font-size:medium;line-height:normal;font-family:sans-serif;text-indent:0;text-align:start;text-decoration:none;text-decoration-line:none;text-decoration-style:solid;text-decoration-color:#000000;letter-spacing:normal;word-spacing:normal;text-transform:none;direction:ltr;block-progression:tb;writing-mode:lr-tb;baseline-shift:baseline;text-anchor:start;white-space:normal;clip-rule:nonzero;display:inline;overflow:visible;visibility:visible;opacity:1;isolation:auto;mix-blend-mode:normal;color-interpolation:sRGB;color-interpolation-filters:linearRGB;solid-color:#000000;solid-opacity:1;fill:#000000;fill-opacity:1;fill-rule:evenodd;stroke:none;stroke-width:2;stroke-linecap:round;stroke-linejoin:round;stroke-miterlimit:4;stroke-dasharray:none;stroke-dashoffset:0;stroke-opacity:1;color-rendering:auto;image-rendering:auto;shape-rendering:auto;text-rendering:auto;enable-background:accumulate"/><path d="m 1.9793224,1036.3626 a 0.99816112,0.99868486 0 0 0 -0.4113105,1.8997 l 5.9630265,2.9821 a 0.99816112,0.99868486 0 1 0 0.8908478,-1.7866 l -5.9630265,-2.9821 a 0.99816112,0.99868486 0 0 0 -0.4795373,-0.1131 z" style="color:#000000;font-style:normal;font-variant:normal;font-weight:normal;font-stretch:normal;font-size:medium;line-height:normal;font-family:sans-serif;text-indent:0;text-align:start;text-decoration:none;text-decoration-line:none;text-decoration-style:solid;text-decoration-color:#000000;letter-spacing:normal;word-spacing:normal;text-transform:none;direction:ltr;block-progression:tb;writing-mode:lr-tb;baseline-shift:baseline;text-anchor:start;white-space:normal;clip-rule:nonzero;display:inline;overflow:visible;visibility:visible;opacity:1;isolation:auto;mix-blend-mode:normal;color-interpolation:sRGB;color-interpolation-filters:linearRGB;solid-color:#000000;solid-opacity:1;fill:#000000;fill-opacity:1;fill-rule:evenodd;stroke:none;stroke-width:2;stroke-linecap:round;stroke-linejoin:round;stroke-miterlimit:4;stroke-dasharray:none;stroke-dashoffset:0;stroke-opacity:1;color-rendering:auto;image-rendering:auto;shape-rendering:auto;text-rendering:auto;enable-background:accumulate"/></g><path style="color:#000000;font-style:normal;font-variant:normal;font-weight:normal;font-stretch:normal;font-size:medium;line-height:normal;font-family:sans-serif;text-indent:0;text-align:start;text-decoration:none;text-decoration-line:none;text-decoration-style:solid;text-decoration-color:#000000;letter-spacing:normal;word-spacing:normal;text-transform:none;direction:ltr;block-progression:tb;writing-mode:lr-tb;baseline-shift:baseline;text-anchor:start;white-space:normal;clip-rule:nonzero;display:inline;overflow:visible;visibility:visible;opacity:1;isolation:auto;mix-blend-mode:normal;color-interpolation:sRGB;color-interpolation-filters:linearRGB;solid-color:#000000;solid-opacity:1;fill:#000000;fill-opacity:1;fill-rule:nonzero;stroke:none;stroke-width:2;stroke-linecap:round;stroke-linejoin:round;stroke-miterlimit:4;stroke-dasharray:none;stroke-dashoffset:0;stroke-opacity:1;color-rendering:auto;image-rendering:auto;shape-rendering:auto;text-rendering:auto;enable-background:accumulate" d="m 36.861328,1004.3617 a 1.0001,1.0001889 0 0 0 -0.128906,0.012 l 0.0059,0 c -0.0048,7e-4 -0.0088,0 -0.01367,0 a 1.0001,1.0001889 0 0 0 -0.316406,0.1074 c -4.252166,0.7832 -7.403274,4.4667 -7.408203,8.8348 a 1.0001,1.0001889 0 0 0 0.002,0.055 c 0.0014,0.026 0.0023,0.051 0.0039,0.076 a 1.0001,1.0001889 0 0 0 0.570313,0.8419 c 2.778341,1.3188 4.744819,3.9051 5.277344,6.942 a 1.0001,1.0001889 0 0 0 0.710937,0.7891 c 0.797188,0.2268 1.622525,0.3411 2.451172,0.3418 a 1.0001,1.0001889 0 0 0 0.002,0 c 3.258937,0 6.264291,-1.7738 7.855469,-4.6254 a 1.0001,1.0001889 0 0 0 -1.025391,-1.4766 c -0.32423,0.05 -0.650559,0.076 -0.978515,0.08 -6.67e-4,0 -0.0013,0 -0.002,0 -3.883163,-6e-4 -7.013516,-3.1407 -7.013672,-7.0456 0.0014,-1.2068 0.311792,-2.3939 0.90039,-3.4456 a 1.0001,1.0001889 0 0 0 -0.892578,-1.4864 z m -1.699219,2.6115 c -0.200347,0.7544 -0.307896,1.5336 -0.308593,2.3205 1.83e-4,4.602 3.502588,8.2732 7.945312,8.8289 -1.294868,1.2973 -2.901048,2.2361 -4.78125,2.2385 -0.477219,-4e-4 -0.945676,-0.1 -1.412109,-0.1972 -0.757128,-3.1002 -2.746621,-5.7195 -5.527344,-7.276 0.168348,-2.6419 1.757754,-4.8622 4.083984,-5.9147 z"/><path style="color:#000000;font-style:normal;font-variant:normal;font-weight:normal;font-stretch:normal;font-size:medium;line-height:normal;font-family:sans-serif;text-indent:0;text-align:start;text-decoration:none;text-decoration-line:none;text-decoration-style:solid;text-decoration-color:#000000;letter-spacing:normal;word-spacing:normal;text-transform:none;direction:ltr;block-progression:tb;writing-mode:lr-tb;baseline-shift:baseline;text-anchor:start;white-space:normal;clip-rule:nonzero;display:inline;overflow:visible;visibility:visible;opacity:1;isolation:auto;mix-blend-mode:normal;color-interpolation:sRGB;color-interpolation-filters:linearRGB;solid-color:#000000;solid-opacity:1;fill:#000000;fill-opacity:1;fill-rule:nonzero;stroke:none;stroke-width:2;stroke-linecap:round;stroke-linejoin:round;stroke-miterlimit:4;stroke-dasharray:none;stroke-dashoffset:0;stroke-opacity:1;color-rendering:auto;image-rendering:auto;shape-rendering:auto;text-rendering:auto;enable-background:accumulate" d="m 26.060182,1011.3622 c -0.107133,0 -0.21411,0.011 -0.316849,0.041 -4.179,-0.025 -8.107791,2.407 -10.397329,6.0733 -3.259187,-1.058 -6.9359897,-0.749 -9.493723,1.7366 -2.6940487,2.6185 -3.5743047,6.5797 -2.233587,10.0778 1.3406994,3.4982 4.6464141,5.8809 8.412135,6.0713 4.432069,0 8.874014,0 13.309597,0 7.687134,0.013 11.101907,-6.3206 11.563018,-10.164 0.689845,-5.7499 -2.360885,-11.2983 -7.737365,-13.2327 -1.021141,-0.3671 -2.067336,-0.5619 -3.105898,-0.5997 z m -0.07237,2.0023 0.0098,0 c 0.834519,0.031 1.669136,0.1855 2.489804,0.4806 4.463758,1.606 7.179485,6.2425 6.436721,11.0447 -0.739161,4.7787 -4.675206,8.3097 -9.37246,8.4643 -4.465996,0.021 -8.954933,0.01 -13.428906,0.01 -2.9796535,-0.1547 -5.5769422,-2.0323 -6.6323062,-4.7859 -1.0565292,-2.7566 -0.37019,-5.8602 1.7583142,-7.9291 2.0746154,-2.0161 5.1976,-2.1846 8.071816,-1.1213 0.65236,0.2414 1.083295,-0.054 1.402355,-0.5768 2.059302,-3.377 5.631783,-5.7191 9.264888,-5.5868 z"/><g transform="translate(5,9.0002437)"><path style="color:#000000;font-style:normal;font-variant:normal;font-weight:normal;font-stretch:normal;font-size:medium;line-height:normal;font-family:sans-serif;text-indent:0;text-align:start;text-decoration:none;text-decoration-line:none;text-decoration-style:solid;text-decoration-color:#000000;letter-spacing:normal;word-spacing:normal;text-transform:none;direction:ltr;block-progression:tb;writing-mode:lr-tb;baseline-shift:baseline;text-anchor:start;white-space:normal;clip-rule:nonzero;display:inline;overflow:visible;visibility:visible;opacity:1;isolation:auto;mix-blend-mode:normal;color-interpolation:sRGB;color-interpolation-filters:linearRGB;solid-color:#000000;solid-opacity:1;fill:#000000;fill-opacity:1;fill-rule:evenodd;stroke:none;stroke-width:2;stroke-linecap:round;stroke-linejoin:round;stroke-miterlimit:4;stroke-dasharray:none;stroke-dashoffset:0;stroke-opacity:1;color-rendering:auto;image-rendering:auto;shape-rendering:auto;text-rendering:auto;enable-background:accumulate" d="M 4.984375,1034.3621 A 1.0001,1.000015 0 0 0 4,1035.3777 l 0,6.9701 a 1.0001,1.000015 0 1 0 2,0 l 0,-6.9701 a 1.0001,1.000015 0 0 0 -1.015625,-1.0156 z"/><path style="color:#000000;font-style:normal;font-variant:normal;font-weight:normal;font-stretch:normal;font-size:medium;line-height:normal;font-family:sans-serif;text-indent:0;text-align:start;text-decoration:none;text-decoration-line:none;text-decoration-style:solid;text-decoration-color:#000000;letter-spacing:normal;word-spacing:normal;text-transform:none;direction:ltr;block-progression:tb;writing-mode:lr-tb;baseline-shift:baseline;text-anchor:start;white-space:normal;clip-rule:nonzero;display:inline;overflow:visible;visibility:visible;opacity:1;isolation:auto;mix-blend-mode:normal;color-interpolation:sRGB;color-interpolation-filters:linearRGB;solid-color:#000000;solid-opacity:1;fill:#000000;fill-opacity:1;fill-rule:evenodd;stroke:none;stroke-width:2;stroke-linecap:round;stroke-linejoin:round;stroke-miterlimit:4;stroke-dasharray:none;stroke-dashoffset:0;stroke-opacity:1;color-rendering:auto;image-rendering:auto;shape-rendering:auto;text-rendering:auto;enable-background:accumulate" d="m 7.9917418,1036.3622 a 0.99819398,0.9987061 0 0 0 -0.4503121,0.1131 l -5.9632228,2.9822 a 0.99819398,0.9987061 0 1 0 0.8908771,1.7866 l 5.9632228,-2.9822 a 0.99819398,0.9987061 0 0 0 -0.440565,-1.8997 z"/><path style="color:#000000;font-style:normal;font-variant:normal;font-weight:normal;font-stretch:normal;font-size:medium;line-height:normal;font-family:sans-serif;text-indent:0;text-align:start;text-decoration:none;text-decoration-line:none;text-decoration-style:solid;text-decoration-color:#000000;letter-spacing:normal;word-spacing:normal;text-transform:none;direction:ltr;block-progression:tb;writing-mode:lr-tb;baseline-shift:baseline;text-anchor:start;white-space:normal;clip-rule:nonzero;display:inline;overflow:visible;visibility:visible;opacity:1;isolation:auto;mix-blend-mode:normal;color-interpolation:sRGB;color-interpolation-filters:linearRGB;solid-color:#000000;solid-opacity:1;fill:#000000;fill-opacity:1;fill-rule:evenodd;stroke:none;stroke-width:2;stroke-linecap:round;stroke-linejoin:round;stroke-miterlimit:4;stroke-dasharray:none;stroke-dashoffset:0;stroke-opacity:1;color-rendering:auto;image-rendering:auto;shape-rendering:auto;text-rendering:auto;enable-background:accumulate" d="m 1.9793224,1036.3626 a 0.99816112,0.99868486 0 0 0 -0.4113105,1.8997 l 5.9630265,2.9821 a 0.99816112,0.99868486 0 1 0 0.8908478,-1.7866 l -5.9630265,-2.9821 a 0.99816112,0.99868486 0 0 0 -0.4795373,-0.1131 z"/></g><g transform="translate(30,0)"><path d="M 4.984375,1034.3621 A 1.0001,1.000015 0 0 0 4,1035.3777 l 0,6.9701 a 1.0001,1.000015 0 1 0 2,0 l 0,-6.9701 a 1.0001,1.000015 0 0 0 -1.015625,-1.0156 z" style="color:#000000;font-style:normal;font-variant:normal;font-weight:normal;font-stretch:normal;font-size:medium;line-height:normal;font-family:sans-serif;text-indent:0;text-align:start;text-decoration:none;text-decoration-line:none;text-decoration-style:solid;text-decoration-color:#000000;letter-spacing:normal;word-spacing:normal;text-transform:none;direction:ltr;block-progression:tb;writing-mode:lr-tb;baseline-shift:baseline;text-anchor:start;white-space:normal;clip-rule:nonzero;display:inline;overflow:visible;visibility:visible;opacity:1;isolation:auto;mix-blend-mode:normal;color-interpolation:sRGB;color-interpolation-filters:linearRGB;solid-color:#000000;solid-opacity:1;fill:#000000;fill-opacity:1;fill-rule:evenodd;stroke:none;stroke-width:2;stroke-linecap:round;stroke-linejoin:round;stroke-miterlimit:4;stroke-dasharray:none;stroke-dashoffset:0;stroke-opacity:1;color-rendering:auto;image-rendering:auto;shape-rendering:auto;text-rendering:auto;enable-background:accumulate"/><path d="m 7.9917418,1036.3622 a 0.99819398,0.9987061 0 0 0 -0.4503121,0.1131 l -5.9632228,2.9822 a 0.99819398,0.9987061 0 1 0 0.8908771,1.7866 l 5.9632228,-2.9822 a 0.99819398,0.9987061 0 0 0 -0.440565,-1.8997 z" style="color:#000000;font-style:normal;font-variant:normal;font-weight:normal;font-stretch:normal;font-size:medium;line-height:normal;font-family:sans-serif;text-indent:0;text-align:start;text-decoration:none;text-decoration-line:none;text-decoration-style:solid;text-decoration-color:#000000;letter-spacing:normal;word-spacing:normal;text-transform:none;direction:ltr;block-progression:tb;writing-mode:lr-tb;baseline-shift:baseline;text-anchor:start;white-space:normal;clip-rule:nonzero;display:inline;overflow:visible;visibility:visible;opacity:1;isolation:auto;mix-blend-mode:normal;color-interpolation:sRGB;color-interpolation-filters:linearRGB;solid-color:#000000;solid-opacity:1;fill:#000000;fill-opacity:1;fill-rule:evenodd;stroke:none;stroke-width:2;stroke-linecap:round;stroke-linejoin:round;stroke-miterlimit:4;stroke-dasharray:none;stroke-dashoffset:0;stroke-opacity:1;color-rendering:auto;image-rendering:auto;shape-rendering:auto;text-rendering:auto;enable-background:accumulate"/><path d="m 1.9793224,1036.3626 a 0.99816112,0.99868486 0 0 0 -0.4113105,1.8997 l 5.9630265,2.9821 a 0.99816112,0.99868486 0 1 0 0.8908478,-1.7866 l -5.9630265,-2.9821 a 0.99816112,0.99868486 0 0 0 -0.4795373,-0.1131 z" style="color:#000000;font-style:normal;font-variant:normal;font-weight:normal;font-stretch:normal;font-size:medium;line-height:normal;font-family:sans-serif;text-indent:0;text-align:start;text-decoration:none;text-decoration-line:none;text-decoration-style:solid;text-decoration-color:#000000;letter-spacing:normal;word-spacing:normal;text-transform:none;direction:ltr;block-progression:tb;writing-mode:lr-tb;baseline-shift:baseline;text-anchor:start;white-space:normal;clip-rule:nonzero;display:inline;overflow:visible;visibility:visible;opacity:1;isolation:auto;mix-blend-mode:normal;color-interpolation:sRGB;color-interpolation-filters:linearRGB;solid-color:#000000;solid-opacity:1;fill:#000000;fill-opacity:1;fill-rule:evenodd;stroke:none;stroke-width:2;stroke-linecap:round;stroke-linejoin:round;stroke-miterlimit:4;stroke-dasharray:none;stroke-dashoffset:0;stroke-opacity:1;color-rendering:auto;image-rendering:auto;shape-rendering:auto;text-rendering:auto;enable-background:accumulate"/></g><g transform="translate(21,9.0002437)"><path style="color:#000000;font-style:normal;font-variant:normal;font-weight:normal;font-stretch:normal;font-size:medium;line-height:normal;font-family:sans-serif;text-indent:0;text-align:start;text-decoration:none;text-decoration-line:none;text-decoration-style:solid;text-decoration-color:#000000;letter-spacing:normal;word-spacing:normal;text-transform:none;direction:ltr;block-progression:tb;writing-mode:lr-tb;baseline-shift:baseline;text-anchor:start;white-space:normal;clip-rule:nonzero;display:inline;overflow:visible;visibility:visible;opacity:1;isolation:auto;mix-blend-mode:normal;color-interpolation:sRGB;color-interpolation-filters:linearRGB;solid-color:#000000;solid-opacity:1;fill:#000000;fill-opacity:1;fill-rule:evenodd;stroke:none;stroke-width:2;stroke-linecap:round;stroke-linejoin:round;stroke-miterlimit:4;stroke-dasharray:none;stroke-dashoffset:0;stroke-opacity:1;color-rendering:auto;image-rendering:auto;shape-rendering:auto;text-rendering:auto;enable-background:accumulate" d="M 4.984375,1034.3621 A 1.0001,1.000015 0 0 0 4,1035.3777 l 0,6.9701 a 1.0001,1.000015 0 1 0 2,0 l 0,-6.9701 a 1.0001,1.000015 0 0 0 -1.015625,-1.0156 z"/><path style="color:#000000;font-style:normal;font-variant:normal;font-weight:normal;font-stretch:normal;font-size:medium;line-height:normal;font-family:sans-serif;text-indent:0;text-align:start;text-decoration:none;text-decoration-line:none;text-decoration-style:solid;text-decoration-color:#000000;letter-spacing:normal;word-spacing:normal;text-transform:none;direction:ltr;block-progression:tb;writing-mode:lr-tb;baseline-shift:baseline;text-anchor:start;white-space:normal;clip-rule:nonzero;display:inline;overflow:visible;visibility:visible;opacity:1;isolation:auto;mix-blend-mode:normal;color-interpolation:sRGB;color-interpolation-filters:linearRGB;solid-color:#000000;solid-opacity:1;fill:#000000;fill-opacity:1;fill-rule:evenodd;stroke:none;stroke-width:2;stroke-linecap:round;stroke-linejoin:round;stroke-miterlimit:4;stroke-dasharray:none;stroke-dashoffset:0;stroke-opacity:1;color-rendering:auto;image-rendering:auto;shape-rendering:auto;text-rendering:auto;enable-background:accumulate" d="m 7.9917418,1036.3622 a 0.99819398,0.9987061 0 0 0 -0.4503121,0.1131 l -5.9632228,2.9822 a 0.99819398,0.9987061 0 1 0 0.8908771,1.7866 l 5.9632228,-2.9822 a 0.99819398,0.9987061 0 0 0 -0.440565,-1.8997 z"/><path style="color:#000000;font-style:normal;font-variant:normal;font-weight:normal;font-stretch:normal;font-size:medium;line-height:normal;font-family:sans-serif;text-indent:0;text-align:start;text-decoration:none;text-decoration-line:none;text-decoration-style:solid;text-decoration-color:#000000;letter-spacing:normal;word-spacing:normal;text-transform:none;direction:ltr;block-progression:tb;writing-mode:lr-tb;baseline-shift:baseline;text-anchor:start;white-space:normal;clip-rule:nonzero;display:inline;overflow:visible;visibility:visible;opacity:1;isolation:auto;mix-blend-mode:normal;color-interpolation:sRGB;color-interpolation-filters:linearRGB;solid-color:#000000;solid-opacity:1;fill:#000000;fill-opacity:1;fill-rule:evenodd;stroke:none;stroke-width:2;stroke-linecap:round;stroke-linejoin:round;stroke-miterlimit:4;stroke-dasharray:none;stroke-dashoffset:0;stroke-opacity:1;color-rendering:auto;image-rendering:auto;shape-rendering:auto;text-rendering:auto;enable-background:accumulate" d="m 1.9793224,1036.3626 a 0.99816112,0.99868486 0 0 0 -0.4113105,1.8997 l 5.9630265,2.9821 a 0.99816112,0.99868486 0 1 0 0.8908478,-1.7866 l -5.9630265,-2.9821 a 0.99816112,0.99868486 0 0 0 -0.4795373,-0.1131 z"/></g></g></svg>