<svg width='200' height='200' fill="#000000" xmlns:dc="http://purl.org/dc/elements/1.1/" xmlns:cc="http://creativecommons.org/ns#" xmlns:rdf="http://www.w3.org/1999/02/22-rdf-syntax-ns#" xmlns:svg="http://www.w3.org/2000/svg" xmlns="http://www.w3.org/2000/svg" xmlns:sodipodi="http://sodipodi.sourceforge.net/DTD/sodipodi-0.dtd" xmlns:inkscape="http://www.inkscape.org/namespaces/inkscape" viewBox="0 0 48 48.000001" version="1.1" x="0px" y="0px"><g transform="translate(0,-1004.3622)"><path style="color:#000000;font-style:normal;font-variant:normal;font-weight:normal;font-stretch:normal;font-size:medium;line-height:normal;font-family:sans-serif;text-indent:0;text-align:start;text-decoration:none;text-decoration-line:none;text-decoration-style:solid;text-decoration-color:#000000;letter-spacing:normal;word-spacing:normal;text-transform:none;direction:ltr;block-progression:tb;writing-mode:lr-tb;baseline-shift:baseline;text-anchor:start;white-space:normal;clip-rule:nonzero;display:inline;overflow:visible;visibility:visible;opacity:1;isolation:auto;mix-blend-mode:normal;color-interpolation:sRGB;color-interpolation-filters:linearRGB;solid-color:#000000;solid-opacity:1;fill:#000000;fill-opacity:1;fill-rule:evenodd;stroke:none;stroke-width:2;stroke-linecap:round;stroke-linejoin:round;stroke-miterlimit:4;stroke-dasharray:none;stroke-dashoffset:0;stroke-opacity:1;color-rendering:auto;image-rendering:auto;shape-rendering:auto;text-rendering:auto;enable-background:accumulate" d="m 40.984375,1033.3628 a 1.0001,1.0002355 0 0 0 -0.691406,0.291 l -2,2.0002 a 1.0001,1.0002355 0 1 0 1.414062,1.4143 L 41,1035.7751 l 1.583984,1.5844 -1.998046,1.9962 -27.585938,0 a 1.0001,1.0002355 0 0 0 -0.707031,0.293 l -3.0000002,3.0043 a 1.0001,1.0002355 0 0 0 0,1.4143 l 3.0000002,2.9985 A 1.0001,1.0002355 0 0 0 13,1047.3586 l 23.585938,0 0.998046,0.9984 -1.291015,1.2892 a 1.0005973,1.0007327 0 1 0 1.414062,1.4161 l 2,-1.9983 a 1.0001,1.0002355 0 0 0 0,-1.4161 l -2,-1.9964 A 1.0001,1.0002355 0 0 0 37,1045.3585 l -23.585938,0 -2,-2.0002 2,-2.0022 27.585938,0 a 1.0001,1.0002355 0 0 0 0.707031,-0.2911 l 3,-2.9965 a 1.0001,1.0002355 0 0 0 0,-1.4142 l -3,-3.0005 a 1.0001,1.0002355 0 0 0 -0.722656,-0.291 z"/><path style="color:#000000;font-style:normal;font-variant:normal;font-weight:normal;font-stretch:normal;font-size:medium;line-height:normal;font-family:sans-serif;text-indent:0;text-align:start;text-decoration:none;text-decoration-line:none;text-decoration-style:solid;text-decoration-color:#000000;letter-spacing:normal;word-spacing:normal;text-transform:none;direction:ltr;block-progression:tb;writing-mode:lr-tb;baseline-shift:baseline;text-anchor:start;white-space:normal;clip-rule:nonzero;display:inline;overflow:visible;visibility:visible;opacity:1;isolation:auto;mix-blend-mode:normal;color-interpolation:sRGB;color-interpolation-filters:linearRGB;solid-color:#000000;solid-opacity:1;fill:#000000;fill-opacity:1;fill-rule:evenodd;stroke:none;stroke-width:2;stroke-linecap:round;stroke-linejoin:round;stroke-miterlimit:4;stroke-dasharray:none;stroke-dashoffset:0;stroke-opacity:1;color-rendering:auto;image-rendering:auto;shape-rendering:auto;text-rendering:auto;enable-background:accumulate" d="m 45.003193,1040.3623 a 0.9990842,0.99939138 0 0 0 -0.696558,1.7175 l 1.281901,1.2803 -1.281901,1.2823 a 0.9990842,0.99939138 0 1 0 1.412627,1.4131 l 1.988212,-1.9888 a 0.9990842,0.99939138 0 0 0 0,-1.4131 l -1.988212,-1.9869 a 0.9990842,0.99939138 0 0 0 -0.716069,-0.3044 z"/><path style="color:#000000;font-style:normal;font-variant:normal;font-weight:normal;font-stretch:normal;font-size:medium;line-height:normal;font-family:sans-serif;text-indent:0;text-align:start;text-decoration:none;text-decoration-line:none;text-decoration-style:solid;text-decoration-color:#000000;letter-spacing:normal;word-spacing:normal;text-transform:none;direction:ltr;block-progression:tb;writing-mode:lr-tb;baseline-shift:baseline;text-anchor:start;white-space:normal;clip-rule:nonzero;display:inline;overflow:visible;visibility:visible;opacity:1;isolation:auto;mix-blend-mode:normal;color-interpolation:sRGB;color-interpolation-filters:linearRGB;solid-color:#000000;solid-opacity:1;fill:#000000;fill-opacity:1;fill-rule:evenodd;stroke:none;stroke-width:2;stroke-linecap:round;stroke-linejoin:round;stroke-miterlimit:4;stroke-dasharray:none;stroke-dashoffset:0;stroke-opacity:1;color-rendering:auto;image-rendering:auto;shape-rendering:auto;text-rendering:auto;enable-background:accumulate" d="m 3.984375,1044.3621 a 1.0001,1.0001 0 0 0 -0.6914062,0.293 l -3.00000005,3 a 1.0001,1.0001 0 0 0 0,1.4141 l 2.99804685,3 a 1.0001,1.0001 0 0 0 0.7070313,0.2929 l 9.9882811,0 a 1.0001,1.0001 0 1 0 0,-2 l -9.5742186,0 -1.9980469,-1.998 L 4,1046.7762 l 1.2929688,1.293 a 1.0001,1.0001 0 1 0 1.4140624,-1.4141 l -2,-2 a 1.0001,1.0001 0 0 0 -0.7226562,-0.293 z"/><path style="color:#000000;font-style:normal;font-variant:normal;font-weight:normal;font-stretch:normal;font-size:medium;line-height:normal;font-family:sans-serif;text-indent:0;text-align:start;text-decoration:none;text-decoration-line:none;text-decoration-style:solid;text-decoration-color:#000000;letter-spacing:normal;word-spacing:normal;text-transform:none;direction:ltr;block-progression:tb;writing-mode:lr-tb;baseline-shift:baseline;text-anchor:start;white-space:normal;clip-rule:nonzero;display:inline;overflow:visible;visibility:visible;opacity:1;isolation:auto;mix-blend-mode:normal;color-interpolation:sRGB;color-interpolation-filters:linearRGB;solid-color:#000000;solid-opacity:1;fill:#000000;fill-opacity:1;fill-rule:nonzero;stroke:none;stroke-width:2;stroke-linecap:round;stroke-linejoin:round;stroke-miterlimit:4;stroke-dasharray:none;stroke-dashoffset:0;stroke-opacity:1;color-rendering:auto;image-rendering:auto;shape-rendering:auto;text-rendering:auto;enable-background:accumulate" d="m 35.861328,1004.3617 a 1.0001,1.0001889 0 0 0 -0.128906,0.012 l 0.0059,0 c -0.0048,7e-4 -0.0088,0 -0.01367,0 a 1.0001,1.0001889 0 0 0 -0.316406,0.1074 c -4.252166,0.7832 -7.403274,4.4667 -7.408203,8.8348 a 1.0001,1.0001889 0 0 0 0.002,0.055 c 0.0014,0.026 0.0023,0.051 0.0039,0.076 a 1.0001,1.0001889 0 0 0 0.570313,0.8419 c 2.778341,1.3188 4.744819,3.9051 5.277344,6.942 a 1.0001,1.0001889 0 0 0 0.710937,0.7891 c 0.797188,0.2268 1.622525,0.3411 2.451172,0.3418 a 1.0001,1.0001889 0 0 0 0.002,0 c 3.258937,0 6.264291,-1.7738 7.855469,-4.6254 a 1.0001,1.0001889 0 0 0 -1.025391,-1.4766 c -0.32423,0.05 -0.650559,0.076 -0.978515,0.08 -6.67e-4,0 -0.0013,0 -0.002,0 -3.883163,-6e-4 -7.013516,-3.1407 -7.013672,-7.0456 0.0014,-1.2068 0.311792,-2.3939 0.90039,-3.4456 a 1.0001,1.0001889 0 0 0 -0.892578,-1.4864 z m -1.699219,2.6115 c -0.200347,0.7544 -0.307896,1.5336 -0.308593,2.3205 1.83e-4,4.602 3.502588,8.2732 7.945312,8.8289 -1.294868,1.2973 -2.901048,2.2361 -4.78125,2.2385 -0.477219,-4e-4 -0.945676,-0.1 -1.412109,-0.1972 -0.757128,-3.1002 -2.746621,-5.7195 -5.527344,-7.276 0.168348,-2.6419 1.757754,-4.8622 4.083984,-5.9147 z"/><path style="color:#000000;font-style:normal;font-variant:normal;font-weight:normal;font-stretch:normal;font-size:medium;line-height:normal;font-family:sans-serif;text-indent:0;text-align:start;text-decoration:none;text-decoration-line:none;text-decoration-style:solid;text-decoration-color:#000000;letter-spacing:normal;word-spacing:normal;text-transform:none;direction:ltr;block-progression:tb;writing-mode:lr-tb;baseline-shift:baseline;text-anchor:start;white-space:normal;clip-rule:nonzero;display:inline;overflow:visible;visibility:visible;opacity:1;isolation:auto;mix-blend-mode:normal;color-interpolation:sRGB;color-interpolation-filters:linearRGB;solid-color:#000000;solid-opacity:1;fill:#000000;fill-opacity:1;fill-rule:nonzero;stroke:none;stroke-width:2;stroke-linecap:round;stroke-linejoin:round;stroke-miterlimit:4;stroke-dasharray:none;stroke-dashoffset:0;stroke-opacity:1;color-rendering:auto;image-rendering:auto;shape-rendering:auto;text-rendering:auto;enable-background:accumulate" d="m 25.027344,1011.3652 a 1.0001,1.0001 0 0 0 -0.316406,0.041 c -4.173166,-0.025 -8.096472,2.4066 -10.382813,6.0723 -3.254637,-1.0578 -6.9263065,-0.7489 -9.4804688,1.7363 -2.6902875,2.6181 -3.5693146,6.5786 -2.2304687,10.0762 1.3388277,3.4976 4.6399276,5.8799 8.4003905,6.0703 a 1.0001,1.0001 0 0 0 0.05078,0 l 13.486329,0 a 1.0001,1.0001 0 0 0 0.425781,-0.096 c 5.472301,-0.3767 10.01692,-4.516 10.875,-10.0703 0.883973,-5.7222 -2.357589,-11.2964 -7.726563,-13.2305 -1.019715,-0.3671 -2.064449,-0.5618 -3.101562,-0.5996 z m -0.07227,2.002 a 1.0001,1.0001 0 0 0 0.0098,0 c 0.833354,0.031 1.666806,0.1854 2.486328,0.4805 4.457526,1.6057 7.169461,6.2415 6.427734,11.0429 -0.738129,4.7779 -4.668678,8.3083 -9.359375,8.4629 a 1.0001,1.0001 0 0 0 -0.09961,0.01 l -13.310547,0 c -2.9754932,-0.1547 -5.5691563,-2.0319 -6.6230469,-4.7851 -1.0550541,-2.7562 -0.3696731,-5.8593 1.7558594,-7.9278 2.071719,-2.0158 5.2142265,-2.2467 8.0605465,-1.1211 0.0039,0 0.0078,0 0.01172,0 a 1.0001,1.0001 0 0 0 0.08203,0.029 1.0001,1.0001 0 0 0 0.06641,0.016 1.0001,1.0001 0 0 0 0.130859,0.022 1.0001,1.0001 0 0 0 0.08984,0 1.0001,1.0001 0 0 0 0.09961,-0 1.0001,1.0001 0 0 0 0.289063,-0.074 1.0001,1.0001 0 0 0 0.175781,-0.096 1.0001,1.0001 0 0 0 0.07813,-0.06 1.0001,1.0001 0 0 0 0.03906,-0.035 l 0.03516,-0.033 0.113281,-0.1054 a 1.0001,1.0001 0 0 0 0.189453,-0.2403 c 1.934012,-3.4481 5.623921,-5.7182 9.251953,-5.5859 z"/></g></svg>