<svg width='200' height='200' fill="#000000" xmlns:dc="http://purl.org/dc/elements/1.1/" xmlns:cc="http://creativecommons.org/ns#" xmlns:rdf="http://www.w3.org/1999/02/22-rdf-syntax-ns#" xmlns:svg="http://www.w3.org/2000/svg" xmlns="http://www.w3.org/2000/svg" xmlns:sodipodi="http://sodipodi.sourceforge.net/DTD/sodipodi-0.dtd" xmlns:inkscape="http://www.inkscape.org/namespaces/inkscape" viewBox="0 0 48 48.000001" version="1.1" x="0px" y="0px"><g transform="translate(0,-1004.3622)"><path style="color:#000000;font-style:normal;font-variant:normal;font-weight:normal;font-stretch:normal;font-size:medium;line-height:normal;font-family:sans-serif;text-indent:0;text-align:start;text-decoration:none;text-decoration-line:none;text-decoration-style:solid;text-decoration-color:#000000;letter-spacing:normal;word-spacing:normal;text-transform:none;direction:ltr;block-progression:tb;writing-mode:lr-tb;baseline-shift:baseline;text-anchor:start;white-space:normal;clip-rule:nonzero;display:inline;overflow:visible;visibility:visible;opacity:1;isolation:auto;mix-blend-mode:normal;color-interpolation:sRGB;color-interpolation-filters:linearRGB;solid-color:#000000;solid-opacity:1;fill:#000000;fill-opacity:1;fill-rule:evenodd;stroke:none;stroke-width:2;stroke-linecap:round;stroke-linejoin:round;stroke-miterlimit:4;stroke-dasharray:none;stroke-dashoffset:0;stroke-opacity:1;color-rendering:auto;image-rendering:auto;shape-rendering:auto;text-rendering:auto;enable-background:accumulate" d="m 40.984375,1029.3628 a 1.0001,1.0009875 0 0 0 -0.691406,0.2913 l -2,2.0018 a 1.0001,1.0009875 0 1 0 1.414062,1.4151 L 41,1031.7769 l 1.583984,1.5856 -1.998046,1.9975 -27.585938,0 a 1.0001,1.0009875 0 0 0 -0.707031,0.2934 l -3.0000002,3.0066 a 1.0001,1.0009875 0 0 0 0,1.4154 l 3.0000002,3.0008 A 1.0001,1.0009875 0 0 0 13,1043.3693 l 23.585938,0 0.998046,0.9989 -1.291015,1.2902 a 1.0005973,1.0014852 0 0 0 1.414062,1.4172 l 2,-1.9997 a 1.0001,1.0009875 0 0 0 0,-1.4173 l -2,-1.9979 A 1.0001,1.0009875 0 0 0 37,1041.3673 l -23.585938,0 -2,-2.0017 2,-2.0035 27.585938,0 a 1.0001,1.0009875 0 0 0 0.707031,-0.2913 l 3,-2.9988 a 1.0001,1.0009875 0 0 0 0,-1.4154 l -3,-3.0025 a 1.0001,1.0009875 0 0 0 -0.722656,-0.2913 z"/><path style="color:#000000;font-style:normal;font-variant:normal;font-weight:normal;font-stretch:normal;font-size:medium;line-height:normal;font-family:sans-serif;text-indent:0;text-align:start;text-decoration:none;text-decoration-line:none;text-decoration-style:solid;text-decoration-color:#000000;letter-spacing:normal;word-spacing:normal;text-transform:none;direction:ltr;block-progression:tb;writing-mode:lr-tb;baseline-shift:baseline;text-anchor:start;white-space:normal;clip-rule:nonzero;display:inline;overflow:visible;visibility:visible;opacity:1;isolation:auto;mix-blend-mode:normal;color-interpolation:sRGB;color-interpolation-filters:linearRGB;solid-color:#000000;solid-opacity:1;fill:#000000;fill-opacity:1;fill-rule:evenodd;stroke:none;stroke-width:2;stroke-linecap:round;stroke-linejoin:round;stroke-miterlimit:4;stroke-dasharray:none;stroke-dashoffset:0;stroke-opacity:1;color-rendering:auto;image-rendering:auto;shape-rendering:auto;text-rendering:auto;enable-background:accumulate" d="m 45.003202,1036.3623 a 0.99909259,0.99939082 0 0 0 -0.696563,1.7175 l 1.281911,1.2803 -1.281911,1.2823 a 0.99909259,0.99939082 0 1 0 1.412638,1.4131 l 1.98823,-1.9888 a 0.99909259,0.99939082 0 0 0 0,-1.4131 l -1.98823,-1.9869 a 0.99909259,0.99939082 0 0 0 -0.716075,-0.3044 z"/><path style="color:#000000;font-style:normal;font-variant:normal;font-weight:normal;font-stretch:normal;font-size:medium;line-height:normal;font-family:sans-serif;text-indent:0;text-align:start;text-decoration:none;text-decoration-line:none;text-decoration-style:solid;text-decoration-color:#000000;letter-spacing:normal;word-spacing:normal;text-transform:none;direction:ltr;block-progression:tb;writing-mode:lr-tb;baseline-shift:baseline;text-anchor:start;white-space:normal;clip-rule:nonzero;display:inline;overflow:visible;visibility:visible;opacity:1;isolation:auto;mix-blend-mode:normal;color-interpolation:sRGB;color-interpolation-filters:linearRGB;solid-color:#000000;solid-opacity:1;fill:#000000;fill-opacity:1;fill-rule:evenodd;stroke:none;stroke-width:2;stroke-linecap:round;stroke-linejoin:round;stroke-miterlimit:4;stroke-dasharray:none;stroke-dashoffset:0;stroke-opacity:1;color-rendering:auto;image-rendering:auto;shape-rendering:auto;text-rendering:auto;enable-background:accumulate" d="m 10.985002,1020.3623 a 0.9999883,1.000319 0 0 0 -0.691329,0.2911 l -1.9997768,2.0005 a 0.9999883,1.000319 0 1 0 1.4139045,1.4144 l 1.2928243,-1.2933 1.585761,1.5882 -1.997824,1.9985 -9.5731496,0 a 0.9999883,1.000319 0 1 0 0,2.0004 l 9.9871656,0 a 0.9999883,1.000319 0 0 0 0.706952,-0.293 l 2.997712,-3.0006 a 0.9999883,1.000319 0 0 0 0,-1.4144 l -2.999665,-3.0007 a 0.9999883,1.000319 0 0 0 -0.722575,-0.2911 z"/><path style="color:#000000;font-style:normal;font-variant:normal;font-weight:normal;font-stretch:normal;font-size:medium;line-height:normal;font-family:sans-serif;text-indent:0;text-align:start;text-decoration:none;text-decoration-line:none;text-decoration-style:solid;text-decoration-color:#000000;letter-spacing:normal;word-spacing:normal;text-transform:none;direction:ltr;block-progression:tb;writing-mode:lr-tb;baseline-shift:baseline;text-anchor:start;white-space:normal;clip-rule:nonzero;display:inline;overflow:visible;visibility:visible;opacity:1;isolation:auto;mix-blend-mode:normal;color-interpolation:sRGB;color-interpolation-filters:linearRGB;solid-color:#000000;solid-opacity:1;fill:#000000;fill-opacity:1;fill-rule:nonzero;stroke:none;stroke-width:2;stroke-linecap:round;stroke-linejoin:round;stroke-miterlimit:4;stroke-dasharray:none;stroke-dashoffset:0;stroke-opacity:1;color-rendering:auto;image-rendering:auto;shape-rendering:auto;text-rendering:auto;enable-background:accumulate" d="m 26.027497,1009.3627 a 1.0000795,1.0002286 0 0 0 -0.3164,0.041 c -4.173063,-0.025 -8.096353,2.407 -10.3826,6.0731 -3.254489,-1.0578 -6.9261852,-0.749 -9.4802745,1.7365 -2.6901689,2.6186 -3.5692293,6.5795 -2.230423,10.0775 1.3387687,3.4981 4.6399149,5.8805 8.4002185,6.0711 a 1.0000795,1.0002286 0 0 0 0.05078,0 l 13.486052,0 a 1.0000795,1.0002286 0 0 0 0.425773,-0.096 c 5.472094,-0.3769 10.016718,-4.5165 10.874777,-10.0716 0.883931,-5.7229 -2.357632,-11.2978 -7.726405,-13.2322 -1.019743,-0.3672 -2.064496,-0.5619 -3.101498,-0.5997 z m -0.07227,2.0023 a 1.0000795,1.0002286 0 0 0 0.0098,0 c 0.833385,0.031 1.666841,0.1854 2.486277,0.4805 4.457365,1.606 7.169297,6.2423 6.427602,11.0444 -0.738118,4.7786 -4.670598,8.3093 -9.361136,8.4639 a 1.0000795,1.0002286 0 0 0 -0.09961,0.01 l -13.308321,0 c -2.9754157,-0.1547 -5.5690706,-2.0321 -6.6229112,-4.7857 -1.0550246,-2.7565 -0.3696488,-5.8599 1.7558234,-7.9288 2.0716187,-2.016 5.2141278,-2.2469 8.0603818,-1.1212 0.0039,0 0.0078,0 0.01172,0 a 1.0000795,1.0002286 0 0 0 0.08203,0.029 1.0000795,1.0002286 0 0 0 0.06641,0.016 1.0000795,1.0002286 0 0 0 0.130857,0.022 1.0000795,1.0002286 0 0 0 0.08984,0 1.0000795,1.0002286 0 0 0 0.294916,-0.045 1.0000795,1.0002286 0 0 0 0.09375,-0.033 1.0000795,1.0002286 0 0 0 0.08984,-0.043 1.0000795,1.0002286 0 0 0 0.08594,-0.053 1.0000795,1.0002286 0 0 0 0.117185,-0.096 l 0.03516,-0.033 0.113279,-0.1035 a 1.0000795,1.0002286 0 0 0 0.189449,-0.2422 c 1.933939,-3.4486 5.623932,-5.719 9.251763,-5.5866 z"/></g></svg>