<svg width='200' height='200' fill="#000000" xmlns:dc="http://purl.org/dc/elements/1.1/" xmlns:cc="http://creativecommons.org/ns#" xmlns:rdf="http://www.w3.org/1999/02/22-rdf-syntax-ns#" xmlns:svg="http://www.w3.org/2000/svg" xmlns="http://www.w3.org/2000/svg" xmlns:sodipodi="http://sodipodi.sourceforge.net/DTD/sodipodi-0.dtd" xmlns:inkscape="http://www.inkscape.org/namespaces/inkscape" viewBox="0 0 48 48.000001" version="1.1" x="0px" y="0px"><g transform="translate(0,-1004.3622)"><path style="color:#000000;font-style:normal;font-variant:normal;font-weight:normal;font-stretch:normal;font-size:medium;line-height:normal;font-family:sans-serif;text-indent:0;text-align:start;text-decoration:none;text-decoration-line:none;text-decoration-style:solid;text-decoration-color:#000000;letter-spacing:normal;word-spacing:normal;text-transform:none;direction:ltr;block-progression:tb;writing-mode:lr-tb;baseline-shift:baseline;text-anchor:start;white-space:normal;clip-rule:nonzero;display:inline;overflow:visible;visibility:visible;opacity:1;isolation:auto;mix-blend-mode:normal;color-interpolation:sRGB;color-interpolation-filters:linearRGB;solid-color:#000000;solid-opacity:1;fill:#000000;fill-opacity:1;fill-rule:nonzero;stroke:none;stroke-width:2.00005341;stroke-linecap:round;stroke-linejoin:round;stroke-miterlimit:4;stroke-dasharray:none;stroke-dashoffset:0;stroke-opacity:1;color-rendering:auto;image-rendering:auto;shape-rendering:auto;text-rendering:auto;enable-background:accumulate" d="m 33.251849,1017.773 a 1.0052489,0.99494512 15.044367 0 0 0.818552,1.8152 c 3.398886,-1.1021 5.955395,-1.3817 7.112238,-1.1211 0.578419,0.1302 0.704218,0.2844 0.76496,0.4382 0.06075,0.1537 0.07966,0.5687 -0.267944,1.2951 -0.695217,1.4527 -2.651441,3.644 -5.434518,5.9516 -2.783073,2.3076 -6.387134,4.7828 -10.389427,7.0719 -4.002287,2.2891 -7.977502,4.1495 -11.407481,5.3952 -3.429992,1.2457 -6.3546359,1.8494 -8.0154899,1.7354 -0.8304269,-0.057 -1.2130502,-0.2814 -1.3266189,-0.4123 -0.1135737,-0.1309 -0.1863475,-0.2946 -0.026645,-0.8393 0.3194143,-1.0893 1.8069343,-3.1267 4.4451073,-5.477 a 1.0055028,0.99519639 15.044367 0 0 -1.3485803,-1.4836 c -2.7656072,2.4639 -4.4772394,4.5239 -5.0259776,6.3953 -0.2743698,0.9357 -0.1966398,1.9681 0.4357304,2.6969 0.6323615,0.7289 1.5922469,1.0295 2.7185067,1.1068 2.2525211,0.1546 5.2784953,-0.5577 8.8429333,-1.8522 3.564438,-1.2946 7.627043,-3.1989 11.719136,-5.5393 4.092107,-2.3405 7.776517,-4.8686 10.670536,-7.2683 2.894028,-2.3996 5.003355,-4.6212 5.959973,-6.6201 0.478309,-0.9995 0.676741,-1.9779 0.322928,-2.8735 -0.353813,-0.8955 -1.234555,-1.4445 -2.201742,-1.6624 -1.934363,-0.4356 -4.621531,0.015 -8.181318,1.169 a 1.0052489,0.99494512 15.044367 0 0 -0.184859,0.079 z"/><path style="color:#000000;font-style:normal;font-variant:normal;font-weight:normal;font-stretch:normal;font-size:medium;line-height:normal;font-family:sans-serif;text-indent:0;text-align:start;text-decoration:none;text-decoration-line:none;text-decoration-style:solid;text-decoration-color:#000000;letter-spacing:normal;word-spacing:normal;text-transform:none;direction:ltr;block-progression:tb;writing-mode:lr-tb;baseline-shift:baseline;text-anchor:start;white-space:normal;clip-rule:nonzero;display:inline;overflow:visible;visibility:visible;opacity:1;isolation:auto;mix-blend-mode:normal;color-interpolation:sRGB;color-interpolation-filters:linearRGB;solid-color:#000000;solid-opacity:1;fill:#000000;fill-opacity:1;fill-rule:nonzero;stroke:none;stroke-width:1.99999988;stroke-linecap:round;stroke-linejoin:round;stroke-miterlimit:4;stroke-dasharray:none;stroke-dashoffset:0;stroke-opacity:1;color-rendering:auto;image-rendering:auto;shape-rendering:auto;text-rendering:auto;enable-background:accumulate" d="m 15.999271,1016.5045 c -7.6434799,4.413 -10.2700892,14.2156 -5.857129,21.8591 4.412965,7.6435 14.215604,10.2701 21.859084,5.8571 7.643471,-4.413 10.27008,-14.2156 5.857115,-21.8591 -4.41296,-7.6434 -14.215599,-10.2701 -21.85907,-5.8571 z m 1,1.7321 c 6.707401,-3.8726 15.254499,-1.5824 19.127019,5.125 3.872525,6.7074 1.582337,15.2545 -5.125064,19.1271 -6.70741,3.8725 -15.254508,1.5823 -19.127033,-5.1251 -3.8725204,-6.7074 -1.582332,-15.2545 5.125078,-19.127 z"/></g></svg>