<svg width='200' height='200' fill="#000000" xmlns:dc="http://purl.org/dc/elements/1.1/" xmlns:cc="http://creativecommons.org/ns#" xmlns:rdf="http://www.w3.org/1999/02/22-rdf-syntax-ns#" xmlns:svg="http://www.w3.org/2000/svg" xmlns="http://www.w3.org/2000/svg" xmlns:sodipodi="http://sodipodi.sourceforge.net/DTD/sodipodi-0.dtd" xmlns:inkscape="http://www.inkscape.org/namespaces/inkscape" viewBox="0 0 48 48.000001" version="1.1" x="0px" y="0px"><g transform="translate(0,-1004.3622)"><path style="color:#000000;font-style:normal;font-variant:normal;font-weight:normal;font-stretch:normal;font-size:medium;line-height:normal;font-family:sans-serif;text-indent:0;text-align:start;text-decoration:none;text-decoration-line:none;text-decoration-style:solid;text-decoration-color:#000000;letter-spacing:normal;word-spacing:normal;text-transform:none;direction:ltr;block-progression:tb;writing-mode:lr-tb;baseline-shift:baseline;text-anchor:start;white-space:normal;clip-rule:nonzero;display:inline;overflow:visible;visibility:visible;opacity:1;isolation:auto;mix-blend-mode:normal;color-interpolation:sRGB;color-interpolation-filters:linearRGB;solid-color:#000000;solid-opacity:1;fill:#000000;fill-opacity:1;fill-rule:evenodd;stroke:none;stroke-width:1.99999988;stroke-linecap:round;stroke-linejoin:round;stroke-miterlimit:4;stroke-dasharray:none;stroke-dashoffset:0;stroke-opacity:1;color-rendering:auto;image-rendering:auto;shape-rendering:auto;text-rendering:auto;enable-background:accumulate" d="m 35.990178,1041.3671 a 0.99965659,0.99847127 0 0 0 -0.450972,0.1131 l -3.549208,1.7667 -3.549207,-1.7667 a 0.99965659,0.99847127 0 0 0 -0.892182,0 l -3.549207,1.7667 -3.547255,-1.7667 a 0.99965659,0.99847127 0 0 0 -0.894136,0 l -3.547255,1.7667 -3.549207,-1.7667 a 0.99965659,0.99847127 0 0 0 -0.892182,0 l -3.5492081,1.7667 -3.5492073,-1.7667 a 0.99965659,0.99847127 0 1 0 -0.8921826,1.7862 l 3.9943225,1.9909 a 0.99965659,0.99847127 0 0 0 0.8921825,0 l 3.549207,-1.7686 3.549209,1.7686 a 0.99965659,0.99847127 0 0 0 0.892182,0 l 3.549207,-1.7686 3.549207,1.7686 a 0.99965659,0.99847127 0 0 0 0.892182,0 l 3.549208,-1.7686 3.549208,1.7686 a 0.99965659,0.99847127 0 0 0 0.892182,0 l 3.994323,-1.9909 a 0.99965659,0.99847127 0 0 0 -0.441211,-1.8993 z"/><path style="color:#000000;font-style:normal;font-variant:normal;font-weight:normal;font-stretch:normal;font-size:medium;line-height:normal;font-family:sans-serif;text-indent:0;text-align:start;text-decoration:none;text-decoration-line:none;text-decoration-style:solid;text-decoration-color:#000000;letter-spacing:normal;word-spacing:normal;text-transform:none;direction:ltr;block-progression:tb;writing-mode:lr-tb;baseline-shift:baseline;text-anchor:start;white-space:normal;clip-rule:nonzero;display:inline;overflow:visible;visibility:visible;opacity:1;isolation:auto;mix-blend-mode:normal;color-interpolation:sRGB;color-interpolation-filters:linearRGB;solid-color:#000000;solid-opacity:1;fill:#000000;fill-opacity:1;fill-rule:evenodd;stroke:none;stroke-width:1.99999988;stroke-linecap:round;stroke-linejoin:round;stroke-miterlimit:4;stroke-dasharray:none;stroke-dashoffset:0;stroke-opacity:1;color-rendering:auto;image-rendering:auto;shape-rendering:auto;text-rendering:auto;enable-background:accumulate" d="m 35.989989,1046.3671 a 0.99965085,0.99847129 0 0 0 -0.45097,0.1131 l -3.549188,1.7667 -3.549186,-1.7667 a 0.99965085,0.99847129 0 0 0 -0.892177,0 l -3.549187,1.7667 -3.547235,-1.7667 a 0.99965085,0.99847129 0 0 0 -0.89413,0 l -3.547235,1.7667 -3.549186,-1.7667 a 0.99965085,0.99847129 0 0 0 -0.892177,0 l -3.5491877,1.7667 -3.5491868,-1.7667 a 0.99965085,0.99847129 0 1 0 -0.8921775,1.7862 l 3.9942996,1.9909 a 0.99965085,0.99847129 0 0 0 0.8921773,0 l 3.5491871,-1.7686 3.549187,1.7686 a 0.99965085,0.99847129 0 0 0 0.892177,0 l 3.549187,-1.7686 3.549187,1.7686 a 0.99965085,0.99847129 0 0 0 0.892177,0 l 3.549188,-1.7686 3.549186,1.7686 a 0.99965085,0.99847129 0 0 0 0.892178,0 l 3.994299,-1.9909 a 0.99965085,0.99847129 0 0 0 -0.441207,-1.8993 z"/><path style="color:#000000;font-style:normal;font-variant:normal;font-weight:normal;font-stretch:normal;font-size:medium;line-height:normal;font-family:sans-serif;text-indent:0;text-align:start;text-decoration:none;text-decoration-line:none;text-decoration-style:solid;text-decoration-color:#000000;letter-spacing:normal;word-spacing:normal;text-transform:none;direction:ltr;block-progression:tb;writing-mode:lr-tb;baseline-shift:baseline;text-anchor:start;white-space:normal;clip-rule:nonzero;display:inline;overflow:visible;visibility:visible;opacity:1;isolation:auto;mix-blend-mode:normal;color-interpolation:sRGB;color-interpolation-filters:linearRGB;solid-color:#000000;solid-opacity:1;fill:#000000;fill-opacity:1;fill-rule:nonzero;stroke:none;stroke-width:2;stroke-linecap:round;stroke-linejoin:round;stroke-miterlimit:4;stroke-dasharray:none;stroke-dashoffset:0;stroke-opacity:1;color-rendering:auto;image-rendering:auto;shape-rendering:auto;text-rendering:auto;enable-background:accumulate" d="m 10.871094,1014.9648 c -5.3688832,1.9342 -8.6105133,7.5083 -7.7265628,13.2305 0.8580697,5.5544 5.3949784,9.7482 10.8671878,10.125 4.691287,0.07 9.308421,0.041 13.919922,0.041 3.931538,0 7.56812,-3.2459 8.449217,-6.0703 1.338833,-3.4976 0.461713,-7.458 -2.228515,-10.0762 -2.554139,-2.4852 -6.225915,-2.794 -9.480469,-1.7363 -2.28594,-3.665 -6.200619,-6.1281 -10.373047,-6.1036 -1.17607,0 -2.471925,0.252 -3.427733,0.5896 z m 3.173832,1.4024 c 3.627902,-0.1324 7.317968,2.1378 9.251953,5.5859 0.05029,0.09 0.114194,0.1717 0.189453,0.2422 l 0.140625,0.1289 0.0078,0.01 c 0.0058,0 0.01167,0.01 0.01758,0.014 0.01886,0.018 0.03841,0.035 0.05859,0.051 0.02515,0.02 0.05122,0.038 0.07812,0.055 l 0.0039,0 c 0.02539,0.015 0.05146,0.03 0.07813,0.043 0.02617,0.013 0.05289,0.024 0.08008,0.035 l 0.01172,0.01 c 0.011,0 0.02206,0.01 0.0332,0.012 0.02382,0.01 0.04792,0.015 0.07227,0.021 0.05129,0.013 0.103534,0.022 0.15625,0.027 0.0098,10e-5 0.01953,10e-5 0.0293,0 0.02083,7e-4 0.04167,7e-4 0.0625,0 0.06691,0 0.133649,-0.01 0.199219,-0.02 0.05804,-0.012 0.114904,-0.029 0.169922,-0.051 2.849399,-1.1308 5.997766,-0.9013 8.072265,1.1172 2.12552,2.0686 2.810905,5.1716 1.75586,7.9278 -1.053864,2.7532 -3.647574,4.6304 -6.623047,4.7851 -4.466298,-0.011 -8.950433,0.02 -13.408206,-0.01 -4.6906356,-0.1546 -8.6232006,-3.6849 -9.3613282,-8.4629 -0.7417095,-4.8014 1.970278,-9.4371 6.4277342,-11.0429 0.816232,-0.2939 1.646432,-0.4464 2.476563,-0.4786 l 0.01953,0 z"/><path style="color:#000000;font-style:normal;font-variant:normal;font-weight:normal;font-stretch:normal;font-size:medium;line-height:normal;font-family:sans-serif;text-indent:0;text-align:start;text-decoration:none;text-decoration-line:none;text-decoration-style:solid;text-decoration-color:#000000;letter-spacing:normal;word-spacing:normal;text-transform:none;direction:ltr;block-progression:tb;writing-mode:lr-tb;baseline-shift:baseline;text-anchor:start;white-space:normal;clip-rule:nonzero;display:inline;overflow:visible;visibility:visible;opacity:1;isolation:auto;mix-blend-mode:normal;color-interpolation:sRGB;color-interpolation-filters:linearRGB;solid-color:#000000;solid-opacity:1;fill:#000000;fill-opacity:1;fill-rule:evenodd;stroke:none;stroke-width:2;stroke-linecap:round;stroke-linejoin:round;stroke-miterlimit:4;stroke-dasharray:none;stroke-dashoffset:0;stroke-opacity:1;color-rendering:auto;image-rendering:auto;shape-rendering:auto;text-rendering:auto;enable-background:accumulate" d="M 28.984375,1007.3621 A 1.0001,1.000015 0 0 0 28,1008.3777 l 0,6.9701 a 1.0001,1.000015 0 1 0 2,0 l 0,-6.9701 a 1.0001,1.000015 0 0 0 -1.015625,-1.0156 z"/><path style="color:#000000;font-style:normal;font-variant:normal;font-weight:normal;font-stretch:normal;font-size:medium;line-height:normal;font-family:sans-serif;text-indent:0;text-align:start;text-decoration:none;text-decoration-line:none;text-decoration-style:solid;text-decoration-color:#000000;letter-spacing:normal;word-spacing:normal;text-transform:none;direction:ltr;block-progression:tb;writing-mode:lr-tb;baseline-shift:baseline;text-anchor:start;white-space:normal;clip-rule:nonzero;display:inline;overflow:visible;visibility:visible;opacity:1;isolation:auto;mix-blend-mode:normal;color-interpolation:sRGB;color-interpolation-filters:linearRGB;solid-color:#000000;solid-opacity:1;fill:#000000;fill-opacity:1;fill-rule:evenodd;stroke:none;stroke-width:1.99999988;stroke-linecap:round;stroke-linejoin:round;stroke-miterlimit:4;stroke-dasharray:none;stroke-dashoffset:0;stroke-opacity:1;color-rendering:auto;image-rendering:auto;shape-rendering:auto;text-rendering:auto;enable-background:accumulate" d="m 31.991755,1009.3622 a 0.99819517,0.99870619 0 0 0 -0.450313,0.1131 l -5.963231,2.9822 a 0.99819517,0.99870619 0 1 0 0.890878,1.7866 l 5.963231,-2.9822 a 0.99819517,0.99870619 0 0 0 -0.440565,-1.8997 z"/><path style="color:#000000;font-style:normal;font-variant:normal;font-weight:normal;font-stretch:normal;font-size:medium;line-height:normal;font-family:sans-serif;text-indent:0;text-align:start;text-decoration:none;text-decoration-line:none;text-decoration-style:solid;text-decoration-color:#000000;letter-spacing:normal;word-spacing:normal;text-transform:none;direction:ltr;block-progression:tb;writing-mode:lr-tb;baseline-shift:baseline;text-anchor:start;white-space:normal;clip-rule:nonzero;display:inline;overflow:visible;visibility:visible;opacity:1;isolation:auto;mix-blend-mode:normal;color-interpolation:sRGB;color-interpolation-filters:linearRGB;solid-color:#000000;solid-opacity:1;fill:#000000;fill-opacity:1;fill-rule:evenodd;stroke:none;stroke-width:1.99999988;stroke-linecap:round;stroke-linejoin:round;stroke-miterlimit:4;stroke-dasharray:none;stroke-dashoffset:0;stroke-opacity:1;color-rendering:auto;image-rendering:auto;shape-rendering:auto;text-rendering:auto;enable-background:accumulate" d="m 25.979324,1009.3626 a 0.99816115,0.99868446 0 0 0 -0.411311,1.8997 l 5.963028,2.9821 a 0.99816115,0.99868446 0 1 0 0.890847,-1.7866 l -5.963028,-2.9821 a 0.99816115,0.99868446 0 0 0 -0.479536,-0.1131 z"/><path d="M 39.984375,1012.3623 A 1.0001,1.000015 0 0 0 39,1013.3779 l 0,6.9701 a 1.0001,1.000015 0 1 0 2,0 l 0,-6.9701 a 1.0001,1.000015 0 0 0 -1.015625,-1.0156 z" style="color:#000000;font-style:normal;font-variant:normal;font-weight:normal;font-stretch:normal;font-size:medium;line-height:normal;font-family:sans-serif;text-indent:0;text-align:start;text-decoration:none;text-decoration-line:none;text-decoration-style:solid;text-decoration-color:#000000;letter-spacing:normal;word-spacing:normal;text-transform:none;direction:ltr;block-progression:tb;writing-mode:lr-tb;baseline-shift:baseline;text-anchor:start;white-space:normal;clip-rule:nonzero;display:inline;overflow:visible;visibility:visible;opacity:1;isolation:auto;mix-blend-mode:normal;color-interpolation:sRGB;color-interpolation-filters:linearRGB;solid-color:#000000;solid-opacity:1;fill:#000000;fill-opacity:1;fill-rule:evenodd;stroke:none;stroke-width:2;stroke-linecap:round;stroke-linejoin:round;stroke-miterlimit:4;stroke-dasharray:none;stroke-dashoffset:0;stroke-opacity:1;color-rendering:auto;image-rendering:auto;shape-rendering:auto;text-rendering:auto;enable-background:accumulate"/><path d="m 42.991755,1014.3624 a 0.99819517,0.99870619 0 0 0 -0.450313,0.1131 l -5.963231,2.9822 a 0.99819517,0.99870619 0 1 0 0.890878,1.7866 l 5.963231,-2.9822 a 0.99819517,0.99870619 0 0 0 -0.440565,-1.8997 z" style="color:#000000;font-style:normal;font-variant:normal;font-weight:normal;font-stretch:normal;font-size:medium;line-height:normal;font-family:sans-serif;text-indent:0;text-align:start;text-decoration:none;text-decoration-line:none;text-decoration-style:solid;text-decoration-color:#000000;letter-spacing:normal;word-spacing:normal;text-transform:none;direction:ltr;block-progression:tb;writing-mode:lr-tb;baseline-shift:baseline;text-anchor:start;white-space:normal;clip-rule:nonzero;display:inline;overflow:visible;visibility:visible;opacity:1;isolation:auto;mix-blend-mode:normal;color-interpolation:sRGB;color-interpolation-filters:linearRGB;solid-color:#000000;solid-opacity:1;fill:#000000;fill-opacity:1;fill-rule:evenodd;stroke:none;stroke-width:1.99999988;stroke-linecap:round;stroke-linejoin:round;stroke-miterlimit:4;stroke-dasharray:none;stroke-dashoffset:0;stroke-opacity:1;color-rendering:auto;image-rendering:auto;shape-rendering:auto;text-rendering:auto;enable-background:accumulate"/><path d="m 36.979324,1014.3628 a 0.99816115,0.99868446 0 0 0 -0.411311,1.8997 l 5.963028,2.9821 a 0.99816115,0.99868446 0 1 0 0.890847,-1.7866 l -5.963028,-2.9821 a 0.99816115,0.99868446 0 0 0 -0.479536,-0.1131 z" style="color:#000000;font-style:normal;font-variant:normal;font-weight:normal;font-stretch:normal;font-size:medium;line-height:normal;font-family:sans-serif;text-indent:0;text-align:start;text-decoration:none;text-decoration-line:none;text-decoration-style:solid;text-decoration-color:#000000;letter-spacing:normal;word-spacing:normal;text-transform:none;direction:ltr;block-progression:tb;writing-mode:lr-tb;baseline-shift:baseline;text-anchor:start;white-space:normal;clip-rule:nonzero;display:inline;overflow:visible;visibility:visible;opacity:1;isolation:auto;mix-blend-mode:normal;color-interpolation:sRGB;color-interpolation-filters:linearRGB;solid-color:#000000;solid-opacity:1;fill:#000000;fill-opacity:1;fill-rule:evenodd;stroke:none;stroke-width:1.99999988;stroke-linecap:round;stroke-linejoin:round;stroke-miterlimit:4;stroke-dasharray:none;stroke-dashoffset:0;stroke-opacity:1;color-rendering:auto;image-rendering:auto;shape-rendering:auto;text-rendering:auto;enable-background:accumulate"/></g></svg>