<svg width='200' height='200' fill="#000000" xmlns:dc="http://purl.org/dc/elements/1.1/" xmlns:cc="http://creativecommons.org/ns#" xmlns:rdf="http://www.w3.org/1999/02/22-rdf-syntax-ns#" xmlns:svg="http://www.w3.org/2000/svg" xmlns="http://www.w3.org/2000/svg" xmlns:sodipodi="http://sodipodi.sourceforge.net/DTD/sodipodi-0.dtd" xmlns:inkscape="http://www.inkscape.org/namespaces/inkscape" viewBox="0 0 48 48.000001" version="1.1" x="0px" y="0px"><g transform="translate(0,-1004.3622)"><path style="color:#000000;font-style:normal;font-variant:normal;font-weight:normal;font-stretch:normal;font-size:medium;line-height:normal;font-family:sans-serif;text-indent:0;text-align:start;text-decoration:none;text-decoration-line:none;text-decoration-style:solid;text-decoration-color:#000000;letter-spacing:normal;word-spacing:normal;text-transform:none;direction:ltr;block-progression:tb;writing-mode:lr-tb;baseline-shift:baseline;text-anchor:start;white-space:normal;clip-rule:nonzero;display:inline;overflow:visible;visibility:visible;opacity:1;isolation:auto;mix-blend-mode:normal;color-interpolation:sRGB;color-interpolation-filters:linearRGB;solid-color:#000000;solid-opacity:1;fill:#000000;fill-opacity:1;fill-rule:nonzero;stroke:none;stroke-width:2.00000024;stroke-linecap:round;stroke-linejoin:round;stroke-miterlimit:4;stroke-dasharray:none;stroke-dashoffset:0;stroke-opacity:1;color-rendering:auto;image-rendering:auto;shape-rendering:auto;text-rendering:auto;enable-background:accumulate" d="m 23.984288,1032.3619 a 0.99998153,1.0001118 0 0 0 -0.984258,1.0157 l 0,15.0392 c -0.0167,1.093 -0.900832,1.9534 -2.015386,1.9453 -1.114279,-0.01 -1.984097,-0.8815 -1.98414,-1.9746 a 0.99998153,1.0001118 0 1 0 -1.999763,0 c 8.5e-5,2.1771 1.789114,3.9582 3.970233,3.9746 2.180915,0.016 3.995564,-1.7392 4.028819,-3.916 a 0.99998153,1.0001118 0 0 0 0,-0.014 l 0,-15.0548 a 0.99998153,1.0001118 0 0 0 -1.015505,-1.0157 z"/><path style="color:#000000;font-style:normal;font-variant:normal;font-weight:normal;font-stretch:normal;font-size:medium;line-height:normal;font-family:sans-serif;text-indent:0;text-align:start;text-decoration:none;text-decoration-line:none;text-decoration-style:solid;text-decoration-color:#000000;letter-spacing:normal;word-spacing:normal;text-transform:none;direction:ltr;block-progression:tb;writing-mode:lr-tb;baseline-shift:baseline;text-anchor:start;white-space:normal;clip-rule:nonzero;display:inline;overflow:visible;visibility:visible;opacity:1;isolation:auto;mix-blend-mode:normal;color-interpolation:sRGB;color-interpolation-filters:linearRGB;solid-color:#000000;solid-opacity:1;fill:#000000;fill-opacity:1;fill-rule:nonzero;stroke:none;stroke-width:2;stroke-linecap:round;stroke-linejoin:round;stroke-miterlimit:4;stroke-dasharray:none;stroke-dashoffset:0;stroke-opacity:1;color-rendering:auto;image-rendering:auto;shape-rendering:auto;text-rendering:auto;enable-background:accumulate" d="m 38.002157,1032.3619 c 4.07693,0 7.670832,2.4177 7.989288,5.8946 a 0.99998143,1.0001117 0 1 1 -1.989999,0.1836 c -0.195776,-2.1375 -2.711924,-4.077 -6.001242,-4.0782 -3.289316,0 -5.806694,1.9368 -6.005147,4.0742 a 0.99998143,1.0001117 0 1 1 -1.989999,-0.1855 c 0.322788,-3.4766 3.920171,-5.8902 7.997099,-5.8887 z"/><path style="color:#000000;font-style:normal;font-variant:normal;font-weight:normal;font-stretch:normal;font-size:medium;line-height:normal;font-family:sans-serif;text-indent:0;text-align:start;text-decoration:none;text-decoration-line:none;text-decoration-style:solid;text-decoration-color:#000000;letter-spacing:normal;word-spacing:normal;text-transform:none;direction:ltr;block-progression:tb;writing-mode:lr-tb;baseline-shift:baseline;text-anchor:start;white-space:normal;clip-rule:nonzero;display:inline;overflow:visible;visibility:visible;opacity:1;isolation:auto;mix-blend-mode:normal;color-interpolation:sRGB;color-interpolation-filters:linearRGB;solid-color:#000000;solid-opacity:1;fill:#000000;fill-opacity:1;fill-rule:nonzero;stroke:none;stroke-width:2;stroke-linecap:round;stroke-linejoin:round;stroke-miterlimit:4;stroke-dasharray:none;stroke-dashoffset:0;stroke-opacity:1;color-rendering:auto;image-rendering:auto;shape-rendering:auto;text-rendering:auto;enable-background:accumulate" d="m 24.003817,1032.3619 c 4.07693,0 7.670831,2.4177 7.989288,5.8946 a 1.0001967,1.000327 0 1 1 -1.991952,0.1836 c -0.195776,-2.1375 -2.709971,-4.077 -5.999289,-4.0782 -3.289316,0 -5.806694,1.9368 -6.005147,4.0742 a 0.99998143,1.0001117 0 1 1 -1.989999,-0.1855 c 0.322788,-3.4766 3.920171,-5.8902 7.997099,-5.8887 z"/><path style="color:#000000;font-style:normal;font-variant:normal;font-weight:normal;font-stretch:normal;font-size:medium;line-height:normal;font-family:sans-serif;text-indent:0;text-align:start;text-decoration:none;text-decoration-line:none;text-decoration-style:solid;text-decoration-color:#000000;letter-spacing:normal;word-spacing:normal;text-transform:none;direction:ltr;block-progression:tb;writing-mode:lr-tb;baseline-shift:baseline;text-anchor:start;white-space:normal;clip-rule:nonzero;display:inline;overflow:visible;visibility:visible;opacity:1;isolation:auto;mix-blend-mode:normal;color-interpolation:sRGB;color-interpolation-filters:linearRGB;solid-color:#000000;solid-opacity:1;fill:#000000;fill-opacity:1;fill-rule:nonzero;stroke:none;stroke-width:2;stroke-linecap:round;stroke-linejoin:round;stroke-miterlimit:4;stroke-dasharray:none;stroke-dashoffset:0;stroke-opacity:1;color-rendering:auto;image-rendering:auto;shape-rendering:auto;text-rendering:auto;enable-background:accumulate" d="m 10.005477,1032.3619 c 4.076929,0 7.670831,2.4177 7.989287,5.8946 a 0.99998143,1.0001117 0 1 1 -1.989999,0.1836 c -0.195775,-2.1375 -2.711923,-4.077 -6.001241,-4.0782 -3.2893166,0 -5.8066945,1.9368 -6.0051474,4.0742 a 0.99998143,1.0001117 0 1 1 -1.9899984,-0.1855 c 0.3227877,-3.4766 3.9201708,-5.8902 7.9970988,-5.8887 z"/><path style="color:#000000;font-style:normal;font-variant:normal;font-weight:normal;font-stretch:normal;font-size:medium;line-height:normal;font-family:sans-serif;text-indent:0;text-align:start;text-decoration:none;text-decoration-line:none;text-decoration-style:solid;text-decoration-color:#000000;letter-spacing:normal;word-spacing:normal;text-transform:none;direction:ltr;block-progression:tb;writing-mode:lr-tb;baseline-shift:baseline;text-anchor:start;white-space:normal;clip-rule:nonzero;display:inline;overflow:visible;visibility:visible;opacity:1;isolation:auto;mix-blend-mode:normal;color-interpolation:sRGB;color-interpolation-filters:linearRGB;solid-color:#000000;solid-opacity:1;fill:#000000;fill-opacity:1;fill-rule:nonzero;stroke:none;stroke-width:1.99999988;stroke-linecap:round;stroke-linejoin:round;stroke-miterlimit:4;stroke-dasharray:none;stroke-dashoffset:0;stroke-opacity:1;color-rendering:auto;image-rendering:auto;shape-rendering:auto;text-rendering:auto;enable-background:accumulate" d="m 24.009676,1018.3617 c 11.550481,0.01 21.174024,8.6944 21.983722,19.9143 a 0.99998133,1.0001116 0 1 1 -1.993905,0.1445 c -0.733175,-10.1596 -9.438954,-18.0539 -19.989817,-18.0588 -10.550866,0 -19.2661879,7.8823 -20.0093465,18.0412 a 0.99998133,1.0001116 0 1 1 -1.9939043,-0.1464 c 0.8207223,-11.2192 10.4527678,-19.9001 22.0032508,-19.8948 z"/><path style="color:#000000;font-style:normal;font-variant:normal;font-weight:normal;font-stretch:normal;font-size:medium;line-height:normal;font-family:sans-serif;text-indent:0;text-align:start;text-decoration:none;text-decoration-line:none;text-decoration-style:solid;text-decoration-color:#000000;letter-spacing:normal;word-spacing:normal;text-transform:none;direction:ltr;block-progression:tb;writing-mode:lr-tb;baseline-shift:baseline;text-anchor:start;white-space:normal;clip-rule:nonzero;display:inline;overflow:visible;visibility:visible;opacity:1;isolation:auto;mix-blend-mode:normal;color-interpolation:sRGB;color-interpolation-filters:linearRGB;solid-color:#000000;solid-opacity:1;fill:#000000;fill-opacity:1;fill-rule:evenodd;stroke:none;stroke-width:1.99999988;stroke-linecap:round;stroke-linejoin:round;stroke-miterlimit:4;stroke-dasharray:none;stroke-dashoffset:0;stroke-opacity:1;color-rendering:auto;image-rendering:auto;shape-rendering:auto;text-rendering:auto;enable-background:accumulate" d="m 23.954995,1004.3635 a 0.99998133,1.0001116 0 0 0 -0.849509,0.5644 l -2.999644,5.9845 a 0.99998133,1.0001116 0 0 0 1.265475,1.377 l 2.554384,-1.0196 -1.820096,3.631 a 1.0004382,1.0005685 0 0 0 1.78885,0.8965 l 2.999644,-5.9845 a 0.99998133,1.0001116 0 0 0 -1.265475,-1.377 l -2.554384,1.0196 1.820096,-3.6328 a 0.99998133,1.0001116 0 0 0 -0.939341,-1.4591 z"/><path style="color:#000000;font-style:normal;font-variant:normal;font-weight:normal;font-stretch:normal;font-size:medium;line-height:normal;font-family:sans-serif;text-indent:0;text-align:start;text-decoration:none;text-decoration-line:none;text-decoration-style:solid;text-decoration-color:#000000;letter-spacing:normal;word-spacing:normal;text-transform:none;direction:ltr;block-progression:tb;writing-mode:lr-tb;baseline-shift:baseline;text-anchor:start;white-space:normal;clip-rule:nonzero;display:inline;overflow:visible;visibility:visible;opacity:1;isolation:auto;mix-blend-mode:normal;color-interpolation:sRGB;color-interpolation-filters:linearRGB;solid-color:#000000;solid-opacity:1;fill:#000000;fill-opacity:1;fill-rule:evenodd;stroke:none;stroke-width:2;stroke-linecap:round;stroke-linejoin:round;stroke-miterlimit:4;stroke-dasharray:none;stroke-dashoffset:0;stroke-opacity:1;color-rendering:auto;image-rendering:auto;shape-rendering:auto;text-rendering:auto;enable-background:accumulate" d="m 5.0060696,1007.3616 a 0.99998143,1.0001117 0 0 0 -0.5468102,1.8399 l 3.9741382,2.6543 -2.6188301,0.5254 a 0.99998143,1.0001117 0 0 0 -0.3593324,1.8126 l 5.9797599,3.9921 a 0.99998143,1.0001117 0 1 0 1.109244,-1.6621 l -3.9741388,-2.6544 2.6188298,-0.5253 a 0.99998143,1.0001117 0 0 0 0.359333,-1.8126 l -5.9797601,-3.9921 a 0.99998143,1.0001117 0 0 0 -0.5624333,-0.1778 z"/><path style="color:#000000;font-style:normal;font-variant:normal;font-weight:normal;font-stretch:normal;font-size:medium;line-height:normal;font-family:sans-serif;text-indent:0;text-align:start;text-decoration:none;text-decoration-line:none;text-decoration-style:solid;text-decoration-color:#000000;letter-spacing:normal;word-spacing:normal;text-transform:none;direction:ltr;block-progression:tb;writing-mode:lr-tb;baseline-shift:baseline;text-anchor:start;white-space:normal;clip-rule:nonzero;display:inline;overflow:visible;visibility:visible;opacity:1;isolation:auto;mix-blend-mode:normal;color-interpolation:sRGB;color-interpolation-filters:linearRGB;solid-color:#000000;solid-opacity:1;fill:#000000;fill-opacity:1;fill-rule:evenodd;stroke:none;stroke-width:2;stroke-linecap:round;stroke-linejoin:round;stroke-miterlimit:4;stroke-dasharray:none;stroke-dashoffset:0;stroke-opacity:1;color-rendering:auto;image-rendering:auto;shape-rendering:auto;text-rendering:auto;enable-background:accumulate" d="m 40.964697,1007.3636 a 0.99998143,1.0001117 0 0 0 -0.53314,0.1758 l -5.97976,3.9921 a 0.99998143,1.0001117 0 0 0 0.359332,1.8126 l 2.618831,0.5253 -3.974139,2.6544 a 0.99998143,1.0001117 0 1 0 1.109244,1.6621 l 5.97976,-3.9921 a 0.99998143,1.0001117 0 0 0 -0.359333,-1.8126 l -2.61883,-0.5254 3.974138,-2.6543 a 0.99998143,1.0001117 0 0 0 -0.576103,-1.8379 z"/></g></svg>