<svg width='200' height='200' fill="#000000" xmlns:dc="http://purl.org/dc/elements/1.1/" xmlns:cc="http://creativecommons.org/ns#" xmlns:rdf="http://www.w3.org/1999/02/22-rdf-syntax-ns#" xmlns:svg="http://www.w3.org/2000/svg" xmlns="http://www.w3.org/2000/svg" xmlns:sodipodi="http://sodipodi.sourceforge.net/DTD/sodipodi-0.dtd" xmlns:inkscape="http://www.inkscape.org/namespaces/inkscape" viewBox="0 0 48 48.000001" version="1.1" x="0px" y="0px"><g transform="translate(0,-1004.3622)"><path style="color:#000000;font-style:normal;font-variant:normal;font-weight:normal;font-stretch:normal;font-size:medium;line-height:normal;font-family:sans-serif;text-indent:0;text-align:start;text-decoration:none;text-decoration-line:none;text-decoration-style:solid;text-decoration-color:#000000;letter-spacing:normal;word-spacing:normal;text-transform:none;direction:ltr;block-progression:tb;writing-mode:lr-tb;baseline-shift:baseline;text-anchor:start;white-space:normal;clip-rule:nonzero;display:inline;overflow:visible;visibility:visible;opacity:1;isolation:auto;mix-blend-mode:normal;color-interpolation:sRGB;color-interpolation-filters:linearRGB;solid-color:#000000;solid-opacity:1;fill:#000000;fill-opacity:1;fill-rule:nonzero;stroke:none;stroke-width:1.99999988;stroke-linecap:round;stroke-linejoin:round;stroke-miterlimit:4;stroke-dasharray:none;stroke-dashoffset:0;stroke-opacity:1;color-rendering:auto;image-rendering:auto;shape-rendering:auto;text-rendering:auto;enable-background:accumulate" d="m 19.135187,1008.3622 a 1.0001277,1.0001499 0 0 0 -0.234381,0.037 C 10.08633,1010.937 4.0061327,1018.9076 4,1027.9647 c 4.25e-5,11.2622 9.293245,20.3976 20.711515,20.3975 a 1.0001277,1.0001499 0 0 0 0.002,0 c 8.456992,-0.01 16.069819,-5.081 19.213424,-12.8248 a 1.0001277,1.0001499 0 0 0 -1.205111,-1.336 c -1.706677,0.495 -3.476394,0.7484 -5.256005,0.7519 -10.353923,0 -18.710384,-8.2325 -18.711459,-18.3954 l 0,0 c 0.0052,-2.3353 0.462286,-4.649 1.347693,-6.8167 a 1.0001277,1.0001499 0 0 0 -0.966823,-1.377 z m -1.548871,2.8399 c -0.488756,1.7475 -0.828196,3.5303 -0.832055,5.3499 -1.6e-5,11.2623 9.293251,20.3975 20.711515,20.3975 a 1.0001277,1.0001499 0 0 0 0.002,0 c 1.226984,0 2.420599,-0.3045 3.6251,-0.5195 -3.205821,5.9835 -9.386887,9.9228 -16.381314,9.9282 -10.353976,0 -18.7103793,-8.2286 -18.7115063,-18.3915 l 0,0 c 0.00586,-7.4661 4.6993073,-13.9244 11.5862603,-16.7626 z"/></g></svg>