<svg width='200' height='200' fill="#000000" xmlns:dc="http://purl.org/dc/elements/1.1/" xmlns:cc="http://creativecommons.org/ns#" xmlns:rdf="http://www.w3.org/1999/02/22-rdf-syntax-ns#" xmlns:svg="http://www.w3.org/2000/svg" xmlns="http://www.w3.org/2000/svg" xmlns:sodipodi="http://sodipodi.sourceforge.net/DTD/sodipodi-0.dtd" xmlns:inkscape="http://www.inkscape.org/namespaces/inkscape" viewBox="0 0 48 48.000001" version="1.1" x="0px" y="0px"><g transform="translate(0,-1004.3622)"><path style="color:#000000;font-style:normal;font-variant:normal;font-weight:normal;font-stretch:normal;font-size:medium;line-height:normal;font-family:sans-serif;text-indent:0;text-align:start;text-decoration:none;text-decoration-line:none;text-decoration-style:solid;text-decoration-color:#000000;letter-spacing:normal;word-spacing:normal;text-transform:none;direction:ltr;block-progression:tb;writing-mode:lr-tb;baseline-shift:baseline;text-anchor:start;white-space:normal;clip-rule:nonzero;display:inline;overflow:visible;visibility:visible;opacity:1;isolation:auto;mix-blend-mode:normal;color-interpolation:sRGB;color-interpolation-filters:linearRGB;solid-color:#000000;solid-opacity:1;fill:#000000;fill-opacity:1;fill-rule:nonzero;stroke:none;stroke-width:2;stroke-linecap:round;stroke-linejoin:round;stroke-miterlimit:4;stroke-dasharray:none;stroke-dashoffset:0;stroke-opacity:1;color-rendering:auto;image-rendering:auto;shape-rendering:auto;text-rendering:auto;enable-background:accumulate" d="M 23 19 C 21.51118 19 20.161428 19.231203 19.09375 19.658203 C 18.559911 19.871803 18.09023 20.131894 17.705078 20.496094 C 17.388659 20.795382 17.12815 21.207025 17.041016 21.683594 L 6.1132812 42.558594 A 1.0001 1.0001 0 0 0 6.0996094 43.458984 C 6.5307563 44.349784 7.3459554 44.960641 8.3710938 45.494141 C 9.396232 46.027641 10.670775 46.469891 12.152344 46.837891 C 15.115481 47.573991 18.906078 48.001 23.011719 48 C 27.117338 47.999 30.906065 47.571584 33.865234 46.833984 C 35.344819 46.465184 36.617962 46.020628 37.640625 45.486328 C 38.663288 44.951928 39.475487 44.340266 39.902344 43.447266 A 1.0001 1.0001 0 0 0 39.886719 42.550781 L 28.958984 21.683594 C 28.87185 21.207025 28.611341 20.795382 28.294922 20.496094 C 27.90977 20.131894 27.440089 19.871803 26.90625 19.658203 C 25.838572 19.231203 24.48882 19 23 19 z M 23 21 C 24.272646 21 25.422092 21.218825 26.164062 21.515625 C 26.535048 21.663925 26.799059 21.834919 26.919922 21.949219 C 26.954164 21.98163 26.955854 21.98497 26.96875 22 C 26.955843 22.015327 26.954079 22.020241 26.919922 22.052734 C 26.799037 22.167034 26.53505 22.337928 26.164062 22.486328 C 25.422087 22.783028 24.272601 23 23 23 C 21.727399 23 20.577913 22.783028 19.835938 22.486328 C 19.464949 22.337928 19.200963 22.167034 19.080078 22.052734 C 19.045922 22.020411 19.044157 22.015253 19.03125 22 C 19.044188 21.984895 19.046226 21.98143 19.080078 21.949219 C 19.200941 21.834919 19.464952 21.663925 19.835938 21.515625 C 20.577907 21.218825 21.727354 21 23 21 z M 27.833984 23.847656 L 37.78125 42.84375 C 37.571602 43.09865 37.342282 43.385944 36.712891 43.714844 C 35.896583 44.141344 34.75314 44.550478 33.380859 44.892578 C 30.636299 45.576678 26.976909 45.9991 23.011719 46 C 19.046508 46.001 15.383797 45.581338 12.634766 44.898438 C 11.26025 44.556938 10.114445 44.147203 9.2949219 43.720703 C 8.6635119 43.392103 8.4329376 43.103556 8.2207031 42.847656 L 18.166016 23.849609 C 18.449323 24.038997 18.752798 24.20739 19.09375 24.34375 C 20.161413 24.77075 21.511232 25 23 25 C 24.488768 25 25.838587 24.77075 26.90625 24.34375 C 27.247592 24.207234 27.550425 24.037339 27.833984 23.847656 z " transform="translate(0,1004.3622)"/><path style="color:#000000;font-style:normal;font-variant:normal;font-weight:normal;font-stretch:normal;font-size:medium;line-height:normal;font-family:sans-serif;text-indent:0;text-align:start;text-decoration:none;text-decoration-line:none;text-decoration-style:solid;text-decoration-color:#000000;letter-spacing:normal;word-spacing:normal;text-transform:none;direction:ltr;block-progression:tb;writing-mode:lr-tb;baseline-shift:baseline;text-anchor:start;white-space:normal;clip-rule:nonzero;display:inline;overflow:visible;visibility:visible;opacity:1;isolation:auto;mix-blend-mode:normal;color-interpolation:sRGB;color-interpolation-filters:linearRGB;solid-color:#000000;solid-opacity:1;fill:#000000;fill-opacity:1;fill-rule:nonzero;stroke:none;stroke-width:2.00011969;stroke-linecap:round;stroke-linejoin:round;stroke-miterlimit:4;stroke-dasharray:none;stroke-dashoffset:0;stroke-opacity:1;color-rendering:auto;image-rendering:auto;shape-rendering:auto;text-rendering:auto;enable-background:accumulate" d="m 7.4919074,1013.93 a 1.00785,0.99241002 16.846093 0 0 0.8730543,1.7892 c 1.9270693,-0.6784 4.0651733,-0.414 5.7653603,0.7062 1.700182,1.1203 2.759834,2.9611 2.857708,4.9689 a 1.00785,0.99241002 16.846093 1 0 2.010083,-0.079 c -0.128625,-2.6388 -1.525761,-5.0701 -3.759805,-6.5421 -2.23405,-1.4721 -5.042976,-1.8136 -7.5644217,-0.926 a 1.00785,0.99241002 16.846093 0 0 -0.1819789,0.082 z"/><path style="color:#000000;font-style:normal;font-variant:normal;font-weight:normal;font-stretch:normal;font-size:medium;line-height:normal;font-family:sans-serif;text-indent:0;text-align:start;text-decoration:none;text-decoration-line:none;text-decoration-style:solid;text-decoration-color:#000000;letter-spacing:normal;word-spacing:normal;text-transform:none;direction:ltr;block-progression:tb;writing-mode:lr-tb;baseline-shift:baseline;text-anchor:start;white-space:normal;clip-rule:nonzero;display:inline;overflow:visible;visibility:visible;opacity:1;isolation:auto;mix-blend-mode:normal;color-interpolation:sRGB;color-interpolation-filters:linearRGB;solid-color:#000000;solid-opacity:1;fill:#000000;fill-opacity:1;fill-rule:nonzero;stroke:none;stroke-width:2;stroke-linecap:round;stroke-linejoin:round;stroke-miterlimit:4;stroke-dasharray:none;stroke-dashoffset:0;stroke-opacity:1;color-rendering:auto;image-rendering:auto;shape-rendering:auto;text-rendering:auto;enable-background:accumulate" d="m 4,1015.3613 c -1.6450096,0 -3,1.355 -3,3 0,1.645 1.3549904,3 3,3 1.6450096,0 3,-1.355 3,-3 0,-1.645 -1.3549904,-3 -3,-3 z m 0,2 c 0.5641294,0 1,0.4359 1,1 0,0.5642 -0.4358706,1 -1,1 -0.5641294,0 -1,-0.4358 -1,-1 0,-0.5641 0.4358706,-1 1,-1 z"/><path style="color:#000000;font-style:normal;font-variant:normal;font-weight:normal;font-stretch:normal;font-size:medium;line-height:normal;font-family:sans-serif;text-indent:0;text-align:start;text-decoration:none;text-decoration-line:none;text-decoration-style:solid;text-decoration-color:#000000;letter-spacing:normal;word-spacing:normal;text-transform:none;direction:ltr;block-progression:tb;writing-mode:lr-tb;baseline-shift:baseline;text-anchor:start;white-space:normal;clip-rule:nonzero;display:inline;overflow:visible;visibility:visible;opacity:1;isolation:auto;mix-blend-mode:normal;color-interpolation:sRGB;color-interpolation-filters:linearRGB;solid-color:#000000;solid-opacity:1;fill:#000000;fill-opacity:1;fill-rule:nonzero;stroke:none;stroke-width:2;stroke-linecap:round;stroke-linejoin:round;stroke-miterlimit:4;stroke-dasharray:none;stroke-dashoffset:0;stroke-opacity:1;color-rendering:auto;image-rendering:auto;shape-rendering:auto;text-rendering:auto;enable-background:accumulate" d="m 18,1004.3613 c -1.64501,0 -3,1.355 -3,3 0,1.645 1.35499,3 3,3 1.64501,0 3,-1.355 3,-3 0,-1.645 -1.35499,-3 -3,-3 z m 0,2 c 0.564129,0 1,0.4359 1,1 0,0.5642 -0.435871,1 -1,1 -0.564129,0 -1,-0.4358 -1,-1 0,-0.5641 0.435871,-1 1,-1 z"/><path style="color:#000000;font-style:normal;font-variant:normal;font-weight:normal;font-stretch:normal;font-size:medium;line-height:normal;font-family:sans-serif;text-indent:0;text-align:start;text-decoration:none;text-decoration-line:none;text-decoration-style:solid;text-decoration-color:#000000;letter-spacing:normal;word-spacing:normal;text-transform:none;direction:ltr;block-progression:tb;writing-mode:lr-tb;baseline-shift:baseline;text-anchor:start;white-space:normal;clip-rule:nonzero;display:inline;overflow:visible;visibility:visible;opacity:1;isolation:auto;mix-blend-mode:normal;color-interpolation:sRGB;color-interpolation-filters:linearRGB;solid-color:#000000;solid-opacity:1;fill:#000000;fill-opacity:1;fill-rule:evenodd;stroke:none;stroke-width:2;stroke-linecap:round;stroke-linejoin:round;stroke-miterlimit:4;stroke-dasharray:none;stroke-dashoffset:0;stroke-opacity:1;color-rendering:auto;image-rendering:auto;shape-rendering:auto;text-rendering:auto;enable-background:accumulate" d="m 19.939453,1011.3633 a 1.0001,1.0001 0 0 0 -0.90625,1.2558 l 1.992188,7.9727 a 1.0006929,1.0006929 0 1 0 1.941406,-0.4863 l -1.992188,-7.9727 a 1.0001,1.0001 0 0 0 -1.035156,-0.7695 z"/><path style="color:#000000;font-style:normal;font-variant:normal;font-weight:normal;font-stretch:normal;font-size:medium;line-height:normal;font-family:sans-serif;text-indent:0;text-align:start;text-decoration:none;text-decoration-line:none;text-decoration-style:solid;text-decoration-color:#000000;letter-spacing:normal;word-spacing:normal;text-transform:none;direction:ltr;block-progression:tb;writing-mode:lr-tb;baseline-shift:baseline;text-anchor:start;white-space:normal;clip-rule:nonzero;display:inline;overflow:visible;visibility:visible;opacity:1;isolation:auto;mix-blend-mode:normal;color-interpolation:sRGB;color-interpolation-filters:linearRGB;solid-color:#000000;solid-opacity:1;fill:#000000;fill-opacity:1;fill-rule:nonzero;stroke:none;stroke-width:2.00163651;stroke-linecap:round;stroke-linejoin:round;stroke-miterlimit:4;stroke-dasharray:none;stroke-dashoffset:0;stroke-opacity:1;color-rendering:auto;image-rendering:auto;shape-rendering:auto;text-rendering:auto;enable-background:accumulate" d="m 38.496664,1013.9318 a 1.0291214,0.97189712 73.091712 0 1 -0.795007,1.8341 c -1.712686,-0.6547 -3.626215,-0.4018 -5.163032,0.7072 -1.536817,1.109 -2.500071,2.9451 -2.585752,4.9298 a 1.0291214,0.97189712 73.091712 1 1 -1.951357,-0.1578 c 0.112847,-2.6138 1.370132,-5.0096 3.396639,-6.4719 2.02652,-1.4624 4.597206,-1.8178 6.920295,-0.9297 a 1.0291214,0.97189712 73.091712 0 1 0.178214,0.088 z"/><path style="color:#000000;font-style:normal;font-variant:normal;font-weight:normal;font-stretch:normal;font-size:medium;line-height:normal;font-family:sans-serif;text-indent:0;text-align:start;text-decoration:none;text-decoration-line:none;text-decoration-style:solid;text-decoration-color:#000000;letter-spacing:normal;word-spacing:normal;text-transform:none;direction:ltr;block-progression:tb;writing-mode:lr-tb;baseline-shift:baseline;text-anchor:start;white-space:normal;clip-rule:nonzero;display:inline;overflow:visible;visibility:visible;opacity:1;isolation:auto;mix-blend-mode:normal;color-interpolation:sRGB;color-interpolation-filters:linearRGB;solid-color:#000000;solid-opacity:1;fill:#000000;fill-opacity:1;fill-rule:nonzero;stroke:none;stroke-width:2;stroke-linecap:round;stroke-linejoin:round;stroke-miterlimit:4;stroke-dasharray:none;stroke-dashoffset:0;stroke-opacity:1;color-rendering:auto;image-rendering:auto;shape-rendering:auto;text-rendering:auto;enable-background:accumulate" d="m 43,1014.3613 c 1.64501,0 3,1.355 3,3 0,1.645 -1.35499,3 -3,3 -1.64501,0 -3,-1.355 -3,-3 0,-1.645 1.35499,-3 3,-3 z m 0,2 c -0.564129,0 -1,0.4359 -1,1 0,0.5642 0.435871,1 1,1 0.564129,0 1,-0.4358 1,-1 0,-0.5641 -0.435871,-1 -1,-1 z"/><path style="color:#000000;font-style:normal;font-variant:normal;font-weight:normal;font-stretch:normal;font-size:medium;line-height:normal;font-family:sans-serif;text-indent:0;text-align:start;text-decoration:none;text-decoration-line:none;text-decoration-style:solid;text-decoration-color:#000000;letter-spacing:normal;word-spacing:normal;text-transform:none;direction:ltr;block-progression:tb;writing-mode:lr-tb;baseline-shift:baseline;text-anchor:start;white-space:normal;clip-rule:nonzero;display:inline;overflow:visible;visibility:visible;opacity:1;isolation:auto;mix-blend-mode:normal;color-interpolation:sRGB;color-interpolation-filters:linearRGB;solid-color:#000000;solid-opacity:1;fill:#000000;fill-opacity:1;fill-rule:nonzero;stroke:none;stroke-width:2;stroke-linecap:round;stroke-linejoin:round;stroke-miterlimit:4;stroke-dasharray:none;stroke-dashoffset:0;stroke-opacity:1;color-rendering:auto;image-rendering:auto;shape-rendering:auto;text-rendering:auto;enable-background:accumulate" d="m 27,1008.3613 c -1.64501,0 -3,1.355 -3,3 0,1.645 1.35499,3 3,3 1.64501,0 3,-1.355 3,-3 0,-1.645 -1.35499,-3 -3,-3 z m 0,2 c 0.564129,0 1,0.4359 1,1 0,0.5642 -0.435871,1 -1,1 -0.564129,0 -1,-0.4358 -1,-1 0,-0.5641 0.435871,-1 1,-1 z"/><path style="color:#000000;font-style:normal;font-variant:normal;font-weight:normal;font-stretch:normal;font-size:medium;line-height:normal;font-family:sans-serif;text-indent:0;text-align:start;text-decoration:none;text-decoration-line:none;text-decoration-style:solid;text-decoration-color:#000000;letter-spacing:normal;word-spacing:normal;text-transform:none;direction:ltr;block-progression:tb;writing-mode:lr-tb;baseline-shift:baseline;text-anchor:start;white-space:normal;clip-rule:nonzero;display:inline;overflow:visible;visibility:visible;opacity:1;isolation:auto;mix-blend-mode:normal;color-interpolation:sRGB;color-interpolation-filters:linearRGB;solid-color:#000000;solid-opacity:1;fill:#000000;fill-opacity:1;fill-rule:nonzero;stroke:none;stroke-width:2;stroke-linecap:round;stroke-linejoin:round;stroke-miterlimit:4;stroke-dasharray:none;stroke-dashoffset:0;stroke-opacity:1;color-rendering:auto;image-rendering:auto;shape-rendering:auto;text-rendering:auto;enable-background:accumulate" d="m 35,1004.3613 c -1.64501,0 -3,1.355 -3,3 0,1.645 1.35499,3 3,3 1.64501,0 3,-1.355 3,-3 0,-1.645 -1.35499,-3 -3,-3 z m 0,2 c 0.564129,0 1,0.4359 1,1 0,0.5642 -0.435871,1 -1,1 -0.564129,0 -1,-0.4358 -1,-1 0,-0.5641 0.435871,-1 1,-1 z"/><path style="color:#000000;font-style:normal;font-variant:normal;font-weight:normal;font-stretch:normal;font-size:medium;line-height:normal;font-family:sans-serif;text-indent:0;text-align:start;text-decoration:none;text-decoration-line:none;text-decoration-style:solid;text-decoration-color:#000000;letter-spacing:normal;word-spacing:normal;text-transform:none;direction:ltr;block-progression:tb;writing-mode:lr-tb;baseline-shift:baseline;text-anchor:start;white-space:normal;clip-rule:nonzero;display:inline;overflow:visible;visibility:visible;opacity:1;isolation:auto;mix-blend-mode:normal;color-interpolation:sRGB;color-interpolation-filters:linearRGB;solid-color:#000000;solid-opacity:1;fill:#000000;fill-opacity:1;fill-rule:nonzero;stroke:none;stroke-width:2;stroke-linecap:round;stroke-linejoin:round;stroke-miterlimit:4;stroke-dasharray:none;stroke-dashoffset:0;stroke-opacity:1;color-rendering:auto;image-rendering:auto;shape-rendering:auto;text-rendering:auto;enable-background:accumulate" d="m 8,1005.3613 c -1.6450096,0 -3,1.355 -3,3 0,1.645 1.3549904,3 3,3 1.6450096,0 3,-1.355 3,-3 0,-1.645 -1.3549904,-3 -3,-3 z m 0,2 c 0.5641294,0 1,0.4359 1,1 0,0.5642 -0.4358706,1 -1,1 -0.5641294,0 -1,-0.4358 -1,-1 0,-0.5641 0.4358706,-1 1,-1 z"/><path style="color:#000000;font-style:normal;font-variant:normal;font-weight:normal;font-stretch:normal;font-size:medium;line-height:normal;font-family:sans-serif;text-indent:0;text-align:start;text-decoration:none;text-decoration-line:none;text-decoration-style:solid;text-decoration-color:#000000;letter-spacing:normal;word-spacing:normal;text-transform:none;direction:ltr;block-progression:tb;writing-mode:lr-tb;baseline-shift:baseline;text-anchor:start;white-space:normal;clip-rule:nonzero;display:inline;overflow:visible;visibility:visible;opacity:1;isolation:auto;mix-blend-mode:normal;color-interpolation:sRGB;color-interpolation-filters:linearRGB;solid-color:#000000;solid-opacity:1;fill:#000000;fill-opacity:1;fill-rule:evenodd;stroke:none;stroke-width:1.99999988;stroke-linecap:round;stroke-linejoin:round;stroke-miterlimit:4;stroke-dasharray:none;stroke-dashoffset:0;stroke-opacity:1;color-rendering:auto;image-rendering:auto;shape-rendering:auto;text-rendering:auto;enable-background:accumulate" d="m 26.005859,1015.3613 a 1.0000999,1.0000999 0 0 0 -0.958984,0.6973 l -0.990234,2.9746 a 1.0000999,1.0000999 0 1 0 1.896484,0.6309 l 0.990234,-2.9727 a 1.0000999,1.0000999 0 0 0 -0.9375,-1.3301 z"/></g></svg>