<svg width='200' height='200' fill="#000000" xmlns:dc="http://purl.org/dc/elements/1.1/" xmlns:cc="http://creativecommons.org/ns#" xmlns:rdf="http://www.w3.org/1999/02/22-rdf-syntax-ns#" xmlns:svg="http://www.w3.org/2000/svg" xmlns="http://www.w3.org/2000/svg" xmlns:sodipodi="http://sodipodi.sourceforge.net/DTD/sodipodi-0.dtd" xmlns:inkscape="http://www.inkscape.org/namespaces/inkscape" viewBox="0 0 48 48.000001" version="1.1" x="0px" y="0px"><g transform="translate(0,-1004.3622)"><path style="color:#000000;font-style:normal;font-variant:normal;font-weight:normal;font-stretch:normal;font-size:medium;line-height:normal;font-family:sans-serif;text-indent:0;text-align:start;text-decoration:none;text-decoration-line:none;text-decoration-style:solid;text-decoration-color:#000000;letter-spacing:normal;word-spacing:normal;text-transform:none;direction:ltr;block-progression:tb;writing-mode:lr-tb;baseline-shift:baseline;text-anchor:start;white-space:normal;clip-rule:nonzero;display:inline;overflow:visible;visibility:visible;opacity:1;isolation:auto;mix-blend-mode:normal;color-interpolation:sRGB;color-interpolation-filters:linearRGB;solid-color:#000000;solid-opacity:1;fill:#000000;fill-opacity:1;fill-rule:nonzero;stroke:none;stroke-width:1.99999976;stroke-linecap:round;stroke-linejoin:round;stroke-miterlimit:4;stroke-dasharray:none;stroke-dashoffset:0;stroke-opacity:1;color-rendering:auto;image-rendering:auto;shape-rendering:auto;text-rendering:auto;enable-background:accumulate" d="m 13.642578,1016.3629 a 1.0000999,1.000188 0 0 0 -0.234375,0.037 C 5.4779442,1018.6833 0.00555133,1025.8561 0,1034.0071 c -3.7977437e-5,10.135 8.3646289,18.3551 18.636719,18.3551 7.608615,-0.01 14.460185,-4.571 17.289062,-11.54 a 1.0000999,1.000188 0 0 0 -1.205078,-1.338 c -1.517424,0.4401 -3.089565,0.6667 -4.671875,0.6699 -9.20777,0 -16.635664,-7.3193 -16.636719,-16.3549 l 0,0 c 0.0047,-2.0759 0.410208,-4.1322 1.197266,-6.0591 a 1.0000999,1.000188 0 0 0 -0.966797,-1.3771 z m -1.550781,2.8401 c -0.399495,1.5026 -0.676373,3.0344 -0.679688,4.5942 -3.8e-5,10.135 8.364634,18.3571 18.636719,18.3571 a 1.0000999,1.000188 0 0 0 0.002,0 c 1.029519,0 2.02833,-0.2671 3.041016,-0.4355 -2.880854,5.2106 -8.31015,8.6377 -14.455078,8.6432 -9.2084495,0 -16.6367529,-7.3184 -16.636719,-16.3549 0.00447,-6.5605 4.0872064,-12.2338 10.091797,-14.806 z"/><path style="color:#000000;font-style:normal;font-variant:normal;font-weight:normal;font-stretch:normal;font-size:medium;line-height:normal;font-family:sans-serif;text-indent:0;text-align:start;text-decoration:none;text-decoration-line:none;text-decoration-style:solid;text-decoration-color:#000000;letter-spacing:normal;word-spacing:normal;text-transform:none;direction:ltr;block-progression:tb;writing-mode:lr-tb;baseline-shift:baseline;text-anchor:start;white-space:normal;clip-rule:nonzero;display:inline;overflow:visible;visibility:visible;opacity:1;isolation:auto;mix-blend-mode:normal;color-interpolation:sRGB;color-interpolation-filters:linearRGB;solid-color:#000000;solid-opacity:1;fill:#000000;fill-opacity:1;fill-rule:nonzero;stroke:none;stroke-width:3.28828454;stroke-linecap:round;stroke-linejoin:round;stroke-miterlimit:4;stroke-dasharray:none;stroke-dashoffset:0;stroke-opacity:1;color-rendering:auto;image-rendering:auto;shape-rendering:auto;text-rendering:auto;enable-background:accumulate" d="m 26.130701,1004.3738 a 0.98517021,1.0192102 0 0 0 -1.134467,0.9979 l 0.0092,1.9061 -1.754814,-0.5803 a 0.98517021,1.0192102 0 0 0 -0.599622,1.9403 l 1.753465,0.5814 -1.075039,1.5463 a 0.98517021,1.0192102 0 0 0 1.599111,1.19 l 1.075039,-1.5463 1.089466,1.5365 a 0.98552822,1.0195806 0 1 0 1.589247,-1.2062 l -1.089466,-1.5363 1.748493,-0.5965 a 0.98517021,1.0192102 0 0 0 -0.617009,-1.9355 l -1.74965,0.5964 -0.0083,-1.9047 a 0.98517021,1.0192102 0 0 0 -0.835737,-0.9891 z"/><path style="color:#000000;font-style:normal;font-variant:normal;font-weight:normal;font-stretch:normal;font-size:medium;line-height:normal;font-family:sans-serif;text-indent:0;text-align:start;text-decoration:none;text-decoration-line:none;text-decoration-style:solid;text-decoration-color:#000000;letter-spacing:normal;word-spacing:normal;text-transform:none;direction:ltr;block-progression:tb;writing-mode:lr-tb;baseline-shift:baseline;text-anchor:start;white-space:normal;clip-rule:nonzero;display:inline;overflow:visible;visibility:visible;opacity:1;isolation:auto;mix-blend-mode:normal;color-interpolation:sRGB;color-interpolation-filters:linearRGB;solid-color:#000000;solid-opacity:1;fill:#000000;fill-opacity:1;fill-rule:evenodd;stroke:none;stroke-width:2;stroke-linecap:round;stroke-linejoin:round;stroke-miterlimit:4;stroke-dasharray:none;stroke-dashoffset:0;stroke-opacity:1;color-rendering:auto;image-rendering:auto;shape-rendering:auto;text-rendering:auto;enable-background:accumulate" d="M 25.984375,1022.3621 A 1.0001,1.0002545 0 0 0 25,1023.3759 l 0,5.9716 a 1.0001,1.0002545 0 1 0 2,0 l 0,-5.9716 a 1.0001,1.0002545 0 0 0 -1.015625,-1.0138 z"/><path style="color:#000000;font-style:normal;font-variant:normal;font-weight:normal;font-stretch:normal;font-size:medium;line-height:normal;font-family:sans-serif;text-indent:0;text-align:start;text-decoration:none;text-decoration-line:none;text-decoration-style:solid;text-decoration-color:#000000;letter-spacing:normal;word-spacing:normal;text-transform:none;direction:ltr;block-progression:tb;writing-mode:lr-tb;baseline-shift:baseline;text-anchor:start;white-space:normal;clip-rule:nonzero;display:inline;overflow:visible;visibility:visible;opacity:1;isolation:auto;mix-blend-mode:normal;color-interpolation:sRGB;color-interpolation-filters:linearRGB;solid-color:#000000;solid-opacity:1;fill:#000000;fill-opacity:1;fill-rule:evenodd;stroke:none;stroke-width:2;stroke-linecap:round;stroke-linejoin:round;stroke-miterlimit:4;stroke-dasharray:none;stroke-dashoffset:0;stroke-opacity:1;color-rendering:auto;image-rendering:auto;shape-rendering:auto;text-rendering:auto;enable-background:accumulate" d="m 23.014098,1025.3621 a 0.99995738,1.0001 0 1 0 0,2 l 5.971805,0 a 0.99995738,1.0001 0 1 0 0,-2 l -5.971805,0 z"/><path style="color:#000000;font-style:normal;font-variant:normal;font-weight:normal;font-stretch:normal;font-size:medium;line-height:normal;font-family:sans-serif;text-indent:0;text-align:start;text-decoration:none;text-decoration-line:none;text-decoration-style:solid;text-decoration-color:#000000;letter-spacing:normal;word-spacing:normal;text-transform:none;direction:ltr;block-progression:tb;writing-mode:lr-tb;baseline-shift:baseline;text-anchor:start;white-space:normal;clip-rule:nonzero;display:inline;overflow:visible;visibility:visible;opacity:1;isolation:auto;mix-blend-mode:normal;color-interpolation:sRGB;color-interpolation-filters:linearRGB;solid-color:#000000;solid-opacity:1;fill:#000000;fill-opacity:1;fill-rule:nonzero;stroke:none;stroke-width:3.28839374;stroke-linecap:round;stroke-linejoin:round;stroke-miterlimit:4;stroke-dasharray:none;stroke-dashoffset:0;stroke-opacity:1;color-rendering:auto;image-rendering:auto;shape-rendering:auto;text-rendering:auto;enable-background:accumulate" d="m 43.142119,1031.374 a 0.98325129,1.0191467 0 0 0 -1.13222,0.9978 l 0.0092,1.9059 -1.751155,-0.5815 a 0.98325129,1.0191467 0 0 0 -0.598616,1.9413 l 1.749991,0.5814 -1.07291,1.5461 a 0.98325129,1.0191467 0 0 0 1.595943,1.19 l 1.072911,-1.5461 1.087307,1.5363 a 0.98355119,1.0194576 0 1 0 1.586097,-1.206 l -1.087306,-1.5363 1.74503,-0.5965 a 0.98325129,1.0191467 0 0 0 -0.615788,-1.9352 l -1.746184,0.5963 -0.0083,-1.9046 a 0.98325129,1.0191467 0 0 0 -0.834082,-0.9889 z"/><path style="color:#000000;font-style:normal;font-variant:normal;font-weight:normal;font-stretch:normal;font-size:medium;line-height:normal;font-family:sans-serif;text-indent:0;text-align:start;text-decoration:none;text-decoration-line:none;text-decoration-style:solid;text-decoration-color:#000000;letter-spacing:normal;word-spacing:normal;text-transform:none;direction:ltr;block-progression:tb;writing-mode:lr-tb;baseline-shift:baseline;text-anchor:start;white-space:normal;clip-rule:nonzero;display:inline;overflow:visible;visibility:visible;opacity:1;isolation:auto;mix-blend-mode:normal;color-interpolation:sRGB;color-interpolation-filters:linearRGB;solid-color:#000000;solid-opacity:1;fill:#000000;fill-opacity:1;fill-rule:evenodd;stroke:none;stroke-width:2;stroke-linecap:round;stroke-linejoin:round;stroke-miterlimit:4;stroke-dasharray:none;stroke-dashoffset:0;stroke-opacity:1;color-rendering:auto;image-rendering:auto;shape-rendering:auto;text-rendering:auto;enable-background:accumulate" d="M 42.984375,1013.3621 A 1.0001,1.0002545 0 0 0 42,1014.3759 l 0,5.9716 a 1.0001,1.0002545 0 1 0 2,0 l 0,-5.9716 a 1.0001,1.0002545 0 0 0 -1.015625,-1.0138 z"/><path style="color:#000000;font-style:normal;font-variant:normal;font-weight:normal;font-stretch:normal;font-size:medium;line-height:normal;font-family:sans-serif;text-indent:0;text-align:start;text-decoration:none;text-decoration-line:none;text-decoration-style:solid;text-decoration-color:#000000;letter-spacing:normal;word-spacing:normal;text-transform:none;direction:ltr;block-progression:tb;writing-mode:lr-tb;baseline-shift:baseline;text-anchor:start;white-space:normal;clip-rule:nonzero;display:inline;overflow:visible;visibility:visible;opacity:1;isolation:auto;mix-blend-mode:normal;color-interpolation:sRGB;color-interpolation-filters:linearRGB;solid-color:#000000;solid-opacity:1;fill:#000000;fill-opacity:1;fill-rule:evenodd;stroke:none;stroke-width:2;stroke-linecap:round;stroke-linejoin:round;stroke-miterlimit:4;stroke-dasharray:none;stroke-dashoffset:0;stroke-opacity:1;color-rendering:auto;image-rendering:auto;shape-rendering:auto;text-rendering:auto;enable-background:accumulate" d="m 40.014098,1016.3621 a 0.99995738,1.0001 0 1 0 0,2 l 5.971805,0 a 0.99995738,1.0001 0 1 0 0,-2 l -5.971805,0 z"/></g></svg>