<svg width='200' height='200' fill="#000000" xmlns:dc="http://purl.org/dc/elements/1.1/" xmlns:cc="http://creativecommons.org/ns#" xmlns:rdf="http://www.w3.org/1999/02/22-rdf-syntax-ns#" xmlns:svg="http://www.w3.org/2000/svg" xmlns="http://www.w3.org/2000/svg" xmlns:sodipodi="http://sodipodi.sourceforge.net/DTD/sodipodi-0.dtd" xmlns:inkscape="http://www.inkscape.org/namespaces/inkscape" viewBox="0 0 48 48.000001" version="1.1" x="0px" y="0px"><g transform="translate(0,-1004.3622)"><path style="color:#000000;font-style:normal;font-variant:normal;font-weight:normal;font-stretch:normal;font-size:medium;line-height:normal;font-family:sans-serif;text-indent:0;text-align:start;text-decoration:none;text-decoration-line:none;text-decoration-style:solid;text-decoration-color:#000000;letter-spacing:normal;word-spacing:normal;text-transform:none;direction:ltr;block-progression:tb;writing-mode:lr-tb;baseline-shift:baseline;text-anchor:start;white-space:normal;clip-rule:nonzero;display:inline;overflow:visible;visibility:visible;opacity:1;isolation:auto;mix-blend-mode:normal;color-interpolation:sRGB;color-interpolation-filters:linearRGB;solid-color:#000000;solid-opacity:1;fill:#000000;fill-opacity:1;fill-rule:nonzero;stroke:none;stroke-width:1.99999976;stroke-linecap:round;stroke-linejoin:round;stroke-miterlimit:4;stroke-dasharray:none;stroke-dashoffset:0;stroke-opacity:1;color-rendering:auto;image-rendering:auto;shape-rendering:auto;text-rendering:auto;enable-background:accumulate" d="m 20.150796,1004.3622 a 1.0001333,1.0001614 0 0 0 -0.234382,0.037 c -7.046557,2.0289 -11.9115009,8.405 -11.916414,15.6495 -1.08e-5,9.0071 7.434633,16.3135 16.561099,16.3135 a 1.0001333,1.0001614 0 0 0 0.002,0 c 6.76069,-0.01 12.84948,-4.0626 15.363793,-10.2564 a 1.0001333,1.0001614 0 0 0 -1.205118,-1.3361 c -1.328279,0.3853 -2.70486,0.5832 -4.089981,0.586 -8.062112,0 -14.561906,-6.4058 -14.562985,-14.3133 l 0,0 c 0.0041,-1.8165 0.360123,-3.615 1.048864,-5.3012 a 1.0001333,1.0001614 0 0 0 -0.96683,-1.377 z m -1.550833,2.84 c -0.312907,1.2574 -0.528506,2.536 -0.531268,3.8363 -1e-5,9.007 7.43659,16.3154 16.563052,16.3154 a 1.0001333,1.0001614 0 0 0 0.002,0 c 0.832338,0 1.638414,-0.2274 2.459067,-0.3516 -2.553889,4.4396 -7.23433,7.3537 -12.531668,7.3578 -8.062792,0 -14.561043,-6.4047 -14.561033,-14.3133 0.0038,-5.6539 3.476664,-10.5442 8.599896,-12.8465 z"/><path style="color:#000000;font-style:normal;font-variant:normal;font-weight:normal;font-stretch:normal;font-size:medium;line-height:normal;font-family:sans-serif;text-indent:0;text-align:start;text-decoration:none;text-decoration-line:none;text-decoration-style:solid;text-decoration-color:#000000;letter-spacing:normal;word-spacing:normal;text-transform:none;direction:ltr;block-progression:tb;writing-mode:lr-tb;baseline-shift:baseline;text-anchor:start;white-space:normal;clip-rule:nonzero;display:inline;overflow:visible;visibility:visible;opacity:1;isolation:auto;mix-blend-mode:normal;color-interpolation:sRGB;color-interpolation-filters:linearRGB;solid-color:#000000;solid-opacity:1;fill:#000000;fill-opacity:1;fill-rule:evenodd;stroke:none;stroke-width:1.99999988;stroke-linecap:round;stroke-linejoin:round;stroke-miterlimit:4;stroke-dasharray:none;stroke-dashoffset:0;stroke-opacity:1;color-rendering:auto;image-rendering:auto;shape-rendering:auto;text-rendering:auto;enable-background:accumulate" d="m 21.938137,1034.3638 a 1.0001801,0.9999056 0 0 0 -0.744201,0.3964 l -6.982981,8.9748 a 1.0001801,0.9999056 0 0 0 0.984453,1.5953 l 7.365826,-1.4722 -5.350038,6.8756 a 1.0001801,0.9999056 0 1 0 1.57825,1.2281 l 7.000561,-8.9982 a 1.0001801,0.9999056 0 0 0 -0.984452,-1.5933 l -7.365826,1.4723 5.334413,-6.8541 a 1.0001801,0.9999056 0 0 0 -0.836005,-1.6247 z"/></g></svg>