<svg width='200' height='200' fill="#000000" xmlns:dc="http://purl.org/dc/elements/1.1/" xmlns:cc="http://creativecommons.org/ns#" xmlns:rdf="http://www.w3.org/1999/02/22-rdf-syntax-ns#" xmlns:svg="http://www.w3.org/2000/svg" xmlns="http://www.w3.org/2000/svg" xmlns:sodipodi="http://sodipodi.sourceforge.net/DTD/sodipodi-0.dtd" xmlns:inkscape="http://www.inkscape.org/namespaces/inkscape" viewBox="0 0 48 48.000001" version="1.1" x="0px" y="0px"><g transform="translate(0,-1004.3622)"><path style="color:#000000;font-style:normal;font-variant:normal;font-weight:normal;font-stretch:normal;font-size:medium;line-height:normal;font-family:sans-serif;text-indent:0;text-align:start;text-decoration:none;text-decoration-line:none;text-decoration-style:solid;text-decoration-color:#000000;letter-spacing:normal;word-spacing:normal;text-transform:none;direction:ltr;block-progression:tb;writing-mode:lr-tb;baseline-shift:baseline;text-anchor:start;white-space:normal;clip-rule:nonzero;display:inline;overflow:visible;visibility:visible;opacity:1;isolation:auto;mix-blend-mode:normal;color-interpolation:sRGB;color-interpolation-filters:linearRGB;solid-color:#000000;solid-opacity:1;fill:#000000;fill-opacity:1;fill-rule:nonzero;stroke:none;stroke-width:2;stroke-linecap:round;stroke-linejoin:round;stroke-miterlimit:4;stroke-dasharray:none;stroke-dashoffset:0;stroke-opacity:1;color-rendering:auto;image-rendering:auto;shape-rendering:auto;text-rendering:auto;enable-background:accumulate" d="m 24,1004.3613 c -13.242989,0 -24,10.757 -24,24 0,13.243 10.757011,24 24,24 13.242989,0 24,-10.757 24,-24 0,-13.243 -10.757011,-24 -24,-24 z m 0,2 c 12.162109,0 22,9.8379 22,22 0,12.1621 -9.837891,22 -22,22 -12.162109,0 -22,-9.8379 -22,-22 0,-12.1621 9.837891,-22 22,-22 z"/><path style="color:#000000;font-style:normal;font-variant:normal;font-weight:normal;font-stretch:normal;font-size:medium;line-height:normal;font-family:sans-serif;text-indent:0;text-align:start;text-decoration:none;text-decoration-line:none;text-decoration-style:solid;text-decoration-color:#000000;letter-spacing:normal;word-spacing:normal;text-transform:none;direction:ltr;block-progression:tb;writing-mode:lr-tb;baseline-shift:baseline;text-anchor:start;white-space:normal;clip-rule:nonzero;display:inline;overflow:visible;visibility:visible;opacity:1;isolation:auto;mix-blend-mode:normal;color-interpolation:sRGB;color-interpolation-filters:linearRGB;solid-color:#000000;solid-opacity:1;fill:#000000;fill-opacity:1;fill-rule:evenodd;stroke:none;stroke-width:2;stroke-linecap:round;stroke-linejoin:round;stroke-miterlimit:4;stroke-dasharray:none;stroke-dashoffset:0;stroke-opacity:1;color-rendering:auto;image-rendering:auto;shape-rendering:auto;text-rendering:auto;enable-background:accumulate" d="m 2.0136719,1033.3633 a 1.0001,1.0001 0 1 0 0,2 l 18.5039061,0 -1.449219,3.623 a 1.0001,1.0001 0 0 0 0.0332,0.8184 l 1.8125,3.6269 -0.867187,2.6055 a 1.0001,1.0001 0 0 0 0.05469,0.7637 l 1.998047,3.9961 a 1.0001319,1.0001319 0 1 0 1.789063,-0.8946 l -1.814453,-3.6269 0.86914,-2.6035 a 1.0001,1.0001 0 0 0 -0.05469,-0.7637 l -1.796875,-3.5957 1.832031,-4.5781 a 1.0001,1.0001 0 0 0 -0.929687,-1.3711 l -19.9804691,0 z"/><path style="color:#000000;font-style:normal;font-variant:normal;font-weight:normal;font-stretch:normal;font-size:medium;line-height:normal;font-family:sans-serif;text-indent:0;text-align:start;text-decoration:none;text-decoration-line:none;text-decoration-style:solid;text-decoration-color:#000000;letter-spacing:normal;word-spacing:normal;text-transform:none;direction:ltr;block-progression:tb;writing-mode:lr-tb;baseline-shift:baseline;text-anchor:start;white-space:normal;clip-rule:nonzero;display:inline;overflow:visible;visibility:visible;opacity:1;isolation:auto;mix-blend-mode:normal;color-interpolation:sRGB;color-interpolation-filters:linearRGB;solid-color:#000000;solid-opacity:1;fill:#000000;fill-opacity:1;fill-rule:evenodd;stroke:none;stroke-width:1.99999988;stroke-linecap:round;stroke-linejoin:round;stroke-miterlimit:4;stroke-dasharray:none;stroke-dashoffset:0;stroke-opacity:1;color-rendering:auto;image-rendering:auto;shape-rendering:auto;text-rendering:auto;enable-background:accumulate" d="m 25.998047,1033.3613 a 1.0000999,1.0000999 0 0 0 -0.927735,0.6289 l -1.998046,4.9961 a 1.0000999,1.0000999 0 0 0 0.0332,0.8184 l 1.738281,3.4785 -1.675781,2.5137 A 1.0000999,1.0000999 0 0 0 23,1046.3516 l 0,3.9961 a 1.0000999,1.0000999 0 1 0 2,0 l 0,-3.6934 1.830078,-2.7461 a 1.0000999,1.0000999 0 0 0 0.0625,-1.002 l -1.796875,-3.5937 1.580078,-3.9512 19.310547,0 a 1.0000999,1.0000999 0 1 0 0,-2 l -19.988281,0 z"/><path style="color:#000000;font-style:normal;font-variant:normal;font-weight:normal;font-stretch:normal;font-size:medium;line-height:normal;font-family:sans-serif;text-indent:0;text-align:start;text-decoration:none;text-decoration-line:none;text-decoration-style:solid;text-decoration-color:#000000;letter-spacing:normal;word-spacing:normal;text-transform:none;direction:ltr;block-progression:tb;writing-mode:lr-tb;baseline-shift:baseline;text-anchor:start;white-space:normal;clip-rule:nonzero;display:inline;overflow:visible;visibility:visible;opacity:1;isolation:auto;mix-blend-mode:normal;color-interpolation:sRGB;color-interpolation-filters:linearRGB;solid-color:#000000;solid-opacity:1;fill:#000000;fill-opacity:1;fill-rule:evenodd;stroke:none;stroke-width:2;stroke-linecap:round;stroke-linejoin:round;stroke-miterlimit:4;stroke-dasharray:none;stroke-dashoffset:0;stroke-opacity:1;color-rendering:auto;image-rendering:auto;shape-rendering:auto;text-rendering:auto;enable-background:accumulate" d="M 16.984375,1023.3633 A 1.0001,1.0001 0 0 0 16,1024.377 l 0,9.9707 a 1.0001,1.0001 0 1 0 2,0 l 0,-9.9707 a 1.0001,1.0001 0 0 0 -1.015625,-1.0137 z"/><path style="color:#000000;font-style:normal;font-variant:normal;font-weight:normal;font-stretch:normal;font-size:medium;line-height:normal;font-family:sans-serif;text-indent:0;text-align:start;text-decoration:none;text-decoration-line:none;text-decoration-style:solid;text-decoration-color:#000000;letter-spacing:normal;word-spacing:normal;text-transform:none;direction:ltr;block-progression:tb;writing-mode:lr-tb;baseline-shift:baseline;text-anchor:start;white-space:normal;clip-rule:nonzero;display:inline;overflow:visible;visibility:visible;opacity:1;isolation:auto;mix-blend-mode:normal;color-interpolation:sRGB;color-interpolation-filters:linearRGB;solid-color:#000000;solid-opacity:1;fill:#000000;fill-opacity:1;fill-rule:evenodd;stroke:none;stroke-width:2;stroke-linecap:round;stroke-linejoin:round;stroke-miterlimit:4;stroke-dasharray:none;stroke-dashoffset:0;stroke-opacity:1;color-rendering:auto;image-rendering:auto;shape-rendering:auto;text-rendering:auto;enable-background:accumulate" d="M 30.984375,1023.3633 A 1.0001,1.0001 0 0 0 30,1024.377 l 0,9.9707 a 1.0001,1.0001 0 1 0 2,0 l 0,-9.9707 a 1.0001,1.0001 0 0 0 -1.015625,-1.0137 z"/><path style="color:#000000;font-style:normal;font-variant:normal;font-weight:normal;font-stretch:normal;font-size:medium;line-height:normal;font-family:sans-serif;text-indent:0;text-align:start;text-decoration:none;text-decoration-line:none;text-decoration-style:solid;text-decoration-color:#000000;letter-spacing:normal;word-spacing:normal;text-transform:none;direction:ltr;block-progression:tb;writing-mode:lr-tb;baseline-shift:baseline;text-anchor:start;white-space:normal;clip-rule:nonzero;display:inline;overflow:visible;visibility:visible;opacity:1;isolation:auto;mix-blend-mode:normal;color-interpolation:sRGB;color-interpolation-filters:linearRGB;solid-color:#000000;solid-opacity:1;fill:#000000;fill-opacity:1;fill-rule:evenodd;stroke:none;stroke-width:1.99999988;stroke-linecap:round;stroke-linejoin:round;stroke-miterlimit:4;stroke-dasharray:none;stroke-dashoffset:0;stroke-opacity:1;color-rendering:auto;image-rendering:auto;shape-rendering:auto;text-rendering:auto;enable-background:accumulate" d="m 23.941406,1017.3633 a 1.0000999,1.0000999 0 0 0 -0.455078,0.1406 l -10,6 A 1.0000999,1.0000999 0 0 0 14,1025.3613 l 20,0 a 1.0000999,1.0000999 0 0 0 0.515625,-1.8574 l -10,-6 a 1.0000999,1.0000999 0 0 0 -0.574219,-0.1406 z m 0.05859,2.166 6.388672,3.832 -12.777344,0 L 24,1019.5293 Z"/><path style="color:#000000;font-style:normal;font-variant:normal;font-weight:normal;font-stretch:normal;font-size:medium;line-height:normal;font-family:sans-serif;text-indent:0;text-align:start;text-decoration:none;text-decoration-line:none;text-decoration-style:solid;text-decoration-color:#000000;letter-spacing:normal;word-spacing:normal;text-transform:none;direction:ltr;block-progression:tb;writing-mode:lr-tb;baseline-shift:baseline;text-anchor:start;white-space:normal;clip-rule:nonzero;display:inline;overflow:visible;visibility:visible;opacity:1;isolation:auto;mix-blend-mode:normal;color-interpolation:sRGB;color-interpolation-filters:linearRGB;solid-color:#000000;solid-opacity:1;fill:#000000;fill-opacity:1;fill-rule:evenodd;stroke:none;stroke-width:2;stroke-linecap:round;stroke-linejoin:round;stroke-miterlimit:4;stroke-dasharray:none;stroke-dashoffset:0;stroke-opacity:1;color-rendering:auto;image-rendering:auto;shape-rendering:auto;text-rendering:auto;enable-background:accumulate" d="m 38.003906,1019.3613 a 1.0001,1.0001 0 0 0 -0.703125,1.7149 l 1.28125,1.2929 -1.28125,1.2911 a 1.0001,1.0001 0 0 0 0,1.4082 l 1.28125,1.291 -1.28125,1.2929 a 1.0001,1.0001 0 0 0 0,1.4082 l 1.978516,1.9961 a 1.0001,1.0001 0 1 0 1.419922,-1.4082 l -1.28125,-1.2929 1.28125,-1.291 a 1.0001,1.0001 0 0 0 0,-1.4083 l -1.28125,-1.291 1.28125,-1.2929 a 1.0001,1.0001 0 0 0 0,-1.4082 l -1.978516,-1.9961 a 1.0001,1.0001 0 0 0 -0.716797,-0.3067 z"/><path style="color:#000000;font-style:normal;font-variant:normal;font-weight:normal;font-stretch:normal;font-size:medium;line-height:normal;font-family:sans-serif;text-indent:0;text-align:start;text-decoration:none;text-decoration-line:none;text-decoration-style:solid;text-decoration-color:#000000;letter-spacing:normal;word-spacing:normal;text-transform:none;direction:ltr;block-progression:tb;writing-mode:lr-tb;baseline-shift:baseline;text-anchor:start;white-space:normal;clip-rule:nonzero;display:inline;overflow:visible;visibility:visible;opacity:1;isolation:auto;mix-blend-mode:normal;color-interpolation:sRGB;color-interpolation-filters:linearRGB;solid-color:#000000;solid-opacity:1;fill:#000000;fill-opacity:1;fill-rule:evenodd;stroke:none;stroke-width:2;stroke-linecap:round;stroke-linejoin:round;stroke-miterlimit:4;stroke-dasharray:none;stroke-dashoffset:0;stroke-opacity:1;color-rendering:auto;image-rendering:auto;shape-rendering:auto;text-rendering:auto;enable-background:accumulate" d="m 9.9667969,1019.3633 a 1.0001,1.0001 0 0 0 -0.6875,0.3047 l -1.9785157,1.9961 a 1.0001,1.0001 0 0 0 0,1.4082 l 1.28125,1.2929 -1.28125,1.291 a 1.0001,1.0001 0 0 0 0,1.4083 l 1.28125,1.291 -1.28125,1.2929 a 1.0001,1.0001 0 1 0 1.4199219,1.4082 l 1.9785159,-1.9961 a 1.0001,1.0001 0 0 0 0,-1.4082 l -1.2812502,-1.2929 1.2812502,-1.291 a 1.0001,1.0001 0 0 0 0,-1.4082 l -1.2812502,-1.2911 1.2812502,-1.2929 a 1.0001,1.0001 0 0 0 -0.7324221,-1.7129 z"/></g></svg>