<svg width='200' height='200' fill="#000000" xmlns:dc="http://purl.org/dc/elements/1.1/" xmlns:cc="http://creativecommons.org/ns#" xmlns:rdf="http://www.w3.org/1999/02/22-rdf-syntax-ns#" xmlns:svg="http://www.w3.org/2000/svg" xmlns="http://www.w3.org/2000/svg" xmlns:sodipodi="http://sodipodi.sourceforge.net/DTD/sodipodi-0.dtd" xmlns:inkscape="http://www.inkscape.org/namespaces/inkscape" viewBox="0 0 48 48.000001" version="1.1" x="0px" y="0px"><g transform="translate(0,-1004.3622)"><path style="color:#000000;font-style:normal;font-variant:normal;font-weight:normal;font-stretch:normal;font-size:medium;line-height:normal;font-family:sans-serif;text-indent:0;text-align:start;text-decoration:none;text-decoration-line:none;text-decoration-style:solid;text-decoration-color:#000000;letter-spacing:normal;word-spacing:normal;text-transform:none;direction:ltr;block-progression:tb;writing-mode:lr-tb;baseline-shift:baseline;text-anchor:start;white-space:normal;clip-rule:nonzero;display:inline;overflow:visible;visibility:visible;opacity:1;isolation:auto;mix-blend-mode:normal;color-interpolation:sRGB;color-interpolation-filters:linearRGB;solid-color:#000000;solid-opacity:1;fill:#000000;fill-opacity:1;fill-rule:nonzero;stroke:none;stroke-width:2;stroke-linecap:round;stroke-linejoin:round;stroke-miterlimit:4;stroke-dasharray:none;stroke-dashoffset:0;stroke-opacity:1;color-rendering:auto;image-rendering:auto;shape-rendering:auto;text-rendering:auto;enable-background:accumulate" d="m 32.578724,1011.3622 c -0.08005,0 -0.159402,0.017 -0.236332,0.039 -5.975041,-0.027 -11.68267,3.5234 -14.871368,8.92 -4.639712,-1.6268 -9.9141012,-1.1863 -13.5236858,2.3423 l -0.00781,0.01 c -3.72196236,3.7195 -4.9407363,9.2409 -3.07818155,14.1771 l 0.001953,0 c 1.86370375,4.8583 6.40970725,8.2682 11.68771435,8.5116 6.760744,0 13.637468,0 19.42809,0 7.985957,-0.2413 14.612804,-6.3144 15.808883,-14.4094 l 0,0 c 1.270798,-8.1019 -3.266699,-15.9964 -10.851761,-18.7093 l -0.0039,0 c -1.352414,-0.477 -2.791354,-0.7983 -4.252031,-0.8791 -0.01042,-2e-4 -0.02083,-2e-4 -0.03125,0 -0.02343,-8e-4 -0.04688,-8e-4 -0.07031,0 z m 0.01367,2.0004 c 1.231847,0.071 2.483605,0.346 3.673896,0.7658 6.663113,2.3855 10.675006,9.3294 9.54705,16.5154 l -0.002,0.01 c -1.057603,7.1862 -6.87573,12.4931 -13.883068,12.7099 l -19.295277,0 c -4.468471,-0.2102 -8.3171617,-3.0935 -9.902525,-7.2263 -1.5847043,-4.2045 -0.5544313,-8.8702 2.6191887,-12.0456 3.1192979,-3.0464 7.7841533,-3.2578 12.0529563,-1.7328 0.685356,0.2448 1.204387,-0.1454 1.472707,-0.5953 3.012521,-5.0514 8.294457,-8.5338 13.717049,-8.3984 z"/></g></svg>