<svg width='200' height='200' fill="#000000" xmlns:dc="http://purl.org/dc/elements/1.1/" xmlns:cc="http://creativecommons.org/ns#" xmlns:rdf="http://www.w3.org/1999/02/22-rdf-syntax-ns#" xmlns:svg="http://www.w3.org/2000/svg" xmlns="http://www.w3.org/2000/svg" xmlns:sodipodi="http://sodipodi.sourceforge.net/DTD/sodipodi-0.dtd" xmlns:inkscape="http://www.inkscape.org/namespaces/inkscape" viewBox="0 0 48 48.000001" version="1.1" x="0px" y="0px"><g transform="translate(0,-1004.3622)"><path style="color:#000000;font-style:normal;font-variant:normal;font-weight:normal;font-stretch:normal;font-size:medium;line-height:normal;font-family:sans-serif;text-indent:0;text-align:start;text-decoration:none;text-decoration-line:none;text-decoration-style:solid;text-decoration-color:#000000;letter-spacing:normal;word-spacing:normal;text-transform:none;direction:ltr;block-progression:tb;writing-mode:lr-tb;baseline-shift:baseline;text-anchor:start;white-space:normal;clip-rule:nonzero;display:inline;overflow:visible;visibility:visible;opacity:1;isolation:auto;mix-blend-mode:normal;color-interpolation:sRGB;color-interpolation-filters:linearRGB;solid-color:#000000;solid-opacity:1;fill:#000000;fill-opacity:1;fill-rule:evenodd;stroke:none;stroke-width:1.99999988;stroke-linecap:round;stroke-linejoin:round;stroke-miterlimit:4;stroke-dasharray:none;stroke-dashoffset:0;stroke-opacity:1;color-rendering:auto;image-rendering:auto;shape-rendering:auto;text-rendering:auto;enable-background:accumulate" d="m 4.9852095,1042.3623 a 1.0003969,1.0005651 0 0 0 -0.5958801,1.7919 c 0,0 0.670137,0.5314 1.5414733,1.065 0.8713362,0.5334 1.8883152,1.143 3.079039,1.143 1.1907233,0 1.9948013,-0.7134 2.6218713,-1.2115 0.627071,-0.498 1.077973,-0.7796 1.377362,-0.7796 0.299392,0 0.750292,0.2816 1.377362,0.7796 0.627071,0.4981 1.429195,1.2115 2.619919,1.2115 1.190724,0 1.994801,-0.7134 2.621872,-1.2115 0.62707,-0.498 1.077971,-0.7796 1.377362,-0.7796 0.299391,0 0.750292,0.2816 1.377362,0.7796 0.627071,0.4981 1.431149,1.2115 2.621872,1.2115 1.190724,0 1.992847,-0.7134 2.619919,-1.2115 0.62707,-0.498 1.077971,-0.7796 1.377362,-0.7796 0.29939,0 0.750291,0.2816 1.377362,0.7796 0.62707,0.4981 1.431148,1.2115 2.621873,1.2115 1.190723,0 2.207702,-0.6096 3.079037,-1.143 0.871337,-0.5336 1.541474,-1.065 1.541474,-1.065 a 1.0005117,1.0006798 0 0 0 -1.24451,-1.5672 c 0,0 -0.584908,0.4638 -1.340242,0.9263 -0.755334,0.4624 -1.73637,0.848 -2.035759,0.848 -0.299392,0 -0.750292,-0.2797 -1.377363,-0.7777 -0.627071,-0.498 -1.431148,-1.2135 -2.621872,-1.2135 -1.190724,0 -1.994802,0.7155 -2.621872,1.2135 -0.627071,0.498 -1.076018,0.7777 -1.375409,0.7777 -0.299391,0 -0.750291,-0.2797 -1.377361,-0.7777 -0.627071,-0.498 -1.431149,-1.2135 -2.621873,-1.2135 -1.190724,0 -1.994802,0.7155 -2.621873,1.2135 -0.62707,0.498 -1.07797,0.7777 -1.377361,0.7777 -0.299391,0 -0.748337,-0.2797 -1.375408,-0.7777 -0.62707,-0.498 -1.431148,-1.2135 -2.621873,-1.2135 -1.190724,0 -1.994801,0.7155 -2.621872,1.2135 -0.6270699,0.498 -1.0779706,0.7777 -1.3773613,0.7777 -0.2993905,0 -1.2804267,-0.3856 -2.0357606,-0.848 -0.7553338,-0.4625 -1.3402416,-0.9263 -1.3402416,-0.9263 a 1.0003969,1.0005651 0 0 0 -0.64863,-0.2247 z"/><path style="color:#000000;font-style:normal;font-variant:normal;font-weight:normal;font-stretch:normal;font-size:medium;line-height:normal;font-family:sans-serif;text-indent:0;text-align:start;text-decoration:none;text-decoration-line:none;text-decoration-style:solid;text-decoration-color:#000000;letter-spacing:normal;word-spacing:normal;text-transform:none;direction:ltr;block-progression:tb;writing-mode:lr-tb;baseline-shift:baseline;text-anchor:start;white-space:normal;clip-rule:nonzero;display:inline;overflow:visible;visibility:visible;opacity:1;isolation:auto;mix-blend-mode:normal;color-interpolation:sRGB;color-interpolation-filters:linearRGB;solid-color:#000000;solid-opacity:1;fill:#000000;fill-opacity:1;fill-rule:evenodd;stroke:none;stroke-width:1.99999988;stroke-linecap:round;stroke-linejoin:round;stroke-miterlimit:4;stroke-dasharray:none;stroke-dashoffset:0;stroke-opacity:1;color-rendering:auto;image-rendering:auto;shape-rendering:auto;text-rendering:auto;enable-background:accumulate" d="m 4.9871648,1047.3623 a 1.0003986,1.0005726 0 0 0 -0.5978347,1.7919 c 0,0 0.6701383,0.5314 1.541476,1.065 0.8713375,0.5334 1.8883185,1.143 3.0790443,1.143 1.1907256,0 1.9948046,-0.7134 2.6218766,-1.2115 0.627072,-0.498 1.077974,-0.7796 1.377364,-0.7796 0.299393,0 0.750293,0.2816 1.377364,0.7796 0.627072,0.4981 1.429198,1.2115 2.619923,1.2115 1.190727,0 1.994806,-0.7134 2.621878,-1.2115 0.627071,-0.498 1.077972,-0.7796 1.377364,-0.7796 0.299391,0 0.750293,0.2816 1.377364,0.7796 0.627072,0.4981 1.431151,1.2115 2.621877,1.2115 1.190726,0 1.992851,-0.7134 2.619924,-1.2115 0.627071,-0.498 1.077972,-0.7796 1.377364,-0.7796 0.29939,0 0.750292,0.2816 1.377364,0.7796 0.627071,0.4981 1.43115,1.2115 2.621877,1.2115 1.190726,0 2.207706,-0.6096 3.079043,-1.143 0.871339,-0.5336 1.541477,-1.065 1.541477,-1.065 a 1.0005087,1.0006828 0 1 0 -1.244512,-1.5672 c 0,0 -0.58491,0.4637 -1.340244,0.9263 -0.755336,0.4624 -1.736374,0.848 -2.035764,0.848 -0.299392,0 -0.750293,-0.2797 -1.377365,-0.7777 -0.627072,-0.498 -1.431151,-1.2135 -2.621876,-1.2135 -1.190727,0 -1.994806,0.7155 -2.621877,1.2135 -0.627073,0.498 -1.07602,0.7777 -1.375411,0.7777 -0.299392,0 -0.750293,-0.2797 -1.377364,-0.7777 -0.627072,-0.498 -1.431152,-1.2135 -2.621877,-1.2135 -1.190726,0 -1.994805,0.7155 -2.621877,1.2135 -0.627072,0.498 -1.077973,0.7777 -1.377365,0.7777 -0.299391,0 -0.748338,-0.2797 -1.37541,-0.7777 -0.627071,-0.498 -1.431151,-1.2135 -2.621877,-1.2135 -1.190726,0 -1.994804,0.7155 -2.621877,1.2135 -0.6270708,0.498 -1.0779724,0.7777 -1.3773636,0.7777 -0.299391,0 -1.2804292,-0.3856 -2.0357641,-0.848 -0.7553349,-0.4626 -1.3402439,-0.9263 -1.3402439,-0.9263 a 1.0003986,1.0005726 0 0 0 -0.6466776,-0.2247 z"/><path style="color:#000000;font-style:normal;font-variant:normal;font-weight:normal;font-stretch:normal;font-size:medium;line-height:normal;font-family:sans-serif;text-indent:0;text-align:start;text-decoration:none;text-decoration-line:none;text-decoration-style:solid;text-decoration-color:#000000;letter-spacing:normal;word-spacing:normal;text-transform:none;direction:ltr;block-progression:tb;writing-mode:lr-tb;baseline-shift:baseline;text-anchor:start;white-space:normal;clip-rule:nonzero;display:inline;overflow:visible;visibility:visible;opacity:1;isolation:auto;mix-blend-mode:normal;color-interpolation:sRGB;color-interpolation-filters:linearRGB;solid-color:#000000;solid-opacity:1;fill:#000000;fill-opacity:1;fill-rule:nonzero;stroke:none;stroke-width:2;stroke-linecap:round;stroke-linejoin:round;stroke-miterlimit:4;stroke-dasharray:none;stroke-dashoffset:0;stroke-opacity:1;color-rendering:auto;image-rendering:auto;shape-rendering:auto;text-rendering:auto;enable-background:accumulate" d="m 22.705147,1015.371 c -4.172401,0.01 -8.090765,2.4424 -10.376691,6.1075 -3.2545257,-1.0577 -6.9261177,-0.7488 -9.4802284,1.7363 -2.69020059,2.6182 -3.56923453,6.5786 -2.23041227,10.0762 1.33878517,3.4976 4.63980897,5.8799 8.40017817,6.0703 l 13.5367675,0 c 6.815811,0 10.418493,-5.2946 11.300495,-10.1663 0.883941,-5.7223 -2.357553,-11.2963 -7.726368,-13.2305 -1.22703,-0.4011 -2.289229,-0.5652 -3.423741,-0.5935 z m 0.24999,1.9962 0.0098,0 c 0.833401,0.031 1.666814,0.1854 2.486266,0.4805 4.457443,1.6058 7.169277,6.2414 6.427571,11.0429 -0.738114,4.7779 -4.670503,8.3064 -9.361091,8.461 -4.458998,0.021 -8.940903,0.01 -13.4078649,0.01 -2.9754197,-0.1547 -5.5690237,-2.0319 -6.6228795,-4.7851 -1.0550343,-2.7562 -0.3696873,-5.8592 1.755815,-7.9278 2.0716495,-2.0157 5.1866266,-2.1746 8.0603424,-1.1211 0.660674,0.2422 1.07142,-0.042 1.400364,-0.5807 2.059605,-3.3746 5.623787,-5.7182 9.251719,-5.5859 z"/><path style="color:#000000;font-style:normal;font-variant:normal;font-weight:normal;font-stretch:normal;font-size:medium;line-height:normal;font-family:sans-serif;text-indent:0;text-align:start;text-decoration:none;text-decoration-line:none;text-decoration-style:solid;text-decoration-color:#000000;letter-spacing:normal;word-spacing:normal;text-transform:none;direction:ltr;block-progression:tb;writing-mode:lr-tb;baseline-shift:baseline;text-anchor:start;white-space:normal;clip-rule:nonzero;display:inline;overflow:visible;visibility:visible;opacity:1;isolation:auto;mix-blend-mode:normal;color-interpolation:sRGB;color-interpolation-filters:linearRGB;solid-color:#000000;solid-opacity:1;fill:#000000;fill-opacity:1;fill-rule:nonzero;stroke:none;stroke-width:2;stroke-linecap:round;stroke-linejoin:round;stroke-miterlimit:4;stroke-dasharray:none;stroke-dashoffset:0;stroke-opacity:1;color-rendering:auto;image-rendering:auto;shape-rendering:auto;text-rendering:auto;enable-background:accumulate" d="m 32.609194,1012.3867 c -2.766802,0.2179 -5.275711,1.8564 -6.482316,4.5561 -0.632981,1.2493 1.316573,2.1198 1.824173,0.8145 1.216593,-2.7221 4.111719,-3.991 6.876837,-3.1518 2.765132,0.8392 4.527832,3.646 4.111224,6.6172 -0.416577,2.9711 -2.864416,5.1388 -5.743996,5.1406 -1.35226,-0.018 -1.350222,2.0204 0.002,2 3.886317,0 7.173534,-2.9482 7.722461,-6.8633 0.548968,-3.9151 -1.785547,-7.6783 -5.509627,-8.8086 -0.931015,-0.2826 -1.878443,-0.3773 -2.80071,-0.3047 z"/><path style="color:#000000;font-style:normal;font-variant:normal;font-weight:normal;font-stretch:normal;font-size:medium;line-height:normal;font-family:sans-serif;text-indent:0;text-align:start;text-decoration:none;text-decoration-line:none;text-decoration-style:solid;text-decoration-color:#000000;letter-spacing:normal;word-spacing:normal;text-transform:none;direction:ltr;block-progression:tb;writing-mode:lr-tb;baseline-shift:baseline;text-anchor:start;white-space:normal;clip-rule:nonzero;display:inline;overflow:visible;visibility:visible;opacity:1;isolation:auto;mix-blend-mode:normal;color-interpolation:sRGB;color-interpolation-filters:linearRGB;solid-color:#000000;solid-opacity:1;fill:#000000;fill-opacity:1;fill-rule:evenodd;stroke:none;stroke-width:2;stroke-linecap:round;stroke-linejoin:round;stroke-miterlimit:4;stroke-dasharray:none;stroke-dashoffset:0;stroke-opacity:1;color-rendering:auto;image-rendering:auto;shape-rendering:auto;text-rendering:auto;enable-background:accumulate" d="m 32.984184,1005.3613 a 1.0000747,1.0001 0 0 0 -0.98435,1.0157 l 0,2.9707 a 1.0000747,1.0001 0 1 0 1.999949,0 l 0,-2.9707 a 1.0000747,1.0001 0 0 0 -1.015599,-1.0157 z"/><path style="color:#000000;font-style:normal;font-variant:normal;font-weight:normal;font-stretch:normal;font-size:medium;line-height:normal;font-family:sans-serif;text-indent:0;text-align:start;text-decoration:none;text-decoration-line:none;text-decoration-style:solid;text-decoration-color:#000000;letter-spacing:normal;word-spacing:normal;text-transform:none;direction:ltr;block-progression:tb;writing-mode:lr-tb;baseline-shift:baseline;text-anchor:start;white-space:normal;clip-rule:nonzero;display:inline;overflow:visible;visibility:visible;opacity:1;isolation:auto;mix-blend-mode:normal;color-interpolation:sRGB;color-interpolation-filters:linearRGB;solid-color:#000000;solid-opacity:1;fill:#000000;fill-opacity:1;fill-rule:evenodd;stroke:none;stroke-width:2;stroke-linecap:round;stroke-linejoin:round;stroke-miterlimit:4;stroke-dasharray:none;stroke-dashoffset:0;stroke-opacity:1;color-rendering:auto;image-rendering:auto;shape-rendering:auto;text-rendering:auto;enable-background:accumulate" d="m 42.97026,1009.3633 a 1.0000747,1.0001 0 0 0 -0.687483,0.3027 l -1.980419,1.9785 a 1.0000747,1.0001 0 1 0 1.414027,1.4141 l 1.980419,-1.9785 a 1.0000747,1.0001 0 0 0 -0.726544,-1.7168 z"/><path style="color:#000000;font-style:normal;font-variant:normal;font-weight:normal;font-stretch:normal;font-size:medium;line-height:normal;font-family:sans-serif;text-indent:0;text-align:start;text-decoration:none;text-decoration-line:none;text-decoration-style:solid;text-decoration-color:#000000;letter-spacing:normal;word-spacing:normal;text-transform:none;direction:ltr;block-progression:tb;writing-mode:lr-tb;baseline-shift:baseline;text-anchor:start;white-space:normal;clip-rule:nonzero;display:inline;overflow:visible;visibility:visible;opacity:1;isolation:auto;mix-blend-mode:normal;color-interpolation:sRGB;color-interpolation-filters:linearRGB;solid-color:#000000;solid-opacity:1;fill:#000000;fill-opacity:1;fill-rule:evenodd;stroke:none;stroke-width:2;stroke-linecap:round;stroke-linejoin:round;stroke-miterlimit:4;stroke-dasharray:none;stroke-dashoffset:0;stroke-opacity:1;color-rendering:auto;image-rendering:auto;shape-rendering:auto;text-rendering:auto;enable-background:accumulate" d="m 40.999606,1027.3633 a 1.0000747,1.0001 0 0 0 -0.697248,1.7168 l 1.980419,1.9785 a 1.0000747,1.0001 0 1 0 1.414027,-1.4141 l -1.980419,-1.9785 a 1.0000747,1.0001 0 0 0 -0.716779,-0.3027 z"/><path style="color:#000000;font-style:normal;font-variant:normal;font-weight:normal;font-stretch:normal;font-size:medium;line-height:normal;font-family:sans-serif;text-indent:0;text-align:start;text-decoration:none;text-decoration-line:none;text-decoration-style:solid;text-decoration-color:#000000;letter-spacing:normal;word-spacing:normal;text-transform:none;direction:ltr;block-progression:tb;writing-mode:lr-tb;baseline-shift:baseline;text-anchor:start;white-space:normal;clip-rule:nonzero;display:inline;overflow:visible;visibility:visible;opacity:1;isolation:auto;mix-blend-mode:normal;color-interpolation:sRGB;color-interpolation-filters:linearRGB;solid-color:#000000;solid-opacity:1;fill:#000000;fill-opacity:1;fill-rule:evenodd;stroke:none;stroke-width:2;stroke-linecap:round;stroke-linejoin:round;stroke-miterlimit:4;stroke-dasharray:none;stroke-dashoffset:0;stroke-opacity:1;color-rendering:auto;image-rendering:auto;shape-rendering:auto;text-rendering:auto;enable-background:accumulate" d="m 44.013202,1018.3613 a 1.0000747,1.0001 0 1 0 0,2 l 2.972581,0 a 1.0000747,1.0001 0 1 0 0,-2 l -2.972581,0 z"/><path style="color:#000000;font-style:normal;font-variant:normal;font-weight:normal;font-stretch:normal;font-size:medium;line-height:normal;font-family:sans-serif;text-indent:0;text-align:start;text-decoration:none;text-decoration-line:none;text-decoration-style:solid;text-decoration-color:#000000;letter-spacing:normal;word-spacing:normal;text-transform:none;direction:ltr;block-progression:tb;writing-mode:lr-tb;baseline-shift:baseline;text-anchor:start;white-space:normal;clip-rule:nonzero;display:inline;overflow:visible;visibility:visible;opacity:1;isolation:auto;mix-blend-mode:normal;color-interpolation:sRGB;color-interpolation-filters:linearRGB;solid-color:#000000;solid-opacity:1;fill:#000000;fill-opacity:1;fill-rule:evenodd;stroke:none;stroke-width:2;stroke-linecap:round;stroke-linejoin:round;stroke-miterlimit:4;stroke-dasharray:none;stroke-dashoffset:0;stroke-opacity:1;color-rendering:auto;image-rendering:auto;shape-rendering:auto;text-rendering:auto;enable-background:accumulate" d="m 23.000062,1009.3633 a 1.0000747,1.0001 0 0 0 -0.697249,1.7168 l 1.980419,1.9785 a 1.0000747,1.0001 0 1 0 1.414027,-1.4141 l -1.980419,-1.9785 a 1.0000747,1.0001 0 0 0 -0.716778,-0.3027 z"/></g></svg>