<svg width='200' height='200' fill="#000000" xmlns:dc="http://purl.org/dc/elements/1.1/" xmlns:cc="http://creativecommons.org/ns#" xmlns:rdf="http://www.w3.org/1999/02/22-rdf-syntax-ns#" xmlns:svg="http://www.w3.org/2000/svg" xmlns="http://www.w3.org/2000/svg" xmlns:sodipodi="http://sodipodi.sourceforge.net/DTD/sodipodi-0.dtd" xmlns:inkscape="http://www.inkscape.org/namespaces/inkscape" viewBox="0 0 48 48.000001" version="1.1" x="0px" y="0px"><g transform="translate(0,-1004.3622)"><path style="color:#000000;font-style:normal;font-variant:normal;font-weight:normal;font-stretch:normal;font-size:medium;line-height:normal;font-family:sans-serif;text-indent:0;text-align:start;text-decoration:none;text-decoration-line:none;text-decoration-style:solid;text-decoration-color:#000000;letter-spacing:normal;word-spacing:normal;text-transform:none;direction:ltr;block-progression:tb;writing-mode:lr-tb;baseline-shift:baseline;text-anchor:start;white-space:normal;clip-rule:nonzero;display:inline;overflow:visible;visibility:visible;opacity:1;isolation:auto;mix-blend-mode:normal;color-interpolation:sRGB;color-interpolation-filters:linearRGB;solid-color:#000000;solid-opacity:1;fill:#000000;fill-opacity:1;fill-rule:evenodd;stroke:none;stroke-width:2;stroke-linecap:round;stroke-linejoin:round;stroke-miterlimit:4;stroke-dasharray:none;stroke-dashoffset:0;stroke-opacity:1;color-rendering:auto;image-rendering:auto;shape-rendering:auto;text-rendering:auto;enable-background:accumulate" d="m 40.984742,1028.3618 a 1.000056,1.0004875 0 0 0 -0.691375,0.2911 l -1.999912,2.0009 a 1.000056,1.0004875 0 1 0 1.414,1.4144 l 1.292912,-1.2933 1.583914,1.5846 -1.997958,1.9968 -27.584725,0 a 1.000056,1.0004875 0 0 0 -0.706999,0.293 l -2.9998689,3.0051 a 1.000056,1.0004875 0 0 0 0,1.4146 l 2.9998689,2.9993 a 1.000056,1.0004875 0 0 0 0.706999,0.293 l 23.584901,0 0.998002,0.9984 -1.290958,1.2896 a 1.0005533,1.0009848 0 1 0 1.414,1.4166 l 1.999912,-1.9989 a 1.000056,1.0004875 0 0 0 0,-1.4165 l -1.999912,-1.9969 a 1.000056,1.0004875 0 0 0 -0.707,-0.2931 l -23.584901,0 -1.999912,-2.0007 1.999912,-2.0027 27.584725,0 a 1.000056,1.0004875 0 0 0 0.707,-0.2912 l 2.999868,-2.9972 a 1.000056,1.0004875 0 0 0 0,-1.4146 l -2.999868,-3.0012 a 1.000056,1.0004875 0 0 0 -0.722625,-0.2911 z"/><path style="color:#000000;font-style:normal;font-variant:normal;font-weight:normal;font-stretch:normal;font-size:medium;line-height:normal;font-family:sans-serif;text-indent:0;text-align:start;text-decoration:none;text-decoration-line:none;text-decoration-style:solid;text-decoration-color:#000000;letter-spacing:normal;word-spacing:normal;text-transform:none;direction:ltr;block-progression:tb;writing-mode:lr-tb;baseline-shift:baseline;text-anchor:start;white-space:normal;clip-rule:nonzero;display:inline;overflow:visible;visibility:visible;opacity:1;isolation:auto;mix-blend-mode:normal;color-interpolation:sRGB;color-interpolation-filters:linearRGB;solid-color:#000000;solid-opacity:1;fill:#000000;fill-opacity:1;fill-rule:evenodd;stroke:none;stroke-width:2;stroke-linecap:round;stroke-linejoin:round;stroke-miterlimit:4;stroke-dasharray:none;stroke-dashoffset:0;stroke-opacity:1;color-rendering:auto;image-rendering:auto;shape-rendering:auto;text-rendering:auto;enable-background:accumulate" d="m 45.003383,1035.3626 a 0.99904026,0.99936536 0 0 0 -0.696527,1.7175 l 1.281845,1.2803 -1.281845,1.2822 a 0.99904026,0.99936536 0 1 0 1.412565,1.4131 l 1.988125,-1.9888 a 0.99904026,0.99936536 0 0 0 0,-1.413 l -1.988125,-1.9869 a 0.99904026,0.99936536 0 0 0 -0.716038,-0.3044 z"/><path style="color:#000000;font-style:normal;font-variant:normal;font-weight:normal;font-stretch:normal;font-size:medium;line-height:normal;font-family:sans-serif;text-indent:0;text-align:start;text-decoration:none;text-decoration-line:none;text-decoration-style:solid;text-decoration-color:#000000;letter-spacing:normal;word-spacing:normal;text-transform:none;direction:ltr;block-progression:tb;writing-mode:lr-tb;baseline-shift:baseline;text-anchor:start;white-space:normal;clip-rule:nonzero;display:inline;overflow:visible;visibility:visible;opacity:1;isolation:auto;mix-blend-mode:normal;color-interpolation:sRGB;color-interpolation-filters:linearRGB;solid-color:#000000;solid-opacity:1;fill:#000000;fill-opacity:1;fill-rule:evenodd;stroke:none;stroke-width:2;stroke-linecap:round;stroke-linejoin:round;stroke-miterlimit:4;stroke-dasharray:none;stroke-dashoffset:0;stroke-opacity:1;color-rendering:auto;image-rendering:auto;shape-rendering:auto;text-rendering:auto;enable-background:accumulate" d="m 5.985837,1040.3625 a 0.99994434,1.000293 0 0 0 -0.6912986,0.2911 l -2.9995331,3.0006 a 0.99994434,1.000293 0 0 0 0,1.4144 l 2.9975802,3.0005 a 0.99994434,1.000293 0 0 0 0.7069212,0.293 l 9.9867253,0 a 0.99994434,1.000293 0 1 0 0,-2.0003 l -9.5727272,0 -1.997736,-1.9985 1.5856907,-1.5882 1.2927676,1.2933 a 0.99994434,1.000293 0 1 0 1.4138423,-1.4144 l -1.9996887,-2.0004 a 0.99994434,1.000293 0 0 0 -0.7225437,-0.2911 z"/><path style="color:#000000;font-style:normal;font-variant:normal;font-weight:normal;font-stretch:normal;font-size:medium;line-height:normal;font-family:sans-serif;text-indent:0;text-align:start;text-decoration:none;text-decoration-line:none;text-decoration-style:solid;text-decoration-color:#000000;letter-spacing:normal;word-spacing:normal;text-transform:none;direction:ltr;block-progression:tb;writing-mode:lr-tb;baseline-shift:baseline;text-anchor:start;white-space:normal;clip-rule:nonzero;display:inline;overflow:visible;visibility:visible;opacity:1;isolation:auto;mix-blend-mode:normal;color-interpolation:sRGB;color-interpolation-filters:linearRGB;solid-color:#000000;solid-opacity:1;fill:#000000;fill-opacity:1;fill-rule:nonzero;stroke:none;stroke-width:2;stroke-linecap:round;stroke-linejoin:round;stroke-miterlimit:4;stroke-dasharray:none;stroke-dashoffset:0;stroke-opacity:1;color-rendering:auto;image-rendering:auto;shape-rendering:auto;text-rendering:auto;enable-background:accumulate" d="m 24.008926,1018.363 c -2.076813,0 -4.153196,0.5333 -6.013406,1.6031 -3.71979,2.1409 -6.0098,6.1032 -5.993878,10.3827 0.0022,0.5522 0.45162,0.9979 1.003862,0.9958 7.32988,-0.062 14.659451,-0.019 21.989268,0.018 0.552343,0 1.002676,-0.4418 1.005815,-0.9941 0.02126,-4.2795 -2.263056,-8.247 -5.980206,-10.3924 -1.858251,-1.0732 -3.934641,-1.611 -6.011455,-1.6129 z m -0.002,1.9995 c 1.731545,0 3.46328,0.4501 5.013452,1.3455 2.802532,1.6176 4.540321,4.4854 4.85135,7.6488 -6.57983,-0.076 -13.159485,-0.038 -19.739403,-0.016 0.314988,-3.163 2.05465,-6.0289 4.859162,-7.643 1.551814,-0.8926 3.283861,-1.3373 5.015404,-1.3357 z"/><path style="color:#000000;font-style:normal;font-variant:normal;font-weight:normal;font-stretch:normal;font-size:medium;line-height:normal;font-family:sans-serif;text-indent:0;text-align:start;text-decoration:none;text-decoration-line:none;text-decoration-style:solid;text-decoration-color:#000000;letter-spacing:normal;word-spacing:normal;text-transform:none;direction:ltr;block-progression:tb;writing-mode:lr-tb;baseline-shift:baseline;text-anchor:start;white-space:normal;clip-rule:nonzero;display:inline;overflow:visible;visibility:visible;opacity:1;isolation:auto;mix-blend-mode:normal;color-interpolation:sRGB;color-interpolation-filters:linearRGB;solid-color:#000000;solid-opacity:1;fill:#000000;fill-opacity:1;fill-rule:evenodd;stroke:none;stroke-width:1.99999976;stroke-linecap:round;stroke-linejoin:round;stroke-miterlimit:4;stroke-dasharray:none;stroke-dashoffset:0;stroke-opacity:1;color-rendering:auto;image-rendering:auto;shape-rendering:auto;text-rendering:auto;enable-background:accumulate" d="m 23.98549,1008.3623 a 1.0000559,1.0000739 0 0 0 -0.984332,1.0157 l 0,4.9706 a 1.0000559,1.0000739 0 1 0 1.999913,0 l 0,-4.9706 a 1.0000559,1.0000739 0 0 0 -1.015581,-1.0157 z"/><path style="color:#000000;font-style:normal;font-variant:normal;font-weight:normal;font-stretch:normal;font-size:medium;line-height:normal;font-family:sans-serif;text-indent:0;text-align:start;text-decoration:none;text-decoration-line:none;text-decoration-style:solid;text-decoration-color:#000000;letter-spacing:normal;word-spacing:normal;text-transform:none;direction:ltr;block-progression:tb;writing-mode:lr-tb;baseline-shift:baseline;text-anchor:start;white-space:normal;clip-rule:nonzero;display:inline;overflow:visible;visibility:visible;opacity:1;isolation:auto;mix-blend-mode:normal;color-interpolation:sRGB;color-interpolation-filters:linearRGB;solid-color:#000000;solid-opacity:1;fill:#000000;fill-opacity:1;fill-rule:evenodd;stroke:none;stroke-width:1.99999988;stroke-linecap:round;stroke-linejoin:round;stroke-miterlimit:4;stroke-dasharray:none;stroke-dashoffset:0;stroke-opacity:1;color-rendering:auto;image-rendering:auto;shape-rendering:auto;text-rendering:auto;enable-background:accumulate" d="m 40.971071,1014.3642 a 1.0000559,1.0000739 0 0 0 -0.68747,0.3027 l -3.980293,3.9784 a 1.0000559,1.0000739 0 1 0 1.414001,1.414 l 3.980293,-3.9784 a 1.0000559,1.0000739 0 0 0 -0.726531,-1.7167 z"/><path style="color:#000000;font-style:normal;font-variant:normal;font-weight:normal;font-stretch:normal;font-size:medium;line-height:normal;font-family:sans-serif;text-indent:0;text-align:start;text-decoration:none;text-decoration-line:none;text-decoration-style:solid;text-decoration-color:#000000;letter-spacing:normal;word-spacing:normal;text-transform:none;direction:ltr;block-progression:tb;writing-mode:lr-tb;baseline-shift:baseline;text-anchor:start;white-space:normal;clip-rule:nonzero;display:inline;overflow:visible;visibility:visible;opacity:1;isolation:auto;mix-blend-mode:normal;color-interpolation:sRGB;color-interpolation-filters:linearRGB;solid-color:#000000;solid-opacity:1;fill:#000000;fill-opacity:1;fill-rule:evenodd;stroke:none;stroke-width:1.99999976;stroke-linecap:round;stroke-linejoin:round;stroke-miterlimit:4;stroke-dasharray:none;stroke-dashoffset:0;stroke-opacity:1;color-rendering:auto;image-rendering:auto;shape-rendering:auto;text-rendering:auto;enable-background:accumulate" d="m 7.0018622,1014.3642 a 1.0000559,1.0000739 0 0 0 -0.697235,1.7167 l 3.9802938,3.9784 a 1.0000559,1.0000739 0 1 0 1.414,-1.414 l -3.9802934,-3.9784 a 1.0000559,1.0000739 0 0 0 -0.7167654,-0.3027 z"/><path style="color:#000000;font-style:normal;font-variant:normal;font-weight:normal;font-stretch:normal;font-size:medium;line-height:normal;font-family:sans-serif;text-indent:0;text-align:start;text-decoration:none;text-decoration-line:none;text-decoration-style:solid;text-decoration-color:#000000;letter-spacing:normal;word-spacing:normal;text-transform:none;direction:ltr;block-progression:tb;writing-mode:lr-tb;baseline-shift:baseline;text-anchor:start;white-space:normal;clip-rule:nonzero;display:inline;overflow:visible;visibility:visible;opacity:1;isolation:auto;mix-blend-mode:normal;color-interpolation:sRGB;color-interpolation-filters:linearRGB;solid-color:#000000;solid-opacity:1;fill:#000000;fill-opacity:1;fill-rule:evenodd;stroke:none;stroke-width:1.99999976;stroke-linecap:round;stroke-linejoin:round;stroke-miterlimit:4;stroke-dasharray:none;stroke-dashoffset:0;stroke-opacity:1;color-rendering:auto;image-rendering:auto;shape-rendering:auto;text-rendering:auto;enable-background:accumulate" d="m 1.0157974,1029.3618 a 1.0000559,1.0000739 0 1 0 0,1.9999 l 4.9724374,0 a 1.0000559,1.0000739 0 1 0 0,-1.9999 l -4.9724374,0 z"/></g></svg>