<svg width='200' height='200' fill="#000000" xmlns:dc="http://purl.org/dc/elements/1.1/" xmlns:cc="http://creativecommons.org/ns#" xmlns:rdf="http://www.w3.org/1999/02/22-rdf-syntax-ns#" xmlns:svg="http://www.w3.org/2000/svg" xmlns="http://www.w3.org/2000/svg" xmlns:sodipodi="http://sodipodi.sourceforge.net/DTD/sodipodi-0.dtd" xmlns:inkscape="http://www.inkscape.org/namespaces/inkscape" viewBox="0 0 48 48.000001" version="1.1" x="0px" y="0px"><g transform="translate(0,-1004.3622)"><path style="color:#000000;font-style:normal;font-variant:normal;font-weight:normal;font-stretch:normal;font-size:medium;line-height:normal;font-family:sans-serif;text-indent:0;text-align:start;text-decoration:none;text-decoration-line:none;text-decoration-style:solid;text-decoration-color:#000000;letter-spacing:normal;word-spacing:normal;text-transform:none;direction:ltr;block-progression:tb;writing-mode:lr-tb;baseline-shift:baseline;text-anchor:start;white-space:normal;clip-rule:nonzero;display:inline;overflow:visible;visibility:visible;opacity:1;isolation:auto;mix-blend-mode:normal;color-interpolation:sRGB;color-interpolation-filters:linearRGB;solid-color:#000000;solid-opacity:1;fill:#000000;fill-opacity:1;fill-rule:nonzero;stroke:none;stroke-width:1.99999988;stroke-linecap:round;stroke-linejoin:round;stroke-miterlimit:4;stroke-dasharray:none;stroke-dashoffset:0;stroke-opacity:1;color-rendering:auto;image-rendering:auto;shape-rendering:auto;text-rendering:auto;enable-background:accumulate" d="m 23.709092,1005.3622 c -0.01243,5e-4 -0.02468,0.01 -0.03711,0.01 -0.07569,0.01 -0.150383,0.022 -0.222649,0.045 -1.007785,0.063 -2.021891,0.2316 -3.011623,0.5997 -3.797053,1.4116 -6.543443,4.6085 -7.677488,8.4132 -0.405613,0 -0.809916,-0.07 -1.162073,-0.066 -1.094745,0.01 -2.1950434,0.2397 -3.2713794,0.6212 -5.67113,2.0105 -9.11057909,7.8198 -8.17356621,13.789 0.46876403,5.2881 5.41730111,10.647 11.94492961,10.5874 4.901987,-0.045 9.590133,0 14.378446,0 3.964826,-0.1975 7.451499,-2.6674 8.868857,-6.3114 0.214804,-0.5522 0.368129,-1.1176 0.476547,-1.6857 l 2.644447,0 c 0.01757,5e-4 0.03516,5e-4 0.05273,0 3.966,-0.2072 7.433319,-2.7999 8.833702,-6.5752 1.400468,-3.7755 0.486062,-8.0386 -2.337816,-10.8745 -2.684062,-2.6953 -6.572275,-3.0346 -10.009446,-1.8753 -2.399017,-3.9965 -6.552338,-6.6595 -10.970351,-6.6298 -0.105488,-0.033 -0.215702,-0.048 -0.326162,-0.045 z m 0.05469,2.0042 0.01953,0 c 3.847235,-0.1446 7.764309,2.3347 9.825857,6.1278 0.04953,0.091 0.112775,0.1729 0.187494,0.2442 l 0.158198,0.1504 c 0.285326,0.2732 0.704698,0.3527 1.070279,0.2031 3.023769,-1.2384 6.354242,-0.9962 8.57199,1.2307 2.267968,2.2776 3.011453,5.7206 1.8808,8.7688 -1.129518,3.0451 -3.896194,5.1012 -7.05251,5.2702 l -2.433515,0 c -0.03516,-1.6326 -0.483728,-3.2387 -1.314412,-4.6647 -0.419626,-0.7765 -0.951823,-1.5008 -1.619088,-2.1428 -1.697649,-1.6337 -3.863664,-2.3605 -6.091602,-2.3969 -1.311593,-0.033 -2.644535,0.1755 -3.921749,0.5782 -1.519384,-2.4148 -3.734639,-4.2655 -6.26933,-5.3191 -0.114053,-0.05 -0.230351,-0.093 -0.345692,-0.1386 -0.146252,-0.056 -0.28931,-0.1195 -0.437486,-0.1701 -0.388403,-0.1386 -0.785463,-0.2526 -1.185509,-0.3515 1.011907,-3.1219 3.241949,-5.7197 6.325968,-6.8662 0.866476,-0.3221 1.749761,-0.4885 2.630778,-0.5235 z m -11.936122,8.9875 c 4.643628,0.1088 7.871385,2.9832 9.733066,5.8817 0.409411,0.663 0.875273,0.7314 1.390581,0.5685 3.119929,-0.9863 6.431416,-0.9465 8.654019,1.1818 2.273924,2.1777 3.002996,5.4323 1.876893,8.3273 -1.124941,2.8922 -3.903174,4.8749 -7.095475,5.0378 -4.747702,-0.011 -9.511622,0.02 -14.251497,-0.01 -5.0218176,-0.1629 -9.2190995,-3.8803 -10.0055405,-8.8899 -0.7902597,-5.0343 2.0956049,-9.9006 6.8650144,-11.5914 0.8748255,-0.3101 1.9423681,-0.5268 2.8329391,-0.506 z"/><path style="color:#000000;font-style:normal;font-variant:normal;font-weight:normal;font-stretch:normal;font-size:medium;line-height:normal;font-family:sans-serif;text-indent:0;text-align:start;text-decoration:none;text-decoration-line:none;text-decoration-style:solid;text-decoration-color:#000000;letter-spacing:normal;word-spacing:normal;text-transform:none;direction:ltr;block-progression:tb;writing-mode:lr-tb;baseline-shift:baseline;text-anchor:start;white-space:normal;clip-rule:nonzero;display:inline;overflow:visible;visibility:visible;opacity:1;isolation:auto;mix-blend-mode:normal;color-interpolation:sRGB;color-interpolation-filters:linearRGB;solid-color:#000000;solid-opacity:1;fill:#000000;fill-opacity:1;fill-rule:evenodd;stroke:none;stroke-width:2;stroke-linecap:round;stroke-linejoin:round;stroke-miterlimit:4;stroke-dasharray:none;stroke-dashoffset:0;stroke-opacity:1;color-rendering:auto;image-rendering:auto;shape-rendering:auto;text-rendering:auto;enable-background:accumulate" d="m 11.01416,1010.3621 a 1.0000185,1.0001 0 1 0 0,2 l 11.971681,0 a 1.0000185,1.0001 0 1 0 0,-2 l -11.971681,0 z"/><path style="color:#000000;font-style:normal;font-variant:normal;font-weight:normal;font-stretch:normal;font-size:medium;line-height:normal;font-family:sans-serif;text-indent:0;text-align:start;text-decoration:none;text-decoration-line:none;text-decoration-style:solid;text-decoration-color:#000000;letter-spacing:normal;word-spacing:normal;text-transform:none;direction:ltr;block-progression:tb;writing-mode:lr-tb;baseline-shift:baseline;text-anchor:start;white-space:normal;clip-rule:nonzero;display:inline;overflow:visible;visibility:visible;opacity:1;isolation:auto;mix-blend-mode:normal;color-interpolation:sRGB;color-interpolation-filters:linearRGB;solid-color:#000000;solid-opacity:1;fill:#000000;fill-opacity:1;fill-rule:evenodd;stroke:none;stroke-width:2;stroke-linecap:round;stroke-linejoin:round;stroke-miterlimit:4;stroke-dasharray:none;stroke-dashoffset:0;stroke-opacity:1;color-rendering:auto;image-rendering:auto;shape-rendering:auto;text-rendering:auto;enable-background:accumulate" d="m 26.01416,1033.3621 a 1.0000185,1.0001 0 1 0 0,2 l 11.971681,0 a 1.0000185,1.0001 0 1 0 0,-2 l -11.971681,0 z"/><path style="color:#000000;font-style:normal;font-variant:normal;font-weight:normal;font-stretch:normal;font-size:medium;line-height:normal;font-family:sans-serif;text-indent:0;text-align:start;text-decoration:none;text-decoration-line:none;text-decoration-style:solid;text-decoration-color:#000000;letter-spacing:normal;word-spacing:normal;text-transform:none;direction:ltr;block-progression:tb;writing-mode:lr-tb;baseline-shift:baseline;text-anchor:start;white-space:normal;clip-rule:nonzero;display:inline;overflow:visible;visibility:visible;opacity:1;isolation:auto;mix-blend-mode:normal;color-interpolation:sRGB;color-interpolation-filters:linearRGB;solid-color:#000000;solid-opacity:1;fill:#000000;fill-opacity:1;fill-rule:evenodd;stroke:none;stroke-width:2;stroke-linecap:round;stroke-linejoin:round;stroke-miterlimit:4;stroke-dasharray:none;stroke-dashoffset:0;stroke-opacity:1;color-rendering:auto;image-rendering:auto;shape-rendering:auto;text-rendering:auto;enable-background:accumulate" d="m 3.0141782,1049.3621 a 1.0000366,1.0001 0 1 0 0,2 l 15.9716438,0 a 1.0000366,1.0001 0 1 0 0,-2 l -15.9716438,0 z"/><path style="color:#000000;font-style:normal;font-variant:normal;font-weight:normal;font-stretch:normal;font-size:medium;line-height:normal;font-family:sans-serif;text-indent:0;text-align:start;text-decoration:none;text-decoration-line:none;text-decoration-style:solid;text-decoration-color:#000000;letter-spacing:normal;word-spacing:normal;text-transform:none;direction:ltr;block-progression:tb;writing-mode:lr-tb;baseline-shift:baseline;text-anchor:start;white-space:normal;clip-rule:nonzero;display:inline;overflow:visible;visibility:visible;opacity:1;isolation:auto;mix-blend-mode:normal;color-interpolation:sRGB;color-interpolation-filters:linearRGB;solid-color:#000000;solid-opacity:1;fill:#000000;fill-opacity:1;fill-rule:evenodd;stroke:none;stroke-width:2;stroke-linecap:round;stroke-linejoin:round;stroke-miterlimit:4;stroke-dasharray:none;stroke-dashoffset:0;stroke-opacity:1;color-rendering:auto;image-rendering:auto;shape-rendering:auto;text-rendering:auto;enable-background:accumulate" d="m 5.0142136,1045.3621 a 1.0000715,1.0001 0 1 0 0,2 l 37.9715734,0 a 1.0000715,1.0001 0 1 0 0,-2 l -37.9715734,0 z"/><path style="color:#000000;font-style:normal;font-variant:normal;font-weight:normal;font-stretch:normal;font-size:medium;line-height:normal;font-family:sans-serif;text-indent:0;text-align:start;text-decoration:none;text-decoration-line:none;text-decoration-style:solid;text-decoration-color:#000000;letter-spacing:normal;word-spacing:normal;text-transform:none;direction:ltr;block-progression:tb;writing-mode:lr-tb;baseline-shift:baseline;text-anchor:start;white-space:normal;clip-rule:nonzero;display:inline;overflow:visible;visibility:visible;opacity:1;isolation:auto;mix-blend-mode:normal;color-interpolation:sRGB;color-interpolation-filters:linearRGB;solid-color:#000000;solid-opacity:1;fill:#000000;fill-opacity:1;fill-rule:evenodd;stroke:none;stroke-width:2;stroke-linecap:round;stroke-linejoin:round;stroke-miterlimit:4;stroke-dasharray:none;stroke-dashoffset:0;stroke-opacity:1;color-rendering:auto;image-rendering:auto;shape-rendering:auto;text-rendering:auto;enable-background:accumulate" d="m 26.014187,1041.3621 a 1.0000457,1.0001 0 1 0 0,2 l 18.971625,0 a 1.0000457,1.0001 0 1 0 0,-2 l -18.971625,0 z"/></g></svg>