<svg width='200' height='200' fill="#000000" xmlns:dc="http://purl.org/dc/elements/1.1/" xmlns:cc="http://creativecommons.org/ns#" xmlns:rdf="http://www.w3.org/1999/02/22-rdf-syntax-ns#" xmlns:svg="http://www.w3.org/2000/svg" xmlns="http://www.w3.org/2000/svg" xmlns:sodipodi="http://sodipodi.sourceforge.net/DTD/sodipodi-0.dtd" xmlns:inkscape="http://www.inkscape.org/namespaces/inkscape" viewBox="0 0 48 48.000001" version="1.1" x="0px" y="0px"><g transform="translate(0,-1004.3622)"><path style="color:#000000;font-style:normal;font-variant:normal;font-weight:normal;font-stretch:normal;font-size:medium;line-height:normal;font-family:sans-serif;text-indent:0;text-align:start;text-decoration:none;text-decoration-line:none;text-decoration-style:solid;text-decoration-color:#000000;letter-spacing:normal;word-spacing:normal;text-transform:none;direction:ltr;block-progression:tb;writing-mode:lr-tb;baseline-shift:baseline;text-anchor:start;white-space:normal;clip-rule:nonzero;display:inline;overflow:visible;visibility:visible;opacity:1;isolation:auto;mix-blend-mode:normal;color-interpolation:sRGB;color-interpolation-filters:linearRGB;solid-color:#000000;solid-opacity:1;fill:#000000;fill-opacity:1;fill-rule:evenodd;stroke:none;stroke-width:2;stroke-linecap:round;stroke-linejoin:round;stroke-miterlimit:4;stroke-dasharray:none;stroke-dashoffset:0;stroke-opacity:1;color-rendering:auto;image-rendering:auto;shape-rendering:auto;text-rendering:auto;enable-background:accumulate" d="m 17.181881,1004.3619 a 1.0001261,1.0000875 0 0 0 -0.957057,0.711 l -8.1818541,27.0602 a 1.0001261,1.0000875 0 0 0 0.9570562,1.289 l 12.1155509,0 -7.578323,17.5447 a 1.0001261,1.0000875 0 0 0 1.658246,1.0684 l 24.545563,-27.0603 a 1.0001261,1.0000875 0 0 0 -0.740253,-1.6718 l -13.269878,0 10.045184,-17.4412 a 1.0001261,1.0000875 0 0 0 -0.865257,-1.5 l -17.728978,0 z m 0.742206,2 15.256259,0 -10.047139,17.4432 a 1.0001261,1.0000875 0 0 0 0.867211,1.4979 l 12.744474,0 -18.980965,20.9237 5.791167,-13.4081 a 1.0001261,1.0000875 0 0 0 -0.917993,-1.3964 l -12.289384,0 7.57637,-25.0603 z"/></g></svg>