<svg width='200' height='200' fill="#000000" xmlns:dc="http://purl.org/dc/elements/1.1/" xmlns:cc="http://creativecommons.org/ns#" xmlns:rdf="http://www.w3.org/1999/02/22-rdf-syntax-ns#" xmlns:svg="http://www.w3.org/2000/svg" xmlns="http://www.w3.org/2000/svg" xmlns:sodipodi="http://sodipodi.sourceforge.net/DTD/sodipodi-0.dtd" xmlns:inkscape="http://www.inkscape.org/namespaces/inkscape" viewBox="0 0 48 48.000001" version="1.1" x="0px" y="0px"><g transform="translate(0,-1004.3622)"><path style="color:#000000;font-style:normal;font-variant:normal;font-weight:normal;font-stretch:normal;font-size:medium;line-height:normal;font-family:sans-serif;text-indent:0;text-align:start;text-decoration:none;text-decoration-line:none;text-decoration-style:solid;text-decoration-color:#000000;letter-spacing:normal;word-spacing:normal;text-transform:none;direction:ltr;block-progression:tb;writing-mode:lr-tb;baseline-shift:baseline;text-anchor:start;white-space:normal;clip-rule:nonzero;display:inline;overflow:visible;visibility:visible;opacity:1;isolation:auto;mix-blend-mode:normal;color-interpolation:sRGB;color-interpolation-filters:linearRGB;solid-color:#000000;solid-opacity:1;fill:#000000;fill-opacity:1;fill-rule:evenodd;stroke:none;stroke-width:2;stroke-linecap:round;stroke-linejoin:round;stroke-miterlimit:4;stroke-dasharray:none;stroke-dashoffset:0;stroke-opacity:1;color-rendering:auto;image-rendering:auto;shape-rendering:auto;text-rendering:auto;enable-background:accumulate" d="m 40.984375,1033.3641 a 1.0001,1.0001 0 0 0 -0.691406,0.291 l -2,2 a 1.0001,1.0001 0 1 0 1.414062,1.4141 L 41,1035.7762 l 1.583984,1.584 -1.998046,1.9961 -27.585938,0 a 1.0001,1.0001 0 0 0 -0.707031,0.2929 l -3.0000002,3.0039 a 1.0001,1.0001 0 0 0 0,1.4141 l 3.0000002,2.9981 A 1.0001,1.0001 0 0 0 13,1047.3582 l 23.585938,0 0.998046,0.9981 -1.291015,1.289 a 1.0005783,1.0005783 0 0 0 1.414062,1.416 l 2,-1.998 a 1.0001,1.0001 0 0 0 0,-1.416 l -2,-1.9961 A 1.0001,1.0001 0 0 0 37,1045.3582 l -23.585938,0 -2,-2 2,-2.0019 27.585938,0 a 1.0001,1.0001 0 0 0 0.707031,-0.291 l 3,-2.9961 a 1.0001,1.0001 0 0 0 0,-1.4141 l -3,-3 a 1.0001,1.0001 0 0 0 -0.722656,-0.291 z"/><path style="color:#000000;font-style:normal;font-variant:normal;font-weight:normal;font-stretch:normal;font-size:medium;line-height:normal;font-family:sans-serif;text-indent:0;text-align:start;text-decoration:none;text-decoration-line:none;text-decoration-style:solid;text-decoration-color:#000000;letter-spacing:normal;word-spacing:normal;text-transform:none;direction:ltr;block-progression:tb;writing-mode:lr-tb;baseline-shift:baseline;text-anchor:start;white-space:normal;clip-rule:nonzero;display:inline;overflow:visible;visibility:visible;opacity:1;isolation:auto;mix-blend-mode:normal;color-interpolation:sRGB;color-interpolation-filters:linearRGB;solid-color:#000000;solid-opacity:1;fill:#000000;fill-opacity:1;fill-rule:evenodd;stroke:none;stroke-width:2;stroke-linecap:round;stroke-linejoin:round;stroke-miterlimit:4;stroke-dasharray:none;stroke-dashoffset:0;stroke-opacity:1;color-rendering:auto;image-rendering:auto;shape-rendering:auto;text-rendering:auto;enable-background:accumulate" d="m 45,1040.3621 a 1.0001,1.0001 0 0 0 -0.697266,1.7188 l 1.283204,1.2812 -1.283204,1.2832 a 1.0001,1.0001 0 1 0 1.414063,1.4141 l 1.990234,-1.9902 a 1.0001,1.0001 0 0 0 0,-1.4141 l -1.990234,-1.9883 A 1.0001,1.0001 0 0 0 45,1040.3621 Z"/><path style="color:#000000;font-style:normal;font-variant:normal;font-weight:normal;font-stretch:normal;font-size:medium;line-height:normal;font-family:sans-serif;text-indent:0;text-align:start;text-decoration:none;text-decoration-line:none;text-decoration-style:solid;text-decoration-color:#000000;letter-spacing:normal;word-spacing:normal;text-transform:none;direction:ltr;block-progression:tb;writing-mode:lr-tb;baseline-shift:baseline;text-anchor:start;white-space:normal;clip-rule:nonzero;display:inline;overflow:visible;visibility:visible;opacity:1;isolation:auto;mix-blend-mode:normal;color-interpolation:sRGB;color-interpolation-filters:linearRGB;solid-color:#000000;solid-opacity:1;fill:#000000;fill-opacity:1;fill-rule:evenodd;stroke:none;stroke-width:2;stroke-linecap:round;stroke-linejoin:round;stroke-miterlimit:4;stroke-dasharray:none;stroke-dashoffset:0;stroke-opacity:1;color-rendering:auto;image-rendering:auto;shape-rendering:auto;text-rendering:auto;enable-background:accumulate" d="m 3.984375,1044.3621 a 1.0001,1.0001 0 0 0 -0.6914062,0.293 l -3.00000005,3 a 1.0001,1.0001 0 0 0 0,1.4141 l 2.99804685,3 a 1.0001,1.0001 0 0 0 0.7070313,0.2929 l 9.9882811,0 a 1.0001,1.0001 0 1 0 0,-2 l -9.5742186,0 -1.9980469,-1.998 L 4,1046.7762 l 1.2929688,1.293 a 1.0001,1.0001 0 1 0 1.4140624,-1.4141 l -2,-2 a 1.0001,1.0001 0 0 0 -0.7226562,-0.293 z"/><path style="color:#000000;font-style:normal;font-variant:normal;font-weight:normal;font-stretch:normal;font-size:medium;line-height:normal;font-family:sans-serif;text-indent:0;text-align:start;text-decoration:none;text-decoration-line:none;text-decoration-style:solid;text-decoration-color:#000000;letter-spacing:normal;word-spacing:normal;text-transform:none;direction:ltr;block-progression:tb;writing-mode:lr-tb;baseline-shift:baseline;text-anchor:start;white-space:normal;clip-rule:nonzero;display:inline;overflow:visible;visibility:visible;opacity:1;isolation:auto;mix-blend-mode:normal;color-interpolation:sRGB;color-interpolation-filters:linearRGB;solid-color:#000000;solid-opacity:1;fill:#000000;fill-opacity:1;fill-rule:nonzero;stroke:none;stroke-width:2;stroke-linecap:round;stroke-linejoin:round;stroke-miterlimit:4;stroke-dasharray:none;stroke-dashoffset:0;stroke-opacity:1;color-rendering:auto;image-rendering:auto;shape-rendering:auto;text-rendering:auto;enable-background:accumulate" d="m 35.861328,1004.365 a 1.0001,1.0001 0 0 0 -0.128906,0.012 c -0.0025,-10e-5 -0.005,0 -0.0078,0 a 1.0001,1.0001 0 0 0 -0.316406,0.1074 c -3.802028,0.7002 -6.717361,3.7211 -7.296875,7.4746 -1.215466,-0.4154 -2.271058,-0.586 -3.388672,-0.5898 -4.173217,-0.014 -8.10819,2.4456 -10.394531,6.1113 -3.254637,-1.0578 -6.9263065,-0.7489 -9.4804688,1.7363 -2.6902875,2.6181 -3.5693146,6.5786 -2.2304687,10.0762 1.3388277,3.4976 4.6399277,5.8799 8.4003905,6.0703 l 13.53711,0 c 6.782507,0 10.418761,-5.2963 11.300781,-10.168 0.15134,-0.9796 0.17423,-1.9528 0.09375,-2.9062 0.354157,0.043 0.709025,0.074 1.066406,0.074 a 1.0001,1.0001 0 0 0 0.002,0 c 3.258937,0 6.264291,-1.7736 7.855469,-4.625 a 1.0001,1.0001 0 0 0 -1.025391,-1.4766 c -0.32423,0.05 -0.650559,0.076 -0.978515,0.08 l -0.002,0 c -3.883164,-6e-4 -7.013516,-3.1404 -7.013672,-7.0449 0.0014,-1.2067 0.311792,-2.3937 0.90039,-3.4453 a 1.0001,1.0001 0 0 0 -0.892578,-1.4863 z m -1.699219,2.6113 c -0.200347,0.7543 -0.307896,1.5334 -0.308593,2.3203 1.83e-4,4.6016 3.502588,8.2724 7.945312,8.8281 -1.294868,1.2972 -2.901048,2.2359 -4.78125,2.2383 -0.477219,-4e-4 -0.945676,-0.1001 -1.412109,-0.1973 -0.678104,-2.7763 -2.351199,-5.1611 -4.689453,-6.748 -0.0015,-10e-4 -0.0024,-0 -0.0039,-0 -0.268218,-0.1893 -0.546465,-0.3659 -0.832031,-0.5332 0.171734,-2.6372 1.758752,-4.8533 4.082031,-5.9043 z m -9.207031,6.3906 0,0 0.0098,0 c 0.833354,0.031 1.666806,0.1853 2.486328,0.4804 4.457526,1.6057 7.169461,6.2416 6.427734,11.043 -0.738129,4.7779 -4.668678,8.3083 -9.359375,8.4629 -4.459026,0.021 -8.942624,0.01 -13.410156,0.01 -2.9754932,-0.1547 -5.5691563,-2.032 -6.6230469,-4.7852 -1.0550541,-2.7562 -0.3696731,-5.8592 1.7558594,-7.9277 2.071719,-2.0158 5.1625665,-2.1061 8.0605465,-1.1211 0.679713,0.231 1.131088,-0.1465 1.400391,-0.5782 2.092615,-3.3542 5.623921,-5.7182 9.251953,-5.5859 z"/><path style="color:#000000;font-style:normal;font-variant:normal;font-weight:normal;font-stretch:normal;font-size:medium;line-height:normal;font-family:sans-serif;text-indent:0;text-align:start;text-decoration:none;text-decoration-line:none;text-decoration-style:solid;text-decoration-color:#000000;letter-spacing:normal;word-spacing:normal;text-transform:none;direction:ltr;block-progression:tb;writing-mode:lr-tb;baseline-shift:baseline;text-anchor:start;white-space:normal;clip-rule:nonzero;display:inline;overflow:visible;visibility:visible;opacity:1;isolation:auto;mix-blend-mode:normal;color-interpolation:sRGB;color-interpolation-filters:linearRGB;solid-color:#000000;solid-opacity:1;fill:#000000;fill-opacity:1;fill-rule:evenodd;stroke:none;stroke-width:2;stroke-linecap:round;stroke-linejoin:round;stroke-miterlimit:4;stroke-dasharray:none;stroke-dashoffset:0;stroke-opacity:1;color-rendering:auto;image-rendering:auto;shape-rendering:auto;text-rendering:auto;enable-background:accumulate" d="m 13,1004.3621 a 1.0001,1.0001 0 0 0 -0.697266,1.7188 l 3.980469,3.9785 a 1.0001,1.0001 0 1 0 1.414063,-1.4141 l -3.980469,-3.9785 A 1.0001,1.0001 0 0 0 13,1004.3621 Z"/><path style="color:#000000;font-style:normal;font-variant:normal;font-weight:normal;font-stretch:normal;font-size:medium;line-height:normal;font-family:sans-serif;text-indent:0;text-align:start;text-decoration:none;text-decoration-line:none;text-decoration-style:solid;text-decoration-color:#000000;letter-spacing:normal;word-spacing:normal;text-transform:none;direction:ltr;block-progression:tb;writing-mode:lr-tb;baseline-shift:baseline;text-anchor:start;white-space:normal;clip-rule:nonzero;display:inline;overflow:visible;visibility:visible;opacity:1;isolation:auto;mix-blend-mode:normal;color-interpolation:sRGB;color-interpolation-filters:linearRGB;solid-color:#000000;solid-opacity:1;fill:#000000;fill-opacity:1;fill-rule:evenodd;stroke:none;stroke-width:2;stroke-linecap:round;stroke-linejoin:round;stroke-miterlimit:4;stroke-dasharray:none;stroke-dashoffset:0;stroke-opacity:1;color-rendering:auto;image-rendering:auto;shape-rendering:auto;text-rendering:auto;enable-background:accumulate" d="m 16.970703,1004.3641 a 1.0001,1.0001 0 0 0 -0.6875,0.3027 l -3.980469,3.9785 a 1.0001,1.0001 0 1 0 1.414063,1.4141 l 3.980469,-3.9785 a 1.0001,1.0001 0 0 0 -0.726563,-1.7168 z"/><path style="color:#000000;font-style:normal;font-variant:normal;font-weight:normal;font-stretch:normal;font-size:medium;line-height:normal;font-family:sans-serif;text-indent:0;text-align:start;text-decoration:none;text-decoration-line:none;text-decoration-style:solid;text-decoration-color:#000000;letter-spacing:normal;word-spacing:normal;text-transform:none;direction:ltr;block-progression:tb;writing-mode:lr-tb;baseline-shift:baseline;text-anchor:start;white-space:normal;clip-rule:nonzero;display:inline;overflow:visible;visibility:visible;opacity:1;isolation:auto;mix-blend-mode:normal;color-interpolation:sRGB;color-interpolation-filters:linearRGB;solid-color:#000000;solid-opacity:1;fill:#000000;fill-opacity:1;fill-rule:evenodd;stroke:none;stroke-width:2;stroke-linecap:round;stroke-linejoin:round;stroke-miterlimit:4;stroke-dasharray:none;stroke-dashoffset:0;stroke-opacity:1;color-rendering:auto;image-rendering:auto;shape-rendering:auto;text-rendering:auto;enable-background:accumulate" d="m 4,1009.3621 a 1.0001,1.0001 0 0 0 -0.6972656,1.7188 l 3.9804687,3.9785 a 1.0001,1.0001 0 1 0 1.4140625,-1.4141 l -3.9804687,-3.9785 A 1.0001,1.0001 0 0 0 4,1009.3621 Z"/><path style="color:#000000;font-style:normal;font-variant:normal;font-weight:normal;font-stretch:normal;font-size:medium;line-height:normal;font-family:sans-serif;text-indent:0;text-align:start;text-decoration:none;text-decoration-line:none;text-decoration-style:solid;text-decoration-color:#000000;letter-spacing:normal;word-spacing:normal;text-transform:none;direction:ltr;block-progression:tb;writing-mode:lr-tb;baseline-shift:baseline;text-anchor:start;white-space:normal;clip-rule:nonzero;display:inline;overflow:visible;visibility:visible;opacity:1;isolation:auto;mix-blend-mode:normal;color-interpolation:sRGB;color-interpolation-filters:linearRGB;solid-color:#000000;solid-opacity:1;fill:#000000;fill-opacity:1;fill-rule:evenodd;stroke:none;stroke-width:2;stroke-linecap:round;stroke-linejoin:round;stroke-miterlimit:4;stroke-dasharray:none;stroke-dashoffset:0;stroke-opacity:1;color-rendering:auto;image-rendering:auto;shape-rendering:auto;text-rendering:auto;enable-background:accumulate" d="m 7.9707031,1009.3641 a 1.0001,1.0001 0 0 0 -0.6875,0.3027 l -3.9804687,3.9785 a 1.0001,1.0001 0 1 0 1.4140625,1.4141 l 3.9804687,-3.9785 a 1.0001,1.0001 0 0 0 -0.7265625,-1.7168 z"/><path style="color:#000000;font-style:normal;font-variant:normal;font-weight:normal;font-stretch:normal;font-size:medium;line-height:normal;font-family:sans-serif;text-indent:0;text-align:start;text-decoration:none;text-decoration-line:none;text-decoration-style:solid;text-decoration-color:#000000;letter-spacing:normal;word-spacing:normal;text-transform:none;direction:ltr;block-progression:tb;writing-mode:lr-tb;baseline-shift:baseline;text-anchor:start;white-space:normal;clip-rule:nonzero;display:inline;overflow:visible;visibility:visible;opacity:1;isolation:auto;mix-blend-mode:normal;color-interpolation:sRGB;color-interpolation-filters:linearRGB;solid-color:#000000;solid-opacity:1;fill:#000000;fill-opacity:1;fill-rule:evenodd;stroke:none;stroke-width:2;stroke-linecap:round;stroke-linejoin:round;stroke-miterlimit:4;stroke-dasharray:none;stroke-dashoffset:0;stroke-opacity:1;color-rendering:auto;image-rendering:auto;shape-rendering:auto;text-rendering:auto;enable-background:accumulate" d="m 41,1006.3621 a 1.0001,1.0001 0 0 0 -0.697266,1.7188 l 3.980469,3.9785 a 1.0001,1.0001 0 1 0 1.414063,-1.4141 l -3.980469,-3.9785 A 1.0001,1.0001 0 0 0 41,1006.3621 Z"/><path style="color:#000000;font-style:normal;font-variant:normal;font-weight:normal;font-stretch:normal;font-size:medium;line-height:normal;font-family:sans-serif;text-indent:0;text-align:start;text-decoration:none;text-decoration-line:none;text-decoration-style:solid;text-decoration-color:#000000;letter-spacing:normal;word-spacing:normal;text-transform:none;direction:ltr;block-progression:tb;writing-mode:lr-tb;baseline-shift:baseline;text-anchor:start;white-space:normal;clip-rule:nonzero;display:inline;overflow:visible;visibility:visible;opacity:1;isolation:auto;mix-blend-mode:normal;color-interpolation:sRGB;color-interpolation-filters:linearRGB;solid-color:#000000;solid-opacity:1;fill:#000000;fill-opacity:1;fill-rule:evenodd;stroke:none;stroke-width:2;stroke-linecap:round;stroke-linejoin:round;stroke-miterlimit:4;stroke-dasharray:none;stroke-dashoffset:0;stroke-opacity:1;color-rendering:auto;image-rendering:auto;shape-rendering:auto;text-rendering:auto;enable-background:accumulate" d="m 44.970703,1006.3641 a 1.0001,1.0001 0 0 0 -0.6875,0.3027 l -3.980469,3.9785 a 1.0001,1.0001 0 1 0 1.414063,1.4141 l 3.980469,-3.9785 a 1.0001,1.0001 0 0 0 -0.726563,-1.7168 z"/><path style="color:#000000;font-style:normal;font-variant:normal;font-weight:normal;font-stretch:normal;font-size:medium;line-height:normal;font-family:sans-serif;text-indent:0;text-align:start;text-decoration:none;text-decoration-line:none;text-decoration-style:solid;text-decoration-color:#000000;letter-spacing:normal;word-spacing:normal;text-transform:none;direction:ltr;block-progression:tb;writing-mode:lr-tb;baseline-shift:baseline;text-anchor:start;white-space:normal;clip-rule:nonzero;display:inline;overflow:visible;visibility:visible;opacity:1;isolation:auto;mix-blend-mode:normal;color-interpolation:sRGB;color-interpolation-filters:linearRGB;solid-color:#000000;solid-opacity:1;fill:#000000;fill-opacity:1;fill-rule:evenodd;stroke:none;stroke-width:2;stroke-linecap:round;stroke-linejoin:round;stroke-miterlimit:4;stroke-dasharray:none;stroke-dashoffset:0;stroke-opacity:1;color-rendering:auto;image-rendering:auto;shape-rendering:auto;text-rendering:auto;enable-background:accumulate" d="m 41,1024.3621 a 1.0001,1.0001 0 0 0 -0.697266,1.7188 l 3.980469,3.9785 a 1.0001,1.0001 0 1 0 1.414063,-1.4141 l -3.980469,-3.9785 A 1.0001,1.0001 0 0 0 41,1024.3621 Z"/><path style="color:#000000;font-style:normal;font-variant:normal;font-weight:normal;font-stretch:normal;font-size:medium;line-height:normal;font-family:sans-serif;text-indent:0;text-align:start;text-decoration:none;text-decoration-line:none;text-decoration-style:solid;text-decoration-color:#000000;letter-spacing:normal;word-spacing:normal;text-transform:none;direction:ltr;block-progression:tb;writing-mode:lr-tb;baseline-shift:baseline;text-anchor:start;white-space:normal;clip-rule:nonzero;display:inline;overflow:visible;visibility:visible;opacity:1;isolation:auto;mix-blend-mode:normal;color-interpolation:sRGB;color-interpolation-filters:linearRGB;solid-color:#000000;solid-opacity:1;fill:#000000;fill-opacity:1;fill-rule:evenodd;stroke:none;stroke-width:2;stroke-linecap:round;stroke-linejoin:round;stroke-miterlimit:4;stroke-dasharray:none;stroke-dashoffset:0;stroke-opacity:1;color-rendering:auto;image-rendering:auto;shape-rendering:auto;text-rendering:auto;enable-background:accumulate" d="m 44.970703,1024.3641 a 1.0001,1.0001 0 0 0 -0.6875,0.3027 l -3.980469,3.9785 a 1.0001,1.0001 0 1 0 1.414063,1.4141 l 3.980469,-3.9785 a 1.0001,1.0001 0 0 0 -0.726563,-1.7168 z"/></g></svg>