<svg width='200' height='200' fill="#000000" xmlns="http://www.w3.org/2000/svg" xmlns:xlink="http://www.w3.org/1999/xlink" version="1.1" x="0px" y="0px" viewBox="0 0 90 90" enable-background="new 0 0 90 90" xml:space="preserve"><g><path fill="#000000" d="M32.3,39.9c0.2,0.2,0.4,0.3,0.7,0.3c0.2,0,0.5-0.1,0.7-0.3l1.3-1.3l1.3,1.3c0.2,0.2,0.4,0.3,0.7,0.3   c0.2,0,0.5-0.1,0.7-0.3c0.4-0.4,0.4-0.9,0-1.3l-1.3-1.3l1.3-1.3c0.4-0.4,0.4-0.9,0-1.3c-0.4-0.4-0.9-0.4-1.3,0l-1.3,1.3l-1.3-1.3   c-0.4-0.4-0.9-0.4-1.3,0c-0.4,0.4-0.4,0.9,0,1.3l1.3,1.3l-1.3,1.3C32,39,32,39.6,32.3,39.9z"/><path fill="#000000" d="M62.1,41.4c-1.3-6.9-5.9-12.6-12.5-15.2c-1.3-0.5-2.8,0-3.5,1.1C45.5,28,45.3,29,45.6,30   c0.1,0.3,0.2,0.7,0.3,1c3,10.7-3.2,21.8-13.8,24.8c-0.3,0.1-0.5,0.1-0.8,0.2c-1.1,0.3-2,1.2-2.2,2.3c-0.2,1.2,0.2,2.3,1.2,3   c3.5,2.5,7.6,3.8,11.8,3.8h0c2.5,0,4.9-0.5,7.2-1.3C58.4,60.5,63.8,50.8,62.1,41.4z M48.3,61.1c-5.5,2.1-11.6,1.3-16.3-2.2   c0.3-0.1,0.6-0.2,0.9-0.2c12.2-3.5,19.3-16.2,15.9-28.5c-0.1-0.4-0.2-0.8-0.3-1.3c5.6,2.2,9.6,7.1,10.7,13   C60.7,50,56,58.2,48.3,61.1z"/></g></svg>