<svg width='200' height='200' fill="#000000" xmlns="http://www.w3.org/2000/svg" xmlns:xlink="http://www.w3.org/1999/xlink" version="1.1" x="0px" y="0px" viewBox="0 0 90 90" enable-background="new 0 0 90 90" xml:space="preserve"><g><path fill="#000000" d="M45.3,36.1c-5.2,0-9.5,4.3-9.5,9.5s4.3,9.5,9.5,9.5s9.5-4.3,9.5-9.5S50.5,36.1,45.3,36.1z M45.3,52.2   c-3.6,0-6.6-2.9-6.6-6.6c0-3.6,2.9-6.6,6.6-6.6c3.6,0,6.6,2.9,6.6,6.6C51.9,49.2,48.9,52.2,45.3,52.2z"/><path fill="#000000" d="M45.4,31.2C45.4,31.2,45.4,31.2,45.4,31.2c0.8,0,1.5-0.7,1.5-1.5l0-4.8c0-0.8-0.7-1.5-1.5-1.5   c-0.8,0-1.5,0.6-1.5,1.5l0,4.8C43.9,30.5,44.6,31.2,45.4,31.2z"/><path fill="#000000" d="M45.5,60C45.5,60,45.5,60,45.5,60c-0.8,0-1.5,0.7-1.5,1.5l0,4.8c0,0.8,0.7,1.5,1.5,1.5c0,0,0,0,0,0   c0.8,0,1.5-0.7,1.5-1.5l0-4.8C46.9,60.7,46.3,60,45.5,60z"/><path fill="#000000" d="M56.7,35.8c0.4,0,0.7-0.1,1-0.4l3.4-3.4c0.6-0.6,0.6-1.5,0-2.1c-0.6-0.6-1.5-0.6-2.1,0l-3.4,3.4   c-0.6,0.6-0.6,1.5,0,2.1C55.9,35.7,56.3,35.8,56.7,35.8z"/><path fill="#000000" d="M33.2,55.8l-3.4,3.4c-0.6,0.6-0.6,1.5,0,2.1c0.3,0.3,0.7,0.4,1,0.4c0.4,0,0.7-0.1,1-0.4l3.4-3.4   c0.6-0.6,0.6-1.5,0-2.1C34.7,55.2,33.8,55.2,33.2,55.8z"/><path fill="#000000" d="M66.1,44.1l-4.8,0c0,0,0,0,0,0c-0.8,0-1.5,0.7-1.5,1.5c0,0.8,0.7,1.5,1.5,1.5l4.8,0c0,0,0,0,0,0   c0.8,0,1.5-0.7,1.5-1.5C67.6,44.8,66.9,44.1,66.1,44.1z"/><path fill="#000000" d="M29.6,47.1c0.8,0,1.5-0.7,1.5-1.5c0-0.8-0.7-1.5-1.5-1.5l-4.8,0c0,0,0,0,0,0c-0.8,0-1.5,0.7-1.5,1.5   c0,0.8,0.7,1.5,1.5,1.5L29.6,47.1C29.5,47.1,29.6,47.1,29.6,47.1z"/><path fill="#000000" d="M57.7,55.8c-0.6-0.6-1.5-0.6-2.1,0s-0.6,1.5,0,2.1l3.4,3.4c0.3,0.3,0.7,0.4,1,0.4c0.4,0,0.7-0.1,1-0.4   c0.6-0.6,0.6-1.5,0-2.1L57.7,55.8z"/><path fill="#000000" d="M33.1,35.4c0.3,0.3,0.7,0.4,1,0.4c0.4,0,0.7-0.1,1-0.4c0.6-0.6,0.6-1.5,0-2.1l-3.4-3.4   c-0.6-0.6-1.5-0.6-2.1,0c-0.6,0.6-0.6,1.5,0,2.1L33.1,35.4z"/></g></svg>