<svg width='200' height='200' fill="#000000" xmlns="http://www.w3.org/2000/svg" xmlns:xlink="http://www.w3.org/1999/xlink" version="1.1" x="0px" y="0px" viewBox="0 0 90 90" enable-background="new 0 0 90 90" xml:space="preserve"><g><path fill="#000000" d="M48.8,59.1c0.2,0,0.5-0.1,0.7-0.3c0.4-0.4,0.4-0.9,0-1.3l-1.3-1.3l1.3-1.3c0.4-0.4,0.4-0.9,0-1.3   c-0.4-0.4-0.9-0.4-1.3,0l-1.3,1.3l-1.3-1.3c-0.4-0.4-0.9-0.4-1.3,0c-0.4,0.4-0.4,0.9,0,1.3l1.3,1.3l-1.3,1.3   c-0.4,0.4-0.4,0.9,0,1.3c0.2,0.2,0.4,0.3,0.7,0.3c0.2,0,0.5-0.1,0.7-0.3l1.3-1.3l1.3,1.3C48.3,59,48.5,59.1,48.8,59.1z"/><path fill="#000000" d="M41.6,59.1c0.2,0,0.5-0.1,0.7-0.3c0.4-0.4,0.4-0.9,0-1.3l-1.3-1.3l1.3-1.3c0.4-0.4,0.4-0.9,0-1.3   c-0.4-0.4-0.9-0.4-1.3,0l-1.3,1.3l-1.3-1.3c-0.4-0.4-0.9-0.4-1.3,0c-0.4,0.4-0.4,0.9,0,1.3l1.3,1.3L37,57.5c-0.4,0.4-0.4,0.9,0,1.3   c0.2,0.2,0.4,0.3,0.7,0.3c0.2,0,0.5-0.1,0.7-0.3l1.3-1.3l1.3,1.3C41.1,59,41.3,59.1,41.6,59.1z"/><path fill="#000000" d="M53.6,60.8c-0.4-0.4-0.9-0.4-1.3,0l-1.3,1.3l-1.3-1.3c-0.4-0.4-0.9-0.4-1.3,0c-0.4,0.4-0.4,0.9,0,1.3   l1.3,1.3l-1.3,1.3c-0.4,0.4-0.4,0.9,0,1.3c0.2,0.2,0.4,0.3,0.7,0.3c0.2,0,0.5-0.1,0.7-0.3l1.3-1.3l1.3,1.3c0.2,0.2,0.4,0.3,0.7,0.3   c0.2,0,0.5-0.1,0.7-0.3c0.4-0.4,0.4-0.9,0-1.3l-1.3-1.3l1.3-1.3C54,61.7,54,61.1,53.6,60.8z"/><path fill="#000000" d="M55.9,59.1c0.2,0,0.5-0.1,0.7-0.3c0.4-0.4,0.4-0.9,0-1.3l-1.3-1.3l1.3-1.3c0.4-0.4,0.4-0.9,0-1.3   c-0.4-0.4-0.9-0.4-1.3,0L54,54.9l-1.3-1.3c-0.4-0.4-0.9-0.4-1.3,0c-0.4,0.4-0.4,0.9,0,1.3l1.3,1.3l-1.3,1.3c-0.4,0.4-0.4,0.9,0,1.3   c0.2,0.2,0.4,0.3,0.7,0.3c0.2,0,0.5-0.1,0.7-0.3l1.3-1.3l1.3,1.3C55.5,59,55.7,59.1,55.9,59.1z"/><path fill="#000000" d="M60.8,60.8c-0.4-0.4-0.9-0.4-1.3,0l-1.3,1.3L57,60.8c-0.4-0.4-0.9-0.4-1.3,0c-0.4,0.4-0.4,0.9,0,1.3   l1.3,1.3l-1.3,1.3c-0.4,0.4-0.4,0.9,0,1.3c0.2,0.2,0.4,0.3,0.7,0.3c0.2,0,0.5-0.1,0.7-0.3l1.3-1.3l1.3,1.3c0.2,0.2,0.4,0.3,0.7,0.3   c0.2,0,0.5-0.1,0.7-0.3c0.4-0.4,0.4-0.9,0-1.3l-1.3-1.3l1.3-1.3C61.2,61.7,61.2,61.1,60.8,60.8z"/><path fill="#000000" d="M46.5,60.8c-0.4-0.4-0.9-0.4-1.3,0l-1.3,1.3l-1.3-1.3c-0.4-0.4-0.9-0.4-1.3,0c-0.4,0.4-0.4,0.9,0,1.3   l1.3,1.3l-1.3,1.3c-0.4,0.4-0.4,0.9,0,1.3c0.2,0.2,0.4,0.3,0.7,0.3c0.2,0,0.5-0.1,0.7-0.3l1.3-1.3l1.3,1.3c0.2,0.2,0.4,0.3,0.7,0.3   c0.2,0,0.5-0.1,0.7-0.3c0.4-0.4,0.4-0.9,0-1.3l-1.3-1.3l1.3-1.3C46.8,61.7,46.8,61.1,46.5,60.8z"/><path fill="#000000" d="M62.4,42.4c0.1-0.6,0.1-1.2,0.1-1.9c0-8.3-6.7-15-15-15c-7.1,0-13.1,5-14.6,11.7c-5.3,0.1-9.5,4.4-9.5,9.7   c0,5.3,4.3,9.7,9.7,9.7c0.8,0,1.5-0.7,1.5-1.5s-0.7-1.5-1.5-1.5c-3.7,0-6.7-3-6.7-6.7c0-3.5,2.7-6.4,6.2-6.7c0,0.1,0,0.2,0,0.3   c0,0.9,0.1,1.8,0.2,2.7c0.1,0.8,0.9,1.3,1.7,1.2c0.8-0.1,1.3-0.9,1.2-1.7c-0.1-0.7-0.2-1.4-0.2-2.2c0-6.6,5.4-12,12-12   c6.6,0,12,5.4,12,12c0,0.5,0,1-0.1,1.5c-1,0.1-2,0.4-3,0.9c0,0-0.1,0-0.1,0.1c-0.7,0.4-1.3,1-1.9,1.6c-0.5,0.6-0.4,1.6,0.2,2.1   c0.6,0.5,1.6,0.4,2.1-0.2c0.3-0.4,0.6-0.7,1-0.9c0,0,0.1,0,0.1-0.1c0.7-0.4,1.5-0.6,2.2-0.6c2.4,0,4.4,2,4.4,4.4s-2,4.4-4.4,4.4   c-0.8,0-1.5,0.7-1.5,1.5s0.7,1.5,1.5,1.5c4,0,7.3-3.3,7.3-7.3C67.5,46.1,65.3,43.3,62.4,42.4z"/></g></svg>