<svg width='200' height='200' fill="#000000" xmlns="http://www.w3.org/2000/svg" xmlns:xlink="http://www.w3.org/1999/xlink" version="1.1" x="0px" y="0px" viewBox="0 0 90 90" enable-background="new 0 0 90 90" xml:space="preserve"><g><path fill="#000000" d="M60.5,65.9c-0.4-0.4-0.9-0.4-1.3,0L58.1,67L57,65.9c-0.4-0.4-0.9-0.4-1.3,0c-0.4,0.4-0.4,0.9,0,1.3l1.1,1.1   l-1.1,1.1c-0.4,0.4-0.4,0.9,0,1.3c0.2,0.2,0.4,0.3,0.7,0.3c0.2,0,0.5-0.1,0.7-0.3l1.1-1.1l1.1,1.1c0.2,0.2,0.4,0.3,0.7,0.3   c0.2,0,0.5-0.1,0.7-0.3c0.4-0.4,0.4-0.9,0-1.3l-1.1-1.1l1.1-1.1C60.9,66.8,60.9,66.3,60.5,65.9z"/><path fill="#000000" d="M48.2,59.3c-0.4-0.7-1.3-1-2-0.6c-0.7,0.4-1,1.3-0.6,2l5.2,10.1c0.3,0.5,0.8,0.8,1.3,0.8   c0.2,0,0.5-0.1,0.7-0.2c0.7-0.4,1-1.3,0.6-2L48.2,59.3z"/><path fill="#000000" d="M64.5,47.2c0.1-0.6,0.1-1.2,0.1-1.9c0-8.3-6.7-15-15-15c-3.3,0-6.3,1.1-8.8,2.9c-1.1-3.5-3.7-6.3-7.2-7.7   c-0.9-0.3-1.8-0.2-2.5,0.5c-0.7,0.6-0.9,1.6-0.6,2.5c0.1,0.2,0.1,0.4,0.2,0.6c1.7,5.8-1.7,11.9-7.5,13.5c-0.1,0-0.3,0.1-0.4,0.1   c-0.9,0.2-1.6,0.9-1.8,1.8c-0.2,0.9,0.2,1.8,0.9,2.4c1.2,0.9,2.6,1.5,4,1.9c-0.3,0.9-0.5,1.9-0.5,3c0,5.3,4.3,9.7,9.7,9.7h3.5   l4.8,9.3c0.3,0.5,0.8,0.8,1.3,0.8c0.2,0,0.5-0.1,0.7-0.2c0.7-0.4,1-1.3,0.6-2l-5.2-10.1c0-0.1-0.1-0.1-0.1-0.2   c-0.1-0.1-0.1-0.2-0.2-0.2c-0.1-0.1-0.2-0.1-0.2-0.2c-0.1,0-0.2-0.1-0.2-0.1c-0.1,0-0.2,0-0.3-0.1c-0.1,0-0.1,0-0.2,0h-4.4   c-3.7,0-6.7-3-6.7-6.7c0-3.5,2.7-6.4,6.2-6.7c0,0.1,0,0.2,0,0.3c0,0.9,0.1,1.8,0.2,2.7c0.1,0.8,0.9,1.3,1.7,1.2   c0.8-0.1,1.3-0.9,1.2-1.7c-0.1-0.7-0.2-1.4-0.2-2.2c0-6.6,5.4-12,12-12s12,5.4,12,12c0,0.5,0,1-0.1,1.5c-1,0.1-2,0.4-3,0.9   c0,0-0.1,0-0.1,0.1c-0.7,0.4-1.3,1-1.9,1.6c-0.5,0.6-0.4,1.6,0.2,2.1c0.6,0.5,1.6,0.4,2.1-0.2c0.3-0.4,0.6-0.7,1-0.9   c0,0,0.1,0,0.1-0.1c0.7-0.4,1.5-0.6,2.2-0.6c2.4,0,4.4,2,4.4,4.4s-2,4.4-4.4,4.4h-4.4c-0.6,0-1,0.3-1.3,0.8c-0.4-0.3-0.9-0.3-1.3,0   l-1.1,1.1l-1.1-1.1c-0.4-0.4-0.9-0.4-1.3,0c-0.4,0.4-0.4,0.9,0,1.3l1.1,1.1l-1.1,1.1c-0.4,0.4-0.4,0.9,0,1.3   c0.2,0.2,0.4,0.3,0.7,0.3c0.2,0,0.5-0.1,0.7-0.3l1.1-1.1l1.1,1.1c0.2,0.2,0.4,0.3,0.7,0.3c0.2,0,0.5-0.1,0.7-0.3   c0.4-0.4,0.4-0.9,0-1.3l-1.1-1.1l1.1-1.1c0.3,0.5,0.7,0.8,1.3,0.8h4.4c4,0,7.3-3.3,7.3-7.3C69.5,50.9,67.4,48.2,64.5,47.2z    M27.4,46.1c-0.9-0.2-1.8-0.4-2.6-0.9c6.7-2.3,10.6-9.4,9-16.4c2.4,1.4,4.1,3.7,4.6,6.5c0,0.1,0,0.1,0,0.2   c-1.6,1.8-2.8,4.1-3.4,6.6C31.9,42.1,29.1,43.7,27.4,46.1z"/><path fill="#000000" d="M23.2,34.3c0.2,0.2,0.4,0.3,0.7,0.3s0.5-0.1,0.7-0.3l0.5-0.5l0.5,0.5c0.2,0.2,0.4,0.3,0.7,0.3   c0.2,0,0.5-0.1,0.7-0.3c0.4-0.4,0.4-0.9,0-1.3l-0.5-0.5l0.5-0.5c0.4-0.4,0.4-0.9,0-1.3c-0.4-0.4-0.9-0.4-1.3,0L25,31.2l-0.5-0.5   c-0.4-0.4-0.9-0.4-1.3,0c-0.4,0.4-0.4,0.9,0,1.3l0.5,0.5L23.2,33C22.9,33.4,22.9,33.9,23.2,34.3z"/><path fill="#000000" d="M22.1,40.1c0.4,0,0.8-0.1,1-0.4c0.3-0.3,0.4-0.6,0.4-1c0-0.4-0.1-0.8-0.4-1c-0.5-0.5-1.5-0.5-2.1,0   c-0.3,0.3-0.4,0.7-0.4,1c0,0.4,0.1,0.8,0.4,1C21.3,39.9,21.7,40.1,22.1,40.1z"/></g></svg>