<svg width='200' height='200' fill="#000000" xmlns="http://www.w3.org/2000/svg" xmlns:xlink="http://www.w3.org/1999/xlink" version="1.1" x="0px" y="0px" viewBox="0 0 90 90" enable-background="new 0 0 90 90" xml:space="preserve"><g><path fill="#000000" d="M61.6,42.1c0.1-0.6,0.1-1.2,0.1-1.9c0-8.3-6.7-15-15-15c-7.1,0-13.1,5-14.6,11.7c-5.3,0.1-9.5,4.4-9.5,9.7   c0,5.3,4.3,9.7,9.7,9.7h2.3l4.8,9.3c0.3,0.5,0.8,0.8,1.3,0.8c0.2,0,0.5-0.1,0.7-0.2c0.7-0.4,1-1.3,0.6-2l-5.2-10.1   c-0.3-0.6-0.9-0.9-1.5-0.8c-0.1,0-0.1,0-0.2,0h-2.8c-3.7,0-6.7-3-6.7-6.7c0-3.5,2.7-6.4,6.2-6.7c0,0.1,0,0.2,0,0.3   c0,0.9,0.1,1.8,0.2,2.7c0.1,0.8,0.9,1.3,1.7,1.2c0.8-0.1,1.3-0.9,1.2-1.7c-0.1-0.7-0.2-1.4-0.2-2.2c0-6.6,5.4-12,12-12   s12,5.4,12,12c0,0.5,0,1-0.1,1.5c-1,0.1-2,0.4-3,0.9c0,0-0.1,0-0.1,0.1c-0.7,0.4-1.3,1-1.9,1.6c-0.5,0.6-0.4,1.6,0.2,2.1   c0.6,0.5,1.6,0.4,2.1-0.2c0.3-0.4,0.6-0.7,1-0.9c0,0,0.1,0,0.1-0.1c0.7-0.4,1.5-0.6,2.2-0.6c2.4,0,4.4,2,4.4,4.4   c0,2.4-2,4.4-4.4,4.4h-3.2c-0.8,0-1.5,0.7-1.5,1.5c0,0.8,0.7,1.5,1.5,1.5h3.2c4,0,7.3-3.3,7.3-7.3C66.7,45.8,64.5,43.1,61.6,42.1z"/><path fill="#000000" d="M44.2,54.2c-0.4-0.7-1.3-1-2-0.6c-0.7,0.4-1,1.3-0.6,2l5.2,10.1c0.3,0.5,0.8,0.8,1.3,0.8   c0.2,0,0.5-0.1,0.7-0.2c0.7-0.4,1-1.3,0.6-2L44.2,54.2z"/><path fill="#000000" d="M51.5,54.2c-0.4-0.7-1.3-1-2-0.6c-0.7,0.4-1,1.3-0.6,2l5.2,10.1c0.3,0.5,0.8,0.8,1.3,0.8   c0.2,0,0.5-0.1,0.7-0.2c0.7-0.4,1-1.3,0.6-2L51.5,54.2z"/></g></svg>