<svg width='200' height='200' fill="#000000" xmlns="http://www.w3.org/2000/svg" xmlns:xlink="http://www.w3.org/1999/xlink" version="1.1" x="0px" y="0px" viewBox="0 0 90 90" enable-background="new 0 0 90 90" xml:space="preserve"><g><path fill="#000000" d="M64.9,52.3C65,51.7,65,51,65,50.4c0-8.3-6.7-15-15-15c-3.3,0-6.3,1.1-8.8,2.9c-1.1-3.5-3.7-6.3-7.2-7.7   c-0.9-0.3-1.8-0.2-2.5,0.5c-0.7,0.6-0.9,1.6-0.6,2.5c0.1,0.2,0.1,0.4,0.2,0.6c1.6,5.8-1.7,11.9-7.5,13.5c-0.1,0-0.3,0.1-0.4,0.1   c-0.9,0.2-1.6,0.9-1.8,1.8c-0.2,0.9,0.2,1.8,0.9,2.4c1.2,0.9,2.6,1.5,4,1.9c-0.3,0.9-0.5,1.9-0.5,2.9c0,5.3,4.3,9.7,9.7,9.7h27   c4,0,7.3-3.3,7.3-7.3C69.9,56,67.8,53.2,64.9,52.3z M25.1,50.3c6.7-2.3,10.6-9.4,9-16.4c2.4,1.4,4.1,3.7,4.6,6.5c0,0.1,0,0.2,0,0.2   c-1.6,1.8-2.8,4.1-3.3,6.6c-3.1,0.1-5.9,1.6-7.6,4C26.8,51,26,50.7,25.1,50.3z M62.6,63.6h-27c-3.7,0-6.7-3-6.7-6.7   c0-3.5,2.7-6.4,6.2-6.7c0,0.1,0,0.2,0,0.3c0,0.9,0.1,1.8,0.2,2.7c0.1,0.8,0.9,1.3,1.7,1.2c0.8-0.1,1.3-0.9,1.2-1.7   C38,51.9,38,51.2,38,50.4c0-6.6,5.4-12,12-12c6.6,0,12,5.4,12,12c0,0.5,0,1-0.1,1.5c-1,0.1-2,0.4-3,0.9c0,0-0.1,0-0.1,0.1   c-0.7,0.4-1.3,1-1.9,1.6c-0.5,0.6-0.4,1.6,0.2,2.1c0.6,0.5,1.6,0.4,2.1-0.2c0.3-0.4,0.6-0.7,1-0.9c0,0,0.1,0,0.1-0.1   c0.7-0.4,1.5-0.6,2.2-0.6c2.4,0,4.4,2,4.4,4.4C67,61.6,65,63.6,62.6,63.6z"/><path fill="#000000" d="M23.6,39.4c0.2,0.2,0.4,0.3,0.7,0.3c0.2,0,0.5-0.1,0.7-0.3l0.5-0.5l0.5,0.5c0.2,0.2,0.4,0.3,0.7,0.3   s0.5-0.1,0.7-0.3c0.4-0.4,0.4-0.9,0-1.3l-0.5-0.5l0.5-0.5c0.4-0.4,0.4-0.9,0-1.3c-0.4-0.4-0.9-0.4-1.3,0l-0.5,0.5l-0.5-0.5   c-0.4-0.4-0.9-0.4-1.3,0c-0.4,0.4-0.4,0.9,0,1.3l0.5,0.5l-0.5,0.5C23.2,38.4,23.2,39,23.6,39.4z"/><path fill="#000000" d="M22.4,45.2c0.4,0,0.8-0.1,1-0.4c0.3-0.3,0.4-0.6,0.4-1c0-0.4-0.2-0.8-0.4-1c-0.6-0.6-1.5-0.5-2.1,0   c-0.3,0.3-0.4,0.6-0.4,1c0,0.4,0.1,0.8,0.4,1C21.7,45,22,45.2,22.4,45.2z"/></g></svg>