<svg width='200' height='200' fill="#000000" xmlns="http://www.w3.org/2000/svg" xmlns:xlink="http://www.w3.org/1999/xlink" version="1.1" x="0px" y="0px" viewBox="0 0 90 90" enable-background="new 0 0 90 90" xml:space="preserve"><g><path fill="#000000" d="M54.7,65.4c0.2,0,0.5-0.1,0.7-0.3c0.4-0.4,0.4-0.9,0-1.3L54,62.6l1.3-1.3c0.4-0.4,0.4-0.9,0-1.3   c-0.4-0.4-0.9-0.4-1.3,0l-1.3,1.3L51.4,60c-0.4-0.4-0.9-0.4-1.3,0c-0.4,0.4-0.4,0.9,0,1.3l1.3,1.3l-1.3,1.3c-0.4,0.4-0.4,0.9,0,1.3   c0.2,0.2,0.4,0.3,0.7,0.3c0.2,0,0.5-0.1,0.7-0.3l1.3-1.3l1.3,1.3C54.2,65.3,54.4,65.4,54.7,65.4z"/><path fill="#000000" d="M47.5,65.4c0.2,0,0.5-0.1,0.7-0.3c0.4-0.4,0.4-0.9,0-1.3l-1.3-1.3l1.3-1.3c0.4-0.4,0.4-0.9,0-1.3   c-0.4-0.4-0.9-0.4-1.3,0l-1.3,1.3L44.3,60c-0.4-0.4-0.9-0.4-1.3,0c-0.4,0.4-0.4,0.9,0,1.3l1.3,1.3L43,63.8c-0.4,0.4-0.4,0.9,0,1.3   c0.2,0.2,0.4,0.3,0.7,0.3c0.2,0,0.5-0.1,0.7-0.3l1.3-1.3l1.3,1.3C47,65.3,47.2,65.4,47.5,65.4z"/><path fill="#000000" d="M59.6,67.1c-0.4-0.4-0.9-0.4-1.3,0L57,68.4l-1.3-1.3c-0.4-0.4-0.9-0.4-1.3,0c-0.4,0.4-0.4,0.9,0,1.3   l1.3,1.3L54.4,71c-0.4,0.4-0.4,0.9,0,1.3c0.2,0.2,0.4,0.3,0.7,0.3c0.2,0,0.5-0.1,0.7-0.3L57,71l1.3,1.3c0.2,0.2,0.4,0.3,0.7,0.3   c0.2,0,0.5-0.1,0.7-0.3c0.4-0.4,0.4-0.9,0-1.3l-1.3-1.3l1.3-1.3C59.9,68.1,59.9,67.5,59.6,67.1z"/><path fill="#000000" d="M61.8,65.4c0.2,0,0.5-0.1,0.7-0.3c0.4-0.4,0.4-0.9,0-1.3l-1.3-1.3l1.3-1.3c0.4-0.4,0.4-0.9,0-1.3   c-0.4-0.4-0.9-0.4-1.3,0l-1.3,1.3L58.6,60c-0.4-0.4-0.9-0.4-1.3,0c-0.4,0.4-0.4,0.9,0,1.3l1.3,1.3l-1.3,1.3c-0.4,0.4-0.4,0.9,0,1.3   c0.2,0.2,0.4,0.3,0.7,0.3c0.2,0,0.5-0.1,0.7-0.3l1.3-1.3l1.3,1.3C61.4,65.3,61.6,65.4,61.8,65.4z"/><path fill="#000000" d="M66.7,67.1c-0.4-0.4-0.9-0.4-1.3,0l-1.3,1.3l-1.3-1.3c-0.4-0.4-0.9-0.4-1.3,0c-0.4,0.4-0.4,0.9,0,1.3   l1.3,1.3L61.6,71c-0.4,0.4-0.4,0.9,0,1.3c0.2,0.2,0.4,0.3,0.7,0.3c0.2,0,0.5-0.1,0.7-0.3l1.3-1.3l1.3,1.3c0.2,0.2,0.4,0.3,0.7,0.3   c0.2,0,0.5-0.1,0.7-0.3c0.4-0.4,0.4-0.9,0-1.3l-1.3-1.3l1.3-1.3C67.1,68.1,67.1,67.5,66.7,67.1z"/><path fill="#000000" d="M52.4,67.1c-0.4-0.4-0.9-0.4-1.3,0l-1.3,1.3l-1.3-1.3c-0.4-0.4-0.9-0.4-1.3,0c-0.4,0.4-0.4,0.9,0,1.3   l1.3,1.3L47.2,71c-0.4,0.4-0.4,0.9,0,1.3c0.2,0.2,0.4,0.3,0.7,0.3s0.5-0.1,0.7-0.3l1.3-1.3l1.3,1.3c0.2,0.2,0.4,0.3,0.7,0.3   c0.2,0,0.5-0.1,0.7-0.3c0.4-0.4,0.4-0.9,0-1.3l-1.3-1.3l1.3-1.3C52.7,68.1,52.7,67.5,52.4,67.1z"/><path fill="#000000" d="M27.4,29c0.3,0.3,0.7,0.4,1,0.4c0.4,0,0.7-0.1,1-0.4c0.6-0.6,0.6-1.5,0-2.1l-3-3c-0.6-0.6-1.5-0.6-2.1,0   c-0.6,0.6-0.6,1.5,0,2.1L27.4,29z"/><path fill="#000000" d="M25.7,39.1c0-0.8-0.7-1.5-1.5-1.5h-4.7c-0.8,0-1.5,0.7-1.5,1.5s0.7,1.5,1.5,1.5h4.7   C25,40.6,25.7,39.9,25.7,39.1z"/><path fill="#000000" d="M50.8,29.6c0.4,0,0.7-0.1,1-0.4l2.8-2.8c0.6-0.6,0.6-1.5,0-2.1c-0.6-0.6-1.5-0.6-2.1,0l-2.8,2.8   c-0.6,0.6-0.6,1.5,0,2.1C50.1,29.5,50.5,29.6,50.8,29.6z"/><path fill="#000000" d="M26.4,50.5l-2.8,2.8c-0.6,0.6-0.6,1.5,0,2.1c0.3,0.3,0.7,0.4,1,0.4c0.4,0,0.7-0.1,1-0.4l2.8-2.8   c0.6-0.6,0.6-1.5,0-2.1C27.9,49.9,27,49.9,26.4,50.5z"/><path fill="#000000" d="M39.7,25C39.7,25,39.7,25,39.7,25c0.8,0,1.5-0.7,1.5-1.5l0-3.8c0-0.8-0.6-1.5-1.5-1.5c0,0,0,0,0,0   c-0.8,0-1.5,0.7-1.5,1.5l0,3.8C38.2,24.3,38.8,25,39.7,25z"/><path fill="#000000" d="M68.3,49.1c0.1-0.6,0.1-1.2,0.1-1.9c0-8.3-6.7-15-15-15c-2,0-3.8,0.4-5.5,1.1c-1.9-2.7-5-4.3-8.3-4.3   c-5.6,0-10.2,4.6-10.2,10.2c0,2.8,1.1,5.4,3.1,7.3c-1.9,1.8-3.1,4.3-3.1,7.1c0,5.3,4.3,9.7,9.7,9.7c0.8,0,1.5-0.7,1.5-1.5   s-0.7-1.5-1.5-1.5c-3.7,0-6.7-3-6.7-6.7c0-3.5,2.7-6.4,6.2-6.7c0,0.1,0,0.2,0,0.3c0,0.9,0.1,1.8,0.2,2.7c0.1,0.8,0.9,1.3,1.7,1.2   c0.8-0.1,1.3-0.9,1.2-1.7c-0.1-0.7-0.2-1.4-0.2-2.2c0-6.6,5.4-12,12-12c6.6,0,12,5.4,12,12c0,0.5,0,1-0.1,1.5c-1,0.1-2,0.4-3,0.9   c0,0-0.1,0-0.1,0.1c-0.7,0.4-1.3,1-1.9,1.6c-0.5,0.6-0.4,1.6,0.2,2.1c0.6,0.5,1.6,0.4,2.1-0.2c0.3-0.4,0.6-0.7,1-0.9   c0,0,0.1,0,0.1-0.1c0.7-0.4,1.5-0.6,2.2-0.6c2.4,0,4.4,2,4.4,4.4s-2,4.4-4.4,4.4c-0.8,0-1.5,0.7-1.5,1.5s0.7,1.5,1.5,1.5   c4,0,7.3-3.3,7.3-7.3C73.3,52.8,71.2,50.1,68.3,49.1z M38.8,44c-1.4,0-2.7,0.3-3.9,0.9c-1.7-1.4-2.7-3.4-2.7-5.6   c0-4,3.3-7.3,7.3-7.3c2.3,0,4.3,1,5.7,2.8C42,36.9,39.7,40.1,38.8,44z"/></g></svg>