<svg width='200' height='200' fill="#000000" xmlns="http://www.w3.org/2000/svg" xmlns:xlink="http://www.w3.org/1999/xlink" version="1.1" x="0px" y="0px" viewBox="0 0 90 90" enable-background="new 0 0 90 90" xml:space="preserve"><g><path fill="#000000" d="M26.6,33.6c0.3,0.3,0.7,0.4,1,0.4c0.4,0,0.7-0.1,1-0.4c0.6-0.6,0.6-1.5,0-2.1l-3-3c-0.6-0.6-1.5-0.6-2.1,0   s-0.6,1.5,0,2.1L26.6,33.6z"/><path fill="#000000" d="M24.9,43.7c0-0.8-0.7-1.5-1.5-1.5h-4.7c-0.8,0-1.5,0.7-1.5,1.5s0.7,1.5,1.5,1.5h4.7   C24.2,45.2,24.9,44.5,24.9,43.7z"/><path fill="#000000" d="M50,34.2c0.4,0,0.7-0.1,1-0.4l2.8-2.8c0.6-0.6,0.6-1.5,0-2.1c-0.6-0.6-1.5-0.6-2.1,0L49,31.7   c-0.6,0.6-0.6,1.5,0,2.1C49.3,34,49.7,34.2,50,34.2z"/><path fill="#000000" d="M25.6,55.1l-2.8,2.8c-0.6,0.6-0.6,1.5,0,2.1c0.3,0.3,0.7,0.4,1,0.4c0.4,0,0.7-0.1,1-0.4l2.8-2.8   c0.6-0.6,0.6-1.5,0-2.1C27.1,54.5,26.2,54.5,25.6,55.1z"/><path fill="#000000" d="M38.9,29.6C38.9,29.6,38.9,29.6,38.9,29.6c0.8,0,1.5-0.7,1.5-1.5l0-3.8c0-0.8-0.6-1.5-1.5-1.5c0,0,0,0,0,0   c-0.8,0-1.5,0.7-1.5,1.5l0,3.8C37.4,28.9,38,29.6,38.9,29.6z"/><path fill="#000000" d="M67.5,53.7c0.1-0.6,0.1-1.2,0.1-1.9c0-8.3-6.7-15-15-15c-2,0-3.8,0.4-5.5,1.1c-1.9-2.7-5-4.3-8.3-4.3   c-5.6,0-10.2,4.6-10.2,10.2c0,2.8,1.1,5.4,3.1,7.3c-1.9,1.8-3.1,4.3-3.1,7.1c0,5.3,4.3,9.7,9.7,9.7h27c4,0,7.3-3.3,7.3-7.3   C72.6,57.4,70.4,54.7,67.5,53.7z M31.5,43.9c0-4,3.3-7.3,7.3-7.3c2.3,0,4.3,1,5.7,2.8c-3.2,2.1-5.5,5.4-6.4,9.2   c-1.4,0-2.7,0.3-3.9,0.9C32.5,48.1,31.5,46.1,31.5,43.9z M65.2,65h-27c-3.7,0-6.7-3-6.7-6.7c0-3.5,2.7-6.4,6.2-6.7   c0,0.1,0,0.2,0,0.3c0,0.9,0.1,1.8,0.2,2.7c0.1,0.8,0.9,1.3,1.7,1.2c0.8-0.1,1.3-0.9,1.2-1.7c-0.1-0.7-0.2-1.4-0.2-2.2   c0-6.6,5.4-12,12-12s12,5.4,12,12c0,0.5,0,1-0.1,1.5c-1,0.1-2,0.4-3,0.9c0,0-0.1,0-0.1,0.1c-0.7,0.4-1.3,1-1.9,1.6   c-0.5,0.6-0.4,1.6,0.2,2.1c0.6,0.5,1.6,0.4,2.1-0.2c0.3-0.4,0.6-0.7,1-0.9c0,0,0.1,0,0.1-0.1c0.7-0.4,1.5-0.6,2.2-0.6   c2.4,0,4.4,2,4.4,4.4S67.6,65,65.2,65z"/></g></svg>