<svg width='200' height='200' fill="#000000" xmlns="http://www.w3.org/2000/svg" xmlns:xlink="http://www.w3.org/1999/xlink" version="1.1" x="0px" y="0px" viewBox="0 0 90 90" enable-background="new 0 0 90 90" xml:space="preserve"><g><path fill="#000000" d="M64.3,44.8c-0.6-0.5-1.6-0.4-2.1,0.2c-1.8,2.2-5.2,2.8-8.5,1.6C52.9,42.3,49,39,44.5,39   c-1.9,0-3.8,0.6-5.4,1.7c-0.7,0.5-0.8,1.4-0.4,2c0.5,0.7,1.4,0.8,2,0.4c1.1-0.7,2.4-1.1,3.7-1.1c3.4,0,6.2,2.6,6.5,6   c0.1,0.6,0.5,1.1,1,1.3c1.7,0.7,3.4,1,5,1c3,0,5.7-1.1,7.5-3.3C65,46.3,64.9,45.4,64.3,44.8z"/><path fill="#000000" d="M44.6,34.1c0.8,0,1.5-0.7,1.5-1.5v-4.8c0-0.8-0.7-1.5-1.5-1.5c-0.8,0-1.5,0.7-1.5,1.5v4.8   C43.1,33.5,43.8,34.1,44.6,34.1z"/><path fill="#000000" d="M44.6,62.8c-0.8,0-1.5,0.7-1.5,1.5V69c0,0.8,0.7,1.5,1.5,1.5c0.8,0,1.5-0.7,1.5-1.5v-4.8   C46.1,63.5,45.4,62.8,44.6,62.8z"/><path fill="#000000" d="M56.9,58.6c-0.6-0.6-1.5-0.6-2.1,0c-0.6,0.6-0.6,1.5,0,2.1l3.3,3.4c0.3,0.3,0.7,0.4,1,0.4   c0.4,0,0.7-0.1,1-0.4c0.6-0.6,0.6-1.5,0-2.1L56.9,58.6z"/><path fill="#000000" d="M32.4,38.3c0.3,0.3,0.7,0.4,1,0.4c0.4,0,0.7-0.1,1-0.4c0.6-0.6,0.6-1.5,0-2.1l-3.3-3.4   c-0.6-0.6-1.5-0.6-2.1,0s-0.6,1.5,0,2.1L32.4,38.3z"/><path fill="#000000" d="M32.4,58.6L29,61.9c-0.6,0.6-0.6,1.5,0,2.1c0.3,0.3,0.7,0.4,1,0.4c0.4,0,0.7-0.1,1-0.4l3.4-3.3   c0.6-0.6,0.6-1.5,0-2.1C33.9,58,33,58,32.4,58.6z"/><path fill="#000000" d="M55.8,38.7c0.4,0,0.7-0.1,1-0.4l3.4-3.3c0.6-0.6,0.6-1.5,0-2.1c-0.6-0.6-1.5-0.6-2.1,0l-3.4,3.3   c-0.6,0.6-0.6,1.5,0,2.1C55,38.6,55.4,38.7,55.8,38.7z"/><path fill="#000000" d="M62.4,51.5c-6.5,3.1-11.1,0.3-15.2-2.1c-0.7-0.4-1.4-0.8-2-1.2c-7.4-4.1-14.3-4.6-20.5-1.4   c-0.7,0.4-1,1.3-0.6,2c0.4,0.7,1.3,1,2,0.6c2.8-1.5,5.8-2,8.9-1.6c0,0.2,0,0.4,0,0.6c0,1.3,0.3,2.6,0.8,3.7   c-3.4-0.5-6.8,0.3-9.5,2.4c-0.6,0.5-0.8,1.4-0.3,2.1c0.3,0.4,0.7,0.6,1.2,0.6c0.3,0,0.6-0.1,0.9-0.3c3.2-2.4,7.7-2.6,11.5-0.4   c1.4,0.9,3.1,1.4,5,1.4c2.7,0,5.2-1.1,7-3.1c1.6,0.6,3.4,1,5.3,1c2.1,0,4.4-0.5,6.9-1.7c0.7-0.4,1-1.2,0.7-2   C64,51.5,63.1,51.2,62.4,51.5z M44.5,55c-1.2,0-2.4-0.4-3.3-1h0l0,0c-1.9-1.1-3.2-3.2-3.2-5.6c0,0,0,0,0-0.1   c1.9,0.5,3.8,1.3,5.8,2.4c0.6,0.3,1.2,0.7,1.9,1.1c0.9,0.5,1.8,1.1,2.9,1.6C47.4,54.5,46,55,44.5,55z"/></g></svg>