<svg width='200' height='200' fill="#000000" xmlns="http://www.w3.org/2000/svg" xmlns:xlink="http://www.w3.org/1999/xlink" version="1.1" x="0px" y="0px" viewBox="0 0 90 90" enable-background="new 0 0 90 90" xml:space="preserve"><g><polygon fill="#000000" points="49.9,56.9 48.9,53.7 46.8,57.4 48.9,61.1 51.1,57.4  "/><polygon fill="#000000" points="56.2,56.9 55.2,53.7 53,57.4 55.2,61.1 57.4,57.4  "/><polygon fill="#000000" points="45.7,60.6 43.5,64.3 45.7,68 47.8,64.3 46.6,63.8  "/><polygon fill="#000000" points="51.9,60.6 49.8,64.3 51.9,68 54.1,64.3 52.9,63.8  "/><polygon fill="#000000" points="58.2,60.6 56,64.3 58.2,68 60.4,64.3 59.2,63.8  "/><path fill="#000000" d="M65.5,45c0.1-0.6,0.1-1.2,0.1-1.9c0-8.3-6.7-15-15-15c-3.3,0-6.3,1.1-8.8,2.9c-1.1-3.5-3.7-6.3-7.2-7.7   c-0.9-0.3-1.8-0.2-2.5,0.5c-0.7,0.6-0.9,1.6-0.6,2.5c0.1,0.2,0.1,0.4,0.2,0.6c1.7,5.8-1.7,11.9-7.5,13.5c-0.1,0-0.3,0.1-0.4,0.1   c-0.9,0.2-1.6,0.9-1.8,1.8c-0.2,0.9,0.2,1.8,0.9,2.4c1.2,0.9,2.6,1.5,4,1.9c-0.3,0.9-0.5,1.9-0.5,3c0,5.3,4.3,9.7,9.7,9.7h2.8   c0.8,0,1.5-0.7,1.5-1.5c0-0.1,0-0.2-0.1-0.4l2.2,3.7l2.2-3.7l-1.2-0.5l-1-3.2l-2.2,3.7c-0.2-0.6-0.7-1-1.4-1h-2.8   c-3.7,0-6.7-3-6.7-6.7c0-3.5,2.7-6.4,6.2-6.7c0,0.1,0,0.2,0,0.3c0,0.9,0.1,1.8,0.2,2.7c0.1,0.8,0.9,1.3,1.7,1.2   c0.8-0.1,1.3-0.9,1.2-1.7c-0.1-0.7-0.2-1.4-0.2-2.2c0-6.6,5.4-12,12-12s12,5.4,12,12c0,0.5,0,1-0.1,1.5c-1,0.1-2,0.4-3,0.9   c0,0-0.1,0-0.1,0.1c-0.7,0.4-1.3,1-1.9,1.6c-0.5,0.6-0.4,1.6,0.2,2.1c0.6,0.5,1.6,0.4,2.1-0.2c0.3-0.4,0.6-0.7,1-0.9   c0,0,0.1,0,0.1-0.1c0.7-0.4,1.5-0.6,2.2-0.6c2.4,0,4.4,2,4.4,4.4s-2,4.4-4.4,4.4H60c-0.8,0-1.5,0.7-1.5,1.5s0.7,1.5,1.5,1.5h3.2   c4,0,7.3-3.3,7.3-7.3C70.6,48.7,68.5,46,65.5,45z M28.4,43.9c-0.9-0.2-1.8-0.4-2.6-0.9c6.7-2.3,10.6-9.4,9-16.4   c2.4,1.4,4.1,3.7,4.6,6.5c0,0.1,0,0.2,0,0.2c-1.6,1.8-2.8,4.1-3.3,6.6C32.9,40,30.1,41.5,28.4,43.9z"/><path fill="#000000" d="M24.3,32.2c0.2,0.2,0.4,0.3,0.7,0.3s0.5-0.1,0.7-0.3l0.5-0.5l0.5,0.5c0.2,0.2,0.4,0.3,0.7,0.3   c0.2,0,0.5-0.1,0.7-0.3c0.4-0.4,0.4-0.9,0-1.3l-0.5-0.5l0.5-0.5c0.4-0.4,0.4-0.9,0-1.3c-0.4-0.4-0.9-0.4-1.3,0L26,29.1l-0.5-0.5   c-0.4-0.4-0.9-0.4-1.3,0c-0.4,0.4-0.4,0.9,0,1.3l0.5,0.5l-0.5,0.5C23.9,31.2,23.9,31.8,24.3,32.2z"/><path fill="#000000" d="M23.1,37.9c0.4,0,0.8-0.2,1-0.4c0.3-0.3,0.4-0.6,0.4-1c0-0.4-0.2-0.8-0.4-1c-0.5-0.5-1.5-0.5-2.1,0   c-0.3,0.3-0.4,0.7-0.4,1c0,0.4,0.1,0.8,0.4,1C22.3,37.8,22.7,37.9,23.1,37.9z"/></g></svg>