<svg width='200' height='200' fill="#000000" xmlns="http://www.w3.org/2000/svg" xmlns:xlink="http://www.w3.org/1999/xlink" version="1.1" x="0px" y="0px" viewBox="0 0 90 90" enable-background="new 0 0 90 90" xml:space="preserve"><g><path fill="#000000" d="M53.2,48.1c-0.7-0.4-1.6-0.2-2,0.6c-1.2,2.1-3.5,3.5-6,3.5c-3.8,0-6.8-3.1-6.8-6.8c0-3.8,3.1-6.8,6.8-6.8   c2.4,0,4.6,1.3,5.8,3.3l-3.1,0c0,0,0,0,0,0c-0.8,0-1.5,0.7-1.5,1.5c0,0.8,0.7,1.5,1.5,1.5l12.3,0c0,0,0,0,0,0   c0.8,0,1.5-0.7,1.5-1.5c0-0.8-0.7-1.5-1.5-1.5l-5.9,0c-1.4-3.7-5-6.3-9.1-6.3c-5.4,0-9.8,4.4-9.8,9.8c0,1.4,0.3,2.7,0.8,3.9h-4.8   c-0.8,0-1.5,0.7-1.5,1.5s0.7,1.5,1.5,1.5h6.8c1.8,1.8,4.3,3,7,3c3.5,0,6.8-1.9,8.5-5C54.2,49.4,53.9,48.5,53.2,48.1z"/><path fill="#000000" d="M45.5,30.4c0.8,0,1.5-0.7,1.5-1.5v-3.2c0-0.8-0.7-1.5-1.5-1.5c-0.8,0-1.5,0.7-1.5,1.5v3.2   C44,29.7,44.7,30.4,45.5,30.4z"/><path fill="#000000" d="M56.9,35.3c0.4,0,0.7-0.1,1-0.4l3-2.9c0.6-0.6,0.6-1.5,0-2.1c-0.6-0.6-1.5-0.6-2.1,0l-3,2.9   c-0.6,0.6-0.6,1.5,0,2.1C56.2,35.2,56.5,35.3,56.9,35.3z"/><path fill="#000000" d="M32.9,34.8c0.3,0.3,0.7,0.4,1,0.4c0.4,0,0.8-0.1,1.1-0.4c0.6-0.6,0.6-1.5,0-2.1l-2.9-2.9   c-0.6-0.6-1.5-0.6-2.1,0c-0.6,0.6-0.6,1.5,0,2.1L32.9,34.8z"/><path fill="#000000" d="M45.5,60.3c-0.8,0-1.5,0.7-1.5,1.5v3.7c0,0.8,0.7,1.5,1.5,1.5c0.8,0,1.5-0.7,1.5-1.5v-3.7   C47,61,46.3,60.3,45.5,60.3z"/><path fill="#000000" d="M58,56.4c-0.6-0.6-1.5-0.6-2.1,0c-0.6,0.6-0.6,1.5,0,2.1l2.9,2.8c0.3,0.3,0.7,0.4,1,0.4   c0.4,0,0.8-0.1,1.1-0.4c0.6-0.6,0.6-1.5,0-2.1L58,56.4z"/><path fill="#000000" d="M33.2,56.1L30,59.2c-0.6,0.6-0.6,1.5,0,2.1c0.3,0.3,0.7,0.4,1.1,0.4c0.4,0,0.7-0.1,1-0.4l3.2-3.1   c0.6-0.6,0.6-1.5,0-2.1C34.7,55.6,33.7,55.5,33.2,56.1z"/><path fill="#000000" d="M32.5,43.2c0-0.8-0.7-1.5-1.5-1.5H19.5c-0.8,0-1.5,0.7-1.5,1.5s0.7,1.5,1.5,1.5h11.6   C31.9,44.7,32.5,44,32.5,43.2z"/><path fill="#000000" d="M71.4,49.1H60.5c-0.8,0-1.5,0.7-1.5,1.5s0.7,1.5,1.5,1.5h10.8c0.8,0,1.5-0.7,1.5-1.5S72.2,49.1,71.4,49.1z"/></g></svg>