<svg width='200' height='200' fill="#000000" xmlns="http://www.w3.org/2000/svg" xmlns:xlink="http://www.w3.org/1999/xlink" version="1.1" x="0px" y="0px" viewBox="0 0 90 90" enable-background="new 0 0 90 90" xml:space="preserve"><path fill="#000000" d="M63.1,47.2c0.1-0.6,0.1-1.2,0.1-1.9c0-8.3-6.7-15-15-15c-7.1,0-13.1,5-14.6,11.7c-5.3,0.1-9.5,4.4-9.5,9.7  c0,5.3,4.3,9.7,9.7,9.7h27c4,0,7.3-3.3,7.3-7.3C68.1,50.9,66,48.1,63.1,47.2z M60.8,58.5h-27c-3.7,0-6.7-3-6.7-6.7  c0-3.5,2.7-6.4,6.2-6.7c0,0.1,0,0.2,0,0.3c0,0.9,0.1,1.8,0.2,2.7c0.1,0.8,0.9,1.3,1.7,1.2c0.8-0.1,1.3-0.9,1.2-1.7  c-0.1-0.7-0.2-1.4-0.2-2.2c0-6.6,5.4-12,12-12c6.6,0,12,5.4,12,12c0,0.5,0,1-0.1,1.5c-1,0.1-2,0.4-3,0.9c0,0-0.1,0-0.1,0.1  c-0.7,0.4-1.3,1-1.9,1.6c-0.5,0.6-0.4,1.6,0.2,2.1c0.6,0.5,1.6,0.4,2.1-0.2c0.3-0.4,0.6-0.7,1-0.9c0,0,0.1,0,0.1-0.1  c0.7-0.4,1.5-0.6,2.2-0.6c2.4,0,4.4,2,4.4,4.4C65.2,56.5,63.2,58.5,60.8,58.5z"/></svg>