<svg width='200' height='200' fill="#000000" xmlns="http://www.w3.org/2000/svg" xmlns:xlink="http://www.w3.org/1999/xlink" version="1.1" x="0px" y="0px" viewBox="0 0 90 90" enable-background="new 0 0 90 90" xml:space="preserve"><g><path fill="#000000" d="M67.2,48.7c0.1-0.6,0.1-1.2,0.1-1.9c0-8.3-6.7-15-15-15c-2,0-3.8,0.4-5.5,1.1c-1.9-2.7-5-4.3-8.3-4.3   c-5.6,0-10.2,4.6-10.2,10.2c0,2.8,1.1,5.4,3.1,7.3c-1.9,1.8-3.1,4.3-3.1,7.1c0,5.3,4.3,9.7,9.7,9.7h2.4l4.8,9.3   c0.3,0.5,0.8,0.8,1.3,0.8c0.2,0,0.5-0.1,0.7-0.2c0.7-0.4,1-1.3,0.6-2l-5.2-10.1c-0.3-0.6-0.9-0.9-1.6-0.8c-0.1,0-0.1,0-0.2,0H38   c-3.7,0-6.7-3-6.7-6.7c0-3.5,2.7-6.4,6.2-6.7c0,0.1,0,0.2,0,0.3c0,0.9,0.1,1.8,0.2,2.7c0.1,0.8,0.9,1.3,1.7,1.2   c0.8-0.1,1.3-0.9,1.2-1.7c-0.1-0.7-0.2-1.4-0.2-2.2c0-6.6,5.4-12,12-12s12,5.4,12,12c0,0.5,0,1-0.1,1.5c-1,0.1-2.1,0.4-3,0.9   c0,0-0.1,0-0.1,0.1c-0.7,0.4-1.3,1-1.9,1.6c-0.5,0.6-0.4,1.6,0.2,2.1c0.6,0.5,1.6,0.4,2.1-0.2c0.3-0.4,0.6-0.7,1-0.9   c0,0,0.1,0,0.1-0.1c0.7-0.4,1.5-0.6,2.2-0.6c2.4,0,4.4,2,4.4,4.4c0,2.4-2,4.4-4.4,4.4h-3.2c-0.8,0-1.5,0.7-1.5,1.5s0.7,1.5,1.5,1.5   H65c4,0,7.3-3.3,7.3-7.3C72.3,52.3,70.2,49.6,67.2,48.7z M37.8,43.5c-1.4,0-2.7,0.3-3.9,0.9c-1.7-1.4-2.7-3.4-2.7-5.6   c0-4,3.3-7.3,7.3-7.3c2.2,0,4.3,1,5.7,2.8C41,36.4,38.6,39.7,37.8,43.5z"/><path fill="#000000" d="M26.3,28.5c0.3,0.3,0.7,0.4,1,0.4c0.4,0,0.7-0.1,1-0.4c0.6-0.6,0.6-1.5,0-2.1l-3-3c-0.6-0.6-1.5-0.6-2.1,0   c-0.6,0.6-0.6,1.5,0,2.1L26.3,28.5z"/><path fill="#000000" d="M24.6,38.7c0-0.8-0.7-1.5-1.5-1.5h-4.7c-0.8,0-1.5,0.7-1.5,1.5c0,0.8,0.7,1.5,1.5,1.5h4.7   C24,40.1,24.6,39.5,24.6,38.7z"/><path fill="#000000" d="M49.8,29.1c0.4,0,0.7-0.1,1-0.4l2.8-2.8c0.6-0.6,0.6-1.5,0-2.1c-0.6-0.6-1.5-0.6-2.1,0l-2.8,2.8   c-0.6,0.6-0.6,1.5,0,2.1C49,29,49.4,29.1,49.8,29.1z"/><path fill="#000000" d="M25.4,50l-2.8,2.8c-0.6,0.6-0.6,1.5,0,2.1c0.3,0.3,0.7,0.4,1,0.4c0.4,0,0.7-0.1,1-0.4l2.8-2.8   c0.6-0.6,0.6-1.5,0-2.1C26.9,49.5,25.9,49.5,25.4,50z"/><path fill="#000000" d="M38.6,24.5C38.6,24.5,38.6,24.5,38.6,24.5c0.8,0,1.5-0.7,1.5-1.5l0-3.8c0-0.8-0.6-1.5-1.5-1.5c0,0,0,0,0,0   c-0.8,0-1.5,0.7-1.5,1.5l0,3.8C37.1,23.8,37.8,24.5,38.6,24.5z"/><path fill="#000000" d="M57.6,65.9c0.2,0,0.5-0.1,0.7-0.3c0.4-0.4,0.4-0.9,0-1.3l-1.1-1.1l1.1-1.1c0.4-0.4,0.4-0.9,0-1.3   c-0.4-0.4-0.9-0.4-1.3,0l-1.1,1.1l-1.1-1.1c-0.4-0.4-0.9-0.4-1.3,0c-0.4,0.4-0.4,0.9,0,1.3l1.1,1.1l-1.1,1.1   c-0.4,0.4-0.4,0.9,0,1.3c0.2,0.2,0.4,0.3,0.7,0.3c0.2,0,0.5-0.1,0.7-0.3l1.1-1.1l1.1,1.1C57.1,65.8,57.4,65.9,57.6,65.9z"/><path fill="#000000" d="M62.2,67.4c-0.4-0.4-0.9-0.4-1.3,0l-1.1,1.1l-1.1-1.1c-0.4-0.4-0.9-0.4-1.3,0c-0.4,0.4-0.4,0.9,0,1.3   l1.1,1.1l-1.1,1.1c-0.4,0.4-0.4,0.9,0,1.3c0.2,0.2,0.4,0.3,0.7,0.3c0.2,0,0.5-0.1,0.7-0.3l1.1-1.1l1.1,1.1c0.2,0.2,0.4,0.3,0.7,0.3   c0.2,0,0.5-0.1,0.7-0.3c0.4-0.4,0.4-0.9,0-1.3L61,69.8l1.1-1.1C62.5,68.3,62.5,67.7,62.2,67.4z"/><path fill="#000000" d="M49.8,60.7c-0.4-0.7-1.3-1-2-0.6c-0.7,0.4-1,1.3-0.6,2l5.2,10.1c0.3,0.5,0.8,0.8,1.3,0.8   c0.2,0,0.5-0.1,0.7-0.2c0.7-0.4,1-1.3,0.6-2L49.8,60.7z"/></g></svg>