<svg width='200' height='200' fill="#000000" xmlns="http://www.w3.org/2000/svg" xmlns:xlink="http://www.w3.org/1999/xlink" version="1.1" x="0px" y="0px" viewBox="0 0 90 90" enable-background="new 0 0 90 90" xml:space="preserve"><g><path fill="#000000" d="M27.8,28.5c0.3,0.3,0.7,0.4,1,0.4c0.4,0,0.7-0.1,1-0.4c0.6-0.6,0.6-1.5,0-2.1l-3-3c-0.6-0.6-1.5-0.6-2.1,0   c-0.6,0.6-0.6,1.5,0,2.1L27.8,28.5z"/><path fill="#000000" d="M26.1,38.7c0-0.8-0.7-1.5-1.5-1.5h-4.7c-0.8,0-1.5,0.7-1.5,1.5s0.7,1.5,1.5,1.5h4.7   C25.4,40.1,26.1,39.5,26.1,38.7z"/><path fill="#000000" d="M51.2,29.1c0.4,0,0.7-0.1,1-0.4l2.8-2.8c0.6-0.6,0.6-1.5,0-2.1c-0.6-0.6-1.5-0.6-2.1,0l-2.8,2.8   c-0.6,0.6-0.6,1.5,0,2.1C50.5,29,50.8,29.1,51.2,29.1z"/><path fill="#000000" d="M26.8,50L24,52.8c-0.6,0.6-0.6,1.5,0,2.1c0.3,0.3,0.7,0.4,1,0.4c0.4,0,0.7-0.1,1-0.4l2.8-2.8   c0.6-0.6,0.6-1.5,0-2.1C28.3,49.5,27.4,49.5,26.8,50z"/><path fill="#000000" d="M40,24.5C40,24.5,40,24.5,40,24.5c0.8,0,1.5-0.7,1.5-1.5l0-3.8c0-0.8-0.6-1.5-1.5-1.5c0,0,0,0,0,0   c-0.8,0-1.5,0.7-1.5,1.5l0,3.8C38.6,23.8,39.2,24.5,40,24.5z"/><path fill="#000000" d="M68.7,48.7c0.1-0.6,0.1-1.2,0.1-1.9c0-8.3-6.7-15-15-15c-2,0-3.8,0.4-5.5,1.1c-1.9-2.7-5-4.3-8.3-4.3   c-5.6,0-10.2,4.6-10.2,10.2c0,2.8,1.1,5.4,3.1,7.3c-1.9,1.8-3.1,4.3-3.1,7.1c0,5.3,4.3,9.7,9.7,9.7h2.8c0.8,0,1.5-0.7,1.5-1.5   s-0.7-1.5-1.5-1.5h-2.8c-3.7,0-6.7-3-6.7-6.7c0-3.5,2.7-6.4,6.2-6.7c0,0.1,0,0.2,0,0.3c0,0.9,0.1,1.8,0.2,2.7   c0.1,0.8,0.9,1.3,1.7,1.2c0.8-0.1,1.3-0.9,1.2-1.7c-0.1-0.7-0.2-1.4-0.2-2.2c0-6.6,5.4-12,12-12s12,5.4,12,12c0,0.5,0,1-0.1,1.5   c-1,0.1-2.1,0.4-3,0.9c0,0-0.1,0-0.1,0.1c-0.7,0.4-1.3,1-1.9,1.6c-0.5,0.6-0.4,1.6,0.2,2.1c0.6,0.5,1.6,0.4,2.1-0.2   c0.3-0.4,0.6-0.7,1-0.9c0,0,0.1,0,0.1-0.1c0.7-0.4,1.5-0.6,2.2-0.6c2.4,0,4.4,2,4.4,4.4s-2,4.4-4.4,4.4h-4.4   c-0.8,0-1.5,0.7-1.5,1.5s0.7,1.5,1.5,1.5h4.4c4,0,7.3-3.3,7.3-7.3C73.7,52.3,71.6,49.6,68.7,48.7z M39.2,43.5   c-1.4,0-2.7,0.3-3.9,0.9c-1.7-1.4-2.7-3.4-2.7-5.6c0-4,3.3-7.3,7.3-7.3c2.3,0,4.3,1,5.7,2.8C42.4,36.4,40.1,39.7,39.2,43.5z"/><path fill="#000000" d="M54.8,51.5c-0.4-0.7-1.3-1-2-0.6c-0.7,0.4-1,1.3-0.6,2l3.6,7.1H50c-0.5,0-1,0.3-1.3,0.7   c-0.3,0.4-0.3,1-0.1,1.4l5.2,10.1c0.3,0.5,0.8,0.8,1.3,0.8c0.2,0,0.5-0.1,0.7-0.2c0.7-0.4,1-1.3,0.6-2l-4.1-8h5.8   c0.5,0,1-0.3,1.3-0.7c0.3-0.4,0.3-1,0.1-1.4L54.8,51.5z"/><path fill="#000000" d="M63,65c-0.4-0.7-1.3-1-2-0.6c-0.7,0.4-1,1.3-0.6,2l3,5.9c0.3,0.5,0.8,0.8,1.3,0.8c0.2,0,0.5-0.1,0.7-0.2   c0.7-0.4,1-1.3,0.6-2L63,65z"/><path fill="#000000" d="M46.3,65c-0.4-0.7-1.3-1-2-0.6c-0.7,0.4-1,1.3-0.6,2l3,5.9c0.3,0.5,0.8,0.8,1.3,0.8c0.2,0,0.5-0.1,0.7-0.2   c0.7-0.4,1-1.3,0.6-2L46.3,65z"/></g></svg>