<svg width='200' height='200' fill="#000000" xmlns="http://www.w3.org/2000/svg" xmlns:xlink="http://www.w3.org/1999/xlink" version="1.1" x="0px" y="0px" viewBox="0 0 90 90" enable-background="new 0 0 90 90" xml:space="preserve"><g><polygon fill="#000000" points="47.1,54.7 46.1,51.4 43.9,55.2 46.1,58.9 48.3,55.2  "/><polygon fill="#000000" points="53.4,54.7 52.4,51.4 50.2,55.2 52.4,58.9 54.6,55.2  "/><polygon fill="#000000" points="42.8,58.3 40.6,62 42.8,65.8 45,62 43.8,61.6  "/><polygon fill="#000000" points="49.1,58.3 46.9,62 49.1,65.8 51.3,62 50.1,61.6  "/><polygon fill="#000000" points="55.4,58.3 53.2,62 55.4,65.8 57.6,62 56.4,61.6  "/><path fill="#000000" d="M62.7,42.8c0.1-0.6,0.1-1.2,0.1-1.9c0-8.3-6.7-15-15-15c-7.1,0-13.1,5-14.6,11.7c-5.2,0.1-9.5,4.4-9.5,9.7   c0,5.3,4.3,9.7,9.7,9.7h2.8c0.8,0,1.5-0.7,1.5-1.5c0-0.1,0-0.2-0.1-0.4l2.2,3.7l2.2-3.7l-1.2-0.5l-1-3.2l-2.2,3.7   c-0.2-0.6-0.7-1-1.4-1h-2.8c-3.7,0-6.7-3-6.7-6.7c0-3.5,2.7-6.4,6.2-6.7c0,0.1,0,0.2,0,0.3c0,0.9,0.1,1.8,0.2,2.7   c0.1,0.8,0.9,1.3,1.7,1.2c0.8-0.1,1.3-0.9,1.2-1.7c-0.1-0.7-0.2-1.4-0.2-2.2c0-6.6,5.4-12,12-12s12,5.4,12,12c0,0.5,0,1-0.1,1.5   c-1,0.1-2.1,0.4-3,0.9c0,0-0.1,0-0.1,0.1c-0.7,0.4-1.3,1-1.9,1.6c-0.5,0.6-0.4,1.6,0.2,2.1c0.6,0.5,1.6,0.4,2.1-0.2   c0.3-0.4,0.6-0.7,1-0.9c0,0,0.1,0,0.1-0.1c0.7-0.4,1.5-0.6,2.2-0.6c2.4,0,4.4,2,4.4,4.4s-2,4.4-4.4,4.4h-3.2   c-0.8,0-1.5,0.7-1.5,1.5s0.7,1.5,1.5,1.5h3.2c4,0,7.3-3.3,7.3-7.3C67.7,46.5,65.6,43.8,62.7,42.8z"/></g></svg>