<svg width='200' height='200' fill="#000000" xmlns:dc="http://purl.org/dc/elements/1.1/" xmlns:cc="http://creativecommons.org/ns#" xmlns:rdf="http://www.w3.org/1999/02/22-rdf-syntax-ns#" xmlns:svg="http://www.w3.org/2000/svg" xmlns="http://www.w3.org/2000/svg" xmlns:sodipodi="http://sodipodi.sourceforge.net/DTD/sodipodi-0.dtd" xmlns:inkscape="http://www.inkscape.org/namespaces/inkscape" viewBox="0 0 48 48.000001" version="1.1" x="0px" y="0px"><g transform="translate(0,-1004.3622)"><path style="color:#000000;font-style:normal;font-variant:normal;font-weight:normal;font-stretch:normal;font-size:medium;line-height:normal;font-family:sans-serif;text-indent:0;text-align:start;text-decoration:none;text-decoration-line:none;text-decoration-style:solid;text-decoration-color:#000000;letter-spacing:normal;word-spacing:normal;text-transform:none;direction:ltr;block-progression:tb;writing-mode:lr-tb;baseline-shift:baseline;text-anchor:start;white-space:normal;clip-rule:nonzero;display:inline;overflow:visible;visibility:visible;opacity:1;isolation:auto;mix-blend-mode:normal;color-interpolation:sRGB;color-interpolation-filters:linearRGB;solid-color:#000000;solid-opacity:1;fill:#000000;fill-opacity:1;fill-rule:nonzero;stroke:none;stroke-width:2;stroke-linecap:round;stroke-linejoin:round;stroke-miterlimit:4;stroke-dasharray:none;stroke-dashoffset:0;stroke-opacity:1;color-rendering:auto;image-rendering:auto;shape-rendering:auto;text-rendering:auto;enable-background:accumulate" d="m 30.466967,1015.3628 c -4.696271,-0.046 -9.129841,2.7415 -11.678041,6.9352 -3.64735,-1.225 -7.773572,-0.8863 -10.6272312,1.923 -2.9899629,2.944 -3.9628144,7.3892 -2.4766274,11.3173 1.4861474,3.9282 5.1563906,6.6091 9.3420426,6.8236 0.01692,4e-4 0.03386,4e-4 0.05078,0 l 15.172272,0 c 0.147268,-3e-4 0.292661,-0.033 0.425792,-0.096 6.123696,-0.4034 11.204553,-5.0852 12.162429,-11.3583 0.984203,-6.446 -2.619559,-12.7252 -8.605695,-14.9071 l -0.002,0 c -1.342237,-0.4572 -2.533144,-0.6381 -3.763722,-0.6375 z m 0.236333,1.9661 0.0098,0 c 0.949624,0.036 1.900168,0.2134 2.834059,0.5537 5.068709,1.8475 8.159343,7.1895 7.314644,12.7218 -0.840621,5.5053 -5.316088,9.5686 -10.648716,9.7464 -5.020416,0.021 -10.06524,0.01 -15.094145,0.01 -3.392878,-0.1779 -6.356901,-2.3433 -7.5626989,-5.5305 -1.206978,-3.1901 -0.4199953,-6.7865 2.0078651,-9.1771 2.3747878,-2.3378 5.9606328,-2.5973 9.1975068,-1.3009 0.09012,0.036 0.190064,0.052 0.275435,0.066 0.102242,0.016 0.214402,-0.01 0.304694,-0.019 0.03415,0 0.06555,-0.015 0.09766,-0.025 0.06364,-0.02 0.125151,-0.046 0.183599,-0.078 0.265282,-0.1269 0.432968,-0.3269 0.560561,-0.5495 2.25582,-3.9355 6.388682,-6.5749 10.519807,-6.4225 z"/><path style="color:#000000;font-style:normal;font-variant:normal;font-weight:normal;font-stretch:normal;font-size:medium;line-height:normal;font-family:sans-serif;text-indent:0;text-align:start;text-decoration:none;text-decoration-line:none;text-decoration-style:solid;text-decoration-color:#000000;letter-spacing:normal;word-spacing:normal;text-transform:none;direction:ltr;block-progression:tb;writing-mode:lr-tb;baseline-shift:baseline;text-anchor:start;white-space:normal;clip-rule:nonzero;display:inline;overflow:visible;visibility:visible;opacity:1;isolation:auto;mix-blend-mode:normal;color-interpolation:sRGB;color-interpolation-filters:linearRGB;solid-color:#000000;solid-opacity:1;fill:#000000;fill-opacity:1;fill-rule:evenodd;stroke:none;stroke-width:2;stroke-linecap:round;stroke-linejoin:round;stroke-miterlimit:4;stroke-dasharray:none;stroke-dashoffset:0;stroke-opacity:1;color-rendering:auto;image-rendering:auto;shape-rendering:auto;text-rendering:auto;enable-background:accumulate" d="m 29.013803,1021.3276 a 1.0001262,1.0017339 0 1 0 0,2.0033 l 17.973127,0 a 1.0001262,1.0017339 0 1 0 0,-2.0033 l -17.973127,0 z"/><path style="color:#000000;font-style:normal;font-variant:normal;font-weight:normal;font-stretch:normal;font-size:medium;line-height:normal;font-family:sans-serif;text-indent:0;text-align:start;text-decoration:none;text-decoration-line:none;text-decoration-style:solid;text-decoration-color:#000000;letter-spacing:normal;word-spacing:normal;text-transform:none;direction:ltr;block-progression:tb;writing-mode:lr-tb;baseline-shift:baseline;text-anchor:start;white-space:normal;clip-rule:nonzero;display:inline;overflow:visible;visibility:visible;opacity:1;isolation:auto;mix-blend-mode:normal;color-interpolation:sRGB;color-interpolation-filters:linearRGB;solid-color:#000000;solid-opacity:1;fill:#000000;fill-opacity:1;fill-rule:evenodd;stroke:none;stroke-width:2;stroke-linecap:round;stroke-linejoin:round;stroke-miterlimit:4;stroke-dasharray:none;stroke-dashoffset:0;stroke-opacity:1;color-rendering:auto;image-rendering:auto;shape-rendering:auto;text-rendering:auto;enable-background:accumulate" d="m 1.0130701,1028.339 a 1.0001262,1.0017339 0 1 0 0,2.0033 l 17.9731269,0 a 1.0001262,1.0017339 0 1 0 0,-2.0033 l -17.9731269,0 z"/><path style="color:#000000;font-style:normal;font-variant:normal;font-weight:normal;font-stretch:normal;font-size:medium;line-height:normal;font-family:sans-serif;text-indent:0;text-align:start;text-decoration:none;text-decoration-line:none;text-decoration-style:solid;text-decoration-color:#000000;letter-spacing:normal;word-spacing:normal;text-transform:none;direction:ltr;block-progression:tb;writing-mode:lr-tb;baseline-shift:baseline;text-anchor:start;white-space:normal;clip-rule:nonzero;display:inline;overflow:visible;visibility:visible;opacity:1;isolation:auto;mix-blend-mode:normal;color-interpolation:sRGB;color-interpolation-filters:linearRGB;solid-color:#000000;solid-opacity:1;fill:#000000;fill-opacity:1;fill-rule:evenodd;stroke:none;stroke-width:2;stroke-linecap:round;stroke-linejoin:round;stroke-miterlimit:4;stroke-dasharray:none;stroke-dashoffset:0;stroke-opacity:1;color-rendering:auto;image-rendering:auto;shape-rendering:auto;text-rendering:auto;enable-background:accumulate" d="m 25.013699,1035.3505 a 1.0001262,1.0017339 0 1 0 0,2.0032 l 17.973126,0 a 1.0001262,1.0017339 0 1 0 0,-2.0032 l -17.973126,0 z"/></g></svg>