<svg width='200' height='200' fill="#000000" xmlns:dc="http://purl.org/dc/elements/1.1/" xmlns:cc="http://creativecommons.org/ns#" xmlns:rdf="http://www.w3.org/1999/02/22-rdf-syntax-ns#" xmlns:svg="http://www.w3.org/2000/svg" xmlns="http://www.w3.org/2000/svg" xmlns:sodipodi="http://sodipodi.sourceforge.net/DTD/sodipodi-0.dtd" xmlns:inkscape="http://www.inkscape.org/namespaces/inkscape" viewBox="0 0 48 48.000001" version="1.1" x="0px" y="0px"><g transform="translate(0,-1004.3622)"><path style="color:#000000;font-style:normal;font-variant:normal;font-weight:normal;font-stretch:normal;font-size:medium;line-height:normal;font-family:sans-serif;text-indent:0;text-align:start;text-decoration:none;text-decoration-line:none;text-decoration-style:solid;text-decoration-color:#000000;letter-spacing:normal;word-spacing:normal;text-transform:none;direction:ltr;block-progression:tb;writing-mode:lr-tb;baseline-shift:baseline;text-anchor:start;white-space:normal;clip-rule:nonzero;display:inline;overflow:visible;visibility:visible;opacity:1;isolation:auto;mix-blend-mode:normal;color-interpolation:sRGB;color-interpolation-filters:linearRGB;solid-color:#000000;solid-opacity:1;fill:#000000;fill-opacity:1;fill-rule:nonzero;stroke:none;stroke-width:2;stroke-linecap:round;stroke-linejoin:round;stroke-miterlimit:4;stroke-dasharray:none;stroke-dashoffset:0;stroke-opacity:1;color-rendering:auto;image-rendering:auto;shape-rendering:auto;text-rendering:auto;enable-background:accumulate" d="m 30.027011,1010.3664 c -0.106986,0 -0.213816,0.011 -0.316413,0.041 -4.173245,-0.025 -8.096707,2.4066 -10.38306,6.0721 -3.254631,-1.0576 -6.926494,-0.7489 -9.4806936,1.7363 -2.6902925,2.6181 -3.5674331,6.5785 -2.2285684,10.076 1.3388302,3.4974 4.63817,5.8795 8.398637,6.0701 0.01692,4e-4 0.03386,4e-4 0.05078,0 0,0 5.312876,0 13.178055,0 7.267804,0 10.764204,-5.5003 11.609643,-10.1699 0.883971,-5.7221 -2.357735,-11.2961 -7.726746,-13.2302 -1.019789,-0.3671 -2.064585,-0.5618 -3.101636,-0.5996 z m -0.07227,2.002 0.0098,0 c 0.833425,0.031 1.666914,0.1853 2.486388,0.4804 4.457562,1.6058 7.169613,6.2414 6.427886,11.0427 -0.738144,4.7778 -4.670803,8.3081 -9.36155,8.4626 -4.45848,0.021 -8.941534,0.01 -13.40852,0.01 -2.975544,-0.1547 -5.569315,-2.0318 -6.6232043,-4.7849 -1.0550703,-2.7561 -0.3696695,-5.859 1.7559023,-7.9276 2.071705,-2.0157 4.90837,-2.5463 8.060737,-1.1211 0.667563,0.3018 1.001411,0.089 1.400425,-0.5817 2.0212,-3.3976 5.624183,-5.7181 9.252172,-5.5857 z"/><path style="color:#000000;font-style:normal;font-variant:normal;font-weight:normal;font-stretch:normal;font-size:medium;line-height:normal;font-family:sans-serif;text-indent:0;text-align:start;text-decoration:none;text-decoration-line:none;text-decoration-style:solid;text-decoration-color:#000000;letter-spacing:normal;word-spacing:normal;text-transform:none;direction:ltr;block-progression:tb;writing-mode:lr-tb;baseline-shift:baseline;text-anchor:start;white-space:normal;clip-rule:nonzero;display:inline;overflow:visible;visibility:visible;opacity:1;isolation:auto;mix-blend-mode:normal;color-interpolation:sRGB;color-interpolation-filters:linearRGB;solid-color:#000000;solid-opacity:1;fill:#000000;fill-opacity:1;fill-rule:evenodd;stroke:none;stroke-width:1.99999988;stroke-linecap:round;stroke-linejoin:round;stroke-miterlimit:4;stroke-dasharray:none;stroke-dashoffset:0;stroke-opacity:1;color-rendering:auto;image-rendering:auto;shape-rendering:auto;text-rendering:auto;enable-background:accumulate" d="m 7.9846921,1037.3623 a 1.0004222,1.0005651 0 0 0 -0.5958951,1.7919 c 0,0 0.670154,0.5314 1.5415122,1.065 0.8713583,0.5334 1.8883628,1.143 3.0791158,1.143 1.190756,0 1.994853,-0.7134 2.62194,-1.2115 0.627086,-0.498 1.077998,-0.7796 1.377397,-0.7796 0.299398,0 0.75031,0.2816 1.377395,0.7796 0.627088,0.4981 1.429232,1.2115 2.619986,1.2115 1.190754,0 1.994852,-0.7134 2.621939,-1.2115 0.627085,-0.498 1.077997,-0.7796 1.377396,-0.7796 0.299399,0 0.750312,0.2816 1.377397,0.7796 0.627087,0.4981 1.431185,1.2115 2.621939,1.2115 1.190754,0 1.992898,-0.7134 2.619986,-1.2115 0.627085,-0.498 1.077998,-0.7796 1.377395,-0.7796 0.299398,0 0.750311,0.2816 1.377397,0.7796 0.627086,0.4981 1.431184,1.2115 2.62194,1.2115 1.190753,0 2.207757,-0.6096 3.079116,-1.143 0.871357,-0.5336 1.541511,-1.065 1.541511,-1.065 a 1.000537,1.0006799 0 1 0 -1.244541,-1.5672 c 0,0 -0.584923,0.4638 -1.340275,0.9263 -0.755354,0.4624 -1.736414,0.848 -2.035811,0.848 -0.2994,0 -0.750312,-0.2797 -1.377399,-0.7777 -0.627086,-0.498 -1.431184,-1.2135 -2.621938,-1.2135 -1.190754,0 -1.994851,0.7155 -2.621938,1.2135 -0.627087,0.498 -1.076045,0.7777 -1.375443,0.7777 -0.299398,0 -0.75031,-0.2797 -1.377397,-0.7777 -0.627087,-0.498 -1.431185,-1.2135 -2.621939,-1.2135 -1.190753,0 -1.994851,0.7155 -2.621938,1.2135 -0.627086,0.498 -1.077998,0.7777 -1.377397,0.7777 -0.299399,0 -0.748356,-0.2797 -1.375443,-0.7777 -0.627087,-0.498 -1.431185,-1.2135 -2.621938,-1.2135 -1.190754,0 -1.994852,0.7155 -2.621939,1.2135 -0.627087,0.498 -1.077998,0.7777 -1.377398,0.7777 -0.299397,0 -1.280458,-0.3856 -2.035811,-0.848 -0.7553528,-0.4625 -1.3402755,-0.9263 -1.3402755,-0.9263 a 1.0004222,1.0005651 0 0 0 -0.6486464,-0.2247 z"/><path style="color:#000000;font-style:normal;font-variant:normal;font-weight:normal;font-stretch:normal;font-size:medium;line-height:normal;font-family:sans-serif;text-indent:0;text-align:start;text-decoration:none;text-decoration-line:none;text-decoration-style:solid;text-decoration-color:#000000;letter-spacing:normal;word-spacing:normal;text-transform:none;direction:ltr;block-progression:tb;writing-mode:lr-tb;baseline-shift:baseline;text-anchor:start;white-space:normal;clip-rule:nonzero;display:inline;overflow:visible;visibility:visible;opacity:1;isolation:auto;mix-blend-mode:normal;color-interpolation:sRGB;color-interpolation-filters:linearRGB;solid-color:#000000;solid-opacity:1;fill:#000000;fill-opacity:1;fill-rule:evenodd;stroke:none;stroke-width:1.99999988;stroke-linecap:round;stroke-linejoin:round;stroke-miterlimit:4;stroke-dasharray:none;stroke-dashoffset:0;stroke-opacity:1;color-rendering:auto;image-rendering:auto;shape-rendering:auto;text-rendering:auto;enable-background:accumulate" d="m 7.9846921,1042.3623 a 1.0004222,1.0005651 0 0 0 -0.5958951,1.7919 c 0,0 0.6701542,0.5314 1.5415122,1.065 0.8713581,0.5334 1.8883628,1.143 3.0791158,1.143 1.190756,0 1.994853,-0.7134 2.62194,-1.2115 0.627086,-0.498 1.077998,-0.7796 1.377397,-0.7796 0.299398,0 0.75031,0.2816 1.377395,0.7796 0.627088,0.4981 1.429232,1.2115 2.619986,1.2115 1.190754,0 1.994852,-0.7134 2.621939,-1.2115 0.627085,-0.498 1.077997,-0.7796 1.377396,-0.7796 0.299399,0 0.750312,0.2816 1.377397,0.7796 0.627087,0.4981 1.431185,1.2115 2.621939,1.2115 1.190754,0 1.992898,-0.7134 2.619986,-1.2115 0.627085,-0.498 1.077998,-0.7796 1.377395,-0.7796 0.299398,0 0.750311,0.2816 1.377397,0.7796 0.627086,0.4981 1.431184,1.2115 2.62194,1.2115 1.190753,0 2.207757,-0.6096 3.079116,-1.143 0.871357,-0.5336 1.541511,-1.065 1.541511,-1.065 a 1.000537,1.0006799 0 1 0 -1.244541,-1.5672 c 0,0 -0.584923,0.4638 -1.340275,0.9263 -0.755354,0.4624 -1.736414,0.848 -2.035811,0.848 -0.2994,0 -0.750312,-0.2797 -1.377399,-0.7777 -0.627086,-0.498 -1.431184,-1.2135 -2.621938,-1.2135 -1.190754,0 -1.994851,0.7155 -2.621938,1.2135 -0.627087,0.498 -1.076045,0.7777 -1.375443,0.7777 -0.299398,0 -0.75031,-0.2797 -1.377397,-0.7777 -0.627087,-0.498 -1.431185,-1.2135 -2.621939,-1.2135 -1.190753,0 -1.994851,0.7155 -2.621938,1.2135 -0.627086,0.498 -1.077998,0.7777 -1.377397,0.7777 -0.299399,0 -0.748356,-0.2797 -1.375443,-0.7777 -0.627087,-0.498 -1.431185,-1.2135 -2.621938,-1.2135 -1.190754,0 -1.994852,0.7155 -2.621939,1.2135 -0.627087,0.498 -1.077998,0.7777 -1.377398,0.7777 -0.299397,0 -1.280458,-0.3856 -2.035811,-0.848 -0.7553525,-0.4625 -1.3402755,-0.9263 -1.3402755,-0.9263 a 1.0004222,1.0005651 0 0 0 -0.6486464,-0.2247 z"/></g></svg>