<svg width='200' height='200' fill="#000000" xmlns:dc="http://purl.org/dc/elements/1.1/" xmlns:cc="http://creativecommons.org/ns#" xmlns:rdf="http://www.w3.org/1999/02/22-rdf-syntax-ns#" xmlns:svg="http://www.w3.org/2000/svg" xmlns="http://www.w3.org/2000/svg" xmlns:sodipodi="http://sodipodi.sourceforge.net/DTD/sodipodi-0.dtd" xmlns:inkscape="http://www.inkscape.org/namespaces/inkscape" viewBox="0 0 48 48.000001" version="1.1" x="0px" y="0px"><g transform="translate(0,-1004.3622)"><path style="color:#000000;font-style:normal;font-variant:normal;font-weight:normal;font-stretch:normal;font-size:medium;line-height:normal;font-family:sans-serif;text-indent:0;text-align:start;text-decoration:none;text-decoration-line:none;text-decoration-style:solid;text-decoration-color:#000000;letter-spacing:normal;word-spacing:normal;text-transform:none;direction:ltr;block-progression:tb;writing-mode:lr-tb;baseline-shift:baseline;text-anchor:start;white-space:normal;clip-rule:nonzero;display:inline;overflow:visible;visibility:visible;opacity:1;isolation:auto;mix-blend-mode:normal;color-interpolation:sRGB;color-interpolation-filters:linearRGB;solid-color:#000000;solid-opacity:1;fill:#000000;fill-opacity:1;fill-rule:evenodd;stroke:none;stroke-width:2;stroke-linecap:round;stroke-linejoin:round;stroke-miterlimit:4;stroke-dasharray:none;stroke-dashoffset:0;stroke-opacity:1;color-rendering:auto;image-rendering:auto;shape-rendering:auto;text-rendering:auto;enable-background:accumulate" d="m 13.971586,1039.3631 a 0.99857909,0.99902485 0 0 0 -0.686454,0.3006 l -1.977457,1.9783 a 0.99857909,0.99902485 0 1 0 1.411913,1.4125 l 1.977457,-1.9764 a 0.99857909,0.99902485 0 0 0 -0.725459,-1.715 z"/><path style="color:#000000;font-style:normal;font-variant:normal;font-weight:normal;font-stretch:normal;font-size:medium;line-height:normal;font-family:sans-serif;text-indent:0;text-align:start;text-decoration:none;text-decoration-line:none;text-decoration-style:solid;text-decoration-color:#000000;letter-spacing:normal;word-spacing:normal;text-transform:none;direction:ltr;block-progression:tb;writing-mode:lr-tb;baseline-shift:baseline;text-anchor:start;white-space:normal;clip-rule:nonzero;display:inline;overflow:visible;visibility:visible;opacity:1;isolation:auto;mix-blend-mode:normal;color-interpolation:sRGB;color-interpolation-filters:linearRGB;solid-color:#000000;solid-opacity:1;fill:#000000;fill-opacity:1;fill-rule:evenodd;stroke:none;stroke-width:2;stroke-linecap:round;stroke-linejoin:round;stroke-miterlimit:4;stroke-dasharray:none;stroke-dashoffset:0;stroke-opacity:1;color-rendering:auto;image-rendering:auto;shape-rendering:auto;text-rendering:auto;enable-background:accumulate" d="m 21.971586,1039.3631 a 0.99857909,0.99902485 0 0 0 -0.686454,0.3006 l -1.977457,1.9783 a 0.99857909,0.99902485 0 1 0 1.411913,1.4125 l 1.977457,-1.9764 a 0.99857909,0.99902485 0 0 0 -0.725459,-1.715 z"/><path style="color:#000000;font-style:normal;font-variant:normal;font-weight:normal;font-stretch:normal;font-size:medium;line-height:normal;font-family:sans-serif;text-indent:0;text-align:start;text-decoration:none;text-decoration-line:none;text-decoration-style:solid;text-decoration-color:#000000;letter-spacing:normal;word-spacing:normal;text-transform:none;direction:ltr;block-progression:tb;writing-mode:lr-tb;baseline-shift:baseline;text-anchor:start;white-space:normal;clip-rule:nonzero;display:inline;overflow:visible;visibility:visible;opacity:1;isolation:auto;mix-blend-mode:normal;color-interpolation:sRGB;color-interpolation-filters:linearRGB;solid-color:#000000;solid-opacity:1;fill:#000000;fill-opacity:1;fill-rule:evenodd;stroke:none;stroke-width:1.99999988;stroke-linecap:round;stroke-linejoin:round;stroke-miterlimit:4;stroke-dasharray:none;stroke-dashoffset:0;stroke-opacity:1;color-rendering:auto;image-rendering:auto;shape-rendering:auto;text-rendering:auto;enable-background:accumulate" d="m 5.9721625,1039.3626 a 0.99868899,0.99910998 0 0 0 -0.6865302,0.3005 l -1.9776746,1.9785 a 0.99868899,0.99910998 0 1 0 1.4120674,1.4126 l 1.9776748,-1.9766 a 0.99868899,0.99910998 0 0 0 -0.7255374,-1.715 z"/><path style="color:#000000;font-style:normal;font-variant:normal;font-weight:normal;font-stretch:normal;font-size:medium;line-height:normal;font-family:sans-serif;text-indent:0;text-align:start;text-decoration:none;text-decoration-line:none;text-decoration-style:solid;text-decoration-color:#000000;letter-spacing:normal;word-spacing:normal;text-transform:none;direction:ltr;block-progression:tb;writing-mode:lr-tb;baseline-shift:baseline;text-anchor:start;white-space:normal;clip-rule:nonzero;display:inline;overflow:visible;visibility:visible;opacity:1;isolation:auto;mix-blend-mode:normal;color-interpolation:sRGB;color-interpolation-filters:linearRGB;solid-color:#000000;solid-opacity:1;fill:#000000;fill-opacity:1;fill-rule:nonzero;stroke:none;stroke-width:2;stroke-linecap:round;stroke-linejoin:round;stroke-miterlimit:4;stroke-dasharray:none;stroke-dashoffset:0;stroke-opacity:1;color-rendering:auto;image-rendering:auto;shape-rendering:auto;text-rendering:auto;enable-background:accumulate" d="m 35.861328,1004.3622 a 1.0001,1.0001772 0 0 0 -0.128906,0.012 l 0.0059,0 c -0.0048,7e-4 -0.0088,0 -0.01367,0 a 1.0001,1.0001772 0 0 0 -0.316406,0.1074 c -4.252166,0.7832 -7.403274,4.4667 -7.408203,8.8347 a 1.0001,1.0001772 0 0 0 0.002,0.055 c 0.0014,0.026 0.0023,0.051 0.0039,0.076 a 1.0001,1.0001772 0 0 0 0.570313,0.8419 c 2.778341,1.3188 4.744819,3.9051 5.277344,6.9419 a 1.0001,1.0001772 0 0 0 0.710937,0.7891 c 0.797188,0.2268 1.622525,0.3411 2.451172,0.3418 a 1.0001,1.0001772 0 0 0 0.002,0 c 3.258937,0 6.264291,-1.7738 7.855469,-4.6253 a 1.0001,1.0001772 0 0 0 -1.025391,-1.4766 c -0.32423,0.05 -0.650559,0.076 -0.978515,0.08 -6.67e-4,0 -0.0013,0 -0.002,0 -3.883163,-6e-4 -7.013516,-3.1407 -7.013672,-7.0455 0.0014,-1.2068 0.311792,-2.3939 0.90039,-3.4456 a 1.0001,1.0001772 0 0 0 -0.892578,-1.4864 z m -1.699219,2.6115 c -0.200347,0.7544 -0.307896,1.5336 -0.308593,2.3205 1.83e-4,4.6019 3.502588,8.2731 7.945312,8.8288 -1.294868,1.2973 -2.901048,2.236 -4.78125,2.2384 -0.477219,-4e-4 -0.945676,-0.1 -1.412109,-0.1971 -0.757128,-3.1002 -2.746621,-5.7195 -5.527344,-7.276 0.168348,-2.6418 1.757754,-4.8621 4.083984,-5.9146 z"/><path style="color:#000000;font-style:normal;font-variant:normal;font-weight:normal;font-stretch:normal;font-size:medium;line-height:normal;font-family:sans-serif;text-indent:0;text-align:start;text-decoration:none;text-decoration-line:none;text-decoration-style:solid;text-decoration-color:#000000;letter-spacing:normal;word-spacing:normal;text-transform:none;direction:ltr;block-progression:tb;writing-mode:lr-tb;baseline-shift:baseline;text-anchor:start;white-space:normal;clip-rule:nonzero;display:inline;overflow:visible;visibility:visible;opacity:1;isolation:auto;mix-blend-mode:normal;color-interpolation:sRGB;color-interpolation-filters:linearRGB;solid-color:#000000;solid-opacity:1;fill:#000000;fill-opacity:1;fill-rule:nonzero;stroke:none;stroke-width:2;stroke-linecap:round;stroke-linejoin:round;stroke-miterlimit:4;stroke-dasharray:none;stroke-dashoffset:0;stroke-opacity:1;color-rendering:auto;image-rendering:auto;shape-rendering:auto;text-rendering:auto;enable-background:accumulate" d="m 25.027496,1011.3632 a 1.0000787,1.0002169 0 0 0 -0.316399,0.041 c -4.173077,-0.025 -8.096299,2.4068 -10.382592,6.073 -3.254567,-1.0579 -6.9261589,-0.749 -9.4802668,1.7365 -2.6902302,2.6184 -3.5692385,6.5794 -2.2304212,10.0773 1.3387992,3.4981 4.6398288,5.8807 8.400212,6.0711 a 1.0000787,1.0002169 0 0 0 0.05078,0 l 13.486041,0 a 1.0000787,1.0002169 0 0 0 0.425772,-0.096 c 5.472185,-0.3768 10.016707,-4.5166 10.874769,-10.0715 0.883954,-5.7228 -2.357539,-11.2978 -7.726399,-13.2321 -1.019693,-0.3671 -2.064405,-0.5618 -3.101496,-0.5996 z m -0.07227,2.0022 a 1.0000787,1.0002169 0 0 0 0.0098,0 c 0.833336,0.031 1.66677,0.1854 2.486275,0.4805 4.457431,1.6059 7.169308,6.2423 6.427597,11.0443 -0.738113,4.7784 -4.668579,8.3092 -9.359176,8.4638 a 1.0000787,1.0002169 0 0 0 -0.09961,0.01 l -13.310263,0 c -2.9754302,-0.1547 -5.569038,-2.0321 -6.6229062,-4.7856 -1.0550316,-2.7565 -0.3696652,-5.86 1.755822,-7.9288 2.0716749,-2.016 5.2141162,-2.2469 8.0603752,-1.1211 0.0039,0 0.0078,0 0.01172,0 a 1.0000787,1.0002169 0 0 0 0.08203,0.029 1.0000787,1.0002169 0 0 0 0.06641,0.016 1.0000787,1.0002169 0 0 0 0.130857,0.022 1.0000787,1.0002169 0 0 0 0.08984,0 1.0000787,1.0002169 0 0 0 0.09961,0 1.0000787,1.0002169 0 0 0 0.289056,-0.074 1.0000787,1.0002169 0 0 0 0.175778,-0.096 1.0000787,1.0002169 0 0 0 0.07813,-0.06 1.0000787,1.0002169 0 0 0 0.03906,-0.035 l 0.03516,-0.033 0.113279,-0.1054 a 1.0000787,1.0002169 0 0 0 0.189449,-0.2403 c 1.933971,-3.4486 5.623801,-5.7189 9.251756,-5.5866 z"/><path d="m 29.972162,1039.3626 a 0.99868899,0.99910998 0 0 0 -0.68653,0.3005 l -1.977674,1.9785 a 0.99868899,0.99910998 0 1 0 1.412067,1.4126 l 1.977675,-1.9766 a 0.99868899,0.99910998 0 0 0 -0.725538,-1.715 z" style="color:#000000;font-style:normal;font-variant:normal;font-weight:normal;font-stretch:normal;font-size:medium;line-height:normal;font-family:sans-serif;text-indent:0;text-align:start;text-decoration:none;text-decoration-line:none;text-decoration-style:solid;text-decoration-color:#000000;letter-spacing:normal;word-spacing:normal;text-transform:none;direction:ltr;block-progression:tb;writing-mode:lr-tb;baseline-shift:baseline;text-anchor:start;white-space:normal;clip-rule:nonzero;display:inline;overflow:visible;visibility:visible;opacity:1;isolation:auto;mix-blend-mode:normal;color-interpolation:sRGB;color-interpolation-filters:linearRGB;solid-color:#000000;solid-opacity:1;fill:#000000;fill-opacity:1;fill-rule:evenodd;stroke:none;stroke-width:1.99999988;stroke-linecap:round;stroke-linejoin:round;stroke-miterlimit:4;stroke-dasharray:none;stroke-dashoffset:0;stroke-opacity:1;color-rendering:auto;image-rendering:auto;shape-rendering:auto;text-rendering:auto;enable-background:accumulate"/><path d="m 9.9721625,1046.3625 a 0.99868899,0.99910998 0 0 0 -0.6865302,0.3005 l -1.9776746,1.9785 a 0.99868899,0.99910998 0 1 0 1.4120674,1.4126 l 1.9776749,-1.9766 a 0.99868899,0.99910998 0 0 0 -0.7255375,-1.715 z" style="color:#000000;font-style:normal;font-variant:normal;font-weight:normal;font-stretch:normal;font-size:medium;line-height:normal;font-family:sans-serif;text-indent:0;text-align:start;text-decoration:none;text-decoration-line:none;text-decoration-style:solid;text-decoration-color:#000000;letter-spacing:normal;word-spacing:normal;text-transform:none;direction:ltr;block-progression:tb;writing-mode:lr-tb;baseline-shift:baseline;text-anchor:start;white-space:normal;clip-rule:nonzero;display:inline;overflow:visible;visibility:visible;opacity:1;isolation:auto;mix-blend-mode:normal;color-interpolation:sRGB;color-interpolation-filters:linearRGB;solid-color:#000000;solid-opacity:1;fill:#000000;fill-opacity:1;fill-rule:evenodd;stroke:none;stroke-width:1.99999988;stroke-linecap:round;stroke-linejoin:round;stroke-miterlimit:4;stroke-dasharray:none;stroke-dashoffset:0;stroke-opacity:1;color-rendering:auto;image-rendering:auto;shape-rendering:auto;text-rendering:auto;enable-background:accumulate"/><path style="color:#000000;font-style:normal;font-variant:normal;font-weight:normal;font-stretch:normal;font-size:medium;line-height:normal;font-family:sans-serif;text-indent:0;text-align:start;text-decoration:none;text-decoration-line:none;text-decoration-style:solid;text-decoration-color:#000000;letter-spacing:normal;word-spacing:normal;text-transform:none;direction:ltr;block-progression:tb;writing-mode:lr-tb;baseline-shift:baseline;text-anchor:start;white-space:normal;clip-rule:nonzero;display:inline;overflow:visible;visibility:visible;opacity:1;isolation:auto;mix-blend-mode:normal;color-interpolation:sRGB;color-interpolation-filters:linearRGB;solid-color:#000000;solid-opacity:1;fill:#000000;fill-opacity:1;fill-rule:evenodd;stroke:none;stroke-width:1.99999988;stroke-linecap:round;stroke-linejoin:round;stroke-miterlimit:4;stroke-dasharray:none;stroke-dashoffset:0;stroke-opacity:1;color-rendering:auto;image-rendering:auto;shape-rendering:auto;text-rendering:auto;enable-background:accumulate" d="m 17.972162,1046.3625 a 0.99868899,0.99910998 0 0 0 -0.68653,0.3005 l -1.977674,1.9785 a 0.99868899,0.99910998 0 1 0 1.412067,1.4126 l 1.977675,-1.9766 a 0.99868899,0.99910998 0 0 0 -0.725538,-1.715 z"/><path d="m 25.972166,1046.3625 a 0.99868899,0.99910998 0 0 0 -0.68653,0.3005 l -1.977674,1.9785 a 0.99868899,0.99910998 0 1 0 1.412067,1.4126 l 1.977675,-1.9766 a 0.99868899,0.99910998 0 0 0 -0.725538,-1.715 z" style="color:#000000;font-style:normal;font-variant:normal;font-weight:normal;font-stretch:normal;font-size:medium;line-height:normal;font-family:sans-serif;text-indent:0;text-align:start;text-decoration:none;text-decoration-line:none;text-decoration-style:solid;text-decoration-color:#000000;letter-spacing:normal;word-spacing:normal;text-transform:none;direction:ltr;block-progression:tb;writing-mode:lr-tb;baseline-shift:baseline;text-anchor:start;white-space:normal;clip-rule:nonzero;display:inline;overflow:visible;visibility:visible;opacity:1;isolation:auto;mix-blend-mode:normal;color-interpolation:sRGB;color-interpolation-filters:linearRGB;solid-color:#000000;solid-opacity:1;fill:#000000;fill-opacity:1;fill-rule:evenodd;stroke:none;stroke-width:1.99999988;stroke-linecap:round;stroke-linejoin:round;stroke-miterlimit:4;stroke-dasharray:none;stroke-dashoffset:0;stroke-opacity:1;color-rendering:auto;image-rendering:auto;shape-rendering:auto;text-rendering:auto;enable-background:accumulate"/></g></svg>