<svg width='200' height='200' fill="#000000" xmlns:dc="http://purl.org/dc/elements/1.1/" xmlns:cc="http://creativecommons.org/ns#" xmlns:rdf="http://www.w3.org/1999/02/22-rdf-syntax-ns#" xmlns:svg="http://www.w3.org/2000/svg" xmlns="http://www.w3.org/2000/svg" xmlns:sodipodi="http://sodipodi.sourceforge.net/DTD/sodipodi-0.dtd" xmlns:inkscape="http://www.inkscape.org/namespaces/inkscape" viewBox="0 0 48 48.000001" version="1.1" x="0px" y="0px"><g transform="translate(0,-1004.3622)"><path style="color:#000000;font-style:normal;font-variant:normal;font-weight:normal;font-stretch:normal;font-size:medium;line-height:normal;font-family:sans-serif;text-indent:0;text-align:start;text-decoration:none;text-decoration-line:none;text-decoration-style:solid;text-decoration-color:#000000;letter-spacing:normal;word-spacing:normal;text-transform:none;direction:ltr;block-progression:tb;writing-mode:lr-tb;baseline-shift:baseline;text-anchor:start;white-space:normal;clip-rule:nonzero;display:inline;overflow:visible;visibility:visible;opacity:1;isolation:auto;mix-blend-mode:normal;color-interpolation:sRGB;color-interpolation-filters:linearRGB;solid-color:#000000;solid-opacity:1;fill:#000000;fill-opacity:1;fill-rule:nonzero;stroke:none;stroke-width:2;stroke-linecap:round;stroke-linejoin:round;stroke-miterlimit:4;stroke-dasharray:none;stroke-dashoffset:0;stroke-opacity:1;color-rendering:auto;image-rendering:auto;shape-rendering:auto;text-rendering:auto;enable-background:accumulate" d="m 18.88128,1007.363 a 1.0001265,1.0001731 0 0 0 -0.234381,0.037 C 9.3904105,1010.0651 3.0064132,1018.434 3,1027.9446 c 3.83e-5,11.8264 9.757407,21.4176 21.748624,21.4176 a 1.0001265,1.0001731 0 0 0 0.002,0 c 8.881064,-0.01 16.875361,-5.3362 20.176316,-13.4678 a 1.0001265,1.0001731 0 0 0 -1.20511,-1.336 c -1.801258,0.5225 -3.668812,0.7893 -5.547022,0.7931 -10.926912,0 -19.7475,-8.6905 -19.748571,-19.4175 l 0,0 c 0.0055,-2.4652 0.487308,-4.9058 1.421913,-7.194 a 1.0001265,1.0001731 0 0 0 -0.966823,-1.377 z m -1.492227,2.6428 c -0.571666,1.9304 -0.958633,3.9081 -0.962916,5.9262 -2e-5,11.8263 9.75737,21.4195 21.748624,21.4195 a 1.0001265,1.0001731 0 0 0 0.002,0 c 1.324854,0 2.614723,-0.32 3.914166,-0.5586 -3.367795,6.3686 -9.924559,10.5633 -17.342256,10.5691 -10.927553,0 -19.7485363,-8.6896 -19.748571,-19.4175 0.00538,-7.9731 4.9783778,-15.005 12.389,-17.9407 z"/><path style="color:#000000;font-style:normal;font-variant:normal;font-weight:normal;font-stretch:normal;font-size:medium;line-height:normal;font-family:sans-serif;text-indent:0;text-align:start;text-decoration:none;text-decoration-line:none;text-decoration-style:solid;text-decoration-color:#000000;letter-spacing:normal;word-spacing:normal;text-transform:none;direction:ltr;block-progression:tb;writing-mode:lr-tb;baseline-shift:baseline;text-anchor:start;white-space:normal;clip-rule:nonzero;display:inline;overflow:visible;visibility:visible;opacity:1;isolation:auto;mix-blend-mode:normal;color-interpolation:sRGB;color-interpolation-filters:linearRGB;solid-color:#000000;solid-opacity:1;fill:#000000;fill-opacity:1;fill-rule:evenodd;stroke:none;stroke-width:1.99999964;stroke-linecap:round;stroke-linejoin:round;stroke-miterlimit:4;stroke-dasharray:none;stroke-dashoffset:0;stroke-opacity:1;color-rendering:auto;image-rendering:auto;shape-rendering:auto;text-rendering:auto;enable-background:accumulate" d="m 28.001604,1020.3634 a 0.99975393,0.99995796 0 0 0 -0.697026,1.7186 l 5.988164,5.9875 a 0.99975393,0.99995796 0 0 0 1.413573,0 l 5.988163,-5.9875 a 0.99975393,0.99995796 0 1 0 -1.413574,-1.414 l -5.281375,5.2806 -5.281376,-5.2806 a 0.99975393,0.99995796 0 0 0 -0.716549,-0.3046 z"/><path style="color:#000000;font-style:normal;font-variant:normal;font-weight:normal;font-stretch:normal;font-size:medium;line-height:normal;font-family:sans-serif;text-indent:0;text-align:start;text-decoration:none;text-decoration-line:none;text-decoration-style:solid;text-decoration-color:#000000;letter-spacing:normal;word-spacing:normal;text-transform:none;direction:ltr;block-progression:tb;writing-mode:lr-tb;baseline-shift:baseline;text-anchor:start;white-space:normal;clip-rule:nonzero;display:inline;overflow:visible;visibility:visible;opacity:1;isolation:auto;mix-blend-mode:normal;color-interpolation:sRGB;color-interpolation-filters:linearRGB;solid-color:#000000;solid-opacity:1;fill:#000000;fill-opacity:1;fill-rule:evenodd;stroke:none;stroke-width:1.99999988;stroke-linecap:round;stroke-linejoin:round;stroke-miterlimit:4;stroke-dasharray:none;stroke-dashoffset:0;stroke-opacity:1;color-rendering:auto;image-rendering:auto;shape-rendering:auto;text-rendering:auto;enable-background:accumulate" d="M 33.984375,1012.3621 A 1.0000999,1.0001776 0 0 0 33,1013.3758 l 0,13.9718 a 1.0000999,1.0001776 0 1 0 2,0 l 0,-13.9718 a 1.0000999,1.0001776 0 0 0 -1.015625,-1.0137 z"/></g></svg>