<svg width='200' height='200' fill="#000000" xmlns:dc="http://purl.org/dc/elements/1.1/" xmlns:cc="http://creativecommons.org/ns#" xmlns:rdf="http://www.w3.org/1999/02/22-rdf-syntax-ns#" xmlns:svg="http://www.w3.org/2000/svg" xmlns="http://www.w3.org/2000/svg" xmlns:sodipodi="http://sodipodi.sourceforge.net/DTD/sodipodi-0.dtd" xmlns:inkscape="http://www.inkscape.org/namespaces/inkscape" viewBox="0 0 48 48.000001" version="1.1" x="0px" y="0px"><g transform="translate(0,-1004.3622)"><path style="color:#000000;font-style:normal;font-variant:normal;font-weight:normal;font-stretch:normal;font-size:medium;line-height:normal;font-family:sans-serif;text-indent:0;text-align:start;text-decoration:none;text-decoration-line:none;text-decoration-style:solid;text-decoration-color:#000000;letter-spacing:normal;word-spacing:normal;text-transform:none;direction:ltr;block-progression:tb;writing-mode:lr-tb;baseline-shift:baseline;text-anchor:start;white-space:normal;clip-rule:nonzero;display:inline;overflow:visible;visibility:visible;opacity:1;isolation:auto;mix-blend-mode:normal;color-interpolation:sRGB;color-interpolation-filters:linearRGB;solid-color:#000000;solid-opacity:1;fill:#000000;fill-opacity:1;fill-rule:nonzero;stroke:none;stroke-width:1.99999988;stroke-linecap:round;stroke-linejoin:round;stroke-miterlimit:4;stroke-dasharray:none;stroke-dashoffset:0;stroke-opacity:1;color-rendering:auto;image-rendering:auto;shape-rendering:auto;text-rendering:auto;enable-background:accumulate" d="m 24,1040.3613 c -7.167857,0 -12.999999,-5.8321 -13,-13 10e-7,-7.1678 5.832143,-13 13,-13 7.167857,0 12.999999,5.8322 13,13 -10e-7,7.1679 -5.832143,13 -13,13 z m 0,-2 c 6.086977,0 10.999999,-4.913 11,-11 -10e-7,-6.0869 -4.913023,-11 -11,-11 -6.086977,0 -10.999999,4.9131 -11,11 10e-7,6.087 4.913023,11 11,11 z"/><path style="color:#000000;font-style:normal;font-variant:normal;font-weight:normal;font-stretch:normal;font-size:medium;line-height:normal;font-family:sans-serif;text-indent:0;text-align:start;text-decoration:none;text-decoration-line:none;text-decoration-style:solid;text-decoration-color:#000000;letter-spacing:normal;word-spacing:normal;text-transform:none;direction:ltr;block-progression:tb;writing-mode:lr-tb;baseline-shift:baseline;text-anchor:start;white-space:normal;clip-rule:nonzero;display:inline;overflow:visible;visibility:visible;opacity:1;isolation:auto;mix-blend-mode:normal;color-interpolation:sRGB;color-interpolation-filters:linearRGB;solid-color:#000000;solid-opacity:1;fill:#000000;fill-opacity:1;fill-rule:evenodd;stroke:none;stroke-width:1.99999976;stroke-linecap:round;stroke-linejoin:round;stroke-miterlimit:4;stroke-dasharray:none;stroke-dashoffset:0;stroke-opacity:1;color-rendering:auto;image-rendering:auto;shape-rendering:auto;text-rendering:auto;enable-background:accumulate" d="M 23.984375,1004.3621 A 1.0000999,0.99999165 0 0 0 23,1005.3776 l 0,4.9702 a 1.0000999,0.99999165 0 1 0 2,0 l 0,-4.9702 a 1.0000999,0.99999165 0 0 0 -1.015625,-1.0155 z"/><path style="color:#000000;font-style:normal;font-variant:normal;font-weight:normal;font-stretch:normal;font-size:medium;line-height:normal;font-family:sans-serif;text-indent:0;text-align:start;text-decoration:none;text-decoration-line:none;text-decoration-style:solid;text-decoration-color:#000000;letter-spacing:normal;word-spacing:normal;text-transform:none;direction:ltr;block-progression:tb;writing-mode:lr-tb;baseline-shift:baseline;text-anchor:start;white-space:normal;clip-rule:nonzero;display:inline;overflow:visible;visibility:visible;opacity:1;isolation:auto;mix-blend-mode:normal;color-interpolation:sRGB;color-interpolation-filters:linearRGB;solid-color:#000000;solid-opacity:1;fill:#000000;fill-opacity:1;fill-rule:evenodd;stroke:none;stroke-width:1.99999988;stroke-linecap:round;stroke-linejoin:round;stroke-miterlimit:4;stroke-dasharray:none;stroke-dashoffset:0;stroke-opacity:1;color-rendering:auto;image-rendering:auto;shape-rendering:auto;text-rendering:auto;enable-background:accumulate" d="m 40.970703,1010.3633 a 1.0000999,1.0000999 0 0 0 -0.6875,0.3027 l -3.980469,3.9785 a 1.0000999,1.0000999 0 1 0 1.414063,1.4141 l 3.980469,-3.9785 a 1.0000999,1.0000999 0 0 0 -0.726563,-1.7168 z"/><path style="color:#000000;font-style:normal;font-variant:normal;font-weight:normal;font-stretch:normal;font-size:medium;line-height:normal;font-family:sans-serif;text-indent:0;text-align:start;text-decoration:none;text-decoration-line:none;text-decoration-style:solid;text-decoration-color:#000000;letter-spacing:normal;word-spacing:normal;text-transform:none;direction:ltr;block-progression:tb;writing-mode:lr-tb;baseline-shift:baseline;text-anchor:start;white-space:normal;clip-rule:nonzero;display:inline;overflow:visible;visibility:visible;opacity:1;isolation:auto;mix-blend-mode:normal;color-interpolation:sRGB;color-interpolation-filters:linearRGB;solid-color:#000000;solid-opacity:1;fill:#000000;fill-opacity:1;fill-rule:evenodd;stroke:none;stroke-width:1.99999976;stroke-linecap:round;stroke-linejoin:round;stroke-miterlimit:4;stroke-dasharray:none;stroke-dashoffset:0;stroke-opacity:1;color-rendering:auto;image-rendering:auto;shape-rendering:auto;text-rendering:auto;enable-background:accumulate" d="m 7,1010.3633 a 1.0000999,1.0000999 0 0 0 -0.6972656,1.7168 l 3.9804686,3.9785 a 1.0000999,1.0000999 0 1 0 1.414063,-1.4141 L 7.7167969,1010.666 A 1.0000999,1.0000999 0 0 0 7,1010.3633 Z"/><path style="color:#000000;font-style:normal;font-variant:normal;font-weight:normal;font-stretch:normal;font-size:medium;line-height:normal;font-family:sans-serif;text-indent:0;text-align:start;text-decoration:none;text-decoration-line:none;text-decoration-style:solid;text-decoration-color:#000000;letter-spacing:normal;word-spacing:normal;text-transform:none;direction:ltr;block-progression:tb;writing-mode:lr-tb;baseline-shift:baseline;text-anchor:start;white-space:normal;clip-rule:nonzero;display:inline;overflow:visible;visibility:visible;opacity:1;isolation:auto;mix-blend-mode:normal;color-interpolation:sRGB;color-interpolation-filters:linearRGB;solid-color:#000000;solid-opacity:1;fill:#000000;fill-opacity:1;fill-rule:evenodd;stroke:none;stroke-width:1.99999976;stroke-linecap:round;stroke-linejoin:round;stroke-miterlimit:4;stroke-dasharray:none;stroke-dashoffset:0;stroke-opacity:1;color-rendering:auto;image-rendering:auto;shape-rendering:auto;text-rendering:auto;enable-background:accumulate" d="m 42.014072,1027.3621 a 0.99993896,1.0000999 0 1 0 0,2 l 4.971856,0 a 0.99993896,1.0000999 0 1 0 0,-2 l -4.971856,0 z"/><path style="color:#000000;font-style:normal;font-variant:normal;font-weight:normal;font-stretch:normal;font-size:medium;line-height:normal;font-family:sans-serif;text-indent:0;text-align:start;text-decoration:none;text-decoration-line:none;text-decoration-style:solid;text-decoration-color:#000000;letter-spacing:normal;word-spacing:normal;text-transform:none;direction:ltr;block-progression:tb;writing-mode:lr-tb;baseline-shift:baseline;text-anchor:start;white-space:normal;clip-rule:nonzero;display:inline;overflow:visible;visibility:visible;opacity:1;isolation:auto;mix-blend-mode:normal;color-interpolation:sRGB;color-interpolation-filters:linearRGB;solid-color:#000000;solid-opacity:1;fill:#000000;fill-opacity:1;fill-rule:evenodd;stroke:none;stroke-width:1.99999976;stroke-linecap:round;stroke-linejoin:round;stroke-miterlimit:4;stroke-dasharray:none;stroke-dashoffset:0;stroke-opacity:1;color-rendering:auto;image-rendering:auto;shape-rendering:auto;text-rendering:auto;enable-background:accumulate" d="m 1.0140721,1027.3621 a 0.99993893,1.0000999 0 1 0 0,2 l 4.9718558,0 a 0.99993893,1.0000999 0 1 0 0,-2 l -4.9718558,0 z"/><path style="color:#000000;font-style:normal;font-variant:normal;font-weight:normal;font-stretch:normal;font-size:medium;line-height:normal;font-family:sans-serif;text-indent:0;text-align:start;text-decoration:none;text-decoration-line:none;text-decoration-style:solid;text-decoration-color:#000000;letter-spacing:normal;word-spacing:normal;text-transform:none;direction:ltr;block-progression:tb;writing-mode:lr-tb;baseline-shift:baseline;text-anchor:start;white-space:normal;clip-rule:nonzero;display:inline;overflow:visible;visibility:visible;opacity:1;isolation:auto;mix-blend-mode:normal;color-interpolation:sRGB;color-interpolation-filters:linearRGB;solid-color:#000000;solid-opacity:1;fill:#000000;fill-opacity:1;fill-rule:evenodd;stroke:none;stroke-width:1.99999988;stroke-linecap:round;stroke-linejoin:round;stroke-miterlimit:4;stroke-dasharray:none;stroke-dashoffset:0;stroke-opacity:1;color-rendering:auto;image-rendering:auto;shape-rendering:auto;text-rendering:auto;enable-background:accumulate" d="m 7.9846953,1042.3623 a 1.0004255,1.0005651 0 0 0 -0.595897,1.7919 c 0,0 0.6701561,0.5314 1.5415173,1.065 0.8713612,0.5334 1.8883694,1.143 3.0791264,1.143 1.190759,0 1.994859,-0.7134 2.621948,-1.2115 0.627089,-0.498 1.078002,-0.7796 1.377401,-0.7796 0.2994,0 0.750313,0.2816 1.377401,0.7796 0.627089,0.4981 1.429236,1.2115 2.619994,1.2115 1.190758,0 1.994858,-0.7134 2.621947,-1.2115 0.627088,-0.498 1.078001,-0.7796 1.377401,-0.7796 0.2994,0 0.750314,0.2816 1.377402,0.7796 0.627089,0.4981 1.431189,1.2115 2.621947,1.2115 1.190758,0 1.992905,-0.7134 2.619994,-1.2115 0.627088,-0.498 1.078002,-0.7796 1.377401,-0.7796 0.299398,0 0.750312,0.2816 1.377401,0.7796 0.627088,0.4981 1.431189,1.2115 2.621948,1.2115 1.190757,0 2.207765,-0.6096 3.079126,-1.143 0.871361,-0.5336 1.541517,-1.065 1.541517,-1.065 a 1.0005403,1.0006798 0 1 0 -1.244545,-1.5672 c 0,0 -0.584925,0.4638 -1.34028,0.9263 -0.755356,0.4624 -1.73642,0.848 -2.035818,0.848 -0.2994,0 -0.750314,-0.2797 -1.377403,-0.7777 -0.627088,-0.498 -1.431188,-1.2135 -2.621946,-1.2135 -1.190759,0 -1.994859,0.7155 -2.621947,1.2135 -0.627089,0.498 -1.076049,0.7777 -1.375448,0.7777 -0.299399,0 -0.750313,-0.2797 -1.377401,-0.7777 -0.627089,-0.498 -1.43119,-1.2135 -2.621948,-1.2135 -1.190757,0 -1.994858,0.7155 -2.621947,1.2135 -0.627088,0.498 -1.078001,0.7777 -1.377401,0.7777 -0.2994,0 -0.748359,-0.2797 -1.375448,-0.7777 -0.627088,-0.498 -1.431189,-1.2135 -2.621947,-1.2135 -1.190758,0 -1.994858,0.7155 -2.621947,1.2135 -0.627089,0.498 -1.078002,0.7777 -1.377402,0.7777 -0.299398,0 -1.280463,-0.3856 -2.0358182,-0.848 -0.7553554,-0.4625 -1.3402799,-0.9263 -1.3402799,-0.9263 a 1.0004255,1.0005651 0 0 0 -0.6486486,-0.2247 z"/><path style="color:#000000;font-style:normal;font-variant:normal;font-weight:normal;font-stretch:normal;font-size:medium;line-height:normal;font-family:sans-serif;text-indent:0;text-align:start;text-decoration:none;text-decoration-line:none;text-decoration-style:solid;text-decoration-color:#000000;letter-spacing:normal;word-spacing:normal;text-transform:none;direction:ltr;block-progression:tb;writing-mode:lr-tb;baseline-shift:baseline;text-anchor:start;white-space:normal;clip-rule:nonzero;display:inline;overflow:visible;visibility:visible;opacity:1;isolation:auto;mix-blend-mode:normal;color-interpolation:sRGB;color-interpolation-filters:linearRGB;solid-color:#000000;solid-opacity:1;fill:#000000;fill-opacity:1;fill-rule:evenodd;stroke:none;stroke-width:1.99999988;stroke-linecap:round;stroke-linejoin:round;stroke-miterlimit:4;stroke-dasharray:none;stroke-dashoffset:0;stroke-opacity:1;color-rendering:auto;image-rendering:auto;shape-rendering:auto;text-rendering:auto;enable-background:accumulate" d="m 7.9846921,1048.3623 a 1.0004222,1.0005651 0 0 0 -0.5958951,1.7919 c 0,0 0.6701541,0.5314 1.5415122,1.065 0.8713581,0.5334 1.8883628,1.143 3.0791168,1.143 1.190754,0 1.994852,-0.7134 2.621938,-1.2115 0.627087,-0.498 1.078,-0.7796 1.377397,-0.7796 0.299399,0 0.750311,0.2816 1.377397,0.7796 0.627087,0.4981 1.429231,1.2115 2.619985,1.2115 1.190754,0 1.994851,-0.7134 2.621938,-1.2115 0.627086,-0.498 1.077998,-0.7796 1.377397,-0.7796 0.299399,0 0.750311,0.2816 1.377397,0.7796 0.627087,0.4981 1.431185,1.2115 2.621938,1.2115 1.190754,0 1.992898,-0.7134 2.619985,-1.2115 0.627086,-0.498 1.077999,-0.7796 1.377397,-0.7796 0.299398,0 0.75031,0.2816 1.377397,0.7796 0.627086,0.4981 1.431184,1.2115 2.621939,1.2115 1.190753,0 2.207758,-0.6096 3.079115,-1.143 0.871359,-0.5336 1.541513,-1.065 1.541513,-1.065 a 1.0005369,1.0006798 0 1 0 -1.244541,-1.5672 c 0,0 -0.584923,0.4638 -1.340276,0.9263 -0.755353,0.4624 -1.736414,0.848 -2.035811,0.848 -0.299399,0 -0.750311,-0.2797 -1.377398,-0.7777 -0.627086,-0.498 -1.431184,-1.2135 -2.621938,-1.2135 -1.190754,0 -1.994852,0.7155 -2.621938,1.2135 -0.627087,0.498 -1.076045,0.7777 -1.375444,0.7777 -0.299398,0 -0.75031,-0.2797 -1.377396,-0.7777 -0.627087,-0.498 -1.431185,-1.2135 -2.621939,-1.2135 -1.190754,0 -1.994852,0.7155 -2.621939,1.2135 -0.627086,0.498 -1.077997,0.7777 -1.377396,0.7777 -0.299399,0 -0.748356,-0.2797 -1.375443,-0.7777 -0.627086,-0.498 -1.431184,-1.2135 -2.621939,-1.2135 -1.190754,0 -1.994852,0.7155 -2.621938,1.2135 -0.627087,0.498 -1.077999,0.7777 -1.377397,0.7777 -0.299398,0 -1.280459,-0.3856 -2.035812,-0.848 -0.7553526,-0.4625 -1.3402755,-0.9263 -1.3402755,-0.9263 a 1.0004222,1.0005651 0 0 0 -0.6486464,-0.2247 z"/></g></svg>