<svg width='200' height='200' fill="#000000" xmlns:dc="http://purl.org/dc/elements/1.1/" xmlns:cc="http://creativecommons.org/ns#" xmlns:rdf="http://www.w3.org/1999/02/22-rdf-syntax-ns#" xmlns:svg="http://www.w3.org/2000/svg" xmlns="http://www.w3.org/2000/svg" xmlns:sodipodi="http://sodipodi.sourceforge.net/DTD/sodipodi-0.dtd" xmlns:inkscape="http://www.inkscape.org/namespaces/inkscape" viewBox="0 0 48 48.000001" version="1.1" x="0px" y="0px"><g transform="translate(0,-1004.3622)"><path style="color:#000000;font-style:normal;font-variant:normal;font-weight:normal;font-stretch:normal;font-size:medium;line-height:normal;font-family:sans-serif;text-indent:0;text-align:start;text-decoration:none;text-decoration-line:none;text-decoration-style:solid;text-decoration-color:#000000;letter-spacing:normal;word-spacing:normal;text-transform:none;direction:ltr;block-progression:tb;writing-mode:lr-tb;baseline-shift:baseline;text-anchor:start;white-space:normal;clip-rule:nonzero;display:inline;overflow:visible;visibility:visible;opacity:1;isolation:auto;mix-blend-mode:normal;color-interpolation:sRGB;color-interpolation-filters:linearRGB;solid-color:#000000;solid-opacity:1;fill:#000000;fill-opacity:1;fill-rule:nonzero;stroke:none;stroke-width:2;stroke-linecap:round;stroke-linejoin:round;stroke-miterlimit:4;stroke-dasharray:none;stroke-dashoffset:0;stroke-opacity:1;color-rendering:auto;image-rendering:auto;shape-rendering:auto;text-rendering:auto;enable-background:accumulate" d="m 11.942623,1009.3639 a 1.0000384,1.0002446 0 0 0 -0.447237,0.1347 C 4.4243831,1013.4809 0.03921214,1020.8343 -1.6329351e-8,1028.81 -0.0392096,1036.7857 4.2742038,1044.1808 11.305944,1048.2289 a 1.0004898,1.0006961 0 1 0 0.997986,-1.7347 c -6.4266301,-3.6997 -10.3396901,-10.4254 -10.3040532,-17.6744 0.035639,-7.2491 4.0149728,-13.9389 10.4778702,-17.5788 a 1.0000384,1.0002446 0 0 0 -0.535124,-1.8771 z"/><path style="color:#000000;font-style:normal;font-variant:normal;font-weight:normal;font-stretch:normal;font-size:medium;line-height:normal;font-family:sans-serif;text-indent:0;text-align:start;text-decoration:none;text-decoration-line:none;text-decoration-style:solid;text-decoration-color:#000000;letter-spacing:normal;word-spacing:normal;text-transform:none;direction:ltr;block-progression:tb;writing-mode:lr-tb;baseline-shift:baseline;text-anchor:start;white-space:normal;clip-rule:nonzero;display:inline;overflow:visible;visibility:visible;opacity:1;isolation:auto;mix-blend-mode:normal;color-interpolation:sRGB;color-interpolation-filters:linearRGB;solid-color:#000000;solid-opacity:1;fill:#000000;fill-opacity:1;fill-rule:nonzero;stroke:none;stroke-width:2;stroke-linecap:round;stroke-linejoin:round;stroke-miterlimit:4;stroke-dasharray:none;stroke-dashoffset:0;stroke-opacity:1;color-rendering:auto;image-rendering:auto;shape-rendering:auto;text-rendering:auto;enable-background:accumulate" d="m 27.93939,1028.3644 a 1.0000331,1.0000462 0 0 0 -0.937437,1.0585 c 0.355454,7.773 4.678535,14.8428 11.481654,18.7959 a 1.0000331,1.0000462 0 1 0 1.005791,-1.7285 c -6.226335,-3.6179 -10.165341,-10.0699 -10.489532,-17.1592 a 1.0000331,1.0000462 0 0 0 -1.060476,-0.9667 z"/><path style="color:#000000;font-style:normal;font-variant:normal;font-weight:normal;font-stretch:normal;font-size:medium;line-height:normal;font-family:sans-serif;text-indent:0;text-align:start;text-decoration:none;text-decoration-line:none;text-decoration-style:solid;text-decoration-color:#000000;letter-spacing:normal;word-spacing:normal;text-transform:none;direction:ltr;block-progression:tb;writing-mode:lr-tb;baseline-shift:baseline;text-anchor:start;white-space:normal;clip-rule:nonzero;display:inline;overflow:visible;visibility:visible;opacity:1;isolation:auto;mix-blend-mode:normal;color-interpolation:sRGB;color-interpolation-filters:linearRGB;solid-color:#000000;solid-opacity:1;fill:#000000;fill-opacity:1;fill-rule:nonzero;stroke:none;stroke-width:2;stroke-linecap:round;stroke-linejoin:round;stroke-miterlimit:4;stroke-dasharray:none;stroke-dashoffset:0;stroke-opacity:1;color-rendering:auto;image-rendering:auto;shape-rendering:auto;text-rendering:auto;enable-background:accumulate" d="m 36.998577,1010.3089 a 0.99970692,0.99984439 0 0 0 -0.566184,-0.8475 c -2.760191,-1.3723 -7.358171,-2.0921 -12.391613,-2.0991 -5.033434,-0.01 -9.658872,0.7025 -12.454086,2.062 a 0.99970692,0.99984439 0 1 0 0.872703,1.7984 c 2.224227,-1.0818 6.747353,-1.8675 11.577479,-1.8609 4.830132,0.01 9.329478,0.8075 11.507194,1.8902 a 0.99970692,0.99984439 0 0 0 1.454507,-0.9431 z"/><path style="color:#000000;font-style:normal;font-variant:normal;font-weight:normal;font-stretch:normal;font-size:medium;line-height:normal;font-family:sans-serif;text-indent:0;text-align:start;text-decoration:none;text-decoration-line:none;text-decoration-style:solid;text-decoration-color:#000000;letter-spacing:normal;word-spacing:normal;text-transform:none;direction:ltr;block-progression:tb;writing-mode:lr-tb;baseline-shift:baseline;text-anchor:start;white-space:normal;clip-rule:nonzero;display:inline;overflow:visible;visibility:visible;opacity:1;isolation:auto;mix-blend-mode:normal;color-interpolation:sRGB;color-interpolation-filters:linearRGB;solid-color:#000000;solid-opacity:1;fill:#000000;fill-opacity:1;fill-rule:nonzero;stroke:none;stroke-width:2;stroke-linecap:round;stroke-linejoin:round;stroke-miterlimit:4;stroke-dasharray:none;stroke-dashoffset:0;stroke-opacity:1;color-rendering:auto;image-rendering:auto;shape-rendering:auto;text-rendering:auto;enable-background:accumulate" d="m 34.054688,1025.3613 a 1.0001,1.0001 0 0 0 0.886718,-0.6601 c 1.733276,-4.604 2.671292,-9.5381 2.064453,-14.4063 a 1.0001,1.0001 0 1 0 -1.984375,0.2481 c 0.554796,4.4506 -0.302252,9.068 -1.953125,13.4531 a 1.0001,1.0001 0 0 0 0.986329,1.3652 z"/><path style="color:#000000;font-style:normal;font-variant:normal;font-weight:normal;font-stretch:normal;font-size:medium;line-height:normal;font-family:sans-serif;text-indent:0;text-align:start;text-decoration:none;text-decoration-line:none;text-decoration-style:solid;text-decoration-color:#000000;letter-spacing:normal;word-spacing:normal;text-transform:none;direction:ltr;block-progression:tb;writing-mode:lr-tb;baseline-shift:baseline;text-anchor:start;white-space:normal;clip-rule:nonzero;display:inline;overflow:visible;visibility:visible;opacity:1;isolation:auto;mix-blend-mode:normal;color-interpolation:sRGB;color-interpolation-filters:linearRGB;solid-color:#000000;solid-opacity:1;fill:#000000;fill-opacity:1;fill-rule:evenodd;stroke:none;stroke-width:1.99999964;stroke-linecap:round;stroke-linejoin:round;stroke-miterlimit:4;stroke-dasharray:none;stroke-dashoffset:0;stroke-opacity:1;color-rendering:auto;image-rendering:auto;shape-rendering:auto;text-rendering:auto;enable-background:accumulate" d="m 33.980469,1023.3633 a 1.0000998,1.0000998 0 0 0 -0.757813,0.3691 c 0,0 -0.962597,1.153 -2.255859,2.3223 -1.293262,1.1693 -2.985345,2.2475 -3.855469,2.3047 -0.634481,0.042 -1.357624,-0.5009 -2.291016,-1.3418 -0.933391,-0.8409 -2.046167,-1.9688 -3.697265,-1.9688 -1.634894,0 -2.7526,1.0895 -3.689453,1.92 -0.936854,0.8304 -1.685159,1.3998 -2.345703,1.3886 -0.471076,-0.01 -1.072393,-0.4935 -1.851563,-1.248 -0.77917,-0.7545 -1.756526,-1.7866 -3.2539061,-1.7461 a 1.0000998,1.0000998 0 0 0 -0.00195,0 c -1.132119,0.031 -1.8979147,0.6938 -2.5585938,1.2402 -0.6606791,0.5464 -1.1503906,1.084 -1.1503906,1.084 a 1.0002071,1.0002071 0 1 0 1.4765625,1.3496 c 0,0 0.4087278,-0.4472 0.9472656,-0.8926 0.5385378,-0.4453 1.2709813,-0.7813 1.3398435,-0.7832 0.46257,-0.013 1.036241,0.4357 1.808594,1.1836 0.772353,0.7479 1.72163,1.7875 3.210938,1.8125 1.637883,0.028 2.765407,-1.0577 3.705078,-1.8906 0.93967,-0.833 1.698442,-1.418 2.363281,-1.418 0.648633,0 1.415328,0.6027 2.359375,1.4532 0.944046,0.8504 2.099477,1.9626 3.759766,1.8535 1.939485,-0.1275 3.654668,-1.542 5.066406,-2.8184 1.411737,-1.2764 2.449218,-2.5234 2.449218,-2.5234 a 1.0000998,1.0000998 0 0 0 -0.777343,-1.6504 z"/><path style="color:#000000;font-style:normal;font-variant:normal;font-weight:normal;font-stretch:normal;font-size:medium;line-height:normal;font-family:sans-serif;text-indent:0;text-align:start;text-decoration:none;text-decoration-line:none;text-decoration-style:solid;text-decoration-color:#000000;letter-spacing:normal;word-spacing:normal;text-transform:none;direction:ltr;block-progression:tb;writing-mode:lr-tb;baseline-shift:baseline;text-anchor:start;white-space:normal;clip-rule:nonzero;display:inline;overflow:visible;visibility:visible;opacity:1;isolation:auto;mix-blend-mode:normal;color-interpolation:sRGB;color-interpolation-filters:linearRGB;solid-color:#000000;solid-opacity:1;fill:#000000;fill-opacity:1;fill-rule:evenodd;stroke:none;stroke-width:2;stroke-linecap:round;stroke-linejoin:round;stroke-miterlimit:4;stroke-dasharray:none;stroke-dashoffset:0;stroke-opacity:1;color-rendering:auto;image-rendering:auto;shape-rendering:auto;text-rendering:auto;enable-background:accumulate" d="m 12.013672,1046.3613 a 1.0001,1.0001 0 1 0 0,2 l 26.972656,0 a 1.0001,1.0001 0 1 0 0,-2 l -26.972656,0 z"/><path style="color:#000000;font-style:normal;font-variant:normal;font-weight:normal;font-stretch:normal;font-size:medium;line-height:normal;font-family:sans-serif;text-indent:0;text-align:start;text-decoration:none;text-decoration-line:none;text-decoration-style:solid;text-decoration-color:#000000;letter-spacing:normal;word-spacing:normal;text-transform:none;direction:ltr;block-progression:tb;writing-mode:lr-tb;baseline-shift:baseline;text-anchor:start;white-space:normal;clip-rule:nonzero;display:inline;overflow:visible;visibility:visible;opacity:1;isolation:auto;mix-blend-mode:normal;color-interpolation:sRGB;color-interpolation-filters:linearRGB;solid-color:#000000;solid-opacity:1;fill:#000000;fill-opacity:1;fill-rule:evenodd;stroke:none;stroke-width:1.99999988;stroke-linecap:round;stroke-linejoin:round;stroke-miterlimit:4;stroke-dasharray:none;stroke-dashoffset:0;stroke-opacity:1;color-rendering:auto;image-rendering:auto;shape-rendering:auto;text-rendering:auto;enable-background:accumulate" d="m 35.46875,1017.3301 a 1.0000999,1.0000999 0 0 0 -0.677734,0.3242 c 0,0 -1.10656,1.1717 -2.572266,2.3594 -1.465706,1.1877 -3.356205,2.2938 -4.367188,2.3437 -0.692851,0.034 -1.469806,-0.5312 -2.447265,-1.3691 -0.977459,-0.8379 -2.133625,-1.9395 -3.800781,-1.9395 -1.650713,0 -2.811761,1.0618 -3.792969,1.8887 -0.981208,0.8269 -1.782899,1.4199 -2.503906,1.4199 -0.721007,0 -2.275704,-0.7056 -3.494141,-1.4941 -1.218437,-0.7886 -2.15625,-1.5781 -2.15625,-1.5781 a 1.0000999,1.0000999 0 1 0 -1.2890625,1.5293 c 0,0 1.022466,0.8633 2.3593745,1.7285 1.336909,0.8652 2.929366,1.8144 4.580079,1.8144 1.650712,0 2.81176,-1.0637 3.792968,-1.8906 0.981209,-0.8269 1.7829,-1.418 2.503907,-1.418 0.704563,0 1.51409,0.6119 2.5,1.4571 0.985909,0.8451 2.170648,1.9323 3.845703,1.8496 2.02609,-0.1002 3.945138,-1.5034 5.529297,-2.7871 1.584158,-1.2837 2.767578,-2.545 2.767578,-2.545 a 1.0000999,1.0000999 0 0 0 -0.777344,-1.6933 z"/><path style="color:#000000;font-style:normal;font-variant:normal;font-weight:normal;font-stretch:normal;font-size:medium;line-height:normal;font-family:sans-serif;text-indent:0;text-align:start;text-decoration:none;text-decoration-line:none;text-decoration-style:solid;text-decoration-color:#000000;letter-spacing:normal;word-spacing:normal;text-transform:none;direction:ltr;block-progression:tb;writing-mode:lr-tb;baseline-shift:baseline;text-anchor:start;white-space:normal;clip-rule:nonzero;display:inline;overflow:visible;visibility:visible;opacity:1;isolation:auto;mix-blend-mode:normal;color-interpolation:sRGB;color-interpolation-filters:linearRGB;solid-color:#000000;solid-opacity:1;fill:#000000;fill-opacity:1;fill-rule:nonzero;stroke:none;stroke-width:2.00000024;stroke-linecap:round;stroke-linejoin:round;stroke-miterlimit:4;stroke-dasharray:none;stroke-dashoffset:0;stroke-opacity:1;color-rendering:auto;image-rendering:auto;shape-rendering:auto;text-rendering:auto;enable-background:accumulate" d="m 12.352268,1033.4261 a 0.99967339,1.0005266 22.53112 0 0 -0.447973,0.3377 c -1.9841316,2.5755 -2.4563362,6.0091 -1.233273,9.0108 1.223068,3.0017 3.958764,5.1245 7.176053,5.5752 a 0.99967339,1.0005266 22.53112 1 0 0.278864,-1.9799 c -2.518723,-0.3529 -4.648654,-2.0084 -5.603339,-4.3514 -0.954684,-2.3431 -0.589943,-5.0182 0.963423,-7.0346 a 0.99967339,1.0005266 22.53112 0 0 -1.133755,-1.5578 z"/><path style="color:#000000;font-style:normal;font-variant:normal;font-weight:normal;font-stretch:normal;font-size:medium;line-height:normal;font-family:sans-serif;text-indent:0;text-align:start;text-decoration:none;text-decoration-line:none;text-decoration-style:solid;text-decoration-color:#000000;letter-spacing:normal;word-spacing:normal;text-transform:none;direction:ltr;block-progression:tb;writing-mode:lr-tb;baseline-shift:baseline;text-anchor:start;white-space:normal;clip-rule:nonzero;display:inline;overflow:visible;visibility:visible;opacity:1;isolation:auto;mix-blend-mode:normal;color-interpolation:sRGB;color-interpolation-filters:linearRGB;solid-color:#000000;solid-opacity:1;fill:#000000;fill-opacity:1;fill-rule:nonzero;stroke:none;stroke-width:2.00030923;stroke-linecap:round;stroke-linejoin:round;stroke-miterlimit:4;stroke-dasharray:none;stroke-dashoffset:0;stroke-opacity:1;color-rendering:auto;image-rendering:auto;shape-rendering:auto;text-rendering:auto;enable-background:accumulate" d="m 24.026304,1035.448 a 0.98773953,1.012615 22.522241 0 0 -0.56294,0.6384 c -0.851699,2.655 -0.519888,5.5514 0.90032,7.9154 1.420208,2.364 3.789668,3.9592 6.474983,4.3484 a 0.98800482,1.012887 22.522241 0 0 0.312052,-1.9987 c -2.10222,-0.3047 -3.96809,-1.556 -5.090741,-3.4247 -1.122655,-1.8687 -1.381844,-4.156 -0.712173,-6.2437 a 0.98773953,1.012615 22.522241 0 0 -1.321501,-1.2351 z"/><path style="color:#000000;font-style:normal;font-variant:normal;font-weight:normal;font-stretch:normal;font-size:medium;line-height:normal;font-family:sans-serif;text-indent:0;text-align:start;text-decoration:none;text-decoration-line:none;text-decoration-style:solid;text-decoration-color:#000000;letter-spacing:normal;word-spacing:normal;text-transform:none;direction:ltr;block-progression:tb;writing-mode:lr-tb;baseline-shift:baseline;text-anchor:start;white-space:normal;clip-rule:nonzero;display:inline;overflow:visible;visibility:visible;opacity:1;isolation:auto;mix-blend-mode:normal;color-interpolation:sRGB;color-interpolation-filters:linearRGB;solid-color:#000000;solid-opacity:1;fill:#000000;fill-opacity:1;fill-rule:nonzero;stroke:none;stroke-width:2.00000095;stroke-linecap:round;stroke-linejoin:round;stroke-miterlimit:4;stroke-dasharray:none;stroke-dashoffset:0;stroke-opacity:1;color-rendering:auto;image-rendering:auto;shape-rendering:auto;text-rendering:auto;enable-background:accumulate" d="m 17.612839,1039.4412 a 0.99946853,1.0007321 22.531016 0 0 -0.610742,0.9211 c -0.06308,4.0023 2.878328,7.4319 6.845548,7.9881 a 0.99959374,1.0008574 22.531016 0 0 0.278367,-1.9821 c -2.989544,-0.4191 -5.17336,-2.969 -5.125942,-5.9776 a 0.99946853,1.0007321 22.531016 0 0 -1.387231,-0.9495 z"/><path style="color:#000000;font-style:normal;font-variant:normal;font-weight:normal;font-stretch:normal;font-size:medium;line-height:normal;font-family:sans-serif;text-indent:0;text-align:start;text-decoration:none;text-decoration-line:none;text-decoration-style:solid;text-decoration-color:#000000;letter-spacing:normal;word-spacing:normal;text-transform:none;direction:ltr;block-progression:tb;writing-mode:lr-tb;baseline-shift:baseline;text-anchor:start;white-space:normal;clip-rule:nonzero;display:inline;overflow:visible;visibility:visible;opacity:1;isolation:auto;mix-blend-mode:normal;color-interpolation:sRGB;color-interpolation-filters:linearRGB;solid-color:#000000;solid-opacity:1;fill:#000000;fill-opacity:1;fill-rule:evenodd;stroke:none;stroke-width:2.00000024;stroke-linecap:round;stroke-linejoin:round;stroke-miterlimit:4;stroke-dasharray:none;stroke-dashoffset:0;stroke-opacity:1;color-rendering:auto;image-rendering:auto;shape-rendering:auto;text-rendering:auto;enable-background:accumulate" d="M 43.984375,1022.3621 A 1.0001001,1.0000407 0 0 0 43,1023.3777 l 0,10.9701 a 1.0001001,1.0000407 0 1 0 2,0 l 0,-10.9701 a 1.0001001,1.0000407 0 0 0 -1.015625,-1.0156 z"/><path style="color:#000000;font-style:normal;font-variant:normal;font-weight:normal;font-stretch:normal;font-size:medium;line-height:normal;font-family:sans-serif;text-indent:0;text-align:start;text-decoration:none;text-decoration-line:none;text-decoration-style:solid;text-decoration-color:#000000;letter-spacing:normal;word-spacing:normal;text-transform:none;direction:ltr;block-progression:tb;writing-mode:lr-tb;baseline-shift:baseline;text-anchor:start;white-space:normal;clip-rule:nonzero;display:inline;overflow:visible;visibility:visible;opacity:1;isolation:auto;mix-blend-mode:normal;color-interpolation:sRGB;color-interpolation-filters:linearRGB;solid-color:#000000;solid-opacity:1;fill:#000000;fill-opacity:1;fill-rule:evenodd;stroke:none;stroke-width:2;stroke-linecap:round;stroke-linejoin:round;stroke-miterlimit:4;stroke-dasharray:none;stroke-dashoffset:0;stroke-opacity:1;color-rendering:auto;image-rendering:auto;shape-rendering:auto;text-rendering:auto;enable-background:accumulate" d="m 43.978422,1022.3623 a 1.0024564,1.0017237 0 0 0 -0.693036,0.2954 l -2.991406,2.9931 a 1.0029563,1.0022234 0 1 0 1.419351,1.4164 l 2.28271,-2.285 2.292498,2.2869 a 1.0029365,1.0022036 0 0 0 1.417395,-1.4183 l -3.003153,-2.995 a 1.0024564,1.0017237 0 0 0 -0.724359,-0.2935 z"/><path style="color:#000000;font-style:normal;font-variant:normal;font-weight:normal;font-stretch:normal;font-size:medium;line-height:normal;font-family:sans-serif;text-indent:0;text-align:start;text-decoration:none;text-decoration-line:none;text-decoration-style:solid;text-decoration-color:#000000;letter-spacing:normal;word-spacing:normal;text-transform:none;direction:ltr;block-progression:tb;writing-mode:lr-tb;baseline-shift:baseline;text-anchor:start;white-space:normal;clip-rule:nonzero;display:inline;overflow:visible;visibility:visible;opacity:1;isolation:auto;mix-blend-mode:normal;color-interpolation:sRGB;color-interpolation-filters:linearRGB;solid-color:#000000;solid-opacity:1;fill:#000000;fill-opacity:1;fill-rule:evenodd;stroke:none;stroke-width:1.99999964;stroke-linecap:round;stroke-linejoin:round;stroke-miterlimit:4;stroke-dasharray:none;stroke-dashoffset:0;stroke-opacity:1;color-rendering:auto;image-rendering:auto;shape-rendering:auto;text-rendering:auto;enable-background:accumulate" d="m 35.980469,1011.3633 a 1.0000998,1.0000998 0 0 0 -0.757813,0.3691 c 0,0 -0.962912,1.153 -2.255859,2.3223 -1.292948,1.1693 -2.985802,2.2475 -3.855469,2.3047 -0.63409,0.042 -1.353939,-0.5009 -2.287109,-1.3418 -0.93317,-0.8409 -2.046321,-1.9688 -3.697266,-1.9688 -1.634737,0 -2.752821,1.0895 -3.689453,1.92 -0.936632,0.8304 -1.683592,1.3998 -2.34375,1.3886 -0.470724,-0.01 -1.07453,-0.4935 -1.853516,-1.248 -0.778985,-0.7545 -1.756635,-1.7866 -3.253906,-1.7461 a 1.0000998,1.0000998 0 1 0 0.05469,1.998 c 0.462216,-0.013 1.036424,0.4357 1.808593,1.1836 0.77217,0.7479 1.719788,1.7874 3.208985,1.8125 1.637727,0.028 2.765629,-1.0577 3.705078,-1.8906 0.939448,-0.833 1.698828,-1.418 2.363281,-1.418 0.648243,0 1.413598,0.6027 2.357422,1.4532 0.943824,0.8504 2.099628,1.9626 3.759766,1.8535 1.939278,-0.1275 3.65304,-1.542 5.064453,-2.8184 1.411413,-1.2764 2.449218,-2.5234 2.449218,-2.5234 a 1.0000998,1.0000998 0 0 0 -0.777343,-1.6504 z"/></g></svg>