<svg width='200' height='200' fill="#000000" xmlns:dc="http://purl.org/dc/elements/1.1/" xmlns:cc="http://creativecommons.org/ns#" xmlns:rdf="http://www.w3.org/1999/02/22-rdf-syntax-ns#" xmlns:svg="http://www.w3.org/2000/svg" xmlns="http://www.w3.org/2000/svg" xmlns:sodipodi="http://sodipodi.sourceforge.net/DTD/sodipodi-0.dtd" xmlns:inkscape="http://www.inkscape.org/namespaces/inkscape" viewBox="0 0 48 48.000001" version="1.1" x="0px" y="0px"><g transform="translate(0,-1004.3622)"><path style="color:#000000;font-style:normal;font-variant:normal;font-weight:normal;font-stretch:normal;font-size:medium;line-height:normal;font-family:sans-serif;text-indent:0;text-align:start;text-decoration:none;text-decoration-line:none;text-decoration-style:solid;text-decoration-color:#000000;letter-spacing:normal;word-spacing:normal;text-transform:none;direction:ltr;block-progression:tb;writing-mode:lr-tb;baseline-shift:baseline;text-anchor:start;white-space:normal;clip-rule:nonzero;display:inline;overflow:visible;visibility:visible;opacity:1;isolation:auto;mix-blend-mode:normal;color-interpolation:sRGB;color-interpolation-filters:linearRGB;solid-color:#000000;solid-opacity:1;fill:#000000;fill-opacity:1;fill-rule:nonzero;stroke:none;stroke-width:1.99999988;stroke-linecap:round;stroke-linejoin:round;stroke-miterlimit:4;stroke-dasharray:none;stroke-dashoffset:0;stroke-opacity:1;color-rendering:auto;image-rendering:auto;shape-rendering:auto;text-rendering:auto;enable-background:accumulate" d="m 25.027344,1013.3626 a 1.0000999,1.000153 0 0 0 -0.830078,0.4043 c 0,0 -4.300038,5.9703 -7.265625,11.7193 -2.039403,-3.1359 -4.169922,-5.7718 -4.169922,-5.7718 a 1.0000999,1.000153 0 0 0 -1.564453,0.051 c 0,0 -2.0210306,2.7213 -4.0468754,5.9847 -1.0129224,1.6317 -2.0298874,3.4011 -2.8066406,5.0628 C 3.5669968,1032.4744 3,1033.9894 3,1035.3617 c 0,4.7801 3.9456775,9.0005 9,9.0005 l 25,0 c 4.555075,0 8,-3.6932 8,-8.0004 0,-1.2541 -0.505469,-2.5959 -1.189453,-4.051 -0.683984,-1.4551 -1.576199,-2.9903 -2.464844,-4.4006 -1.77729,-2.8207 -3.548828,-5.1526 -3.548828,-5.1526 a 1.0000999,1.000153 0 0 0 -1.605469,0.016 c 0,0 -1.642392,2.4198 -3.076172,4.6155 -2.861765,-6.1303 -7.259765,-13.5437 -7.259765,-13.5437 a 1.0000999,1.000153 0 0 0 -0.828125,-0.4824 z m -0.103516,2.8653 c 1.086288,1.8284 4.859374,8.2341 7.158203,13.532 a 1.0000999,1.000153 0 0 0 1.771485,0.123 c 1.48952,-2.4483 2.563897,-3.906 3.160156,-4.7404 0.54765,0.7411 1.322322,1.7419 2.640625,3.8342 0.861355,1.367 1.71914,2.8466 2.347656,4.1838 0.628516,1.3371 0.998047,2.564 0.998047,3.2013 0,3.2571 -2.511785,6.0003 -6,6.0003 l -25,0 c -3.9350447,0 -7,-3.3261 -7,-7.0004 0,-0.7414 0.4330031,-2.156 1.15625,-3.7033 0.7232469,-1.5473 1.7062817,-3.2636 2.6933594,-4.8537 1.6054506,-2.5863 2.6699396,-4.0053 3.2148436,-4.7542 0.874841,1.083 2.458116,3.1043 4.076172,5.8225 a 1.0000999,1.000153 0 0 0 1.763672,-0.086 c 2.343206,-4.9829 5.848339,-9.9312 7.019531,-11.5592 z"/><path style="color:#000000;font-style:normal;font-variant:normal;font-weight:normal;font-stretch:normal;font-size:medium;line-height:normal;font-family:sans-serif;text-indent:0;text-align:start;text-decoration:none;text-decoration-line:none;text-decoration-style:solid;text-decoration-color:#000000;letter-spacing:normal;word-spacing:normal;text-transform:none;direction:ltr;block-progression:tb;writing-mode:lr-tb;baseline-shift:baseline;text-anchor:start;white-space:normal;clip-rule:nonzero;display:inline;overflow:visible;visibility:visible;opacity:1;isolation:auto;mix-blend-mode:normal;color-interpolation:sRGB;color-interpolation-filters:linearRGB;solid-color:#000000;solid-opacity:1;fill:#000000;fill-opacity:1;fill-rule:nonzero;stroke:none;stroke-width:1.99999988;stroke-linecap:round;stroke-linejoin:round;stroke-miterlimit:4;stroke-dasharray:none;stroke-dashoffset:0;stroke-opacity:1;color-rendering:auto;image-rendering:auto;shape-rendering:auto;text-rendering:auto;enable-background:accumulate" d="m 24.941406,1030.3622 a 1.0000999,1.0000999 0 0 0 -0.8125,0.3946 c 0,0 -1.485391,2.2513 -2.664062,4.2187 -0.55375,-0.7328 -1.310547,-1.7871 -1.310547,-1.7871 a 1.0000999,1.0000999 0 0 0 -1.548828,0.051 c 0,0 -0.871394,1.1407 -1.748047,2.5156 -0.438327,0.6874 -0.881955,1.4364 -1.228516,2.1582 C 15.282345,1038.6348 15,1039.2924 15,1040.0536 c 0,2.3169 1.945262,4.3086 4.400391,4.3086 l 10.625,0 c 2.228584,0 3.974609,-1.7923 3.974609,-3.8965 0,-0.708 -0.256723,-1.2981 -0.564453,-1.9355 -0.307731,-0.6374 -0.698047,-1.2865 -1.083985,-1.8828 -0.771874,-1.1927 -1.537109,-2.1758 -1.537109,-2.1758 a 1.0000999,1.0000999 0 0 0 -1.589844,0.016 c 0,0 -0.515146,0.7673 -0.80664,1.1778 -1.158297,-2.2005 -2.642578,-4.8282 -2.642578,-4.8282 a 1.0000999,1.0000999 0 0 0 -0.833985,-0.4746 z m -0.08008,2.9629 c 0.664763,1.1062 1.716908,2.7814 2.550781,4.6524 a 1.0000999,1.0000999 0 0 0 1.761719,0.123 c 0.40571,-0.6492 0.543974,-0.8099 0.865234,-1.2637 0.255483,0.3538 0.318873,0.4084 0.634766,0.8965 0.357813,0.5529 0.710856,1.15 0.960938,1.668 0.250082,0.518 0.365234,0.99 0.365234,1.0644 0,1.0257 -0.784796,1.8965 -1.974609,1.8965 l -10.625,0 c -1.365354,0 -2.400391,-1.1274 -2.400391,-2.3086 0,-0.1134 0.142655,-0.6694 0.433594,-1.2754 0.290939,-0.6059 0.697701,-1.3016 1.109375,-1.9472 0.438781,-0.6882 0.565306,-0.829 0.880859,-1.2676 0.412752,0.5143 0.703076,0.8098 1.248047,1.7012 a 1.0000999,1.0000999 0 0 0 1.753906,-0.088 c 0.834003,-1.7267 1.761249,-2.9154 2.435547,-3.8516 z"/></g></svg>