<svg width='200' height='200' fill="#000000" xmlns:dc="http://purl.org/dc/elements/1.1/" xmlns:cc="http://creativecommons.org/ns#" xmlns:rdf="http://www.w3.org/1999/02/22-rdf-syntax-ns#" xmlns:svg="http://www.w3.org/2000/svg" xmlns="http://www.w3.org/2000/svg" xmlns:sodipodi="http://sodipodi.sourceforge.net/DTD/sodipodi-0.dtd" xmlns:inkscape="http://www.inkscape.org/namespaces/inkscape" viewBox="0 0 48 48.000001" version="1.1" x="0px" y="0px"><g transform="translate(0,-1004.3622)"><path style="color:#000000;font-style:normal;font-variant:normal;font-weight:normal;font-stretch:normal;font-size:medium;line-height:normal;font-family:sans-serif;text-indent:0;text-align:start;text-decoration:none;text-decoration-line:none;text-decoration-style:solid;text-decoration-color:#000000;letter-spacing:normal;word-spacing:normal;text-transform:none;direction:ltr;block-progression:tb;writing-mode:lr-tb;baseline-shift:baseline;text-anchor:start;white-space:normal;clip-rule:nonzero;display:inline;overflow:visible;visibility:visible;opacity:1;isolation:auto;mix-blend-mode:normal;color-interpolation:sRGB;color-interpolation-filters:linearRGB;solid-color:#000000;solid-opacity:1;fill:#000000;fill-opacity:1;fill-rule:nonzero;stroke:none;stroke-width:2;stroke-linecap:round;stroke-linejoin:round;stroke-miterlimit:4;stroke-dasharray:none;stroke-dashoffset:0;stroke-opacity:1;color-rendering:auto;image-rendering:auto;shape-rendering:auto;text-rendering:auto;enable-background:accumulate" d="m 35.861328,1004.3617 a 1.0001,1.0001889 0 0 0 -0.128906,0.012 l 0.0059,0 c -0.0048,7e-4 -0.0088,0 -0.01367,0 a 1.0001,1.0001889 0 0 0 -0.316406,0.1074 c -4.252166,0.7832 -7.403274,4.4667 -7.408203,8.8348 a 1.0001,1.0001889 0 0 0 0.002,0.055 c 0.0014,0.026 0.0023,0.051 0.0039,0.076 a 1.0001,1.0001889 0 0 0 0.570313,0.8419 c 2.778341,1.3188 4.744819,3.9051 5.277344,6.942 a 1.0001,1.0001889 0 0 0 0.710937,0.7891 c 0.797188,0.2268 1.622525,0.3411 2.451172,0.3418 a 1.0001,1.0001889 0 0 0 0.002,0 c 3.258937,0 6.264291,-1.7738 7.855469,-4.6254 a 1.0001,1.0001889 0 0 0 -1.025391,-1.4766 c -0.32423,0.05 -0.650559,0.076 -0.978515,0.08 -6.67e-4,0 -0.0013,0 -0.002,0 -3.883163,-6e-4 -7.013516,-3.1407 -7.013672,-7.0456 0.0014,-1.2068 0.311792,-2.3939 0.90039,-3.4456 a 1.0001,1.0001889 0 0 0 -0.892578,-1.4864 z m -1.699219,2.6115 c -0.200347,0.7544 -0.307896,1.5336 -0.308593,2.3205 1.83e-4,4.602 3.502588,8.2732 7.945312,8.8289 -1.294868,1.2973 -2.901048,2.2361 -4.78125,2.2385 -0.477219,-4e-4 -0.945676,-0.1 -1.412109,-0.1972 -0.757128,-3.1002 -2.746621,-5.7195 -5.527344,-7.276 0.168348,-2.6419 1.757754,-4.8622 4.083984,-5.9147 z"/><path style="color:#000000;font-style:normal;font-variant:normal;font-weight:normal;font-stretch:normal;font-size:medium;line-height:normal;font-family:sans-serif;text-indent:0;text-align:start;text-decoration:none;text-decoration-line:none;text-decoration-style:solid;text-decoration-color:#000000;letter-spacing:normal;word-spacing:normal;text-transform:none;direction:ltr;block-progression:tb;writing-mode:lr-tb;baseline-shift:baseline;text-anchor:start;white-space:normal;clip-rule:nonzero;display:inline;overflow:visible;visibility:visible;opacity:1;isolation:auto;mix-blend-mode:normal;color-interpolation:sRGB;color-interpolation-filters:linearRGB;solid-color:#000000;solid-opacity:1;fill:#000000;fill-opacity:1;fill-rule:nonzero;stroke:none;stroke-width:2;stroke-linecap:round;stroke-linejoin:round;stroke-miterlimit:4;stroke-dasharray:none;stroke-dashoffset:0;stroke-opacity:1;color-rendering:auto;image-rendering:auto;shape-rendering:auto;text-rendering:auto;enable-background:accumulate" d="m 24.679848,1011.3626 c -4.172975,-0.038 -8.06505,2.4392 -10.351343,6.1069 -3.254567,-1.0584 -6.9261589,-0.7493 -9.4802668,1.7373 -2.6902302,2.6195 -3.5692385,6.5822 -2.2304212,10.0817 1.3387992,3.4996 4.6398288,5.8832 8.400212,6.0737 l 13.53682,0 c 6.675024,0 10.418539,-5.2975 11.300541,-10.1719 0.883954,-5.7254 -2.357539,-11.3027 -7.726399,-13.2378 -1.238198,-0.41 -2.301555,-0.5794 -3.449143,-0.5899 z m 0.27538,1.9933 0.0098,0 c 0.833336,0.031 1.66677,0.1855 2.486275,0.4808 4.457431,1.6066 7.169308,6.245 6.427597,11.049 -0.738113,4.7806 -4.668579,8.3129 -9.359176,8.4676 -4.459666,0.021 -8.94224,0.01 -13.409871,0.01 -2.9754302,-0.1548 -5.569038,-2.033 -6.6229062,-4.7878 -1.0550316,-2.7577 -0.3696652,-5.8625 1.755822,-7.9321 2.0716749,-2.017 5.1903172,-2.1858 8.0603752,-1.1218 0.650717,0.2413 1.079103,-0.049 1.400367,-0.577 2.057278,-3.3778 5.623801,-5.7213 9.251756,-5.589 z"/><path style="color:#000000;font-style:normal;font-variant:normal;font-weight:normal;font-stretch:normal;font-size:medium;line-height:normal;font-family:sans-serif;text-indent:0;text-align:start;text-decoration:none;text-decoration-line:none;text-decoration-style:solid;text-decoration-color:#000000;letter-spacing:normal;word-spacing:normal;text-transform:none;direction:ltr;block-progression:tb;writing-mode:lr-tb;baseline-shift:baseline;text-anchor:start;white-space:normal;clip-rule:nonzero;display:inline;overflow:visible;visibility:visible;opacity:1;isolation:auto;mix-blend-mode:normal;color-interpolation:sRGB;color-interpolation-filters:linearRGB;solid-color:#000000;solid-opacity:1;fill:#000000;fill-opacity:1;fill-rule:evenodd;stroke:none;stroke-width:2;stroke-linecap:round;stroke-linejoin:round;stroke-miterlimit:4;stroke-dasharray:none;stroke-dashoffset:0;stroke-opacity:1;color-rendering:auto;image-rendering:auto;shape-rendering:auto;text-rendering:auto;enable-background:accumulate" d="m 30.984095,1039.3621 a 1.0001,0.99997252 0 0 0 -0.984375,1.0155 l 0,3.9702 a 1.0001,0.99997252 0 1 0 2,0 l 0,-3.9702 a 1.0001,0.99997252 0 0 0 -1.015625,-1.0155 z"/><path style="color:#000000;font-style:normal;font-variant:normal;font-weight:normal;font-stretch:normal;font-size:medium;line-height:normal;font-family:sans-serif;text-indent:0;text-align:start;text-decoration:none;text-decoration-line:none;text-decoration-style:solid;text-decoration-color:#000000;letter-spacing:normal;word-spacing:normal;text-transform:none;direction:ltr;block-progression:tb;writing-mode:lr-tb;baseline-shift:baseline;text-anchor:start;white-space:normal;clip-rule:nonzero;display:inline;overflow:visible;visibility:visible;opacity:1;isolation:auto;mix-blend-mode:normal;color-interpolation:sRGB;color-interpolation-filters:linearRGB;solid-color:#000000;solid-opacity:1;fill:#000000;fill-opacity:1;fill-rule:nonzero;stroke:none;stroke-width:2;stroke-linecap:round;stroke-linejoin:round;stroke-miterlimit:4;stroke-dasharray:none;stroke-dashoffset:0;stroke-opacity:1;color-rendering:auto;image-rendering:auto;shape-rendering:auto;text-rendering:auto;enable-background:accumulate" d="m 30.99972,1046.3622 c -1.64501,0 -3,1.355 -3,3 0,1.645 1.35499,3 3,3 1.64501,0 3,-1.355 3,-3 0,-1.645 -1.35499,-3 -3,-3 z m 0,2 c 0.564129,0 1,0.4359 1,1 0,0.5642 -0.435871,1 -1,1 -0.564129,0 -1,-0.4358 -1,-1 0,-0.5641 0.435871,-1 1,-1 z"/><path style="color:#000000;font-style:normal;font-variant:normal;font-weight:normal;font-stretch:normal;font-size:medium;line-height:normal;font-family:sans-serif;text-indent:0;text-align:start;text-decoration:none;text-decoration-line:none;text-decoration-style:solid;text-decoration-color:#000000;letter-spacing:normal;word-spacing:normal;text-transform:none;direction:ltr;block-progression:tb;writing-mode:lr-tb;baseline-shift:baseline;text-anchor:start;white-space:normal;clip-rule:nonzero;display:inline;overflow:visible;visibility:visible;opacity:1;isolation:auto;mix-blend-mode:normal;color-interpolation:sRGB;color-interpolation-filters:linearRGB;solid-color:#000000;solid-opacity:1;fill:#000000;fill-opacity:1;fill-rule:evenodd;stroke:none;stroke-width:2;stroke-linecap:round;stroke-linejoin:round;stroke-miterlimit:4;stroke-dasharray:none;stroke-dashoffset:0;stroke-opacity:1;color-rendering:auto;image-rendering:auto;shape-rendering:auto;text-rendering:auto;enable-background:accumulate" d="m 14.984095,1039.3621 a 1.0001,0.99997252 0 0 0 -0.984375,1.0155 l 0,3.9702 a 1.0001,0.99997252 0 1 0 2,0 l 0,-3.9702 a 1.0001,0.99997252 0 0 0 -1.015625,-1.0155 z"/><path style="color:#000000;font-style:normal;font-variant:normal;font-weight:normal;font-stretch:normal;font-size:medium;line-height:normal;font-family:sans-serif;text-indent:0;text-align:start;text-decoration:none;text-decoration-line:none;text-decoration-style:solid;text-decoration-color:#000000;letter-spacing:normal;word-spacing:normal;text-transform:none;direction:ltr;block-progression:tb;writing-mode:lr-tb;baseline-shift:baseline;text-anchor:start;white-space:normal;clip-rule:nonzero;display:inline;overflow:visible;visibility:visible;opacity:1;isolation:auto;mix-blend-mode:normal;color-interpolation:sRGB;color-interpolation-filters:linearRGB;solid-color:#000000;solid-opacity:1;fill:#000000;fill-opacity:1;fill-rule:nonzero;stroke:none;stroke-width:2;stroke-linecap:round;stroke-linejoin:round;stroke-miterlimit:4;stroke-dasharray:none;stroke-dashoffset:0;stroke-opacity:1;color-rendering:auto;image-rendering:auto;shape-rendering:auto;text-rendering:auto;enable-background:accumulate" d="m 14.99972,1046.3622 c -1.64501,0 -3,1.355 -3,3 0,1.645 1.35499,3 3,3 1.64501,0 3,-1.355 3,-3 0,-1.645 -1.35499,-3 -3,-3 z m 0,2 c 0.564129,0 1,0.4359 1,1 0,0.5642 -0.435871,1 -1,1 -0.564129,0 -1,-0.4358 -1,-1 0,-0.5641 0.435871,-1 1,-1 z"/><path style="color:#000000;font-style:normal;font-variant:normal;font-weight:normal;font-stretch:normal;font-size:medium;line-height:normal;font-family:sans-serif;text-indent:0;text-align:start;text-decoration:none;text-decoration-line:none;text-decoration-style:solid;text-decoration-color:#000000;letter-spacing:normal;word-spacing:normal;text-transform:none;direction:ltr;block-progression:tb;writing-mode:lr-tb;baseline-shift:baseline;text-anchor:start;white-space:normal;clip-rule:nonzero;display:inline;overflow:visible;visibility:visible;opacity:1;isolation:auto;mix-blend-mode:normal;color-interpolation:sRGB;color-interpolation-filters:linearRGB;solid-color:#000000;solid-opacity:1;fill:#000000;fill-opacity:1;fill-rule:evenodd;stroke:none;stroke-width:2;stroke-linecap:round;stroke-linejoin:round;stroke-miterlimit:4;stroke-dasharray:none;stroke-dashoffset:0;stroke-opacity:1;color-rendering:auto;image-rendering:auto;shape-rendering:auto;text-rendering:auto;enable-background:accumulate" d="m 22.984095,1036.3621 a 1.0001,0.99997252 0 0 0 -0.984375,1.0155 l 0,3.9702 a 1.0001,0.99997252 0 1 0 2,0 l 0,-3.9702 a 1.0001,0.99997252 0 0 0 -1.015625,-1.0155 z"/><path style="color:#000000;font-style:normal;font-variant:normal;font-weight:normal;font-stretch:normal;font-size:medium;line-height:normal;font-family:sans-serif;text-indent:0;text-align:start;text-decoration:none;text-decoration-line:none;text-decoration-style:solid;text-decoration-color:#000000;letter-spacing:normal;word-spacing:normal;text-transform:none;direction:ltr;block-progression:tb;writing-mode:lr-tb;baseline-shift:baseline;text-anchor:start;white-space:normal;clip-rule:nonzero;display:inline;overflow:visible;visibility:visible;opacity:1;isolation:auto;mix-blend-mode:normal;color-interpolation:sRGB;color-interpolation-filters:linearRGB;solid-color:#000000;solid-opacity:1;fill:#000000;fill-opacity:1;fill-rule:nonzero;stroke:none;stroke-width:2;stroke-linecap:round;stroke-linejoin:round;stroke-miterlimit:4;stroke-dasharray:none;stroke-dashoffset:0;stroke-opacity:1;color-rendering:auto;image-rendering:auto;shape-rendering:auto;text-rendering:auto;enable-background:accumulate" d="m 22.99972,1043.3622 c -1.64501,0 -3,1.355 -3,3 0,1.645 1.35499,3 3,3 1.64501,0 3,-1.355 3,-3 0,-1.645 -1.35499,-3 -3,-3 z m 0,2 c 0.564129,0 1,0.4359 1,1 0,0.5642 -0.435871,1 -1,1 -0.564129,0 -1,-0.4358 -1,-1 0,-0.5641 0.435871,-1 1,-1 z"/><path style="color:#000000;font-style:normal;font-variant:normal;font-weight:normal;font-stretch:normal;font-size:medium;line-height:normal;font-family:sans-serif;text-indent:0;text-align:start;text-decoration:none;text-decoration-line:none;text-decoration-style:solid;text-decoration-color:#000000;letter-spacing:normal;word-spacing:normal;text-transform:none;direction:ltr;block-progression:tb;writing-mode:lr-tb;baseline-shift:baseline;text-anchor:start;white-space:normal;clip-rule:nonzero;display:inline;overflow:visible;visibility:visible;opacity:1;isolation:auto;mix-blend-mode:normal;color-interpolation:sRGB;color-interpolation-filters:linearRGB;solid-color:#000000;solid-opacity:1;fill:#000000;fill-opacity:1;fill-rule:evenodd;stroke:none;stroke-width:2;stroke-linecap:round;stroke-linejoin:round;stroke-miterlimit:4;stroke-dasharray:none;stroke-dashoffset:0;stroke-opacity:1;color-rendering:auto;image-rendering:auto;shape-rendering:auto;text-rendering:auto;enable-background:accumulate" d="m 6.9840945,1036.3621 a 1.0001,0.99997252 0 0 0 -0.984375,1.0155 l 0,3.9702 a 1.0001,0.99997252 0 1 0 2,0 l 0,-3.9702 a 1.0001,0.99997252 0 0 0 -1.015625,-1.0155 z"/><path style="color:#000000;font-style:normal;font-variant:normal;font-weight:normal;font-stretch:normal;font-size:medium;line-height:normal;font-family:sans-serif;text-indent:0;text-align:start;text-decoration:none;text-decoration-line:none;text-decoration-style:solid;text-decoration-color:#000000;letter-spacing:normal;word-spacing:normal;text-transform:none;direction:ltr;block-progression:tb;writing-mode:lr-tb;baseline-shift:baseline;text-anchor:start;white-space:normal;clip-rule:nonzero;display:inline;overflow:visible;visibility:visible;opacity:1;isolation:auto;mix-blend-mode:normal;color-interpolation:sRGB;color-interpolation-filters:linearRGB;solid-color:#000000;solid-opacity:1;fill:#000000;fill-opacity:1;fill-rule:nonzero;stroke:none;stroke-width:2;stroke-linecap:round;stroke-linejoin:round;stroke-miterlimit:4;stroke-dasharray:none;stroke-dashoffset:0;stroke-opacity:1;color-rendering:auto;image-rendering:auto;shape-rendering:auto;text-rendering:auto;enable-background:accumulate" d="m 6.9997195,1043.3622 c -1.64501,0 -3,1.355 -3,3 0,1.645 1.35499,3 3,3 1.64501,0 3,-1.355 3,-3 0,-1.645 -1.35499,-3 -3,-3 z m 0,2 c 0.564129,0 1,0.4359 1,1 0,0.5642 -0.435871,1 -1,1 -0.564129,0 -1,-0.4358 -1,-1 0,-0.5641 0.435871,-1 1,-1 z"/></g></svg>