<svg width='200' height='200' fill="#000000" xmlns:dc="http://purl.org/dc/elements/1.1/" xmlns:cc="http://creativecommons.org/ns#" xmlns:rdf="http://www.w3.org/1999/02/22-rdf-syntax-ns#" xmlns:svg="http://www.w3.org/2000/svg" xmlns="http://www.w3.org/2000/svg" xmlns:sodipodi="http://sodipodi.sourceforge.net/DTD/sodipodi-0.dtd" xmlns:inkscape="http://www.inkscape.org/namespaces/inkscape" viewBox="0 0 48 48.000001" version="1.1" x="0px" y="0px"><g transform="translate(0,-1004.3622)"><path style="color:#000000;font-style:normal;font-variant:normal;font-weight:normal;font-stretch:normal;font-size:medium;line-height:normal;font-family:sans-serif;text-indent:0;text-align:start;text-decoration:none;text-decoration-line:none;text-decoration-style:solid;text-decoration-color:#000000;letter-spacing:normal;word-spacing:normal;text-transform:none;direction:ltr;block-progression:tb;writing-mode:lr-tb;baseline-shift:baseline;text-anchor:start;white-space:normal;clip-rule:nonzero;display:inline;overflow:visible;visibility:visible;opacity:1;isolation:auto;mix-blend-mode:normal;color-interpolation:sRGB;color-interpolation-filters:linearRGB;solid-color:#000000;solid-opacity:1;fill:#000000;fill-opacity:1;fill-rule:nonzero;stroke:none;stroke-width:1.99999988;stroke-linecap:round;stroke-linejoin:round;stroke-miterlimit:4;stroke-dasharray:none;stroke-dashoffset:0;stroke-opacity:1;color-rendering:auto;image-rendering:auto;shape-rendering:auto;text-rendering:auto;enable-background:accumulate" d="m 7.8653334,1023.3614 -0.019531,0 c -0.7433916,0.027 -1.4949995,0.1644 -2.2265905,0.4258 -3.8311941,1.3683 -6.1468454,5.3183 -5.51569447,9.3694 0.71404868,3.9368 3.37763547,7.2035 8.07627357,7.2035 3.1068647,0 6.2210957,0 9.3243337,0 2.704094,-0.1357 5.084088,-1.8356 6.050859,-4.3398 0.966779,-2.5044 0.329582,-5.3461 -1.609396,-7.217 -1.784097,-1.7213 -4.289538,-1.8711 -6.548911,-1.2246 -1.615492,-2.4937 -4.308144,-4.1453 -7.2129803,-4.1701 -0.1027766,-0.033 -0.2102918,-0.05 -0.3183635,-0.049 z m 0.013672,2.0079 c 0.01302,3e-4 0.026043,3e-4 0.039064,0 2.3627753,-0.086 4.7463543,1.4297 6.0782023,3.6486 0.36755,0.6123 0.726731,0.7138 1.337895,0.5322 1.928347,-0.5729 3.901854,-0.5789 5.222722,0.6953 1.372015,1.3239 1.809965,3.2996 1.130873,5.0588 -0.678335,1.7571 -2.352108,2.9594 -4.27935,3.0586 -3.059771,-0.01 -6.141415,0.019 -9.1915225,-0.01 -3.0778051,-0.1002 -5.6526015,-2.3944 -6.136796,-5.5021 -0.4865472,-3.1229 1.2881887,-6.1334 4.2129437,-7.1779 0.5228719,-0.1868 1.0536573,-0.28 1.5859574,-0.3028 z"/><path style="color:#000000;font-style:normal;font-variant:normal;font-weight:normal;font-stretch:normal;font-size:medium;line-height:normal;font-family:sans-serif;text-indent:0;text-align:start;text-decoration:none;text-decoration-line:none;text-decoration-style:solid;text-decoration-color:#000000;letter-spacing:normal;word-spacing:normal;text-transform:none;direction:ltr;block-progression:tb;writing-mode:lr-tb;baseline-shift:baseline;text-anchor:start;white-space:normal;clip-rule:nonzero;display:inline;overflow:visible;visibility:visible;opacity:1;isolation:auto;mix-blend-mode:normal;color-interpolation:sRGB;color-interpolation-filters:linearRGB;solid-color:#000000;solid-opacity:1;fill:#000000;fill-opacity:1;fill-rule:nonzero;stroke:none;stroke-width:1.99999988;stroke-linecap:round;stroke-linejoin:round;stroke-miterlimit:4;stroke-dasharray:none;stroke-dashoffset:0;stroke-opacity:1;color-rendering:auto;image-rendering:auto;shape-rendering:auto;text-rendering:auto;enable-background:accumulate" d="m 32.603926,1014.5801 c -2.259373,-0.6464 -4.764812,-0.4966 -6.548909,1.2246 -1.938981,1.871 -2.576178,4.7127 -1.609398,7.217 0.966773,2.5043 3.346765,4.2042 6.050859,4.3399 3.506265,0.021 6.821764,0.092 9.752075,-0.096 3.850797,-0.3186 7.042167,-3.2157 7.648533,-7.1076 0.631151,-4.0511 -1.6845,-8.0011 -5.515694,-9.3693 -0.73159,-0.2614 -1.482958,-0.4448 -2.22659,-0.4258 -3.369664,0.086 -6.102965,2.0651 -7.550876,4.2172 z m 7.478607,-2.2112 c 0.01302,3e-4 0.02604,3e-4 0.03906,0 0.5323,0.023 1.063085,0.116 1.585957,0.3028 2.924755,1.0446 4.699492,4.0551 4.212945,7.1779 -0.484196,3.1077 -3.058992,5.402 -6.136798,5.5022 -0.03727,0 -0.07443,0 -0.111328,0.01 l -9.080192,0 c -1.927244,-0.099 -3.601016,-1.3016 -4.279352,-3.0587 -0.679091,-1.7591 -0.24114,-3.7348 1.130873,-5.0587 1.32087,-1.2743 3.337935,-1.3985 5.222724,-0.6954 0.581312,0.217 1.039182,-0.074 1.337956,-0.5425 1.39226,-2.1814 3.715424,-3.7345 6.078201,-3.6486 z"/><path style="color:#000000;font-style:normal;font-variant:normal;font-weight:normal;font-stretch:normal;font-size:medium;line-height:normal;font-family:sans-serif;text-indent:0;text-align:start;text-decoration:none;text-decoration-line:none;text-decoration-style:solid;text-decoration-color:#000000;letter-spacing:normal;word-spacing:normal;text-transform:none;direction:ltr;block-progression:tb;writing-mode:lr-tb;baseline-shift:baseline;text-anchor:start;white-space:normal;clip-rule:nonzero;display:inline;overflow:visible;visibility:visible;opacity:1;isolation:auto;mix-blend-mode:normal;color-interpolation:sRGB;color-interpolation-filters:linearRGB;solid-color:#000000;solid-opacity:1;fill:#000000;fill-opacity:1;fill-rule:nonzero;stroke:none;stroke-width:2;stroke-linecap:round;stroke-linejoin:round;stroke-miterlimit:4;stroke-dasharray:none;stroke-dashoffset:0;stroke-opacity:1;color-rendering:auto;image-rendering:auto;shape-rendering:auto;text-rendering:auto;enable-background:accumulate" d="m 21.863556,1004.4703 c 6.101585,-0.6216 12.297643,1.4499 16.826385,5.8811 a 1.0001126,1.0001267 0 1 1 -1.398456,1.4296 c -5.466775,-5.3488 -13.604837,-6.8993 -20.658463,-3.9356 -7.0536386,2.9637 -11.6355126,9.8583 -11.6329591,17.5025 a 1.0001126,1.0001267 0 1 1 -2.0000252,0 c -0.00282,-8.4446 5.0672134,-16.073 12.8575833,-19.3463 1.94759,-0.8183 3.972074,-1.3241 6.005935,-1.5313 z"/><path style="color:#000000;font-style:normal;font-variant:normal;font-weight:normal;font-stretch:normal;font-size:medium;line-height:normal;font-family:sans-serif;text-indent:0;text-align:start;text-decoration:none;text-decoration-line:none;text-decoration-style:solid;text-decoration-color:#000000;letter-spacing:normal;word-spacing:normal;text-transform:none;direction:ltr;block-progression:tb;writing-mode:lr-tb;baseline-shift:baseline;text-anchor:start;white-space:normal;clip-rule:nonzero;display:inline;overflow:visible;visibility:visible;opacity:1;isolation:auto;mix-blend-mode:normal;color-interpolation:sRGB;color-interpolation-filters:linearRGB;solid-color:#000000;solid-opacity:1;fill:#000000;fill-opacity:1;fill-rule:nonzero;stroke:none;stroke-width:1.99999988;stroke-linecap:round;stroke-linejoin:round;stroke-miterlimit:4;stroke-dasharray:none;stroke-dashoffset:0;stroke-opacity:1;color-rendering:auto;image-rendering:auto;shape-rendering:auto;text-rendering:auto;enable-background:accumulate" d="m 21.912385,1008.4841 c 4.482801,-0.5352 9.071315,0.7056 12.697425,3.5723 a 1.0001125,1.0001266 0 1 1 -1.240248,1.5685 c -4.270112,-3.376 -10.053705,-4.201 -15.115425,-2.1544 -5.061722,2.0467 -8.599879,6.6372 -9.2598832,12.0003 a 1.0001125,1.0001266 0 1 1 -1.9843999,-0.2441 c 0.7490158,-6.0864 4.7685211,-11.2947 10.4942721,-13.6097 1.431438,-0.5788 2.913992,-0.9544 4.408259,-1.1329 z"/><path style="color:#000000;font-style:normal;font-variant:normal;font-weight:normal;font-stretch:normal;font-size:medium;line-height:normal;font-family:sans-serif;text-indent:0;text-align:start;text-decoration:none;text-decoration-line:none;text-decoration-style:solid;text-decoration-color:#000000;letter-spacing:normal;word-spacing:normal;text-transform:none;direction:ltr;block-progression:tb;writing-mode:lr-tb;baseline-shift:baseline;text-anchor:start;white-space:normal;clip-rule:nonzero;display:inline;overflow:visible;visibility:visible;opacity:1;isolation:auto;mix-blend-mode:normal;color-interpolation:sRGB;color-interpolation-filters:linearRGB;solid-color:#000000;solid-opacity:1;fill:#000000;fill-opacity:1;fill-rule:nonzero;stroke:none;stroke-width:1.99999988;stroke-linecap:round;stroke-linejoin:round;stroke-miterlimit:4;stroke-dasharray:none;stroke-dashoffset:0;stroke-opacity:1;color-rendering:auto;image-rendering:auto;shape-rendering:auto;text-rendering:auto;enable-background:accumulate" d="m 23.982724,1012.3611 c 2.245736,0 4.491691,0.5758 6.503987,1.7326 a 1.0001125,1.0001266 0 1 1 -0.996106,1.7343 c -3.408263,-1.9589 -7.605595,-1.956 -11.009903,0.01 -3.404245,1.966 -5.491211,5.5898 -5.480538,9.5081 a 1.0001125,1.0001266 0 1 1 -2.000026,0 c -0.01262,-4.6328 2.460689,-8.923 6.480552,-11.2444 2.009967,-1.1608 4.256298,-1.742 6.502034,-1.7443 z"/><path style="color:#000000;font-style:normal;font-variant:normal;font-weight:normal;font-stretch:normal;font-size:medium;line-height:normal;font-family:sans-serif;text-indent:0;text-align:start;text-decoration:none;text-decoration-line:none;text-decoration-style:solid;text-decoration-color:#000000;letter-spacing:normal;word-spacing:normal;text-transform:none;direction:ltr;block-progression:tb;writing-mode:lr-tb;baseline-shift:baseline;text-anchor:start;white-space:normal;clip-rule:nonzero;display:inline;overflow:visible;visibility:visible;opacity:1;isolation:auto;mix-blend-mode:normal;color-interpolation:sRGB;color-interpolation-filters:linearRGB;solid-color:#000000;solid-opacity:1;fill:#000000;fill-opacity:1;fill-rule:nonzero;stroke:none;stroke-width:2;stroke-linecap:round;stroke-linejoin:round;stroke-miterlimit:4;stroke-dasharray:none;stroke-dashoffset:0;stroke-opacity:1;color-rendering:auto;image-rendering:auto;shape-rendering:auto;text-rendering:auto;enable-background:accumulate" d="m 30.967187,1029.3636 a 1.0001126,1.0001267 0 0 0 -0.789072,0.4297 c 0,0 -0.519717,0.7503 -1.042983,1.6523 -0.261633,0.451 -0.526825,0.9425 -0.73829,1.4239 -0.211464,0.4814 -0.39649,0.9143 -0.39649,1.4922 0,1.6452 1.355026,3.0001 3.000038,3.0001 1.645013,0 3.000039,-1.3549 3.000039,-3.0001 0,-0.5779 -0.185027,-1.0108 -0.39649,-1.4922 -0.211465,-0.4814 -0.476658,-0.9729 -0.738291,-1.4239 -0.523266,-0.902 -1.042982,-1.6523 -1.042982,-1.6523 a 1.0001126,1.0001267 0 0 0 -0.855479,-0.4297 z m 0.0332,2.8711 c 0.06613,0.1095 0.06744,0.099 0.134768,0.2148 0.238374,0.411 0.473186,0.8525 0.636726,1.2247 0.163542,0.3723 0.228518,0.7131 0.228518,0.6875 0,0.5643 -0.435858,1.0001 -1.000012,1.0001 -0.564154,0 -1.000013,-0.4358 -1.000013,-1.0001 0,0.026 0.06498,-0.3152 0.22852,-0.6875 0.16354,-0.3722 0.398352,-0.8137 0.636725,-1.2247 0.06733,-0.116 0.06863,-0.1053 0.134768,-0.2148 z"/><path style="color:#000000;font-style:normal;font-variant:normal;font-weight:normal;font-stretch:normal;font-size:medium;line-height:normal;font-family:sans-serif;text-indent:0;text-align:start;text-decoration:none;text-decoration-line:none;text-decoration-style:solid;text-decoration-color:#000000;letter-spacing:normal;word-spacing:normal;text-transform:none;direction:ltr;block-progression:tb;writing-mode:lr-tb;baseline-shift:baseline;text-anchor:start;white-space:normal;clip-rule:nonzero;display:inline;overflow:visible;visibility:visible;opacity:1;isolation:auto;mix-blend-mode:normal;color-interpolation:sRGB;color-interpolation-filters:linearRGB;solid-color:#000000;solid-opacity:1;fill:#000000;fill-opacity:1;fill-rule:nonzero;stroke:none;stroke-width:2;stroke-linecap:round;stroke-linejoin:round;stroke-miterlimit:4;stroke-dasharray:none;stroke-dashoffset:0;stroke-opacity:1;color-rendering:auto;image-rendering:auto;shape-rendering:auto;text-rendering:auto;enable-background:accumulate" d="m 40.967313,1033.3637 a 1.0001126,1.0001267 0 0 0 -0.789073,0.4297 c 0,0 -0.519715,0.7503 -1.042982,1.6524 -0.261633,0.451 -0.526825,0.9425 -0.73829,1.4238 -0.211464,0.4814 -0.39649,0.9143 -0.39649,1.4922 0,1.6451 1.355027,3.0001 3.000038,3.0001 1.645012,0 3.000038,-1.355 3.000038,-3.0001 0,-0.5779 -0.185026,-1.0108 -0.39649,-1.4922 -0.211464,-0.4813 -0.476658,-0.9728 -0.73829,-1.4238 -0.523266,-0.9021 -1.042982,-1.6524 -1.042982,-1.6524 a 1.0001126,1.0001267 0 0 0 -0.855479,-0.4297 z m 0.0332,2.8712 c 0.06613,0.1095 0.06744,0.099 0.134767,0.2148 0.238374,0.4109 0.473187,0.8524 0.636726,1.2246 0.163542,0.3723 0.22852,0.7131 0.22852,0.6875 0,0.5642 -0.435859,1 -1.000013,1 -0.564152,0 -1.000013,-0.4358 -1.000013,-1 0,0.026 0.06498,-0.3152 0.22852,-0.6875 0.16354,-0.3722 0.398352,-0.8137 0.636726,-1.2246 0.06733,-0.116 0.06863,-0.1053 0.134767,-0.2148 z"/><path style="color:#000000;font-style:normal;font-variant:normal;font-weight:normal;font-stretch:normal;font-size:medium;line-height:normal;font-family:sans-serif;text-indent:0;text-align:start;text-decoration:none;text-decoration-line:none;text-decoration-style:solid;text-decoration-color:#000000;letter-spacing:normal;word-spacing:normal;text-transform:none;direction:ltr;block-progression:tb;writing-mode:lr-tb;baseline-shift:baseline;text-anchor:start;white-space:normal;clip-rule:nonzero;display:inline;overflow:visible;visibility:visible;opacity:1;isolation:auto;mix-blend-mode:normal;color-interpolation:sRGB;color-interpolation-filters:linearRGB;solid-color:#000000;solid-opacity:1;fill:#000000;fill-opacity:1;fill-rule:nonzero;stroke:none;stroke-width:2;stroke-linecap:round;stroke-linejoin:round;stroke-miterlimit:4;stroke-dasharray:none;stroke-dashoffset:0;stroke-opacity:1;color-rendering:auto;image-rendering:auto;shape-rendering:auto;text-rendering:auto;enable-background:accumulate" d="m 16.96701,1044.364 a 1.0001126,1.0001267 0 0 0 -0.789073,0.4297 c 0,0 -0.519715,0.7503 -1.04298,1.6523 -0.261634,0.451 -0.526827,0.9425 -0.738292,1.4238 -0.211464,0.4814 -0.396488,0.9144 -0.396488,1.4924 0,1.6451 1.355026,3 3.000037,3 1.645012,0 3.000038,-1.3549 3.000038,-3 0,-0.578 -0.185025,-1.011 -0.396488,-1.4924 -0.211465,-0.4813 -0.476659,-0.9728 -0.738293,-1.4238 -0.523265,-0.902 -1.042981,-1.6523 -1.042981,-1.6523 a 1.0001126,1.0001267 0 0 0 -0.85548,-0.4297 z m 0.0332,2.8711 c 0.06613,0.1095 0.06744,0.099 0.134768,0.2148 0.238373,0.4109 0.473185,0.8524 0.636727,1.2247 0.16354,0.3724 0.228517,0.7132 0.228517,0.6876 0,0.5642 -0.435858,1 -1.000012,1 -0.564154,0 -1.000013,-0.4358 -1.000013,-1 0,0.026 0.06498,-0.3152 0.228519,-0.6876 0.16354,-0.3723 0.398354,-0.8138 0.636726,-1.2247 0.06733,-0.116 0.06863,-0.1053 0.134768,-0.2148 z"/><path style="color:#000000;font-style:normal;font-variant:normal;font-weight:normal;font-stretch:normal;font-size:medium;line-height:normal;font-family:sans-serif;text-indent:0;text-align:start;text-decoration:none;text-decoration-line:none;text-decoration-style:solid;text-decoration-color:#000000;letter-spacing:normal;word-spacing:normal;text-transform:none;direction:ltr;block-progression:tb;writing-mode:lr-tb;baseline-shift:baseline;text-anchor:start;white-space:normal;clip-rule:nonzero;display:inline;overflow:visible;visibility:visible;opacity:1;isolation:auto;mix-blend-mode:normal;color-interpolation:sRGB;color-interpolation-filters:linearRGB;solid-color:#000000;solid-opacity:1;fill:#000000;fill-opacity:1;fill-rule:nonzero;stroke:none;stroke-width:2;stroke-linecap:round;stroke-linejoin:round;stroke-miterlimit:4;stroke-dasharray:none;stroke-dashoffset:0;stroke-opacity:1;color-rendering:auto;image-rendering:auto;shape-rendering:auto;text-rendering:auto;enable-background:accumulate" d="m 6.9668846,1041.3639 a 1.0001126,1.0001267 0 0 0 -0.7890724,0.4298 c 0,0 -0.519716,0.7503 -1.042982,1.6523 -0.2616328,0.451 -0.5268264,0.9425 -0.7382905,1.4238 -0.211464,0.4814 -0.3964894,0.9143 -0.3964894,1.4922 0,1.6451 1.3550261,3.0002 3.0000378,3.0002 1.6450117,0 3.0000379,-1.3551 3.0000379,-3.0002 0,-0.5779 -0.1850255,-1.0108 -0.3964895,-1.4922 -0.211464,-0.4813 -0.4766575,-0.9728 -0.7382905,-1.4238 -0.5232659,-0.902 -1.0429819,-1.6523 -1.0429819,-1.6523 a 1.0001126,1.0001267 0 0 0 -0.8554795,-0.4298 z m 0.033202,2.8712 c 0.066134,0.1095 0.067439,0.099 0.1347673,0.2148 0.2383734,0.4109 0.4731861,0.8524 0.6367268,1.2246 0.1635409,0.3723 0.2285185,0.7131 0.2285185,0.6875 0,0.5642 -0.4358585,1 -1.0000126,1 -0.5641541,0 -1.0000125,-0.4358 -1.0000125,-1 0,0.026 0.064978,-0.3152 0.2285184,-0.6875 0.1635408,-0.3722 0.3983534,-0.8137 0.6367268,-1.2246 0.067329,-0.116 0.068634,-0.1053 0.1347673,-0.2148 z"/></g></svg>