<svg width='200' height='200' fill="#000000" xmlns:dc="http://purl.org/dc/elements/1.1/" xmlns:cc="http://creativecommons.org/ns#" xmlns:rdf="http://www.w3.org/1999/02/22-rdf-syntax-ns#" xmlns:svg="http://www.w3.org/2000/svg" xmlns="http://www.w3.org/2000/svg" xmlns:sodipodi="http://sodipodi.sourceforge.net/DTD/sodipodi-0.dtd" xmlns:inkscape="http://www.inkscape.org/namespaces/inkscape" viewBox="0 0 48 48.000001" version="1.1" x="0px" y="0px"><g transform="translate(0,-1004.3622)"><path style="color:#000000;font-style:normal;font-variant:normal;font-weight:normal;font-stretch:normal;font-size:medium;line-height:normal;font-family:sans-serif;text-indent:0;text-align:start;text-decoration:none;text-decoration-line:none;text-decoration-style:solid;text-decoration-color:#000000;letter-spacing:normal;word-spacing:normal;text-transform:none;direction:ltr;block-progression:tb;writing-mode:lr-tb;baseline-shift:baseline;text-anchor:start;white-space:normal;clip-rule:nonzero;display:inline;overflow:visible;visibility:visible;opacity:1;isolation:auto;mix-blend-mode:normal;color-interpolation:sRGB;color-interpolation-filters:linearRGB;solid-color:#000000;solid-opacity:1;fill:#000000;fill-opacity:1;fill-rule:evenodd;stroke:none;stroke-width:1.99999988;stroke-linecap:round;stroke-linejoin:round;stroke-miterlimit:4;stroke-dasharray:none;stroke-dashoffset:0;stroke-opacity:1;color-rendering:auto;image-rendering:auto;shape-rendering:auto;text-rendering:auto;enable-background:accumulate" d="m 7.9846953,1041.3623 a 1.0004255,1.0005651 0 0 0 -0.595897,1.7919 c 0,0 0.6701562,0.5314 1.5415173,1.065 0.8713611,0.5334 1.8883694,1.143 3.0791264,1.143 1.190759,0 1.994859,-0.7134 2.621948,-1.2115 0.627089,-0.498 1.078002,-0.7796 1.377401,-0.7796 0.2994,0 0.750313,0.2816 1.377401,0.7796 0.627089,0.4981 1.429236,1.2115 2.619994,1.2115 1.190758,0 1.994858,-0.7134 2.621947,-1.2115 0.627088,-0.498 1.078001,-0.7796 1.377401,-0.7796 0.2994,0 0.750314,0.2816 1.377402,0.7796 0.627089,0.4981 1.431189,1.2115 2.621947,1.2115 1.190758,0 1.992905,-0.7134 2.619994,-1.2115 0.627088,-0.498 1.078002,-0.7796 1.377401,-0.7796 0.299398,0 0.750312,0.2816 1.377401,0.7796 0.627088,0.4981 1.431189,1.2115 2.621948,1.2115 1.190757,0 2.207765,-0.6096 3.079126,-1.143 0.871361,-0.5336 1.541517,-1.065 1.541517,-1.065 a 1.0005403,1.0006798 0 1 0 -1.244545,-1.5672 c 0,0 -0.584925,0.4638 -1.34028,0.9263 -0.755356,0.4624 -1.73642,0.848 -2.035818,0.848 -0.2994,0 -0.750314,-0.2797 -1.377403,-0.7777 -0.627088,-0.498 -1.431188,-1.2135 -2.621946,-1.2135 -1.190759,0 -1.994859,0.7155 -2.621947,1.2135 -0.627089,0.498 -1.076049,0.7777 -1.375448,0.7777 -0.299399,0 -0.750313,-0.2797 -1.377401,-0.7777 -0.627089,-0.498 -1.43119,-1.2135 -2.621948,-1.2135 -1.190757,0 -1.994858,0.7155 -2.621947,1.2135 -0.627088,0.498 -1.078001,0.7777 -1.377401,0.7777 -0.2994,0 -0.748359,-0.2797 -1.375448,-0.7777 -0.627088,-0.498 -1.431189,-1.2135 -2.621947,-1.2135 -1.190758,0 -1.994858,0.7155 -2.621947,1.2135 -0.627089,0.498 -1.078002,0.7777 -1.377402,0.7777 -0.299398,0 -1.280463,-0.3856 -2.0358182,-0.848 -0.7553553,-0.4625 -1.3402799,-0.9263 -1.3402799,-0.9263 a 1.0004255,1.0005651 0 0 0 -0.6486486,-0.2247 z"/><path style="color:#000000;font-style:normal;font-variant:normal;font-weight:normal;font-stretch:normal;font-size:medium;line-height:normal;font-family:sans-serif;text-indent:0;text-align:start;text-decoration:none;text-decoration-line:none;text-decoration-style:solid;text-decoration-color:#000000;letter-spacing:normal;word-spacing:normal;text-transform:none;direction:ltr;block-progression:tb;writing-mode:lr-tb;baseline-shift:baseline;text-anchor:start;white-space:normal;clip-rule:nonzero;display:inline;overflow:visible;visibility:visible;opacity:1;isolation:auto;mix-blend-mode:normal;color-interpolation:sRGB;color-interpolation-filters:linearRGB;solid-color:#000000;solid-opacity:1;fill:#000000;fill-opacity:1;fill-rule:evenodd;stroke:none;stroke-width:1.99999988;stroke-linecap:round;stroke-linejoin:round;stroke-miterlimit:4;stroke-dasharray:none;stroke-dashoffset:0;stroke-opacity:1;color-rendering:auto;image-rendering:auto;shape-rendering:auto;text-rendering:auto;enable-background:accumulate" d="m 7.9846953,1047.3623 a 1.0004255,1.0005651 0 0 0 -0.595897,1.7919 c 0,0 0.6701564,0.5314 1.5415173,1.065 0.8713609,0.5334 1.8883694,1.143 3.0791264,1.143 1.190759,0 1.994859,-0.7134 2.621948,-1.2115 0.627089,-0.498 1.078002,-0.7796 1.377401,-0.7796 0.2994,0 0.750313,0.2816 1.377401,0.7796 0.627089,0.4981 1.429236,1.2115 2.619994,1.2115 1.190758,0 1.994858,-0.7134 2.621947,-1.2115 0.627088,-0.498 1.078001,-0.7796 1.377401,-0.7796 0.2994,0 0.750314,0.2816 1.377402,0.7796 0.627089,0.4981 1.431189,1.2115 2.621947,1.2115 1.190758,0 1.992905,-0.7134 2.619994,-1.2115 0.627088,-0.498 1.078002,-0.7796 1.377401,-0.7796 0.299398,0 0.750312,0.2816 1.377401,0.7796 0.627088,0.4981 1.431189,1.2115 2.621948,1.2115 1.190757,0 2.207765,-0.6096 3.079126,-1.143 0.871361,-0.5336 1.541517,-1.065 1.541517,-1.065 a 1.0005403,1.0006798 0 1 0 -1.244545,-1.5672 c 0,0 -0.584925,0.4638 -1.34028,0.9263 -0.755356,0.4624 -1.73642,0.848 -2.035818,0.848 -0.2994,0 -0.750314,-0.2797 -1.377403,-0.7777 -0.627088,-0.498 -1.431188,-1.2135 -2.621946,-1.2135 -1.190759,0 -1.994859,0.7155 -2.621947,1.2135 -0.627089,0.498 -1.076049,0.7777 -1.375448,0.7777 -0.299399,0 -0.750313,-0.2797 -1.377401,-0.7777 -0.627089,-0.498 -1.43119,-1.2135 -2.621948,-1.2135 -1.190757,0 -1.994858,0.7155 -2.621947,1.2135 -0.627088,0.498 -1.078001,0.7777 -1.377401,0.7777 -0.2994,0 -0.748359,-0.2797 -1.375448,-0.7777 -0.627088,-0.498 -1.431189,-1.2135 -2.621947,-1.2135 -1.190758,0 -1.994858,0.7155 -2.621947,1.2135 -0.627089,0.498 -1.078002,0.7777 -1.377402,0.7777 -0.299398,0 -1.280463,-0.3856 -2.0358182,-0.848 -0.755355,-0.4625 -1.3402799,-0.9263 -1.3402799,-0.9263 a 1.0004255,1.0005651 0 0 0 -0.6486486,-0.2247 z"/><path style="color:#000000;font-style:normal;font-variant:normal;font-weight:normal;font-stretch:normal;font-size:medium;line-height:normal;font-family:sans-serif;text-indent:0;text-align:start;text-decoration:none;text-decoration-line:none;text-decoration-style:solid;text-decoration-color:#000000;letter-spacing:normal;word-spacing:normal;text-transform:none;direction:ltr;block-progression:tb;writing-mode:lr-tb;baseline-shift:baseline;text-anchor:start;white-space:normal;clip-rule:nonzero;display:inline;overflow:visible;visibility:visible;opacity:1;isolation:auto;mix-blend-mode:normal;color-interpolation:sRGB;color-interpolation-filters:linearRGB;solid-color:#000000;solid-opacity:1;fill:#000000;fill-opacity:1;fill-rule:nonzero;stroke:none;stroke-width:2;stroke-linecap:round;stroke-linejoin:round;stroke-miterlimit:4;stroke-dasharray:none;stroke-dashoffset:0;stroke-opacity:1;color-rendering:auto;image-rendering:auto;shape-rendering:auto;text-rendering:auto;enable-background:accumulate" d="m 20.150794,1005.3622 a 1.0001331,1.0001625 0 0 0 -0.234383,0.037 C 12.869856,1007.428 8.004914,1013.8042 8,1021.0487 c -9.6e-6,9.007 7.434631,16.3135 16.561096,16.3135 a 1.0001331,1.0001625 0 0 0 0.002,0 c 6.760663,-0.01 12.849442,-4.0628 15.36379,-10.2564 a 1.0001331,1.0001625 0 0 0 -1.205118,-1.3361 c -1.328289,0.3852 -2.704869,0.5813 -4.08998,0.584 -8.062073,0 -14.56185,-6.4038 -14.562982,-14.3114 l 0,0 c 0.0041,-1.8164 0.360123,-3.6149 1.048864,-5.3011 a 1.0001331,1.0001625 0 0 0 -0.966829,-1.377 z m -1.550834,2.84 c -0.312906,1.2574 -0.528505,2.5359 -0.531267,3.8362 5.1e-5,9.007 7.436631,16.3135 16.563048,16.3135 a 1.0001331,1.0001625 0 0 0 0.002,0 c 0.832383,0 1.638367,-0.2274 2.459067,-0.3515 -2.553693,4.4404 -7.233768,7.3557 -12.531665,7.3598 -8.06279,0 -14.561038,-6.4048 -14.56103,-14.3134 0.0038,-5.654 3.476664,-10.5442 8.599894,-12.8465 z"/></g></svg>