<svg width='200' height='200' fill="#000000" xmlns:dc="http://purl.org/dc/elements/1.1/" xmlns:cc="http://creativecommons.org/ns#" xmlns:rdf="http://www.w3.org/1999/02/22-rdf-syntax-ns#" xmlns:svg="http://www.w3.org/2000/svg" xmlns="http://www.w3.org/2000/svg" xmlns:sodipodi="http://sodipodi.sourceforge.net/DTD/sodipodi-0.dtd" xmlns:inkscape="http://www.inkscape.org/namespaces/inkscape" viewBox="0 0 48 48.000001" version="1.1" x="0px" y="0px"><g transform="translate(0,-1004.3622)"><path style="color:#000000;font-style:normal;font-variant:normal;font-weight:normal;font-stretch:normal;font-size:medium;line-height:normal;font-family:sans-serif;text-indent:0;text-align:start;text-decoration:none;text-decoration-line:none;text-decoration-style:solid;text-decoration-color:#000000;letter-spacing:normal;word-spacing:normal;text-transform:none;direction:ltr;block-progression:tb;writing-mode:lr-tb;baseline-shift:baseline;text-anchor:start;white-space:normal;clip-rule:nonzero;display:inline;overflow:visible;visibility:visible;opacity:1;isolation:auto;mix-blend-mode:normal;color-interpolation:sRGB;color-interpolation-filters:linearRGB;solid-color:#000000;solid-opacity:1;fill:#000000;fill-opacity:1;fill-rule:nonzero;stroke:none;stroke-width:1.99999988;stroke-linecap:round;stroke-linejoin:round;stroke-miterlimit:4;stroke-dasharray:none;stroke-dashoffset:0;stroke-opacity:1;color-rendering:auto;image-rendering:auto;shape-rendering:auto;text-rendering:auto;enable-background:accumulate" d="m 15.999396,1014.5042 c -7.6436619,4.4129 -10.2703388,14.2156 -5.857269,21.8591 4.41307,7.6434 14.215938,10.27 21.8596,5.8571 7.643653,-4.413 10.27033,-14.2156 5.85726,-21.8591 -4.41307,-7.6435 -14.215938,-10.2701 -21.859591,-5.8571 z m 1.000024,1.732 c 6.70756,-3.8725 15.254857,-1.5823 19.127474,5.1251 3.872618,6.7074 1.58237,15.2545 -5.125191,19.127 -6.70757,3.8725 -15.254866,1.5824 -19.127484,-5.125 -3.8726168,-6.7075 -1.582369,-15.2545 5.125201,-19.1271 z"/><path style="color:#000000;font-style:normal;font-variant:normal;font-weight:normal;font-stretch:normal;font-size:medium;line-height:normal;font-family:sans-serif;text-indent:0;text-align:start;text-decoration:none;text-decoration-line:none;text-decoration-style:solid;text-decoration-color:#000000;letter-spacing:normal;word-spacing:normal;text-transform:none;direction:ltr;block-progression:tb;writing-mode:lr-tb;baseline-shift:baseline;text-anchor:start;white-space:normal;clip-rule:nonzero;display:inline;overflow:visible;visibility:visible;opacity:1;isolation:auto;mix-blend-mode:normal;color-interpolation:sRGB;color-interpolation-filters:linearRGB;solid-color:#000000;solid-opacity:1;fill:#000000;fill-opacity:1;fill-rule:nonzero;stroke:none;stroke-width:2;stroke-linecap:round;stroke-linejoin:round;stroke-miterlimit:4;stroke-dasharray:none;stroke-dashoffset:0;stroke-opacity:1;color-rendering:auto;image-rendering:auto;shape-rendering:auto;text-rendering:auto;enable-background:accumulate" d="m 30.000643,1024.3613 c -2.749644,0 -5.000119,2.2504 -5.000119,5 0,2.7496 2.250475,5 5.000119,5 2.749645,0 5.00012,-2.2504 5.00012,-5 0,-2.7496 -2.250475,-5 -5.00012,-5 z m 0,2 c 1.668739,0 3.000072,1.3313 3.000072,3 0,1.6687 -1.331333,3 -3.000072,3 -1.668738,0 -3.000071,-1.3313 -3.000071,-3 0,-1.6687 1.331333,-3 3.000071,-3 z"/><path style="color:#000000;font-style:normal;font-variant:normal;font-weight:normal;font-stretch:normal;font-size:medium;line-height:normal;font-family:sans-serif;text-indent:0;text-align:start;text-decoration:none;text-decoration-line:none;text-decoration-style:solid;text-decoration-color:#000000;letter-spacing:normal;word-spacing:normal;text-transform:none;direction:ltr;block-progression:tb;writing-mode:lr-tb;baseline-shift:baseline;text-anchor:start;white-space:normal;clip-rule:nonzero;display:inline;overflow:visible;visibility:visible;opacity:1;isolation:auto;mix-blend-mode:normal;color-interpolation:sRGB;color-interpolation-filters:linearRGB;solid-color:#000000;solid-opacity:1;fill:#000000;fill-opacity:1;fill-rule:nonzero;stroke:none;stroke-width:2.00021172;stroke-linecap:round;stroke-linejoin:round;stroke-miterlimit:4;stroke-dasharray:none;stroke-dashoffset:0;stroke-opacity:1;color-rendering:auto;image-rendering:auto;shape-rendering:auto;text-rendering:auto;enable-background:accumulate" d="m 8.4838123,1029.5274 a 0.98989399,1.0104357 15.013115 0 0 -0.1330814,0.1059 c -2.7969619,2.5595 -4.5495719,4.7202 -5.1563001,6.6553 -0.3033684,0.9676 -0.2848636,2.0111 0.2893925,2.7915 0.5742476,0.7805 1.5168673,1.1346 2.6173937,1.2428 2.2010492,0.2165 5.172256,-0.4751 8.701425,-1.7711 3.529169,-1.296 7.576034,-3.2288 11.681367,-5.6267 a 0.98989399,1.0104357 15.013115 1 0 -0.973872,-1.7471 c -4.014903,2.345 -7.972109,4.2317 -11.362418,5.4766 -3.390305,1.245 -6.2550833,1.8146 -7.8365345,1.6591 -0.790728,-0.078 -1.1271456,-0.3069 -1.2364265,-0.4554 -0.1092721,-0.1485 -0.1791784,-0.378 0.00737,-0.973 0.3730848,-1.19 1.9135075,-3.3127 4.5845279,-5.7569 a 0.98989399,1.0104357 15.013115 0 0 -1.1828442,-1.601 z"/><path style="color:#000000;font-style:normal;font-variant:normal;font-weight:normal;font-stretch:normal;font-size:medium;line-height:normal;font-family:sans-serif;text-indent:0;text-align:start;text-decoration:none;text-decoration-line:none;text-decoration-style:solid;text-decoration-color:#000000;letter-spacing:normal;word-spacing:normal;text-transform:none;direction:ltr;block-progression:tb;writing-mode:lr-tb;baseline-shift:baseline;text-anchor:start;white-space:normal;clip-rule:nonzero;display:inline;overflow:visible;visibility:visible;opacity:1;isolation:auto;mix-blend-mode:normal;color-interpolation:sRGB;color-interpolation-filters:linearRGB;solid-color:#000000;solid-opacity:1;fill:#000000;fill-opacity:1;fill-rule:nonzero;stroke:none;stroke-width:2.00010371;stroke-linecap:round;stroke-linejoin:round;stroke-miterlimit:4;stroke-dasharray:none;stroke-dashoffset:0;stroke-opacity:1;color-rendering:auto;image-rendering:auto;shape-rendering:auto;text-rendering:auto;enable-background:accumulate" d="m 33.792082,1015.6853 a 0.99294963,1.007326 15.022025 0 0 0.78158,1.8352 c 2.675642,-0.8752 4.799771,-1.2218 6.067098,-1.1294 0.633658,0.046 1.024656,0.2063 1.185722,0.3321 0.161063,0.1258 0.193745,0.1672 0.186487,0.4589 -0.01451,0.5835 -0.702478,2.0277 -2.18477,3.6988 -1.482288,1.6711 -3.674995,3.6255 -6.40702,5.6564 a 0.99294963,1.007326 15.022025 1 0 1.168758,1.6193 c 2.813564,-2.0916 5.094468,-4.1137 6.712293,-5.9376 1.617838,-1.8239 2.656719,-3.3926 2.696704,-5.0002 0.01999,-0.8038 -0.338855,-1.6132 -0.952493,-2.0926 -0.613646,-0.4794 -1.379496,-0.679 -2.249705,-0.7424 -1.740416,-0.1269 -4.009936,0.3039 -6.821998,1.2237 a 0.99294963,1.007326 15.022025 0 0 -0.182656,0.078 z"/><path style="color:#000000;font-style:normal;font-variant:normal;font-weight:normal;font-stretch:normal;font-size:medium;line-height:normal;font-family:sans-serif;text-indent:0;text-align:start;text-decoration:none;text-decoration-line:none;text-decoration-style:solid;text-decoration-color:#000000;letter-spacing:normal;word-spacing:normal;text-transform:none;direction:ltr;block-progression:tb;writing-mode:lr-tb;baseline-shift:baseline;text-anchor:start;white-space:normal;clip-rule:nonzero;display:inline;overflow:visible;visibility:visible;opacity:1;isolation:auto;mix-blend-mode:normal;color-interpolation:sRGB;color-interpolation-filters:linearRGB;solid-color:#000000;solid-opacity:1;fill:#000000;fill-opacity:1;fill-rule:nonzero;stroke:none;stroke-width:2;stroke-linecap:round;stroke-linejoin:round;stroke-miterlimit:4;stroke-dasharray:none;stroke-dashoffset:0;stroke-opacity:1;color-rendering:auto;image-rendering:auto;shape-rendering:auto;text-rendering:auto;enable-background:accumulate" d="m 17.000334,1019.3613 c -1.64505,0 -3.000072,1.355 -3.000072,3 0,1.645 1.355022,3 3.000072,3 1.645049,0 3.000071,-1.355 3.000071,-3 0,-1.645 -1.355022,-3 -3.000071,-3 z m 0,2 c 0.564142,0 1.000023,0.4359 1.000023,1 0,0.5642 -0.435881,1 -1.000023,1 -0.564143,0 -1.000024,-0.4358 -1.000024,-1 0,-0.5641 0.435881,-1 1.000024,-1 z"/><path style="color:#000000;font-style:normal;font-variant:normal;font-weight:normal;font-stretch:normal;font-size:medium;line-height:normal;font-family:sans-serif;text-indent:0;text-align:start;text-decoration:none;text-decoration-line:none;text-decoration-style:solid;text-decoration-color:#000000;letter-spacing:normal;word-spacing:normal;text-transform:none;direction:ltr;block-progression:tb;writing-mode:lr-tb;baseline-shift:baseline;text-anchor:start;white-space:normal;clip-rule:nonzero;display:inline;overflow:visible;visibility:visible;opacity:1;isolation:auto;mix-blend-mode:normal;color-interpolation:sRGB;color-interpolation-filters:linearRGB;solid-color:#000000;solid-opacity:1;fill:#000000;fill-opacity:1;fill-rule:nonzero;stroke:none;stroke-width:2;stroke-linecap:round;stroke-linejoin:round;stroke-miterlimit:4;stroke-dasharray:none;stroke-dashoffset:0;stroke-opacity:1;color-rendering:auto;image-rendering:auto;shape-rendering:auto;text-rendering:auto;enable-background:accumulate" d="m 21.990687,1013.3633 a 1.0001238,1.0001 0 0 0 -0.935569,0.8496 c -0.414225,2.519 1.607899,4.7746 4.273539,5.1055 2.665611,0.3308 5.242245,-1.2741 5.656385,-3.793 a 1.000547,1.0005232 0 1 0 -1.974656,-0.3242 c -0.213626,1.2993 -1.70664,2.3474 -3.435629,2.1328 -1.72901,-0.2146 -2.760606,-1.4956 -2.546936,-2.7949 a 1.0001238,1.0001 0 0 0 -1.037134,-1.1758 z"/><path style="color:#000000;font-style:normal;font-variant:normal;font-weight:normal;font-stretch:normal;font-size:medium;line-height:normal;font-family:sans-serif;text-indent:0;text-align:start;text-decoration:none;text-decoration-line:none;text-decoration-style:solid;text-decoration-color:#000000;letter-spacing:normal;word-spacing:normal;text-transform:none;direction:ltr;block-progression:tb;writing-mode:lr-tb;baseline-shift:baseline;text-anchor:start;white-space:normal;clip-rule:nonzero;display:inline;overflow:visible;visibility:visible;opacity:1;isolation:auto;mix-blend-mode:normal;color-interpolation:sRGB;color-interpolation-filters:linearRGB;solid-color:#000000;solid-opacity:1;fill:#000000;fill-opacity:1;fill-rule:nonzero;stroke:none;stroke-width:2;stroke-linecap:round;stroke-linejoin:round;stroke-miterlimit:4;stroke-dasharray:none;stroke-dashoffset:0;stroke-opacity:1;color-rendering:auto;image-rendering:auto;shape-rendering:auto;text-rendering:auto;enable-background:accumulate" d="m 29.051402,1043.3613 a 1.0001238,1.0001 0 0 0 0.947288,-1.0488 c -0.09565,-2.6352 -2.150893,-4.8032 -4.752066,-4.9434 -2.601162,-0.1401 -4.872255,1.7988 -5.2345,4.4102 a 1.0001238,1.0001 0 1 0 1.980517,0.2754 c 0.226347,-1.6317 1.591583,-2.7713 3.146559,-2.6875 1.554983,0.084 2.801581,1.3697 2.861396,3.0176 a 1.0001238,1.0001 0 0 0 1.050806,0.9765 z"/></g></svg>