<svg width='200' height='200' fill="#000000" xmlns:dc="http://purl.org/dc/elements/1.1/" xmlns:cc="http://creativecommons.org/ns#" xmlns:rdf="http://www.w3.org/1999/02/22-rdf-syntax-ns#" xmlns:svg="http://www.w3.org/2000/svg" xmlns="http://www.w3.org/2000/svg" xmlns:sodipodi="http://sodipodi.sourceforge.net/DTD/sodipodi-0.dtd" xmlns:inkscape="http://www.inkscape.org/namespaces/inkscape" viewBox="0 0 48 48.000001" version="1.1" x="0px" y="0px"><g transform="translate(0,-1004.3622)"><path style="color:#000000;font-style:normal;font-variant:normal;font-weight:normal;font-stretch:normal;font-size:medium;line-height:normal;font-family:sans-serif;text-indent:0;text-align:start;text-decoration:none;text-decoration-line:none;text-decoration-style:solid;text-decoration-color:#000000;letter-spacing:normal;word-spacing:normal;text-transform:none;direction:ltr;block-progression:tb;writing-mode:lr-tb;baseline-shift:baseline;text-anchor:start;white-space:normal;clip-rule:nonzero;display:inline;overflow:visible;visibility:visible;opacity:1;isolation:auto;mix-blend-mode:normal;color-interpolation:sRGB;color-interpolation-filters:linearRGB;solid-color:#000000;solid-opacity:1;fill:#000000;fill-opacity:1;fill-rule:evenodd;stroke:none;stroke-width:1.99999988;stroke-linecap:round;stroke-linejoin:round;stroke-miterlimit:4;stroke-dasharray:none;stroke-dashoffset:0;stroke-opacity:1;color-rendering:auto;image-rendering:auto;shape-rendering:auto;text-rendering:auto;enable-background:accumulate" d="m 32.990554,1042.3673 a 0.99965616,0.99832749 0 0 0 -0.450972,0.1131 l -3.549206,1.7664 -3.549206,-1.7664 a 0.99965616,0.99832749 0 0 0 -0.892183,0 l -3.549204,1.7664 -3.549207,-1.7664 a 0.99965616,0.99832749 0 0 0 -0.892182,0 l -3.547254,1.7664 -3.5492043,-1.7664 a 0.99965616,0.99832749 0 0 0 -0.8921822,0 l -3.5492058,1.7664 -3.5492058,-1.7664 a 0.99965616,0.99832749 0 1 0 -0.89218208,1.786 l 3.99432078,1.9905 a 0.99965616,0.99832749 0 0 0 0.892182,0 l 3.5492059,-1.7683 3.5492045,1.7683 a 0.99965616,0.99832749 0 0 0 0.892183,0 l 3.549206,-1.7683 3.549205,1.7683 a 0.99965616,0.99832749 0 0 0 0.892182,0 l 3.549207,-1.7683 3.547253,1.7683 a 0.99965616,0.99832749 0 0 0 0.894133,0 l 3.994322,-1.9905 a 0.99965616,0.99832749 0 0 0 -0.44121,-1.8991 z"/><path style="color:#000000;font-style:normal;font-variant:normal;font-weight:normal;font-stretch:normal;font-size:medium;line-height:normal;font-family:sans-serif;text-indent:0;text-align:start;text-decoration:none;text-decoration-line:none;text-decoration-style:solid;text-decoration-color:#000000;letter-spacing:normal;word-spacing:normal;text-transform:none;direction:ltr;block-progression:tb;writing-mode:lr-tb;baseline-shift:baseline;text-anchor:start;white-space:normal;clip-rule:nonzero;display:inline;overflow:visible;visibility:visible;opacity:1;isolation:auto;mix-blend-mode:normal;color-interpolation:sRGB;color-interpolation-filters:linearRGB;solid-color:#000000;solid-opacity:1;fill:#000000;fill-opacity:1;fill-rule:evenodd;stroke:none;stroke-width:1.99999988;stroke-linecap:round;stroke-linejoin:round;stroke-miterlimit:4;stroke-dasharray:none;stroke-dashoffset:0;stroke-opacity:1;color-rendering:auto;image-rendering:auto;shape-rendering:auto;text-rendering:auto;enable-background:accumulate" d="m 32.990554,1047.3672 a 0.99965615,0.9983275 0 0 0 -0.450973,0.1131 l -3.549205,1.7663 -3.549207,-1.7663 a 0.99965615,0.9983275 0 0 0 -0.892181,0 l -3.549206,1.7663 -3.549207,-1.7663 a 0.99965615,0.9983275 0 0 0 -0.892181,0 l -3.547254,1.7663 -3.5492044,-1.7663 a 0.99965615,0.9983275 0 0 0 -0.892182,0 l -3.5492058,1.7663 -3.5492058,-1.7663 a 0.99965615,0.9983275 0 1 0 -0.89218207,1.7859 l 3.99432077,1.9906 a 0.99965615,0.9983275 0 0 0 0.892182,0 l 3.5492057,-1.7684 3.5492046,1.7684 a 0.99965615,0.9983275 0 0 0 0.892183,0 l 3.549206,-1.7684 3.549204,1.7684 a 0.99965615,0.9983275 0 0 0 0.892183,0 l 3.549206,-1.7684 3.547254,1.7684 a 0.99965615,0.9983275 0 0 0 0.894133,0 l 3.994322,-1.9906 a 0.99965615,0.9983275 0 0 0 -0.44121,-1.899 z"/><path style="color:#000000;font-style:normal;font-variant:normal;font-weight:normal;font-stretch:normal;font-size:medium;line-height:normal;font-family:sans-serif;text-indent:0;text-align:start;text-decoration:none;text-decoration-line:none;text-decoration-style:solid;text-decoration-color:#000000;letter-spacing:normal;word-spacing:normal;text-transform:none;direction:ltr;block-progression:tb;writing-mode:lr-tb;baseline-shift:baseline;text-anchor:start;white-space:normal;clip-rule:nonzero;display:inline;overflow:visible;visibility:visible;opacity:1;isolation:auto;mix-blend-mode:normal;color-interpolation:sRGB;color-interpolation-filters:linearRGB;solid-color:#000000;solid-opacity:1;fill:#000000;fill-opacity:1;fill-rule:evenodd;stroke:none;stroke-width:2;stroke-linecap:round;stroke-linejoin:round;stroke-miterlimit:4;stroke-dasharray:none;stroke-dashoffset:0;stroke-opacity:1;color-rendering:auto;image-rendering:auto;shape-rendering:auto;text-rendering:auto;enable-background:accumulate" d="m 6.9850515,1009.3622 a 1.0001053,1.0000777 0 0 0 -0.9843803,1.0157 l 0,6.9706 a 1.0001053,1.0000777 0 1 0 2.0000107,0 l 0,-6.9706 a 1.0001053,1.0000777 0 0 0 -1.0156304,-1.0157 z"/><path style="color:#000000;font-style:normal;font-variant:normal;font-weight:normal;font-stretch:normal;font-size:medium;line-height:normal;font-family:sans-serif;text-indent:0;text-align:start;text-decoration:none;text-decoration-line:none;text-decoration-style:solid;text-decoration-color:#000000;letter-spacing:normal;word-spacing:normal;text-transform:none;direction:ltr;block-progression:tb;writing-mode:lr-tb;baseline-shift:baseline;text-anchor:start;white-space:normal;clip-rule:nonzero;display:inline;overflow:visible;visibility:visible;opacity:1;isolation:auto;mix-blend-mode:normal;color-interpolation:sRGB;color-interpolation-filters:linearRGB;solid-color:#000000;solid-opacity:1;fill:#000000;fill-opacity:1;fill-rule:evenodd;stroke:none;stroke-width:1.99999988;stroke-linecap:round;stroke-linejoin:round;stroke-miterlimit:4;stroke-dasharray:none;stroke-dashoffset:0;stroke-opacity:1;color-rendering:auto;image-rendering:auto;shape-rendering:auto;text-rendering:auto;enable-background:accumulate" d="m 9.99288,1011.3622 a 1.0001052,1.0000776 0 0 0 -0.4511743,0.1133 l -5.9746412,2.9862 a 1.0001562,1.0001287 0 0 0 0.8945361,1.7891 l 5.9746404,-2.9863 a 1.0001052,1.0000776 0 0 0 -0.443361,-1.9023 z"/><path style="color:#000000;font-style:normal;font-variant:normal;font-weight:normal;font-stretch:normal;font-size:medium;line-height:normal;font-family:sans-serif;text-indent:0;text-align:start;text-decoration:none;text-decoration-line:none;text-decoration-style:solid;text-decoration-color:#000000;letter-spacing:normal;word-spacing:normal;text-transform:none;direction:ltr;block-progression:tb;writing-mode:lr-tb;baseline-shift:baseline;text-anchor:start;white-space:normal;clip-rule:nonzero;display:inline;overflow:visible;visibility:visible;opacity:1;isolation:auto;mix-blend-mode:normal;color-interpolation:sRGB;color-interpolation-filters:linearRGB;solid-color:#000000;solid-opacity:1;fill:#000000;fill-opacity:1;fill-rule:evenodd;stroke:none;stroke-width:1.99999988;stroke-linecap:round;stroke-linejoin:round;stroke-miterlimit:4;stroke-dasharray:none;stroke-dashoffset:0;stroke-opacity:1;color-rendering:auto;image-rendering:auto;shape-rendering:auto;text-rendering:auto;enable-background:accumulate" d="m 3.979176,1011.3622 a 1.0001052,1.0000776 0 0 0 -0.4121115,1.9023 l 5.9746412,2.9863 a 1.0001562,1.0001286 0 0 0 0.8945353,-1.7891 l -5.9746404,-2.9862 a 1.0001052,1.0000776 0 0 0 -0.4824246,-0.1133 z"/><path style="color:#000000;font-style:normal;font-variant:normal;font-weight:normal;font-stretch:normal;font-size:medium;line-height:normal;font-family:sans-serif;text-indent:0;text-align:start;text-decoration:none;text-decoration-line:none;text-decoration-style:solid;text-decoration-color:#000000;letter-spacing:normal;word-spacing:normal;text-transform:none;direction:ltr;block-progression:tb;writing-mode:lr-tb;baseline-shift:baseline;text-anchor:start;white-space:normal;clip-rule:nonzero;display:inline;overflow:visible;visibility:visible;opacity:1;isolation:auto;mix-blend-mode:normal;color-interpolation:sRGB;color-interpolation-filters:linearRGB;solid-color:#000000;solid-opacity:1;fill:#000000;fill-opacity:1;fill-rule:evenodd;stroke:none;stroke-width:2;stroke-linecap:round;stroke-linejoin:round;stroke-miterlimit:4;stroke-dasharray:none;stroke-dashoffset:0;stroke-opacity:1;color-rendering:auto;image-rendering:auto;shape-rendering:auto;text-rendering:auto;enable-background:accumulate" d="m 39.985226,1034.3617 a 1.0001053,1.0000777 0 0 0 -0.98438,1.0157 l 0,6.9705 a 1.0001053,1.0000777 0 1 0 2.000011,0 l 0,-6.9705 a 1.0001053,1.0000777 0 0 0 -1.015631,-1.0157 z"/><path style="color:#000000;font-style:normal;font-variant:normal;font-weight:normal;font-stretch:normal;font-size:medium;line-height:normal;font-family:sans-serif;text-indent:0;text-align:start;text-decoration:none;text-decoration-line:none;text-decoration-style:solid;text-decoration-color:#000000;letter-spacing:normal;word-spacing:normal;text-transform:none;direction:ltr;block-progression:tb;writing-mode:lr-tb;baseline-shift:baseline;text-anchor:start;white-space:normal;clip-rule:nonzero;display:inline;overflow:visible;visibility:visible;opacity:1;isolation:auto;mix-blend-mode:normal;color-interpolation:sRGB;color-interpolation-filters:linearRGB;solid-color:#000000;solid-opacity:1;fill:#000000;fill-opacity:1;fill-rule:evenodd;stroke:none;stroke-width:1.99999988;stroke-linecap:round;stroke-linejoin:round;stroke-miterlimit:4;stroke-dasharray:none;stroke-dashoffset:0;stroke-opacity:1;color-rendering:auto;image-rendering:auto;shape-rendering:auto;text-rendering:auto;enable-background:accumulate" d="m 42.993056,1036.3616 a 1.0001052,1.0000776 0 0 0 -0.451175,0.1133 l -5.974641,2.9863 a 1.0001386,1.000111 0 1 0 0.894536,1.789 l 5.974642,-2.9862 a 1.0001052,1.0000776 0 0 0 -0.443362,-1.9024 z"/><path style="color:#000000;font-style:normal;font-variant:normal;font-weight:normal;font-stretch:normal;font-size:medium;line-height:normal;font-family:sans-serif;text-indent:0;text-align:start;text-decoration:none;text-decoration-line:none;text-decoration-style:solid;text-decoration-color:#000000;letter-spacing:normal;word-spacing:normal;text-transform:none;direction:ltr;block-progression:tb;writing-mode:lr-tb;baseline-shift:baseline;text-anchor:start;white-space:normal;clip-rule:nonzero;display:inline;overflow:visible;visibility:visible;opacity:1;isolation:auto;mix-blend-mode:normal;color-interpolation:sRGB;color-interpolation-filters:linearRGB;solid-color:#000000;solid-opacity:1;fill:#000000;fill-opacity:1;fill-rule:evenodd;stroke:none;stroke-width:1.99999988;stroke-linecap:round;stroke-linejoin:round;stroke-miterlimit:4;stroke-dasharray:none;stroke-dashoffset:0;stroke-opacity:1;color-rendering:auto;image-rendering:auto;shape-rendering:auto;text-rendering:auto;enable-background:accumulate" d="m 36.979351,1036.3616 a 1.0001052,1.0000776 0 0 0 -0.412111,1.9024 l 5.974641,2.9862 a 1.0001385,1.0001109 0 1 0 0.894537,-1.789 l -5.974642,-2.9863 a 1.0001052,1.0000776 0 0 0 -0.482425,-0.1133 z"/><path style="color:#000000;font-style:normal;font-variant:normal;font-weight:normal;font-stretch:normal;font-size:medium;line-height:normal;font-family:sans-serif;text-indent:0;text-align:start;text-decoration:none;text-decoration-line:none;text-decoration-style:solid;text-decoration-color:#000000;letter-spacing:normal;word-spacing:normal;text-transform:none;direction:ltr;block-progression:tb;writing-mode:lr-tb;baseline-shift:baseline;text-anchor:start;white-space:normal;clip-rule:nonzero;display:inline;overflow:visible;visibility:visible;opacity:1;isolation:auto;mix-blend-mode:normal;color-interpolation:sRGB;color-interpolation-filters:linearRGB;solid-color:#000000;solid-opacity:1;fill:#000000;fill-opacity:1;fill-rule:nonzero;stroke:none;stroke-width:2;stroke-linecap:round;stroke-linejoin:round;stroke-miterlimit:4;stroke-dasharray:none;stroke-dashoffset:0;stroke-opacity:1;color-rendering:auto;image-rendering:auto;shape-rendering:auto;text-rendering:auto;enable-background:accumulate" d="m 22.705838,1015.3621 c -4.171783,-0.012 -8.091379,2.4526 -10.377009,6.1171 -3.2543043,-1.0572 -6.9266721,-0.7485 -9.4805184,1.7362 -2.69026201,2.6183 -3.56934378,6.5785 -2.23048053,10.076 1.33882633,3.4975 4.63995103,5.8798 8.40043533,6.0702 4.5085826,0 9.0270376,0 13.5391346,0 6.956469,0 10.416881,-5.2946 11.298888,-10.1661 0.883965,-5.7223 -2.357626,-11.2961 -7.726604,-13.2302 -1.223925,-0.4217 -2.300358,-0.5999 -3.423846,-0.6032 z m 0.249998,2.0059 0.0098,0 c 0.833426,0.031 1.666865,0.1854 2.486342,0.4804 4.457579,1.6058 7.169499,6.2412 6.427768,11.0427 -0.738138,4.7778 -4.668694,8.3081 -9.359425,8.4627 -4.459785,0.021 -8.942479,0.01 -13.4102282,0.01 -2.9755108,-0.1547 -5.5691941,-2.0318 -6.6230822,-4.785 -1.0550666,-2.7561 -0.3697195,-5.8589 1.7558688,-7.9276 2.071713,-2.0157 5.1612707,-2.1022 8.0605886,-1.1211 0.685458,0.2319 1.130903,-0.1442 1.400395,-0.5767 2.090676,-3.3553 5.62396,-5.718 9.252003,-5.5857 z"/><path style="color:#000000;font-style:normal;font-variant:normal;font-weight:normal;font-stretch:normal;font-size:medium;line-height:normal;font-family:sans-serif;text-indent:0;text-align:start;text-decoration:none;text-decoration-line:none;text-decoration-style:solid;text-decoration-color:#000000;letter-spacing:normal;word-spacing:normal;text-transform:none;direction:ltr;block-progression:tb;writing-mode:lr-tb;baseline-shift:baseline;text-anchor:start;white-space:normal;clip-rule:nonzero;display:inline;overflow:visible;visibility:visible;opacity:1;isolation:auto;mix-blend-mode:normal;color-interpolation:sRGB;color-interpolation-filters:linearRGB;solid-color:#000000;solid-opacity:1;fill:#000000;fill-opacity:1;fill-rule:nonzero;stroke:none;stroke-width:2;stroke-linecap:round;stroke-linejoin:round;stroke-miterlimit:4;stroke-dasharray:none;stroke-dashoffset:0;stroke-opacity:1;color-rendering:auto;image-rendering:auto;shape-rendering:auto;text-rendering:auto;enable-background:accumulate" d="m 32.612234,1012.3864 c -2.766312,0.2179 -5.307917,1.9447 -6.514308,4.6444 a 0.99989782,1.0000777 0 1 0 1.825803,0.8144 c 1.216378,-2.722 4.142179,-4.0793 6.906807,-3.2401 2.764643,0.8392 4.527031,3.6459 4.110497,6.6171 -0.416503,2.971 -2.863908,5.1387 -5.74298,5.1405 a 0.99989782,1.0000777 0 1 0 0.002,1.9999 c 3.885632,0 7.172267,-2.9481 7.721096,-6.8631 0.548871,-3.915 -1.785232,-7.6782 -5.508652,-8.8084 -0.930851,-0.2826 -1.878111,-0.3773 -2.800216,-0.3047 z"/><path style="color:#000000;font-style:normal;font-variant:normal;font-weight:normal;font-stretch:normal;font-size:medium;line-height:normal;font-family:sans-serif;text-indent:0;text-align:start;text-decoration:none;text-decoration-line:none;text-decoration-style:solid;text-decoration-color:#000000;letter-spacing:normal;word-spacing:normal;text-transform:none;direction:ltr;block-progression:tb;writing-mode:lr-tb;baseline-shift:baseline;text-anchor:start;white-space:normal;clip-rule:nonzero;display:inline;overflow:visible;visibility:visible;opacity:1;isolation:auto;mix-blend-mode:normal;color-interpolation:sRGB;color-interpolation-filters:linearRGB;solid-color:#000000;solid-opacity:1;fill:#000000;fill-opacity:1;fill-rule:evenodd;stroke:none;stroke-width:2;stroke-linecap:round;stroke-linejoin:round;stroke-miterlimit:4;stroke-dasharray:none;stroke-dashoffset:0;stroke-opacity:1;color-rendering:auto;image-rendering:auto;shape-rendering:auto;text-rendering:auto;enable-background:accumulate" d="m 32.98519,1005.3623 a 1.0001053,1.0000777 0 0 0 -0.98438,1.0157 l 0,2.9706 a 1.0001053,1.0000777 0 1 0 2.00001,0 l 0,-2.9706 a 1.0001053,1.0000777 0 0 0 -1.01563,-1.0157 z"/><path style="color:#000000;font-style:normal;font-variant:normal;font-weight:normal;font-stretch:normal;font-size:medium;line-height:normal;font-family:sans-serif;text-indent:0;text-align:start;text-decoration:none;text-decoration-line:none;text-decoration-style:solid;text-decoration-color:#000000;letter-spacing:normal;word-spacing:normal;text-transform:none;direction:ltr;block-progression:tb;writing-mode:lr-tb;baseline-shift:baseline;text-anchor:start;white-space:normal;clip-rule:nonzero;display:inline;overflow:visible;visibility:visible;opacity:1;isolation:auto;mix-blend-mode:normal;color-interpolation:sRGB;color-interpolation-filters:linearRGB;solid-color:#000000;solid-opacity:1;fill:#000000;fill-opacity:1;fill-rule:evenodd;stroke:none;stroke-width:2;stroke-linecap:round;stroke-linejoin:round;stroke-miterlimit:4;stroke-dasharray:none;stroke-dashoffset:0;stroke-opacity:1;color-rendering:auto;image-rendering:auto;shape-rendering:auto;text-rendering:auto;enable-background:accumulate" d="m 42.97157,1009.3642 a 1.0001053,1.0000777 0 0 0 -0.687503,0.3027 l -1.98048,1.9785 a 1.0001053,1.0000777 0 1 0 1.414071,1.4141 l 1.98048,-1.9785 a 1.0001053,1.0000777 0 0 0 -0.726568,-1.7168 z"/><path style="color:#000000;font-style:normal;font-variant:normal;font-weight:normal;font-stretch:normal;font-size:medium;line-height:normal;font-family:sans-serif;text-indent:0;text-align:start;text-decoration:none;text-decoration-line:none;text-decoration-style:solid;text-decoration-color:#000000;letter-spacing:normal;word-spacing:normal;text-transform:none;direction:ltr;block-progression:tb;writing-mode:lr-tb;baseline-shift:baseline;text-anchor:start;white-space:normal;clip-rule:nonzero;display:inline;overflow:visible;visibility:visible;opacity:1;isolation:auto;mix-blend-mode:normal;color-interpolation:sRGB;color-interpolation-filters:linearRGB;solid-color:#000000;solid-opacity:1;fill:#000000;fill-opacity:1;fill-rule:evenodd;stroke:none;stroke-width:2;stroke-linecap:round;stroke-linejoin:round;stroke-miterlimit:4;stroke-dasharray:none;stroke-dashoffset:0;stroke-opacity:1;color-rendering:auto;image-rendering:auto;shape-rendering:auto;text-rendering:auto;enable-background:accumulate" d="m 41.000857,1027.3638 a 1.0001053,1.0000777 0 0 0 -0.69727,1.7168 l 1.98048,1.9785 a 1.0001053,1.0000777 0 1 0 1.414071,-1.4141 l -1.98048,-1.9785 a 1.0001053,1.0000777 0 0 0 -0.716801,-0.3027 z"/><path style="color:#000000;font-style:normal;font-variant:normal;font-weight:normal;font-stretch:normal;font-size:medium;line-height:normal;font-family:sans-serif;text-indent:0;text-align:start;text-decoration:none;text-decoration-line:none;text-decoration-style:solid;text-decoration-color:#000000;letter-spacing:normal;word-spacing:normal;text-transform:none;direction:ltr;block-progression:tb;writing-mode:lr-tb;baseline-shift:baseline;text-anchor:start;white-space:normal;clip-rule:nonzero;display:inline;overflow:visible;visibility:visible;opacity:1;isolation:auto;mix-blend-mode:normal;color-interpolation:sRGB;color-interpolation-filters:linearRGB;solid-color:#000000;solid-opacity:1;fill:#000000;fill-opacity:1;fill-rule:evenodd;stroke:none;stroke-width:2;stroke-linecap:round;stroke-linejoin:round;stroke-miterlimit:4;stroke-dasharray:none;stroke-dashoffset:0;stroke-opacity:1;color-rendering:auto;image-rendering:auto;shape-rendering:auto;text-rendering:auto;enable-background:accumulate" d="m 44.014545,1018.362 a 1.0001053,1.0000777 0 1 0 0,2 l 2.972672,0 a 1.0001053,1.0000777 0 1 0 0,-2 l -2.972672,0 z"/><path style="color:#000000;font-style:normal;font-variant:normal;font-weight:normal;font-stretch:normal;font-size:medium;line-height:normal;font-family:sans-serif;text-indent:0;text-align:start;text-decoration:none;text-decoration-line:none;text-decoration-style:solid;text-decoration-color:#000000;letter-spacing:normal;word-spacing:normal;text-transform:none;direction:ltr;block-progression:tb;writing-mode:lr-tb;baseline-shift:baseline;text-anchor:start;white-space:normal;clip-rule:nonzero;display:inline;overflow:visible;visibility:visible;opacity:1;isolation:auto;mix-blend-mode:normal;color-interpolation:sRGB;color-interpolation-filters:linearRGB;solid-color:#000000;solid-opacity:1;fill:#000000;fill-opacity:1;fill-rule:evenodd;stroke:none;stroke-width:2;stroke-linecap:round;stroke-linejoin:round;stroke-miterlimit:4;stroke-dasharray:none;stroke-dashoffset:0;stroke-opacity:1;color-rendering:auto;image-rendering:auto;shape-rendering:auto;text-rendering:auto;enable-background:accumulate" d="m 23.000761,1009.3642 a 1.0001053,1.0000777 0 0 0 -0.697269,1.7168 l 1.980479,1.9785 a 1.0001053,1.0000777 0 1 0 1.41407,-1.4141 l -1.980479,-1.9785 a 1.0001053,1.0000777 0 0 0 -0.716801,-0.3027 z"/></g></svg>