<svg width='200' height='200' fill="#000000" xmlns:dc="http://purl.org/dc/elements/1.1/" xmlns:cc="http://creativecommons.org/ns#" xmlns:rdf="http://www.w3.org/1999/02/22-rdf-syntax-ns#" xmlns:svg="http://www.w3.org/2000/svg" xmlns="http://www.w3.org/2000/svg" xmlns:sodipodi="http://sodipodi.sourceforge.net/DTD/sodipodi-0.dtd" xmlns:inkscape="http://www.inkscape.org/namespaces/inkscape" viewBox="0 0 48 48.000001" version="1.1" x="0px" y="0px"><g transform="translate(0,-1004.3622)"><path style="color:#000000;font-style:normal;font-variant:normal;font-weight:normal;font-stretch:normal;font-size:medium;line-height:normal;font-family:sans-serif;text-indent:0;text-align:start;text-decoration:none;text-decoration-line:none;text-decoration-style:solid;text-decoration-color:#000000;letter-spacing:normal;word-spacing:normal;text-transform:none;direction:ltr;block-progression:tb;writing-mode:lr-tb;baseline-shift:baseline;text-anchor:start;white-space:normal;clip-rule:nonzero;display:inline;overflow:visible;visibility:visible;opacity:1;isolation:auto;mix-blend-mode:normal;color-interpolation:sRGB;color-interpolation-filters:linearRGB;solid-color:#000000;solid-opacity:1;fill:#000000;fill-opacity:1;fill-rule:evenodd;stroke:none;stroke-width:2;stroke-linecap:round;stroke-linejoin:round;stroke-miterlimit:4;stroke-dasharray:none;stroke-dashoffset:0;stroke-opacity:1;color-rendering:auto;image-rendering:auto;shape-rendering:auto;text-rendering:auto;enable-background:accumulate" d="m 40.984375,1034.3613 a 1.0001,1.0005135 0 0 0 -0.691406,0.2911 l -2,2.0009 a 1.0001,1.0005135 0 1 0 1.414062,1.4145 L 41,1036.7744 l 1.583984,1.5847 -1.998046,1.9968 -27.585938,0 a 1.0001,1.0005135 0 0 0 -0.707031,0.293 l -3.0000002,3.0052 a 1.0001,1.0005135 0 0 0 0,1.4147 l 3.0000002,2.9993 A 1.0001,1.0005135 0 0 0 13,1048.3611 l 23.585938,0 0.998046,0.9985 -1.291015,1.2896 a 1.0005973,1.0010109 0 1 0 1.414062,1.4166 l 2,-1.9989 a 1.0001,1.0005135 0 0 0 0,-1.4165 l -2,-1.997 A 1.0001,1.0005135 0 0 0 37,1046.3603 l -23.585938,0 -2,-2.0008 2,-2.0027 27.585938,0 a 1.0001,1.0005135 0 0 0 0.707031,-0.2912 l 3,-2.9973 a 1.0001,1.0005135 0 0 0 0,-1.4146 l -3,-3.0013 a 1.0001,1.0005135 0 0 0 -0.722656,-0.2911 z"/><path style="color:#000000;font-style:normal;font-variant:normal;font-weight:normal;font-stretch:normal;font-size:medium;line-height:normal;font-family:sans-serif;text-indent:0;text-align:start;text-decoration:none;text-decoration-line:none;text-decoration-style:solid;text-decoration-color:#000000;letter-spacing:normal;word-spacing:normal;text-transform:none;direction:ltr;block-progression:tb;writing-mode:lr-tb;baseline-shift:baseline;text-anchor:start;white-space:normal;clip-rule:nonzero;display:inline;overflow:visible;visibility:visible;opacity:1;isolation:auto;mix-blend-mode:normal;color-interpolation:sRGB;color-interpolation-filters:linearRGB;solid-color:#000000;solid-opacity:1;fill:#000000;fill-opacity:1;fill-rule:evenodd;stroke:none;stroke-width:2;stroke-linecap:round;stroke-linejoin:round;stroke-miterlimit:4;stroke-dasharray:none;stroke-dashoffset:0;stroke-opacity:1;color-rendering:auto;image-rendering:auto;shape-rendering:auto;text-rendering:auto;enable-background:accumulate" d="m 45.003193,1041.3623 a 0.9990842,0.99939138 0 0 0 -0.696558,1.7175 l 1.281901,1.2803 -1.281901,1.2823 a 0.9990842,0.99939138 0 1 0 1.412627,1.4131 l 1.988212,-1.9888 a 0.9990842,0.99939138 0 0 0 0,-1.4131 l -1.988212,-1.9869 a 0.9990842,0.99939138 0 0 0 -0.716069,-0.3044 z"/><path style="color:#000000;font-style:normal;font-variant:normal;font-weight:normal;font-stretch:normal;font-size:medium;line-height:normal;font-family:sans-serif;text-indent:0;text-align:start;text-decoration:none;text-decoration-line:none;text-decoration-style:solid;text-decoration-color:#000000;letter-spacing:normal;word-spacing:normal;text-transform:none;direction:ltr;block-progression:tb;writing-mode:lr-tb;baseline-shift:baseline;text-anchor:start;white-space:normal;clip-rule:nonzero;display:inline;overflow:visible;visibility:visible;opacity:1;isolation:auto;mix-blend-mode:normal;color-interpolation:sRGB;color-interpolation-filters:linearRGB;solid-color:#000000;solid-opacity:1;fill:#000000;fill-opacity:1;fill-rule:evenodd;stroke:none;stroke-width:2;stroke-linecap:round;stroke-linejoin:round;stroke-miterlimit:4;stroke-dasharray:none;stroke-dashoffset:0;stroke-opacity:1;color-rendering:auto;image-rendering:auto;shape-rendering:auto;text-rendering:auto;enable-background:accumulate" d="m 3.984375,1030.3621 a 1.0001,1.0001 0 0 0 -0.6914062,0.293 l -3.00000005,3 a 1.0001,1.0001 0 0 0 0,1.4141 l 2.99804685,3 a 1.0001,1.0001 0 0 0 0.7070313,0.2929 l 9.9882811,0 a 1.0001,1.0001 0 1 0 0,-2 l -9.5742186,0 -1.9980469,-1.998 L 4,1032.7762 l 1.2929688,1.293 a 1.0001,1.0001 0 1 0 1.4140624,-1.4141 l -2,-2 a 1.0001,1.0001 0 0 0 -0.7226562,-0.293 z"/><path style="color:#000000;font-style:normal;font-variant:normal;font-weight:normal;font-stretch:normal;font-size:medium;line-height:normal;font-family:sans-serif;text-indent:0;text-align:start;text-decoration:none;text-decoration-line:none;text-decoration-style:solid;text-decoration-color:#000000;letter-spacing:normal;word-spacing:normal;text-transform:none;direction:ltr;block-progression:tb;writing-mode:lr-tb;baseline-shift:baseline;text-anchor:start;white-space:normal;clip-rule:nonzero;display:inline;overflow:visible;visibility:visible;opacity:1;isolation:auto;mix-blend-mode:normal;color-interpolation:sRGB;color-interpolation-filters:linearRGB;solid-color:#000000;solid-opacity:1;fill:#000000;fill-opacity:1;fill-rule:nonzero;stroke:none;stroke-width:2;stroke-linecap:round;stroke-linejoin:round;stroke-miterlimit:4;stroke-dasharray:none;stroke-dashoffset:0;stroke-opacity:1;color-rendering:auto;image-rendering:auto;shape-rendering:auto;text-rendering:auto;enable-background:accumulate" d="m 20.150796,1004.3622 a 1.0001334,1.0001615 0 0 0 -0.234382,0.037 c -7.046557,2.0289 -11.9114999,8.405 -11.916414,15.6495 -9.6e-6,9.0071 7.434633,16.3135 16.5611,16.3135 a 1.0001334,1.0001615 0 0 0 0.002,0 c 6.760664,-0.01 12.849445,-4.0627 15.363793,-10.2564 a 1.0001334,1.0001615 0 0 0 -1.205118,-1.3361 c -1.328289,0.3852 -2.704869,0.5813 -4.08998,0.584 -8.062075,0 -14.561854,-6.4038 -14.562986,-14.3113 l 0,0 c 0.0041,-1.8165 0.360123,-3.615 1.048864,-5.3012 a 1.0001334,1.0001615 0 0 0 -0.96683,-1.377 z m -1.550833,2.84 c -0.312907,1.2574 -0.528506,2.536 -0.531268,3.8363 5.1e-5,9.0069 7.436633,16.3134 16.563053,16.3134 a 1.0001334,1.0001615 0 0 0 0.002,0 c 0.832382,0 1.638366,-0.2274 2.459067,-0.3515 -2.553694,4.4404 -7.23377,7.3556 -12.531668,7.3597 -8.062792,0 -14.561042,-6.4047 -14.561033,-14.3133 0.0038,-5.6539 3.476665,-10.5442 8.599896,-12.8465 z"/></g></svg>