<svg width='200' height='200' fill="#000000" xmlns:dc="http://purl.org/dc/elements/1.1/" xmlns:cc="http://creativecommons.org/ns#" xmlns:rdf="http://www.w3.org/1999/02/22-rdf-syntax-ns#" xmlns:svg="http://www.w3.org/2000/svg" xmlns="http://www.w3.org/2000/svg" xmlns:sodipodi="http://sodipodi.sourceforge.net/DTD/sodipodi-0.dtd" xmlns:inkscape="http://www.inkscape.org/namespaces/inkscape" viewBox="0 0 48 48.000001" version="1.1" x="0px" y="0px"><g transform="translate(0,-1004.3622)"><path style="color:#000000;font-style:normal;font-variant:normal;font-weight:normal;font-stretch:normal;font-size:medium;line-height:normal;font-family:sans-serif;text-indent:0;text-align:start;text-decoration:none;text-decoration-line:none;text-decoration-style:solid;text-decoration-color:#000000;letter-spacing:normal;word-spacing:normal;text-transform:none;direction:ltr;block-progression:tb;writing-mode:lr-tb;baseline-shift:baseline;text-anchor:start;white-space:normal;clip-rule:nonzero;display:inline;overflow:visible;visibility:visible;opacity:1;isolation:auto;mix-blend-mode:normal;color-interpolation:sRGB;color-interpolation-filters:linearRGB;solid-color:#000000;solid-opacity:1;fill:#000000;fill-opacity:1;fill-rule:evenodd;stroke:none;stroke-width:2;stroke-linecap:round;stroke-linejoin:round;stroke-miterlimit:4;stroke-dasharray:none;stroke-dashoffset:0;stroke-opacity:1;color-rendering:auto;image-rendering:auto;shape-rendering:auto;text-rendering:auto;enable-background:accumulate" d="m 16.970703,1041.3607 a 1.0001,1.0000309 0 0 0 -0.6875,0.3026 l -1.980469,1.9784 a 1.0001,1.0000309 0 1 0 1.414063,1.414 l 1.980469,-1.9784 a 1.0001,1.0000309 0 0 0 -0.726563,-1.7166 z"/><path style="color:#000000;font-style:normal;font-variant:normal;font-weight:normal;font-stretch:normal;font-size:medium;line-height:normal;font-family:sans-serif;text-indent:0;text-align:start;text-decoration:none;text-decoration-line:none;text-decoration-style:solid;text-decoration-color:#000000;letter-spacing:normal;word-spacing:normal;text-transform:none;direction:ltr;block-progression:tb;writing-mode:lr-tb;baseline-shift:baseline;text-anchor:start;white-space:normal;clip-rule:nonzero;display:inline;overflow:visible;visibility:visible;opacity:1;isolation:auto;mix-blend-mode:normal;color-interpolation:sRGB;color-interpolation-filters:linearRGB;solid-color:#000000;solid-opacity:1;fill:#000000;fill-opacity:1;fill-rule:evenodd;stroke:none;stroke-width:2;stroke-linecap:round;stroke-linejoin:round;stroke-miterlimit:4;stroke-dasharray:none;stroke-dashoffset:0;stroke-opacity:1;color-rendering:auto;image-rendering:auto;shape-rendering:auto;text-rendering:auto;enable-background:accumulate" d="m 24.970703,1041.3607 a 1.0001,1.0000309 0 0 0 -0.6875,0.3026 l -1.980469,1.9784 a 1.0001,1.0000309 0 1 0 1.414063,1.414 l 1.980469,-1.9784 a 1.0001,1.0000309 0 0 0 -0.726563,-1.7166 z"/><path style="color:#000000;font-style:normal;font-variant:normal;font-weight:normal;font-stretch:normal;font-size:medium;line-height:normal;font-family:sans-serif;text-indent:0;text-align:start;text-decoration:none;text-decoration-line:none;text-decoration-style:solid;text-decoration-color:#000000;letter-spacing:normal;word-spacing:normal;text-transform:none;direction:ltr;block-progression:tb;writing-mode:lr-tb;baseline-shift:baseline;text-anchor:start;white-space:normal;clip-rule:nonzero;display:inline;overflow:visible;visibility:visible;opacity:1;isolation:auto;mix-blend-mode:normal;color-interpolation:sRGB;color-interpolation-filters:linearRGB;solid-color:#000000;solid-opacity:1;fill:#000000;fill-opacity:1;fill-rule:evenodd;stroke:none;stroke-width:2;stroke-linecap:round;stroke-linejoin:round;stroke-miterlimit:4;stroke-dasharray:none;stroke-dashoffset:0;stroke-opacity:1;color-rendering:auto;image-rendering:auto;shape-rendering:auto;text-rendering:auto;enable-background:accumulate" d="m 32.970703,1041.3607 a 1.0001,1.0000309 0 0 0 -0.6875,0.3007 l -1.980469,1.9803 a 1.0001,1.0000309 0 1 0 1.414063,1.414 l 1.980469,-1.9784 a 1.0001,1.0000309 0 0 0 -0.726563,-1.7166 z"/><path style="color:#000000;font-style:normal;font-variant:normal;font-weight:normal;font-stretch:normal;font-size:medium;line-height:normal;font-family:sans-serif;text-indent:0;text-align:start;text-decoration:none;text-decoration-line:none;text-decoration-style:solid;text-decoration-color:#000000;letter-spacing:normal;word-spacing:normal;text-transform:none;direction:ltr;block-progression:tb;writing-mode:lr-tb;baseline-shift:baseline;text-anchor:start;white-space:normal;clip-rule:nonzero;display:inline;overflow:visible;visibility:visible;opacity:1;isolation:auto;mix-blend-mode:normal;color-interpolation:sRGB;color-interpolation-filters:linearRGB;solid-color:#000000;solid-opacity:1;fill:#000000;fill-opacity:1;fill-rule:evenodd;stroke:none;stroke-width:2;stroke-linecap:round;stroke-linejoin:round;stroke-miterlimit:4;stroke-dasharray:none;stroke-dashoffset:0;stroke-opacity:1;color-rendering:auto;image-rendering:auto;shape-rendering:auto;text-rendering:auto;enable-background:accumulate" d="m 40.970703,1041.3607 a 1.0001,1.0000309 0 0 0 -0.6875,0.3026 l -1.980469,1.9784 a 1.0001,1.0000309 0 1 0 1.414063,1.414 l 1.980469,-1.9784 a 1.0001,1.0000309 0 0 0 -0.726563,-1.7166 z"/><path style="color:#000000;font-style:normal;font-variant:normal;font-weight:normal;font-stretch:normal;font-size:medium;line-height:normal;font-family:sans-serif;text-indent:0;text-align:start;text-decoration:none;text-decoration-line:none;text-decoration-style:solid;text-decoration-color:#000000;letter-spacing:normal;word-spacing:normal;text-transform:none;direction:ltr;block-progression:tb;writing-mode:lr-tb;baseline-shift:baseline;text-anchor:start;white-space:normal;clip-rule:nonzero;display:inline;overflow:visible;visibility:visible;opacity:1;isolation:auto;mix-blend-mode:normal;color-interpolation:sRGB;color-interpolation-filters:linearRGB;solid-color:#000000;solid-opacity:1;fill:#000000;fill-opacity:1;fill-rule:evenodd;stroke:none;stroke-width:1.99999988;stroke-linecap:round;stroke-linejoin:round;stroke-miterlimit:4;stroke-dasharray:none;stroke-dashoffset:0;stroke-opacity:1;color-rendering:auto;image-rendering:auto;shape-rendering:auto;text-rendering:auto;enable-background:accumulate" d="m 8.9707031,1041.3607 a 1.0000999,1.0000308 0 0 0 -0.6875,0.3026 l -1.9804687,1.9784 a 1.0000999,1.0000308 0 1 0 1.4140625,1.414 l 1.9804687,-1.9784 a 1.0000999,1.0000308 0 0 0 -0.7265625,-1.7166 z"/><path style="color:#000000;font-style:normal;font-variant:normal;font-weight:normal;font-stretch:normal;font-size:medium;line-height:normal;font-family:sans-serif;text-indent:0;text-align:start;text-decoration:none;text-decoration-line:none;text-decoration-style:solid;text-decoration-color:#000000;letter-spacing:normal;word-spacing:normal;text-transform:none;direction:ltr;block-progression:tb;writing-mode:lr-tb;baseline-shift:baseline;text-anchor:start;white-space:normal;clip-rule:nonzero;display:inline;overflow:visible;visibility:visible;opacity:1;isolation:auto;mix-blend-mode:normal;color-interpolation:sRGB;color-interpolation-filters:linearRGB;solid-color:#000000;solid-opacity:1;fill:#000000;fill-opacity:1;fill-rule:evenodd;stroke:none;stroke-width:2;stroke-linecap:round;stroke-linejoin:round;stroke-miterlimit:4;stroke-dasharray:none;stroke-dashoffset:0;stroke-opacity:1;color-rendering:auto;image-rendering:auto;shape-rendering:auto;text-rendering:auto;enable-background:accumulate" d="m 20.970703,1048.3602 a 1.0001,1.0000309 0 0 0 -0.6875,0.3027 l -1.980469,1.9783 a 1.0001,1.0000309 0 1 0 1.414063,1.414 l 1.980469,-1.9783 a 1.0001,1.0000309 0 0 0 -0.726563,-1.7167 z"/><path style="color:#000000;font-style:normal;font-variant:normal;font-weight:normal;font-stretch:normal;font-size:medium;line-height:normal;font-family:sans-serif;text-indent:0;text-align:start;text-decoration:none;text-decoration-line:none;text-decoration-style:solid;text-decoration-color:#000000;letter-spacing:normal;word-spacing:normal;text-transform:none;direction:ltr;block-progression:tb;writing-mode:lr-tb;baseline-shift:baseline;text-anchor:start;white-space:normal;clip-rule:nonzero;display:inline;overflow:visible;visibility:visible;opacity:1;isolation:auto;mix-blend-mode:normal;color-interpolation:sRGB;color-interpolation-filters:linearRGB;solid-color:#000000;solid-opacity:1;fill:#000000;fill-opacity:1;fill-rule:evenodd;stroke:none;stroke-width:2;stroke-linecap:round;stroke-linejoin:round;stroke-miterlimit:4;stroke-dasharray:none;stroke-dashoffset:0;stroke-opacity:1;color-rendering:auto;image-rendering:auto;shape-rendering:auto;text-rendering:auto;enable-background:accumulate" d="m 28.970703,1048.3602 a 1.0001,1.0000309 0 0 0 -0.6875,0.3027 l -1.980469,1.9783 a 1.0001,1.0000309 0 1 0 1.414063,1.414 l 1.980469,-1.9783 a 1.0001,1.0000309 0 0 0 -0.726563,-1.7167 z"/><path style="color:#000000;font-style:normal;font-variant:normal;font-weight:normal;font-stretch:normal;font-size:medium;line-height:normal;font-family:sans-serif;text-indent:0;text-align:start;text-decoration:none;text-decoration-line:none;text-decoration-style:solid;text-decoration-color:#000000;letter-spacing:normal;word-spacing:normal;text-transform:none;direction:ltr;block-progression:tb;writing-mode:lr-tb;baseline-shift:baseline;text-anchor:start;white-space:normal;clip-rule:nonzero;display:inline;overflow:visible;visibility:visible;opacity:1;isolation:auto;mix-blend-mode:normal;color-interpolation:sRGB;color-interpolation-filters:linearRGB;solid-color:#000000;solid-opacity:1;fill:#000000;fill-opacity:1;fill-rule:evenodd;stroke:none;stroke-width:2;stroke-linecap:round;stroke-linejoin:round;stroke-miterlimit:4;stroke-dasharray:none;stroke-dashoffset:0;stroke-opacity:1;color-rendering:auto;image-rendering:auto;shape-rendering:auto;text-rendering:auto;enable-background:accumulate" d="m 36.970703,1048.3602 a 1.0001,1.0000309 0 0 0 -0.6875,0.3008 l -1.980469,1.9802 a 1.0001,1.0000309 0 1 0 1.414063,1.414 l 1.980469,-1.9783 a 1.0001,1.0000309 0 0 0 -0.726563,-1.7167 z"/><path style="color:#000000;font-style:normal;font-variant:normal;font-weight:normal;font-stretch:normal;font-size:medium;line-height:normal;font-family:sans-serif;text-indent:0;text-align:start;text-decoration:none;text-decoration-line:none;text-decoration-style:solid;text-decoration-color:#000000;letter-spacing:normal;word-spacing:normal;text-transform:none;direction:ltr;block-progression:tb;writing-mode:lr-tb;baseline-shift:baseline;text-anchor:start;white-space:normal;clip-rule:nonzero;display:inline;overflow:visible;visibility:visible;opacity:1;isolation:auto;mix-blend-mode:normal;color-interpolation:sRGB;color-interpolation-filters:linearRGB;solid-color:#000000;solid-opacity:1;fill:#000000;fill-opacity:1;fill-rule:evenodd;stroke:none;stroke-width:1.99999988;stroke-linecap:round;stroke-linejoin:round;stroke-miterlimit:4;stroke-dasharray:none;stroke-dashoffset:0;stroke-opacity:1;color-rendering:auto;image-rendering:auto;shape-rendering:auto;text-rendering:auto;enable-background:accumulate" d="m 12.970703,1048.3602 a 1.0000999,1.0000308 0 0 0 -0.6875,0.3027 l -1.980469,1.9783 a 1.0000999,1.0000308 0 1 0 1.414063,1.414 l 1.980469,-1.9783 a 1.0000999,1.0000308 0 0 0 -0.726563,-1.7167 z"/><path style="color:#000000;font-style:normal;font-variant:normal;font-weight:normal;font-stretch:normal;font-size:medium;line-height:normal;font-family:sans-serif;text-indent:0;text-align:start;text-decoration:none;text-decoration-line:none;text-decoration-style:solid;text-decoration-color:#000000;letter-spacing:normal;word-spacing:normal;text-transform:none;direction:ltr;block-progression:tb;writing-mode:lr-tb;baseline-shift:baseline;text-anchor:start;white-space:normal;clip-rule:nonzero;display:inline;overflow:visible;visibility:visible;opacity:1;isolation:auto;mix-blend-mode:normal;color-interpolation:sRGB;color-interpolation-filters:linearRGB;solid-color:#000000;solid-opacity:1;fill:#000000;fill-opacity:1;fill-rule:nonzero;stroke:none;stroke-width:2;stroke-linecap:round;stroke-linejoin:round;stroke-miterlimit:4;stroke-dasharray:none;stroke-dashoffset:0;stroke-opacity:1;color-rendering:auto;image-rendering:auto;shape-rendering:auto;text-rendering:auto;enable-background:accumulate" d="m 20.368945,1004.9703 c -3.79804,1.4087 -6.545458,4.5952 -7.686855,8.3894 -1.4604,-0.1566 -3.1158257,0.1307 -4.3505315,0.5603 -5.675956,2.0133 -9.11554904,7.829 -8.17829604,13.8032 0.91132504,5.8087 5.73596604,10.1276 11.53223754,10.5072 5.822559,0.096 10.37,0.096 14.807865,0.092 3.968821,-0.1978 7.457596,-2.6732 8.875321,-6.3204 0.213883,-0.5502 0.367368,-1.1123 0.475778,-1.6782 l 2.600138,0 c 0.01761,5e-4 0.03525,5e-4 0.05286,0 3.975894,-0.2074 7.449906,-2.8002 8.853783,-6.5763 1.403962,-3.7763 0.487275,-8.0401 -2.343649,-10.8766 -2.690414,-2.6953 -6.587035,-3.0345 -10.032459,-1.8755 -2.405385,-3.9981 -6.569775,-6.6637 -10.999679,-6.633 -1.205874,0.011 -2.585888,0.2389 -3.606512,0.6096 z m 3.334364,1.3499 0.02153,0 c 3.856832,-0.1447 7.783679,2.3351 9.850372,6.1291 0.04964,0.091 0.113046,0.1729 0.187961,0.2442 l 0.158595,0.1504 c 0.28568,0.2724 0.705065,0.352 1.07099,0.2031 3.031313,-1.2386 6.372054,-0.9966 8.595336,1.2308 2.273624,2.2782 3.017007,5.7216 1.883533,8.7705 -1.132335,3.0456 -3.905913,5.1022 -7.070103,5.2713 l -2.384766,0 c -2.37e-4,-0.011 -0.0017,-0.021 -0.002,-0.031 -0.007,-0.2953 -0.02865,-0.5886 -0.06265,-0.8812 -0.0018,-0.016 -0.0039,-0.031 -0.0059,-0.047 -0.112637,-0.9299 -0.360221,-1.8407 -0.736184,-2.7041 -0.530327,-1.2604 -1.295884,-2.2136 -2.200631,-3.1631 -2.701523,-2.5884 -6.57989,-2.9063 -10.02267,-1.7993 -1.504383,-2.3869 -3.683657,-4.2577 -6.183159,-5.3338 -0.682237,-0.3037 -1.39082,-0.5044 -2.071496,-0.6994 1.013125,-3.1264 3.241348,-5.6689 6.335878,-6.8168 0.868632,-0.322 1.752169,-0.4885 2.635384,-0.5236 z m -12.041301,8.9777 0.01567,0 c 0.512413,-0.018 1.025138,0.01 1.535021,0.076 0.0264,0.01 0.04714,0.022 0.0744,0.025 0.798227,0.1033 1.586731,0.3138 2.35148,0.6095 2.510935,1.0386 4.593877,2.8379 5.934491,5.1638 0.05101,0.09 0.11574,0.172 0.191879,0.2423 l 0.14097,0.1289 0.01567,0.016 c 0.01895,0.017 0.03854,0.033 0.05873,0.049 0.02154,0.017 0.04375,0.032 0.06657,0.047 0.0084,0.01 0.01688,0.012 0.02545,0.018 l 0.0098,0.01 c 0.02236,0.013 0.04521,0.026 0.06853,0.037 0.0237,0.012 0.04787,0.023 0.07245,0.033 0.0097,0 0.01952,0.01 0.02937,0.012 0.01618,0.01 0.0325,0.011 0.04895,0.016 0.01423,0.01 0.0286,0.011 0.04308,0.016 0.0233,0.01 0.0468,0.011 0.07048,0.016 6.01e-4,2e-4 0.0014,-10e-5 0.002,0 0.193525,0.045 0.398971,0.038 0.591297,-0.037 2.848655,-1.1155 5.988171,-0.9727 8.195916,0.803 0.147183,0.1183 0.29025,0.2439 0.428788,0.3769 0.0064,0.01 0.01125,0.013 0.01762,0.02 1.595745,1.553 2.299042,3.5591 2.349522,5.7166 -0.0037,0.1639 -0.0033,0.3285 -0.01762,0.4925 -0.06298,0.7069 -0.217101,1.4128 -0.48361,2.0984 -1.125945,2.8966 -3.903388,4.8795 -7.095557,5.0426 -4.750104,-0.011 -9.518167,0.02 -14.259641,-0.01 -5.0222165,-0.1632 -9.2218295,-3.8824 -10.0089635,-8.8994 -0.790952,-5.0416 2.09821,-9.9171 6.868437,-11.6092 0.876295,-0.3108 1.7673705,-0.4726 2.6588745,-0.5059 z"/></g></svg>