<svg width='200' height='200' fill="#000000" xmlns:dc="http://purl.org/dc/elements/1.1/" xmlns:cc="http://creativecommons.org/ns#" xmlns:rdf="http://www.w3.org/1999/02/22-rdf-syntax-ns#" xmlns:svg="http://www.w3.org/2000/svg" xmlns="http://www.w3.org/2000/svg" xmlns:sodipodi="http://sodipodi.sourceforge.net/DTD/sodipodi-0.dtd" xmlns:inkscape="http://www.inkscape.org/namespaces/inkscape" viewBox="0 0 48 48.000001" version="1.1" x="0px" y="0px"><g transform="translate(0,-1004.3622)"><path style="color:#000000;font-style:normal;font-variant:normal;font-weight:normal;font-stretch:normal;font-size:medium;line-height:normal;font-family:sans-serif;text-indent:0;text-align:start;text-decoration:none;text-decoration-line:none;text-decoration-style:solid;text-decoration-color:#000000;letter-spacing:normal;word-spacing:normal;text-transform:none;direction:ltr;block-progression:tb;writing-mode:lr-tb;baseline-shift:baseline;text-anchor:start;white-space:normal;clip-rule:nonzero;display:inline;overflow:visible;visibility:visible;opacity:1;isolation:auto;mix-blend-mode:normal;color-interpolation:sRGB;color-interpolation-filters:linearRGB;solid-color:#000000;solid-opacity:1;fill:#000000;fill-opacity:1;fill-rule:evenodd;stroke:none;stroke-width:2;stroke-linecap:round;stroke-linejoin:round;stroke-miterlimit:4;stroke-dasharray:none;stroke-dashoffset:0;stroke-opacity:1;color-rendering:auto;image-rendering:auto;shape-rendering:auto;text-rendering:auto;enable-background:accumulate" d="m 40.984375,1032.3613 a 1.0001,1.0005135 0 0 0 -0.691406,0.2911 l -2,2.0009 a 1.0001,1.0005135 0 1 0 1.414062,1.4145 L 41,1034.7744 l 1.583984,1.5847 -1.998046,1.9968 -27.585938,0 a 1.0001,1.0005135 0 0 0 -0.707031,0.293 l -3.0000002,3.0052 a 1.0001,1.0005135 0 0 0 0,1.4147 l 3.0000002,2.9993 A 1.0001,1.0005135 0 0 0 13,1046.3611 l 23.585938,0 0.998046,0.9985 -1.291015,1.2896 a 1.0005973,1.0010109 0 1 0 1.414062,1.4166 l 2,-1.9989 a 1.0001,1.0005135 0 0 0 0,-1.4165 l -2,-1.997 A 1.0001,1.0005135 0 0 0 37,1044.3603 l -23.585938,0 -2,-2.0008 2,-2.0027 27.585938,0 a 1.0001,1.0005135 0 0 0 0.707031,-0.2912 l 3,-2.9973 a 1.0001,1.0005135 0 0 0 0,-1.4146 l -3,-3.0013 a 1.0001,1.0005135 0 0 0 -0.722656,-0.2911 z"/><path style="color:#000000;font-style:normal;font-variant:normal;font-weight:normal;font-stretch:normal;font-size:medium;line-height:normal;font-family:sans-serif;text-indent:0;text-align:start;text-decoration:none;text-decoration-line:none;text-decoration-style:solid;text-decoration-color:#000000;letter-spacing:normal;word-spacing:normal;text-transform:none;direction:ltr;block-progression:tb;writing-mode:lr-tb;baseline-shift:baseline;text-anchor:start;white-space:normal;clip-rule:nonzero;display:inline;overflow:visible;visibility:visible;opacity:1;isolation:auto;mix-blend-mode:normal;color-interpolation:sRGB;color-interpolation-filters:linearRGB;solid-color:#000000;solid-opacity:1;fill:#000000;fill-opacity:1;fill-rule:evenodd;stroke:none;stroke-width:2;stroke-linecap:round;stroke-linejoin:round;stroke-miterlimit:4;stroke-dasharray:none;stroke-dashoffset:0;stroke-opacity:1;color-rendering:auto;image-rendering:auto;shape-rendering:auto;text-rendering:auto;enable-background:accumulate" d="m 45,1039.3613 a 1.0001,1.0001 0 0 0 -0.697266,1.7188 l 1.283204,1.2812 -1.283204,1.2832 a 1.0001,1.0001 0 1 0 1.414063,1.4141 l 1.990234,-1.9902 a 1.0001,1.0001 0 0 0 0,-1.4141 l -1.990234,-1.9883 A 1.0001,1.0001 0 0 0 45,1039.3613 Z"/><path style="color:#000000;font-style:normal;font-variant:normal;font-weight:normal;font-stretch:normal;font-size:medium;line-height:normal;font-family:sans-serif;text-indent:0;text-align:start;text-decoration:none;text-decoration-line:none;text-decoration-style:solid;text-decoration-color:#000000;letter-spacing:normal;word-spacing:normal;text-transform:none;direction:ltr;block-progression:tb;writing-mode:lr-tb;baseline-shift:baseline;text-anchor:start;white-space:normal;clip-rule:nonzero;display:inline;overflow:visible;visibility:visible;opacity:1;isolation:auto;mix-blend-mode:normal;color-interpolation:sRGB;color-interpolation-filters:linearRGB;solid-color:#000000;solid-opacity:1;fill:#000000;fill-opacity:1;fill-rule:evenodd;stroke:none;stroke-width:2;stroke-linecap:round;stroke-linejoin:round;stroke-miterlimit:4;stroke-dasharray:none;stroke-dashoffset:0;stroke-opacity:1;color-rendering:auto;image-rendering:auto;shape-rendering:auto;text-rendering:auto;enable-background:accumulate" d="m 10.984946,1022.3633 a 1.0001,1.0001 0 0 0 -0.691406,0.291 l -2.0000006,2 a 1.0001,1.0001 0 1 0 1.4140624,1.4141 l 1.2929692,-1.293 1.585938,1.5879 -1.998047,1.998 -9.5742195,0 a 1.0001,1.0001 0 1 0 0,2 l 9.9882815,0 a 1.0001,1.0001 0 0 0 0.707031,-0.2929 l 2.998047,-3 a 1.0001,1.0001 0 0 0 0,-1.4141 l -3,-3 a 1.0001,1.0001 0 0 0 -0.722656,-0.291 z"/><path style="color:#000000;font-style:normal;font-variant:normal;font-weight:normal;font-stretch:normal;font-size:medium;line-height:normal;font-family:sans-serif;text-indent:0;text-align:start;text-decoration:none;text-decoration-line:none;text-decoration-style:solid;text-decoration-color:#000000;letter-spacing:normal;word-spacing:normal;text-transform:none;direction:ltr;block-progression:tb;writing-mode:lr-tb;baseline-shift:baseline;text-anchor:start;white-space:normal;clip-rule:nonzero;display:inline;overflow:visible;visibility:visible;opacity:1;isolation:auto;mix-blend-mode:normal;color-interpolation:sRGB;color-interpolation-filters:linearRGB;solid-color:#000000;solid-opacity:1;fill:#000000;fill-opacity:1;fill-rule:nonzero;stroke:none;stroke-width:2;stroke-linecap:round;stroke-linejoin:round;stroke-miterlimit:4;stroke-dasharray:none;stroke-dashoffset:0;stroke-opacity:1;color-rendering:auto;image-rendering:auto;shape-rendering:auto;text-rendering:auto;enable-background:accumulate" d="m 13.972656,1011.3652 c -1.037024,0.038 -2.081798,0.2325 -3.101562,0.5996 -5.3688834,1.9342 -8.5602304,6.8322 -7.7265628,13.2305 0.6253747,4.7997 5.4086053,10.1663 11.3007808,10.1663 4.51124,0 9.02945,0 13.537109,0 3.76038,-0.1906 7.059641,-2.5727 8.398437,-6.0703 1.338834,-3.4976 0.461709,-7.458 -2.228515,-10.0762 -2.553799,-2.4849 -6.226233,-2.7935 -9.480469,-1.7363 -2.286652,-3.6662 -6.2109,-6.0983 -10.384766,-6.0723 -0.10197,-0.03 -0.208122,-0.044 -0.314453,-0.041 z m 0.0625,2.002 0.0098,0 c 3.627906,-0.1324 7.317974,2.1378 9.251953,5.5859 0.05029,0.09 0.114194,0.1717 0.189453,0.2422 l 0.140625,0.1289 0.0078,0.01 c 0.0058,0 0.01167,0.01 0.01758,0.014 0.01886,0.018 0.03841,0.035 0.05859,0.051 0.02515,0.02 0.05122,0.038 0.07812,0.055 l 0.0039,0 c 0.02539,0.015 0.05146,0.03 0.07813,0.043 0.02617,0.013 0.05289,0.024 0.08008,0.035 l 0.01172,0.01 c 0.01099,0 0.02206,0.01 0.0332,0.012 0.02382,0.01 0.04793,0.015 0.07227,0.021 0.05129,0.013 0.103534,0.022 0.15625,0.027 0.0098,10e-5 0.01953,10e-5 0.0293,0 0.02083,7e-4 0.04167,7e-4 0.0625,0 l 0.09961,0 c 0.09252,-0.01 0.183241,-0.032 0.269531,-0.067 2.849404,-1.1308 5.997761,-0.9013 8.072265,1.1172 2.125516,2.0686 2.810906,5.1716 1.75586,7.9278 -1.053862,2.7532 -3.64757,4.6304 -6.623047,4.7851 -4.466704,-0.011 -8.952439,0.02 -13.410157,-0.01 -4.6906339,-0.1546 -8.6212419,-3.6849 -9.3593752,-8.4629 -0.7417094,-4.8014 1.9702777,-9.4371 6.4277342,-11.0429 0.819453,-0.2951 1.652926,-0.4492 2.486328,-0.4805 z"/><path style="color:#000000;font-style:normal;font-variant:normal;font-weight:normal;font-stretch:normal;font-size:medium;line-height:normal;font-family:sans-serif;text-indent:0;text-align:start;text-decoration:none;text-decoration-line:none;text-decoration-style:solid;text-decoration-color:#000000;letter-spacing:normal;word-spacing:normal;text-transform:none;direction:ltr;block-progression:tb;writing-mode:lr-tb;baseline-shift:baseline;text-anchor:start;white-space:normal;clip-rule:nonzero;display:inline;overflow:visible;visibility:visible;opacity:1;isolation:auto;mix-blend-mode:normal;color-interpolation:sRGB;color-interpolation-filters:linearRGB;solid-color:#000000;solid-opacity:1;fill:#000000;fill-opacity:1;fill-rule:evenodd;stroke:none;stroke-width:2;stroke-linecap:round;stroke-linejoin:round;stroke-miterlimit:4;stroke-dasharray:none;stroke-dashoffset:0;stroke-opacity:1;color-rendering:auto;image-rendering:auto;shape-rendering:auto;text-rendering:auto;enable-background:accumulate" d="m 43.984419,1011.3621 a 0.9970943,1.0000146 0 0 0 -0.981417,1.0156 l 0,6.9701 a 0.9970943,1.0000146 0 1 0 1.993989,0 l 0,-6.9701 a 0.9970943,1.0000146 0 0 0 -1.012572,-1.0156 z"/><path style="color:#000000;font-style:normal;font-variant:normal;font-weight:normal;font-stretch:normal;font-size:medium;line-height:normal;font-family:sans-serif;text-indent:0;text-align:start;text-decoration:none;text-decoration-line:none;text-decoration-style:solid;text-decoration-color:#000000;letter-spacing:normal;word-spacing:normal;text-transform:none;direction:ltr;block-progression:tb;writing-mode:lr-tb;baseline-shift:baseline;text-anchor:start;white-space:normal;clip-rule:nonzero;display:inline;overflow:visible;visibility:visible;opacity:1;isolation:auto;mix-blend-mode:normal;color-interpolation:sRGB;color-interpolation-filters:linearRGB;solid-color:#000000;solid-opacity:1;fill:#000000;fill-opacity:1;fill-rule:evenodd;stroke:none;stroke-width:1.99999988;stroke-linecap:round;stroke-linejoin:round;stroke-miterlimit:4;stroke-dasharray:none;stroke-dashoffset:0;stroke-opacity:1;color-rendering:auto;image-rendering:auto;shape-rendering:auto;text-rendering:auto;enable-background:accumulate" d="m 46.983192,1013.3619 a 0.9970942,1.0000145 0 0 0 -0.449816,0.1133 l -5.956654,2.986 a 0.9970942,1.0000145 0 1 0 0.889896,1.789 l 5.956653,-2.9861 a 0.9970942,1.0000145 0 0 0 -0.440079,-1.9022 z"/><path style="color:#000000;font-style:normal;font-variant:normal;font-weight:normal;font-stretch:normal;font-size:medium;line-height:normal;font-family:sans-serif;text-indent:0;text-align:start;text-decoration:none;text-decoration-line:none;text-decoration-style:solid;text-decoration-color:#000000;letter-spacing:normal;word-spacing:normal;text-transform:none;direction:ltr;block-progression:tb;writing-mode:lr-tb;baseline-shift:baseline;text-anchor:start;white-space:normal;clip-rule:nonzero;display:inline;overflow:visible;visibility:visible;opacity:1;isolation:auto;mix-blend-mode:normal;color-interpolation:sRGB;color-interpolation-filters:linearRGB;solid-color:#000000;solid-opacity:1;fill:#000000;fill-opacity:1;fill-rule:evenodd;stroke:none;stroke-width:1.99999988;stroke-linecap:round;stroke-linejoin:round;stroke-miterlimit:4;stroke-dasharray:none;stroke-dashoffset:0;stroke-opacity:1;color-rendering:auto;image-rendering:auto;shape-rendering:auto;text-rendering:auto;enable-background:accumulate" d="m 40.987594,1013.3639 a 0.9970942,1.0000145 0 0 0 -0.410872,1.9002 l 5.956654,2.9861 a 0.9970942,1.0000145 0 1 0 0.889895,-1.789 l -5.956653,-2.986 a 0.9970942,1.0000145 0 0 0 -0.479024,-0.1113 z"/><path style="color:#000000;font-style:normal;font-variant:normal;font-weight:normal;font-stretch:normal;font-size:medium;line-height:normal;font-family:sans-serif;text-indent:0;text-align:start;text-decoration:none;text-decoration-line:none;text-decoration-style:solid;text-decoration-color:#000000;letter-spacing:normal;word-spacing:normal;text-transform:none;direction:ltr;block-progression:tb;writing-mode:lr-tb;baseline-shift:baseline;text-anchor:start;white-space:normal;clip-rule:nonzero;display:inline;overflow:visible;visibility:visible;opacity:1;isolation:auto;mix-blend-mode:normal;color-interpolation:sRGB;color-interpolation-filters:linearRGB;solid-color:#000000;solid-opacity:1;fill:#000000;fill-opacity:1;fill-rule:evenodd;stroke:none;stroke-width:2;stroke-linecap:round;stroke-linejoin:round;stroke-miterlimit:4;stroke-dasharray:none;stroke-dashoffset:0;stroke-opacity:1;color-rendering:auto;image-rendering:auto;shape-rendering:auto;text-rendering:auto;enable-background:accumulate" d="m 32.972362,1006.3621 a 0.9970943,1.0000146 0 0 0 -0.981417,1.0156 l 0,6.9701 a 0.9970943,1.0000146 0 1 0 1.993989,0 l 0,-6.9701 a 0.9970943,1.0000146 0 0 0 -1.012572,-1.0156 z"/><path style="color:#000000;font-style:normal;font-variant:normal;font-weight:normal;font-stretch:normal;font-size:medium;line-height:normal;font-family:sans-serif;text-indent:0;text-align:start;text-decoration:none;text-decoration-line:none;text-decoration-style:solid;text-decoration-color:#000000;letter-spacing:normal;word-spacing:normal;text-transform:none;direction:ltr;block-progression:tb;writing-mode:lr-tb;baseline-shift:baseline;text-anchor:start;white-space:normal;clip-rule:nonzero;display:inline;overflow:visible;visibility:visible;opacity:1;isolation:auto;mix-blend-mode:normal;color-interpolation:sRGB;color-interpolation-filters:linearRGB;solid-color:#000000;solid-opacity:1;fill:#000000;fill-opacity:1;fill-rule:evenodd;stroke:none;stroke-width:1.99999988;stroke-linecap:round;stroke-linejoin:round;stroke-miterlimit:4;stroke-dasharray:none;stroke-dashoffset:0;stroke-opacity:1;color-rendering:auto;image-rendering:auto;shape-rendering:auto;text-rendering:auto;enable-background:accumulate" d="m 35.971135,1008.3619 a 0.9970942,1.0000145 0 0 0 -0.449816,0.1133 l -5.956654,2.986 a 0.9970942,1.0000145 0 1 0 0.889896,1.789 l 5.956653,-2.9861 a 0.9970942,1.0000145 0 0 0 -0.440079,-1.9022 z"/><path style="color:#000000;font-style:normal;font-variant:normal;font-weight:normal;font-stretch:normal;font-size:medium;line-height:normal;font-family:sans-serif;text-indent:0;text-align:start;text-decoration:none;text-decoration-line:none;text-decoration-style:solid;text-decoration-color:#000000;letter-spacing:normal;word-spacing:normal;text-transform:none;direction:ltr;block-progression:tb;writing-mode:lr-tb;baseline-shift:baseline;text-anchor:start;white-space:normal;clip-rule:nonzero;display:inline;overflow:visible;visibility:visible;opacity:1;isolation:auto;mix-blend-mode:normal;color-interpolation:sRGB;color-interpolation-filters:linearRGB;solid-color:#000000;solid-opacity:1;fill:#000000;fill-opacity:1;fill-rule:evenodd;stroke:none;stroke-width:1.99999988;stroke-linecap:round;stroke-linejoin:round;stroke-miterlimit:4;stroke-dasharray:none;stroke-dashoffset:0;stroke-opacity:1;color-rendering:auto;image-rendering:auto;shape-rendering:auto;text-rendering:auto;enable-background:accumulate" d="m 29.975537,1008.3639 a 0.9970942,1.0000145 0 0 0 -0.410872,1.9002 l 5.956654,2.9861 a 0.9970942,1.0000145 0 1 0 0.889895,-1.789 l -5.956653,-2.986 a 0.9970942,1.0000145 0 0 0 -0.479024,-0.1113 z"/></g></svg>