<svg width='200' height='200' fill="#000000" xmlns:dc="http://purl.org/dc/elements/1.1/" xmlns:cc="http://creativecommons.org/ns#" xmlns:rdf="http://www.w3.org/1999/02/22-rdf-syntax-ns#" xmlns:svg="http://www.w3.org/2000/svg" xmlns="http://www.w3.org/2000/svg" xmlns:sodipodi="http://sodipodi.sourceforge.net/DTD/sodipodi-0.dtd" xmlns:inkscape="http://www.inkscape.org/namespaces/inkscape" viewBox="0 0 48 48.000001" version="1.1" x="0px" y="0px"><g transform="translate(0,-1004.3622)"><path style="color:#000000;font-style:normal;font-variant:normal;font-weight:normal;font-stretch:normal;font-size:medium;line-height:normal;font-family:sans-serif;text-indent:0;text-align:start;text-decoration:none;text-decoration-line:none;text-decoration-style:solid;text-decoration-color:#000000;letter-spacing:normal;word-spacing:normal;text-transform:none;direction:ltr;block-progression:tb;writing-mode:lr-tb;baseline-shift:baseline;text-anchor:start;white-space:normal;clip-rule:nonzero;display:inline;overflow:visible;visibility:visible;opacity:1;isolation:auto;mix-blend-mode:normal;color-interpolation:sRGB;color-interpolation-filters:linearRGB;solid-color:#000000;solid-opacity:1;fill:#000000;fill-opacity:1;fill-rule:evenodd;stroke:none;stroke-width:1.99999988;stroke-linecap:round;stroke-linejoin:round;stroke-miterlimit:4;stroke-dasharray:none;stroke-dashoffset:0;stroke-opacity:1;color-rendering:auto;image-rendering:auto;shape-rendering:auto;text-rendering:auto;enable-background:accumulate" d="m 34.992188,1042.3608 a 1.0000999,1.0000799 0 0 0 -0.451172,0.1133 l -3.550782,1.7694 -3.550781,-1.7694 a 1.0000999,1.0000799 0 0 0 -0.892578,0 l -3.550781,1.7694 -3.548828,-1.7694 a 1.0000999,1.0000799 0 0 0 -0.894532,0 l -3.548828,1.7694 -3.550781,-1.7694 a 1.0000999,1.0000799 0 0 0 -0.892578,0 l -3.5507814,1.7694 -3.5507812,-1.7694 a 1.0000999,1.0000799 0 1 0 -0.8925782,1.789 l 3.9960938,1.9941 a 1.0000999,1.0000799 0 0 0 0.8925781,0 l 3.5507809,-1.7715 3.550782,1.7715 a 1.0000999,1.0000799 0 0 0 0.892578,0 L 19,1044.4857 l 3.550781,1.7715 a 1.0000999,1.0000799 0 0 0 0.892578,0 l 3.550782,-1.7715 3.550781,1.7715 a 1.0000999,1.0000799 0 0 0 0.892578,0 l 3.996094,-1.9941 a 1.0000999,1.0000799 0 0 0 -0.441406,-1.9023 z"/><path style="color:#000000;font-style:normal;font-variant:normal;font-weight:normal;font-stretch:normal;font-size:medium;line-height:normal;font-family:sans-serif;text-indent:0;text-align:start;text-decoration:none;text-decoration-line:none;text-decoration-style:solid;text-decoration-color:#000000;letter-spacing:normal;word-spacing:normal;text-transform:none;direction:ltr;block-progression:tb;writing-mode:lr-tb;baseline-shift:baseline;text-anchor:start;white-space:normal;clip-rule:nonzero;display:inline;overflow:visible;visibility:visible;opacity:1;isolation:auto;mix-blend-mode:normal;color-interpolation:sRGB;color-interpolation-filters:linearRGB;solid-color:#000000;solid-opacity:1;fill:#000000;fill-opacity:1;fill-rule:evenodd;stroke:none;stroke-width:1.99999988;stroke-linecap:round;stroke-linejoin:round;stroke-miterlimit:4;stroke-dasharray:none;stroke-dashoffset:0;stroke-opacity:1;color-rendering:auto;image-rendering:auto;shape-rendering:auto;text-rendering:auto;enable-background:accumulate" d="m 34.992188,1047.3607 a 1.0000999,1.0000799 0 0 0 -0.451172,0.1133 l -3.550782,1.7694 -3.550781,-1.7694 a 1.0000999,1.0000799 0 0 0 -0.892578,0 l -3.550781,1.7694 -3.548828,-1.7694 a 1.0000999,1.0000799 0 0 0 -0.894532,0 l -3.548828,1.7694 -3.550781,-1.7694 a 1.0000999,1.0000799 0 0 0 -0.892578,0 l -3.5507814,1.7694 -3.5507812,-1.7694 a 1.0000999,1.0000799 0 1 0 -0.8925782,1.789 l 3.9960938,1.9941 a 1.0000999,1.0000799 0 0 0 0.8925781,0 l 3.5507809,-1.7715 3.550782,1.7715 a 1.0000999,1.0000799 0 0 0 0.892578,0 L 19,1049.4856 l 3.550781,1.7715 a 1.0000999,1.0000799 0 0 0 0.892578,0 l 3.550782,-1.7715 3.550781,1.7715 a 1.0000999,1.0000799 0 0 0 0.892578,0 l 3.996094,-1.9941 a 1.0000999,1.0000799 0 0 0 -0.441406,-1.9023 z"/><path style="color:#000000;font-style:normal;font-variant:normal;font-weight:normal;font-stretch:normal;font-size:medium;line-height:normal;font-family:sans-serif;text-indent:0;text-align:start;text-decoration:none;text-decoration-line:none;text-decoration-style:solid;text-decoration-color:#000000;letter-spacing:normal;word-spacing:normal;text-transform:none;direction:ltr;block-progression:tb;writing-mode:lr-tb;baseline-shift:baseline;text-anchor:start;white-space:normal;clip-rule:nonzero;display:inline;overflow:visible;visibility:visible;opacity:1;isolation:auto;mix-blend-mode:normal;color-interpolation:sRGB;color-interpolation-filters:linearRGB;solid-color:#000000;solid-opacity:1;fill:#000000;fill-opacity:1;fill-rule:evenodd;stroke:none;stroke-width:2;stroke-linecap:round;stroke-linejoin:round;stroke-miterlimit:4;stroke-dasharray:none;stroke-dashoffset:0;stroke-opacity:1;color-rendering:auto;image-rendering:auto;shape-rendering:auto;text-rendering:auto;enable-background:accumulate" d="M 3.984375,1005.3623 A 1.0001,0.99999496 0 0 0 3,1006.3779 l 0,6.97 a 1.0001,0.99999496 0 1 0 2,0 l 0,-6.97 a 1.0001,0.99999496 0 0 0 -1.015625,-1.0156 z"/><path style="color:#000000;font-style:normal;font-variant:normal;font-weight:normal;font-stretch:normal;font-size:medium;line-height:normal;font-family:sans-serif;text-indent:0;text-align:start;text-decoration:none;text-decoration-line:none;text-decoration-style:solid;text-decoration-color:#000000;letter-spacing:normal;word-spacing:normal;text-transform:none;direction:ltr;block-progression:tb;writing-mode:lr-tb;baseline-shift:baseline;text-anchor:start;white-space:normal;clip-rule:nonzero;display:inline;overflow:visible;visibility:visible;opacity:1;isolation:auto;mix-blend-mode:normal;color-interpolation:sRGB;color-interpolation-filters:linearRGB;solid-color:#000000;solid-opacity:1;fill:#000000;fill-opacity:1;fill-rule:evenodd;stroke:none;stroke-width:1.99999988;stroke-linecap:round;stroke-linejoin:round;stroke-miterlimit:4;stroke-dasharray:none;stroke-dashoffset:0;stroke-opacity:1;color-rendering:auto;image-rendering:auto;shape-rendering:auto;text-rendering:auto;enable-background:accumulate" d="m 6.9917487,1007.3624 a 0.9981942,0.9986863 0 0 0 -0.4503122,0.1131 l -5.96322465,2.9821 a 0.9981942,0.9986863 0 1 0 0.89087735,1.7866 l 5.9632247,-2.9822 a 0.9981942,0.9986863 0 0 0 -0.4405652,-1.8996 z"/><path style="color:#000000;font-style:normal;font-variant:normal;font-weight:normal;font-stretch:normal;font-size:medium;line-height:normal;font-family:sans-serif;text-indent:0;text-align:start;text-decoration:none;text-decoration-line:none;text-decoration-style:solid;text-decoration-color:#000000;letter-spacing:normal;word-spacing:normal;text-transform:none;direction:ltr;block-progression:tb;writing-mode:lr-tb;baseline-shift:baseline;text-anchor:start;white-space:normal;clip-rule:nonzero;display:inline;overflow:visible;visibility:visible;opacity:1;isolation:auto;mix-blend-mode:normal;color-interpolation:sRGB;color-interpolation-filters:linearRGB;solid-color:#000000;solid-opacity:1;fill:#000000;fill-opacity:1;fill-rule:evenodd;stroke:none;stroke-width:1.99999988;stroke-linecap:round;stroke-linejoin:round;stroke-miterlimit:4;stroke-dasharray:none;stroke-dashoffset:0;stroke-opacity:1;color-rendering:auto;image-rendering:auto;shape-rendering:auto;text-rendering:auto;enable-background:accumulate" d="m 0.97567248,1007.3623 a 0.99857061,0.99904957 0 0 0 -0.4114792,1.8983 l 5.96547332,2.9832 a 0.99857061,0.99904957 0 1 0 0.8912133,-1.7872 l -5.9654733,-2.9832 a 0.99857061,0.99904957 0 0 0 -0.47973412,-0.1111 z"/><path style="color:#000000;font-style:normal;font-variant:normal;font-weight:normal;font-stretch:normal;font-size:medium;line-height:normal;font-family:sans-serif;text-indent:0;text-align:start;text-decoration:none;text-decoration-line:none;text-decoration-style:solid;text-decoration-color:#000000;letter-spacing:normal;word-spacing:normal;text-transform:none;direction:ltr;block-progression:tb;writing-mode:lr-tb;baseline-shift:baseline;text-anchor:start;white-space:normal;clip-rule:nonzero;display:inline;overflow:visible;visibility:visible;opacity:1;isolation:auto;mix-blend-mode:normal;color-interpolation:sRGB;color-interpolation-filters:linearRGB;solid-color:#000000;solid-opacity:1;fill:#000000;fill-opacity:1;fill-rule:evenodd;stroke:none;stroke-width:2;stroke-linecap:round;stroke-linejoin:round;stroke-miterlimit:4;stroke-dasharray:none;stroke-dashoffset:0;stroke-opacity:1;color-rendering:auto;image-rendering:auto;shape-rendering:auto;text-rendering:auto;enable-background:accumulate" d="M 41.984291,1034.3617 A 1.000015,0.99999496 0 0 0 41,1035.3773 l 0,6.97 a 1.000015,0.99999496 0 1 0 1.99983,0 l 0,-6.97 a 1.000015,0.99999496 0 0 0 -1.015539,-1.0156 z"/><path style="color:#000000;font-style:normal;font-variant:normal;font-weight:normal;font-stretch:normal;font-size:medium;line-height:normal;font-family:sans-serif;text-indent:0;text-align:start;text-decoration:none;text-decoration-line:none;text-decoration-style:solid;text-decoration-color:#000000;letter-spacing:normal;word-spacing:normal;text-transform:none;direction:ltr;block-progression:tb;writing-mode:lr-tb;baseline-shift:baseline;text-anchor:start;white-space:normal;clip-rule:nonzero;display:inline;overflow:visible;visibility:visible;opacity:1;isolation:auto;mix-blend-mode:normal;color-interpolation:sRGB;color-interpolation-filters:linearRGB;solid-color:#000000;solid-opacity:1;fill:#000000;fill-opacity:1;fill-rule:evenodd;stroke:none;stroke-width:1.99999988;stroke-linecap:round;stroke-linejoin:round;stroke-miterlimit:4;stroke-dasharray:none;stroke-dashoffset:0;stroke-opacity:1;color-rendering:auto;image-rendering:auto;shape-rendering:auto;text-rendering:auto;enable-background:accumulate" d="m 44.99202,1036.3616 a 0.99819401,0.99869712 0 0 0 -0.450313,0.1131 l -5.963224,2.9821 a 0.99819401,0.99869712 0 1 0 0.890877,1.7866 l 5.963224,-2.982 a 0.99819401,0.99869712 0 0 0 -0.440564,-1.8998 z"/><path style="color:#000000;font-style:normal;font-variant:normal;font-weight:normal;font-stretch:normal;font-size:medium;line-height:normal;font-family:sans-serif;text-indent:0;text-align:start;text-decoration:none;text-decoration-line:none;text-decoration-style:solid;text-decoration-color:#000000;letter-spacing:normal;word-spacing:normal;text-transform:none;direction:ltr;block-progression:tb;writing-mode:lr-tb;baseline-shift:baseline;text-anchor:start;white-space:normal;clip-rule:nonzero;display:inline;overflow:visible;visibility:visible;opacity:1;isolation:auto;mix-blend-mode:normal;color-interpolation:sRGB;color-interpolation-filters:linearRGB;solid-color:#000000;solid-opacity:1;fill:#000000;fill-opacity:1;fill-rule:evenodd;stroke:none;stroke-width:1.99999988;stroke-linecap:round;stroke-linejoin:round;stroke-miterlimit:4;stroke-dasharray:none;stroke-dashoffset:0;stroke-opacity:1;color-rendering:auto;image-rendering:auto;shape-rendering:auto;text-rendering:auto;enable-background:accumulate" d="m 38.979324,1036.3622 a 0.99816115,0.99866445 0 0 0 -0.411311,1.8997 l 5.963028,2.982 a 0.99816115,0.99866445 0 1 0 0.890847,-1.7866 l -5.963028,-2.982 a 0.99816115,0.99866445 0 0 0 -0.479536,-0.1131 z"/><path style="color:#000000;font-style:normal;font-variant:normal;font-weight:normal;font-stretch:normal;font-size:medium;line-height:normal;font-family:sans-serif;text-indent:0;text-align:start;text-decoration:none;text-decoration-line:none;text-decoration-style:solid;text-decoration-color:#000000;letter-spacing:normal;word-spacing:normal;text-transform:none;direction:ltr;block-progression:tb;writing-mode:lr-tb;baseline-shift:baseline;text-anchor:start;white-space:normal;clip-rule:nonzero;display:inline;overflow:visible;visibility:visible;opacity:1;isolation:auto;mix-blend-mode:normal;color-interpolation:sRGB;color-interpolation-filters:linearRGB;solid-color:#000000;solid-opacity:1;fill:#000000;fill-opacity:1;fill-rule:nonzero;stroke:none;stroke-width:2;stroke-linecap:round;stroke-linejoin:round;stroke-miterlimit:4;stroke-dasharray:none;stroke-dashoffset:0;stroke-opacity:1;color-rendering:auto;image-rendering:auto;shape-rendering:auto;text-rendering:auto;enable-background:accumulate" d="m 20.368945,1005.9706 c -3.79804,1.4088 -6.545458,4.5954 -7.686855,8.3898 -0.376837,0 -0.731728,-0.04 -1.074907,-0.063 l 0,0 c -1.095211,0.039 -2.1983577,0.2413 -3.2756257,0.6233 -5.675955,2.0135 -9.11554803,7.8295 -8.17829403,13.804 0.91132303,5.8089 5.73596503,10.1281 11.53223673,10.5076 5.148598,0.2174 10.369999,0.096 14.807865,0.092 3.96882,-0.1978 7.457595,-2.6733 8.87532,-6.3206 0.213884,-0.5502 0.367369,-1.1124 0.475778,-1.6783 l 2.600138,0 c 0.01761,5e-4 0.03525,5e-4 0.05286,0 3.975894,-0.2074 7.449905,-2.8003 8.853782,-6.5767 1.403966,-3.7764 0.487275,-8.0404 -2.343648,-10.877 -2.690414,-2.6955 -6.587035,-3.0347 -10.032459,-1.8757 -2.405386,-3.9982 -6.569776,-6.664 -10.99968,-6.6333 -1.205873,0.011 -2.585888,0.2389 -3.606511,0.6096 z m 3.334364,1.35 0.02153,0 c 3.856832,-0.1447 7.783679,2.3352 9.850371,6.1294 0.04964,0.091 0.113047,0.173 0.187962,0.2443 l 0.158595,0.1504 c 0.28568,0.2723 0.705065,0.3519 1.07099,0.203 3.031313,-1.2386 6.372053,-0.9966 8.595335,1.2309 2.273625,2.2783 3.017007,5.7219 1.883534,8.7709 -1.132335,3.0458 -3.905913,5.1024 -7.070104,5.2715 l -2.384765,0 c -2.37e-4,-0.011 -0.0017,-0.021 -0.002,-0.031 -0.007,-0.2953 -0.02865,-0.5885 -0.06265,-0.8811 -0.0018,-0.016 -0.0039,-0.031 -0.0059,-0.047 -0.112637,-0.93 -0.360221,-1.8409 -0.736183,-2.7043 -0.530327,-1.2605 -1.295884,-2.2137 -2.200632,-3.1632 -2.701523,-2.5886 -6.579889,-2.9065 -10.022669,-1.7995 -1.504384,-2.3869 -3.683658,-4.2579 -6.183159,-5.334 -0.682237,-0.3037 -1.39082,-0.5045 -2.071496,-0.6995 1.013125,-3.1265 3.241348,-5.6692 6.335878,-6.817 0.868632,-0.3221 1.752169,-0.4886 2.635384,-0.5237 z m -12.041302,8.9781 0.01567,0 c 0.512413,-0.018 1.025137,0.01 1.535021,0.076 0.02639,0.01 0.04714,0.022 0.0744,0.025 0.798227,0.1034 1.586731,0.3139 2.35148,0.6096 2.510935,1.0387 4.593877,2.838 5.934491,5.164 0.05101,0.09 0.11574,0.1721 0.191879,0.2424 l 0.14097,0.1289 0.01567,0.016 c 0.01895,0.017 0.03854,0.033 0.05873,0.049 0.02154,0.017 0.04375,0.032 0.06657,0.047 0.0084,0.01 0.01688,0.012 0.02545,0.018 l 0.0098,0.01 c 0.02236,0.013 0.04521,0.026 0.06853,0.037 0.0237,0.012 0.04787,0.023 0.07245,0.033 0.0097,0 0.01952,0.01 0.02937,0.012 0.01618,0.01 0.0325,0.011 0.04895,0.016 0.01423,0.01 0.0286,0.011 0.04308,0.016 0.0233,0.01 0.04681,0.011 0.07048,0.016 6.01e-4,2e-4 0.0014,-1e-4 0.002,0 0.193525,0.045 0.398971,0.038 0.591296,-0.037 2.848656,-1.1156 5.988172,-0.9728 8.195916,0.803 0.147184,0.1183 0.290251,0.244 0.428789,0.3769 0.0064,0.01 0.01125,0.013 0.01762,0.02 1.595746,1.5531 2.299042,3.5593 2.349522,5.7169 -0.0037,0.1639 -0.0033,0.3285 -0.01762,0.4925 -0.06299,0.7069 -0.217101,1.4129 -0.48361,2.0985 -1.125945,2.8967 -3.903389,4.8798 -7.095557,5.0429 l -14.165661,0 c -0.03116,0 -0.06251,-0.01 -0.09398,-0.01 -5.0222177,-0.1632 -9.2218307,-3.8826 -10.0089637,-8.8998 -0.790953,-5.0419 2.09821,-9.9176 6.868437,-11.6098 0.876294,-0.3108 1.7673697,-0.4727 2.6588747,-0.506 z"/></g></svg>