<svg width='200' height='200' fill="#000000" xmlns:dc="http://purl.org/dc/elements/1.1/" xmlns:cc="http://creativecommons.org/ns#" xmlns:rdf="http://www.w3.org/1999/02/22-rdf-syntax-ns#" xmlns:svg="http://www.w3.org/2000/svg" xmlns="http://www.w3.org/2000/svg" xmlns:sodipodi="http://sodipodi.sourceforge.net/DTD/sodipodi-0.dtd" xmlns:inkscape="http://www.inkscape.org/namespaces/inkscape" viewBox="0 0 48 48.000001" version="1.1" x="0px" y="0px"><g transform="translate(0,-1004.3622)"><path style="color:#000000;font-style:normal;font-variant:normal;font-weight:normal;font-stretch:normal;font-size:medium;line-height:normal;font-family:sans-serif;text-indent:0;text-align:start;text-decoration:none;text-decoration-line:none;text-decoration-style:solid;text-decoration-color:#000000;letter-spacing:normal;word-spacing:normal;text-transform:none;direction:ltr;block-progression:tb;writing-mode:lr-tb;baseline-shift:baseline;text-anchor:start;white-space:normal;clip-rule:nonzero;display:inline;overflow:visible;visibility:visible;opacity:1;isolation:auto;mix-blend-mode:normal;color-interpolation:sRGB;color-interpolation-filters:linearRGB;solid-color:#000000;solid-opacity:1;fill:#000000;fill-opacity:1;fill-rule:nonzero;stroke:none;stroke-width:2;stroke-linecap:round;stroke-linejoin:round;stroke-miterlimit:4;stroke-dasharray:none;stroke-dashoffset:0;stroke-opacity:1;color-rendering:auto;image-rendering:auto;shape-rendering:auto;text-rendering:auto;enable-background:accumulate" d="m 8.0332031,1012.3628 a 1.0001,1.0001885 0 0 0 -0.8378906,0.4043 c 0,0 -1.2696459,1.7159 -2.5449219,3.768 -0.637638,1.0259 -1.2781395,2.1373 -1.7734375,3.1896 C 2.3816552,1020.777 2,1021.7279 2,1022.6957 c 0,3.1567 2.7341994,5.6665 6,5.6665 3.2658,0 6,-2.5098 6,-5.6665 0,-0.9678 -0.381655,-1.9187 -0.876953,-2.971 -0.495298,-1.0523 -1.1358,-2.1637 -1.773438,-3.1896 -1.275276,-2.0521 -2.5449215,-3.768 -2.5449215,-3.768 a 1.0001,1.0001885 0 0 0 -0.7714844,-0.4043 z M 8,1015.1481 c 0.4528019,0.6351 0.8272495,1.1172 1.6503906,2.4416 0.6123624,0.9854 1.2218604,2.0471 1.6640624,2.9867 0.442202,0.9395 0.685547,1.7982 0.685547,2.1193 0,1.9986 -1.742955,3.6663 -4,3.6663 -2.2570452,0 -4,-1.6677 -4,-3.6663 0,-0.3211 0.2433449,-1.1798 0.6855469,-2.1193 0.442202,-0.9396 1.0517006,-2.0013 1.6640625,-2.9867 0.823141,-1.3244 1.1975888,-1.8065 1.6503906,-2.4416 z"/><path style="color:#000000;font-style:normal;font-variant:normal;font-weight:normal;font-stretch:normal;font-size:medium;line-height:normal;font-family:sans-serif;text-indent:0;text-align:start;text-decoration:none;text-decoration-line:none;text-decoration-style:solid;text-decoration-color:#000000;letter-spacing:normal;word-spacing:normal;text-transform:none;direction:ltr;block-progression:tb;writing-mode:lr-tb;baseline-shift:baseline;text-anchor:start;white-space:normal;clip-rule:nonzero;display:inline;overflow:visible;visibility:visible;opacity:1;isolation:auto;mix-blend-mode:normal;color-interpolation:sRGB;color-interpolation-filters:linearRGB;solid-color:#000000;solid-opacity:1;fill:#000000;fill-opacity:1;fill-rule:nonzero;stroke:none;stroke-width:2;stroke-linecap:round;stroke-linejoin:round;stroke-miterlimit:4;stroke-dasharray:none;stroke-dashoffset:0;stroke-opacity:1;color-rendering:auto;image-rendering:auto;shape-rendering:auto;text-rendering:auto;enable-background:accumulate" d="m 40.033203,1012.3628 a 1.0001,1.0001885 0 0 0 -0.837891,0.4043 c 0,0 -1.269645,1.7159 -2.544921,3.768 -0.637638,1.0259 -1.27814,2.1373 -1.773438,3.1896 C 34.381655,1020.777 34,1021.7279 34,1022.6957 c 0,3.1567 2.734199,5.6665 6,5.6665 3.2658,0 6,-2.5098 6,-5.6665 0,-0.9678 -0.381655,-1.9187 -0.876953,-2.971 -0.495298,-1.0523 -1.1358,-2.1637 -1.773438,-3.1896 -1.275276,-2.0521 -2.544922,-3.768 -2.544921,-3.768 a 1.0001,1.0001885 0 0 0 -0.771485,-0.4043 z M 40,1015.1481 c 0.452802,0.6351 0.82725,1.1172 1.650391,2.4416 0.612362,0.9854 1.22186,2.0471 1.664062,2.9867 0.442202,0.9395 0.685547,1.7982 0.685547,2.1193 0,1.9986 -1.742956,3.6663 -4,3.6663 -2.257045,0 -4,-1.6677 -4,-3.6663 0,-0.3211 0.243345,-1.1798 0.685547,-2.1193 0.442202,-0.9396 1.0517,-2.0013 1.664062,-2.9867 0.823141,-1.3244 1.197589,-1.8065 1.650391,-2.4416 z"/><path style="color:#000000;font-style:normal;font-variant:normal;font-weight:normal;font-stretch:normal;font-size:medium;line-height:normal;font-family:sans-serif;text-indent:0;text-align:start;text-decoration:none;text-decoration-line:none;text-decoration-style:solid;text-decoration-color:#000000;letter-spacing:normal;word-spacing:normal;text-transform:none;direction:ltr;block-progression:tb;writing-mode:lr-tb;baseline-shift:baseline;text-anchor:start;white-space:normal;clip-rule:nonzero;display:inline;overflow:visible;visibility:visible;opacity:1;isolation:auto;mix-blend-mode:normal;color-interpolation:sRGB;color-interpolation-filters:linearRGB;solid-color:#000000;solid-opacity:1;fill:#000000;fill-opacity:1;fill-rule:nonzero;stroke:none;stroke-width:2;stroke-linecap:round;stroke-linejoin:round;stroke-miterlimit:4;stroke-dasharray:none;stroke-dashoffset:0;stroke-opacity:1;color-rendering:auto;image-rendering:auto;shape-rendering:auto;text-rendering:auto;enable-background:accumulate" d="m 24.033203,1028.3628 a 1.0001,1.0001885 0 0 0 -0.837891,0.4043 c 0,0 -1.269645,1.7159 -2.544921,3.768 -0.637638,1.0259 -1.27814,2.1373 -1.773438,3.1896 C 18.381655,1036.777 18,1037.7279 18,1038.6957 c 0,3.1567 2.734199,5.6665 6,5.6665 3.2658,0 6,-2.5098 6,-5.6665 0,-0.9678 -0.381655,-1.9187 -0.876953,-2.971 -0.495298,-1.0523 -1.1358,-2.1637 -1.773438,-3.1896 -1.275276,-2.0521 -2.544922,-3.768 -2.544921,-3.768 a 1.0001,1.0001885 0 0 0 -0.771485,-0.4043 z M 24,1031.1481 c 0.452802,0.6351 0.82725,1.1172 1.650391,2.4416 0.612362,0.9854 1.22186,2.0471 1.664062,2.9867 0.442202,0.9395 0.685547,1.7982 0.685547,2.1193 0,1.9986 -1.742956,3.6663 -4,3.6663 -2.257045,0 -4,-1.6677 -4,-3.6663 0,-0.3211 0.243345,-1.1798 0.685547,-2.1193 0.442202,-0.9396 1.0517,-2.0013 1.664062,-2.9867 0.823141,-1.3244 1.197589,-1.8065 1.650391,-2.4416 z"/></g></svg>