<svg width='200' height='200' fill="#000000" xmlns:dc="http://purl.org/dc/elements/1.1/" xmlns:cc="http://creativecommons.org/ns#" xmlns:rdf="http://www.w3.org/1999/02/22-rdf-syntax-ns#" xmlns:svg="http://www.w3.org/2000/svg" xmlns="http://www.w3.org/2000/svg" xmlns:sodipodi="http://sodipodi.sourceforge.net/DTD/sodipodi-0.dtd" xmlns:inkscape="http://www.inkscape.org/namespaces/inkscape" viewBox="0 0 48 48.000001" version="1.1" x="0px" y="0px"><g transform="translate(0,-1004.3622)"><path style="color:#000000;font-style:normal;font-variant:normal;font-weight:normal;font-stretch:normal;font-size:medium;line-height:normal;font-family:sans-serif;text-indent:0;text-align:start;text-decoration:none;text-decoration-line:none;text-decoration-style:solid;text-decoration-color:#000000;letter-spacing:normal;word-spacing:normal;text-transform:none;direction:ltr;block-progression:tb;writing-mode:lr-tb;baseline-shift:baseline;text-anchor:start;white-space:normal;clip-rule:nonzero;display:inline;overflow:visible;visibility:visible;opacity:1;isolation:auto;mix-blend-mode:normal;color-interpolation:sRGB;color-interpolation-filters:linearRGB;solid-color:#000000;solid-opacity:1;fill:#000000;fill-opacity:1;fill-rule:evenodd;stroke:none;stroke-width:2;stroke-linecap:round;stroke-linejoin:round;stroke-miterlimit:4;stroke-dasharray:none;stroke-dashoffset:0;stroke-opacity:1;color-rendering:auto;image-rendering:auto;shape-rendering:auto;text-rendering:auto;enable-background:accumulate" d="m 36.994631,1025.3654 a 0.99952272,0.999084 0 0 0 -0.361119,0.07 c -7.296269,2.7478 -14.692805,2.4166 -22.303526,-0.017 a 0.99952272,0.999084 0 1 0 -0.609022,1.9024 c 7.92194,2.5337 15.851261,2.909 23.617219,-0.016 a 0.99952272,0.999084 0 0 0 -0.343552,-1.9394 z"/><path style="color:#000000;font-style:normal;font-variant:normal;font-weight:normal;font-stretch:normal;font-size:medium;line-height:normal;font-family:sans-serif;text-indent:0;text-align:start;text-decoration:none;text-decoration-line:none;text-decoration-style:solid;text-decoration-color:#000000;letter-spacing:normal;word-spacing:normal;text-transform:none;direction:ltr;block-progression:tb;writing-mode:lr-tb;baseline-shift:baseline;text-anchor:start;white-space:normal;clip-rule:nonzero;display:inline;overflow:visible;visibility:visible;opacity:1;isolation:auto;mix-blend-mode:normal;color-interpolation:sRGB;color-interpolation-filters:linearRGB;solid-color:#000000;solid-opacity:1;fill:#000000;fill-opacity:1;fill-rule:evenodd;stroke:none;stroke-width:1.99999988;stroke-linecap:round;stroke-linejoin:round;stroke-miterlimit:4;stroke-dasharray:none;stroke-dashoffset:0;stroke-opacity:1;color-rendering:auto;image-rendering:auto;shape-rendering:auto;text-rendering:auto;enable-background:accumulate" d="m 12.011644,1030.371 a 0.99867781,0.99751795 0 0 0 -0.189185,1.9793 c 5.399616,1.0665 12.759331,1.6136 18.417134,-0.022 a 0.99867781,0.99751795 0 1 0 -0.553899,-1.9151 c -5.082772,1.4689 -12.299242,1.0013 -17.477065,-0.021 a 0.99867781,0.99751795 0 0 0 -0.196985,-0.022 z"/><path style="color:#000000;font-style:normal;font-variant:normal;font-weight:normal;font-stretch:normal;font-size:medium;line-height:normal;font-family:sans-serif;text-indent:0;text-align:start;text-decoration:none;text-decoration-line:none;text-decoration-style:solid;text-decoration-color:#000000;letter-spacing:normal;word-spacing:normal;text-transform:none;direction:ltr;block-progression:tb;writing-mode:lr-tb;baseline-shift:baseline;text-anchor:start;white-space:normal;clip-rule:nonzero;display:inline;overflow:visible;visibility:visible;opacity:1;isolation:auto;mix-blend-mode:normal;color-interpolation:sRGB;color-interpolation-filters:linearRGB;solid-color:#000000;solid-opacity:1;fill:#000000;fill-opacity:1;fill-rule:evenodd;stroke:none;stroke-width:2;stroke-linecap:round;stroke-linejoin:round;stroke-miterlimit:4;stroke-dasharray:none;stroke-dashoffset:0;stroke-opacity:1;color-rendering:auto;image-rendering:auto;shape-rendering:auto;text-rendering:auto;enable-background:accumulate" d="m 12.019783,1035.3622 a 1.0005167,0.99979452 0 0 0 -0.30286,1.9584 c 4.447834,1.3907 10.552779,1.3602 14.582245,0.078 a 1.0007368,1.0000144 0 1 0 -0.607675,-1.9056 c -3.445388,1.0961 -9.465782,1.1426 -13.376666,-0.08 a 1.0005167,0.99979452 0 0 0 -0.295044,-0.051 z"/><path style="color:#000000;font-style:normal;font-variant:normal;font-weight:normal;font-stretch:normal;font-size:medium;line-height:normal;font-family:sans-serif;text-indent:0;text-align:start;text-decoration:none;text-decoration-line:none;text-decoration-style:solid;text-decoration-color:#000000;letter-spacing:normal;word-spacing:normal;text-transform:none;direction:ltr;block-progression:tb;writing-mode:lr-tb;baseline-shift:baseline;text-anchor:start;white-space:normal;clip-rule:nonzero;display:inline;overflow:visible;visibility:visible;opacity:1;isolation:auto;mix-blend-mode:normal;color-interpolation:sRGB;color-interpolation-filters:linearRGB;solid-color:#000000;solid-opacity:1;fill:#000000;fill-opacity:1;fill-rule:evenodd;stroke:none;stroke-width:1.99999976;stroke-linecap:round;stroke-linejoin:round;stroke-miterlimit:4;stroke-dasharray:none;stroke-dashoffset:0;stroke-opacity:1;color-rendering:auto;image-rendering:auto;shape-rendering:auto;text-rendering:auto;enable-background:accumulate" d="m 14.999143,1040.3654 a 0.99775318,0.9987433 0 0 0 -0.257208,1.9641 c 3.342759,0.9628 5.512338,1.7337 12.460925,0.01 a 0.99775318,0.9987433 0 1 0 -0.481289,-1.9368 c -6.744188,1.6751 -8.002527,0.994 -11.42625,0.01 a 0.99775318,0.9987433 0 0 0 -0.296178,-0.043 z"/><path style="color:#000000;font-style:normal;font-variant:normal;font-weight:normal;font-stretch:normal;font-size:medium;line-height:normal;font-family:sans-serif;text-indent:0;text-align:start;text-decoration:none;text-decoration-line:none;text-decoration-style:solid;text-decoration-color:#000000;letter-spacing:normal;word-spacing:normal;text-transform:none;direction:ltr;block-progression:tb;writing-mode:lr-tb;baseline-shift:baseline;text-anchor:start;white-space:normal;clip-rule:nonzero;display:inline;overflow:visible;visibility:visible;opacity:1;isolation:auto;mix-blend-mode:normal;color-interpolation:sRGB;color-interpolation-filters:linearRGB;solid-color:#000000;solid-opacity:1;fill:#000000;fill-opacity:1;fill-rule:evenodd;stroke:none;stroke-width:2;stroke-linecap:round;stroke-linejoin:round;stroke-miterlimit:4;stroke-dasharray:none;stroke-dashoffset:0;stroke-opacity:1;color-rendering:auto;image-rendering:auto;shape-rendering:auto;text-rendering:auto;enable-background:accumulate" d="m 26.007958,1045.3631 a 0.99866085,0.99951126 0 0 0 -0.540237,0.1542 c -2.357951,1.4344 -5.616371,0.7106 -8.138663,-0.098 a 0.99866085,0.99951126 0 1 0 -0.608498,1.9032 c 2.639081,0.8456 6.524163,1.8859 9.784728,-0.098 a 0.99866085,0.99951126 0 0 0 -0.49733,-1.8622 z"/><path style="color:#000000;font-style:normal;font-variant:normal;font-weight:normal;font-stretch:normal;font-size:medium;line-height:normal;font-family:sans-serif;text-indent:0;text-align:start;text-decoration:none;text-decoration-line:none;text-decoration-style:solid;text-decoration-color:#000000;letter-spacing:normal;word-spacing:normal;text-transform:none;direction:ltr;block-progression:tb;writing-mode:lr-tb;baseline-shift:baseline;text-anchor:start;white-space:normal;clip-rule:nonzero;display:inline;overflow:visible;visibility:visible;opacity:1;isolation:auto;mix-blend-mode:normal;color-interpolation:sRGB;color-interpolation-filters:linearRGB;solid-color:#000000;solid-opacity:1;fill:#000000;fill-opacity:1;fill-rule:evenodd;stroke:none;stroke-width:1.99999976;stroke-linecap:round;stroke-linejoin:round;stroke-miterlimit:4;stroke-dasharray:none;stroke-dashoffset:0;stroke-opacity:1;color-rendering:auto;image-rendering:auto;shape-rendering:auto;text-rendering:auto;enable-background:accumulate" d="m 20.014045,1050.3621 a 0.99991214,1.0000999 0 1 0 0,2 l 3.97191,0 a 0.99991214,1.0000999 0 1 0 0,-2 l -3.97191,0 z"/><path style="color:#000000;font-style:normal;font-variant:normal;font-weight:normal;font-stretch:normal;font-size:medium;line-height:normal;font-family:sans-serif;text-indent:0;text-align:start;text-decoration:none;text-decoration-line:none;text-decoration-style:solid;text-decoration-color:#000000;letter-spacing:normal;word-spacing:normal;text-transform:none;direction:ltr;block-progression:tb;writing-mode:lr-tb;baseline-shift:baseline;text-anchor:start;white-space:normal;clip-rule:nonzero;display:inline;overflow:visible;visibility:visible;opacity:1;isolation:auto;mix-blend-mode:normal;color-interpolation:sRGB;color-interpolation-filters:linearRGB;solid-color:#000000;solid-opacity:1;fill:#000000;fill-opacity:1;fill-rule:nonzero;stroke:none;stroke-width:2;stroke-linecap:round;stroke-linejoin:round;stroke-miterlimit:4;stroke-dasharray:none;stroke-dashoffset:0;stroke-opacity:1;color-rendering:auto;image-rendering:auto;shape-rendering:auto;text-rendering:auto;enable-background:accumulate" d="m 18.923828,1004.3618 a 1.0001,1.0001 0 0 0 -0.332031,0.059 c -2.029287,0.1286 -3.755429,1.3681 -4.560547,3.1836 -0.585133,-0.1533 -1.157892,-0.364 -1.773438,-0.3418 a 1.0001,1.0001 0 0 0 -0.002,0 c -0.592218,0.023 -1.192462,0.1315 -1.779297,0.3418 -3.0527618,1.0939 -4.8963386,4.2477 -4.3945308,7.4785 0.4480391,2.8846 2.6701779,5.0977 5.4472658,5.6055 1.087667,1.2555 2.83239,1.9506 4.816406,1.9512 a 1.0001,1.0001 0 0 0 0.002,0 c 0.80853,-8e-4 1.575129,-0.1803 2.316406,-0.3985 1.098418,0.7103 2.459203,1.1201 3.9375,1.1211 1.92982,0 3.608568,-0.6834 4.705079,-1.8691 0.277222,0.027 0.553602,0.06 0.833984,0.06 a 1.0001,1.0001 0 0 0 0.0039,0 c 0.648603,0 1.282522,-0.1 1.896485,-0.2422 0.893534,0.3492 1.856093,0.6023 2.882812,0.6036 a 1.0001,1.0001 0 0 0 0.002,0 c 1.943323,-5e-4 3.76356,-0.5803 4.890625,-1.8047 l -0.40625,0.2676 c 2.709939,-0.9464 4.587872,-3.2933 4.589844,-5.9727 -0.0013,-2.7202 -1.955331,-5.0285 -4.695312,-5.955 -0.72322,-1.673 -2.016194,-3.0881 -3.820313,-3.7344 -0.585579,-0.2098 -1.188002,-0.3223 -1.783203,-0.3438 -2.330957,-0.083 -4.424147,1.2642 -5.775391,3.1914 -0.728358,-0.2068 -1.469909,-0.2724 -2.21875,-0.2031 -0.905664,-1.7915 -2.717428,-2.9936 -4.783203,-2.9961 z m 0,2.002 c 6.56e-4,0 0.0013,0 0.002,0 1.495774,0 2.80191,0.951 3.248047,2.334 a 1.0001,1.0001 0 0 0 1.195313,0.664 c 0.754485,-0.1888 1.644794,-0.1115 2.476562,0.2168 a 1.0001,1.0001 0 0 0 1.048828,-0.1972 l 0.07813,-0.074 a 1.0001,1.0001 0 0 0 0.189453,-0.2402 c 0.9408,-1.6683 2.748275,-2.7589 4.466797,-2.6973 0.395883,0.014 0.790719,0.087 1.179688,0.2266 1.39317,0.4991 2.426158,1.6093 2.886718,2.9629 a 1.0001,1.0001 0 0 0 0.679688,0.6426 c 2.225649,0.6144 3.624077,2.3389 3.625,4.2031 -0.0022,1.7451 -1.225555,3.3777 -3.248047,4.084 a 1.0001,1.0001 0 0 0 -0.40625,0.2676 c -0.556143,0.6042 -1.91439,1.1578 -3.419922,1.1582 -0.915193,0 -1.802179,-0.193 -2.474609,-0.5079 a 1.0001,1.0001 0 0 0 -0.679688,-0.061 c -0.505405,0.1335 -1.063601,0.2058 -1.628906,0.207 -0.31754,-4e-4 -0.632706,-0.022 -0.939453,-0.066 a 1.0001,1.0001 0 0 0 -0.996094,0.4688 c -0.397444,0.6507 -1.867893,1.4049 -3.605469,1.4062 -1.298632,-9e-4 -2.511062,-0.401 -3.164062,-0.9238 a 1.0001,1.0001 0 0 0 -0.970703,-0.1582 c -0.618059,0.2282 -1.361996,0.3587 -2.121094,0.3594 -1.730757,-6e-4 -3.199911,-0.7501 -3.603515,-1.4004 a 1.0001,1.0001 0 0 0 -0.705079,-0.461 c -2.01488,-0.2959 -3.650248,-1.8885 -3.9785152,-4.0019 -0.3580762,-2.3054 0.9469701,-4.5205 3.0917972,-5.2891 0.387095,-0.1387 0.781468,-0.2111 1.179687,-0.2265 0.639486,-0.023 1.286635,0.1062 1.902344,0.3711 a 1.0001,1.0001 0 0 0 1.367187,-0.6856 c 0.359513,-1.5078 1.726068,-2.5805 3.324219,-2.582 z m 6.669922,1.541 c -0.04446,0.073 -0.131755,0.1051 -0.173828,0.1797 l 0.136719,-0.1719 0.03711,-0.01 z"/></g></svg>