<svg width='200' height='200' fill="#000000" xmlns:dc="http://purl.org/dc/elements/1.1/" xmlns:cc="http://creativecommons.org/ns#" xmlns:rdf="http://www.w3.org/1999/02/22-rdf-syntax-ns#" xmlns:svg="http://www.w3.org/2000/svg" xmlns="http://www.w3.org/2000/svg" xmlns:sodipodi="http://sodipodi.sourceforge.net/DTD/sodipodi-0.dtd" xmlns:inkscape="http://www.inkscape.org/namespaces/inkscape" viewBox="0 0 48 48.000001" version="1.1" x="0px" y="0px"><g transform="translate(0,-1004.3622)"><path style="color:#000000;font-style:normal;font-variant:normal;font-weight:normal;font-stretch:normal;font-size:medium;line-height:normal;font-family:sans-serif;text-indent:0;text-align:start;text-decoration:none;text-decoration-line:none;text-decoration-style:solid;text-decoration-color:#000000;letter-spacing:normal;word-spacing:normal;text-transform:none;direction:ltr;block-progression:tb;writing-mode:lr-tb;baseline-shift:baseline;text-anchor:start;white-space:normal;clip-rule:nonzero;display:inline;overflow:visible;visibility:visible;opacity:1;isolation:auto;mix-blend-mode:normal;color-interpolation:sRGB;color-interpolation-filters:linearRGB;solid-color:#000000;solid-opacity:1;fill:#000000;fill-opacity:1;fill-rule:nonzero;stroke:none;stroke-width:1.99999988;stroke-linecap:butt;stroke-linejoin:miter;stroke-miterlimit:4;stroke-dasharray:none;stroke-dashoffset:0;stroke-opacity:1;color-rendering:auto;image-rendering:auto;shape-rendering:auto;text-rendering:auto;enable-background:accumulate" d="m 24.006636,1008.3622 c -2.744866,-0 -4.998359,2.2336 -5.005859,4.9746 -0.01182,7.2048 -0.0059,14.4203 -0.0059,21.6289 -2.525679,2.0915 -3.620143,5.5079 -2.636719,8.6953 1.043245,3.3811 4.142484,5.7029 7.646484,5.7012 3.504577,0 6.598583,-2.3249 7.638672,-5.707 0.980005,-3.1869 -0.10989,-6.6006 -2.636719,-8.6895 -0.0073,-7.203 0.01284,-14.4247 -0.0059,-21.6172 -0.0012,-2.7411 -2.249236,-4.9863 -4.994059,-4.9863 z m -0.002,2.0039 c 1.668422,0 2.99529,1.3282 2.996094,2.9863 0.008,7.5016 0.0039,15.0213 0.0039,22.5293 l 0.421875,0.2989 c 2.15698,1.5257 3.092533,4.3184 2.302735,6.8867 -0.789554,2.5677 -3.104661,4.2949 -5.724557,4.2949 l -0.002,0 c -2.62049,0 -4.938522,-1.7223 -5.730469,-4.2891 -0.791747,-2.5661 0.14709,-5.3646 2.302735,-6.8925 l 0.421875,-0.2989 c 0.02488,-7.5092 -0.03631,-15.0332 0.004,-22.5351 0.0045,-1.6581 1.335457,-2.9805 3.003906,-2.9805 z"/><path style="color:#000000;font-style:normal;font-variant:normal;font-weight:normal;font-stretch:normal;font-size:medium;line-height:normal;font-family:sans-serif;text-indent:0;text-align:start;text-decoration:none;text-decoration-line:none;text-decoration-style:solid;text-decoration-color:#000000;letter-spacing:normal;word-spacing:normal;text-transform:none;direction:ltr;block-progression:tb;writing-mode:lr-tb;baseline-shift:baseline;text-anchor:start;white-space:normal;clip-rule:nonzero;display:inline;overflow:visible;visibility:visible;opacity:1;isolation:auto;mix-blend-mode:normal;color-interpolation:sRGB;color-interpolation-filters:linearRGB;solid-color:#000000;solid-opacity:1;fill:#000000;fill-opacity:1;fill-rule:nonzero;stroke:none;stroke-width:2;stroke-linecap:butt;stroke-linejoin:miter;stroke-miterlimit:4;stroke-dasharray:none;stroke-dashoffset:0;stroke-opacity:1;color-rendering:auto;image-rendering:auto;shape-rendering:auto;text-rendering:auto;enable-background:accumulate" d="m 24.000777,1037.3622 c -2.197294,0 -4,1.8027 -4,4 0,2.1973 1.802706,4 4,4 2.197294,0 4,-1.8027 4,-4 0,-2.1973 -1.802706,-4 -4,-4 z m 0,2 c 1.116414,0 2,0.8836 2,2 0,1.1164 -0.883586,2 -2,2 -1.116414,0 -2,-0.8836 -2,-2 0,-1.1164 0.883586,-2 2,-2 z"/></g></svg>