<svg width='200' height='200' fill="#000000" xmlns:dc="http://purl.org/dc/elements/1.1/" xmlns:cc="http://creativecommons.org/ns#" xmlns:rdf="http://www.w3.org/1999/02/22-rdf-syntax-ns#" xmlns:svg="http://www.w3.org/2000/svg" xmlns="http://www.w3.org/2000/svg" xmlns:sodipodi="http://sodipodi.sourceforge.net/DTD/sodipodi-0.dtd" xmlns:inkscape="http://www.inkscape.org/namespaces/inkscape" viewBox="0 0 48 48.000001" version="1.1" x="0px" y="0px"><g transform="translate(0,-1004.3622)"><path style="color:#000000;font-style:normal;font-variant:normal;font-weight:normal;font-stretch:normal;font-size:medium;line-height:normal;font-family:sans-serif;text-indent:0;text-align:start;text-decoration:none;text-decoration-line:none;text-decoration-style:solid;text-decoration-color:#000000;letter-spacing:normal;word-spacing:normal;text-transform:none;direction:ltr;block-progression:tb;writing-mode:lr-tb;baseline-shift:baseline;text-anchor:start;white-space:normal;clip-rule:nonzero;display:inline;overflow:visible;visibility:visible;opacity:1;isolation:auto;mix-blend-mode:normal;color-interpolation:sRGB;color-interpolation-filters:linearRGB;solid-color:#000000;solid-opacity:1;fill:#000000;fill-opacity:1;fill-rule:evenodd;stroke:none;stroke-width:2;stroke-linecap:round;stroke-linejoin:round;stroke-miterlimit:4;stroke-dasharray:none;stroke-dashoffset:0;stroke-opacity:1;color-rendering:auto;image-rendering:auto;shape-rendering:auto;text-rendering:auto;enable-background:accumulate" d="m 28.984381,1041.361 a 1.0000764,1.0001302 0 0 0 -0.984351,1.0158 l 0,6.9709 a 1.0000764,1.0001302 0 1 0 1.999952,0 l 0,-6.9709 a 1.0000764,1.0001302 0 0 0 -1.015601,-1.0158 z"/><path style="color:#000000;font-style:normal;font-variant:normal;font-weight:normal;font-stretch:normal;font-size:medium;line-height:normal;font-family:sans-serif;text-indent:0;text-align:start;text-decoration:none;text-decoration-line:none;text-decoration-style:solid;text-decoration-color:#000000;letter-spacing:normal;word-spacing:normal;text-transform:none;direction:ltr;block-progression:tb;writing-mode:lr-tb;baseline-shift:baseline;text-anchor:start;white-space:normal;clip-rule:nonzero;display:inline;overflow:visible;visibility:visible;opacity:1;isolation:auto;mix-blend-mode:normal;color-interpolation:sRGB;color-interpolation-filters:linearRGB;solid-color:#000000;solid-opacity:1;fill:#000000;fill-opacity:1;fill-rule:evenodd;stroke:none;stroke-width:1.99999988;stroke-linecap:round;stroke-linejoin:round;stroke-miterlimit:4;stroke-dasharray:none;stroke-dashoffset:0;stroke-opacity:1;color-rendering:auto;image-rendering:auto;shape-rendering:auto;text-rendering:auto;enable-background:accumulate" d="m 25.978593,1043.3611 a 1.0000763,1.0001301 0 0 0 -0.4121,1.9004 l 5.974469,2.9884 a 1.0000763,1.0001301 0 1 0 0.892557,-1.7891 l -5.974469,-2.9864 a 1.0000763,1.0001301 0 0 0 -0.480457,-0.1133 z"/><path style="color:#000000;font-style:normal;font-variant:normal;font-weight:normal;font-stretch:normal;font-size:medium;line-height:normal;font-family:sans-serif;text-indent:0;text-align:start;text-decoration:none;text-decoration-line:none;text-decoration-style:solid;text-decoration-color:#000000;letter-spacing:normal;word-spacing:normal;text-transform:none;direction:ltr;block-progression:tb;writing-mode:lr-tb;baseline-shift:baseline;text-anchor:start;white-space:normal;clip-rule:nonzero;display:inline;overflow:visible;visibility:visible;opacity:1;isolation:auto;mix-blend-mode:normal;color-interpolation:sRGB;color-interpolation-filters:linearRGB;solid-color:#000000;solid-opacity:1;fill:#000000;fill-opacity:1;fill-rule:evenodd;stroke:none;stroke-width:1.99999988;stroke-linecap:round;stroke-linejoin:round;stroke-miterlimit:4;stroke-dasharray:none;stroke-dashoffset:0;stroke-opacity:1;color-rendering:auto;image-rendering:auto;shape-rendering:auto;text-rendering:auto;enable-background:accumulate" d="m 31.992123,1043.3611 a 1.0000763,1.0001301 0 0 0 -0.451161,0.1133 l -5.974469,2.9864 a 1.0000763,1.0001301 0 1 0 0.892557,1.7891 l 5.974469,-2.9884 a 1.0000763,1.0001301 0 0 0 -0.441396,-1.9004 z"/><path style="color:#000000;font-style:normal;font-variant:normal;font-weight:normal;font-stretch:normal;font-size:medium;line-height:normal;font-family:sans-serif;text-indent:0;text-align:start;text-decoration:none;text-decoration-line:none;text-decoration-style:solid;text-decoration-color:#000000;letter-spacing:normal;word-spacing:normal;text-transform:none;direction:ltr;block-progression:tb;writing-mode:lr-tb;baseline-shift:baseline;text-anchor:start;white-space:normal;clip-rule:nonzero;display:inline;overflow:visible;visibility:visible;opacity:1;isolation:auto;mix-blend-mode:normal;color-interpolation:sRGB;color-interpolation-filters:linearRGB;solid-color:#000000;solid-opacity:1;fill:#000000;fill-opacity:1;fill-rule:evenodd;stroke:none;stroke-width:2;stroke-linecap:round;stroke-linejoin:round;stroke-miterlimit:4;stroke-dasharray:none;stroke-dashoffset:0;stroke-opacity:1;color-rendering:auto;image-rendering:auto;shape-rendering:auto;text-rendering:auto;enable-background:accumulate" d="m 13.984735,1041.361 a 1.0000764,1.0001302 0 0 0 -0.984352,1.0158 l 0,6.9709 a 1.0000764,1.0001302 0 1 0 1.999953,0 l 0,-6.9709 a 1.0000764,1.0001302 0 0 0 -1.015601,-1.0158 z"/><path style="color:#000000;font-style:normal;font-variant:normal;font-weight:normal;font-stretch:normal;font-size:medium;line-height:normal;font-family:sans-serif;text-indent:0;text-align:start;text-decoration:none;text-decoration-line:none;text-decoration-style:solid;text-decoration-color:#000000;letter-spacing:normal;word-spacing:normal;text-transform:none;direction:ltr;block-progression:tb;writing-mode:lr-tb;baseline-shift:baseline;text-anchor:start;white-space:normal;clip-rule:nonzero;display:inline;overflow:visible;visibility:visible;opacity:1;isolation:auto;mix-blend-mode:normal;color-interpolation:sRGB;color-interpolation-filters:linearRGB;solid-color:#000000;solid-opacity:1;fill:#000000;fill-opacity:1;fill-rule:evenodd;stroke:none;stroke-width:1.99999988;stroke-linecap:round;stroke-linejoin:round;stroke-miterlimit:4;stroke-dasharray:none;stroke-dashoffset:0;stroke-opacity:1;color-rendering:auto;image-rendering:auto;shape-rendering:auto;text-rendering:auto;enable-background:accumulate" d="m 10.978947,1043.3611 a 1.0000763,1.0001301 0 0 0 -0.4121,1.9004 l 5.974469,2.9884 a 1.0000763,1.0001301 0 1 0 0.892557,-1.7891 l -5.974469,-2.9864 a 1.0000763,1.0001301 0 0 0 -0.480457,-0.1133 z"/><path style="color:#000000;font-style:normal;font-variant:normal;font-weight:normal;font-stretch:normal;font-size:medium;line-height:normal;font-family:sans-serif;text-indent:0;text-align:start;text-decoration:none;text-decoration-line:none;text-decoration-style:solid;text-decoration-color:#000000;letter-spacing:normal;word-spacing:normal;text-transform:none;direction:ltr;block-progression:tb;writing-mode:lr-tb;baseline-shift:baseline;text-anchor:start;white-space:normal;clip-rule:nonzero;display:inline;overflow:visible;visibility:visible;opacity:1;isolation:auto;mix-blend-mode:normal;color-interpolation:sRGB;color-interpolation-filters:linearRGB;solid-color:#000000;solid-opacity:1;fill:#000000;fill-opacity:1;fill-rule:evenodd;stroke:none;stroke-width:1.99999988;stroke-linecap:round;stroke-linejoin:round;stroke-miterlimit:4;stroke-dasharray:none;stroke-dashoffset:0;stroke-opacity:1;color-rendering:auto;image-rendering:auto;shape-rendering:auto;text-rendering:auto;enable-background:accumulate" d="m 16.992477,1043.3611 a 1.0000763,1.0001301 0 0 0 -0.451161,0.1133 l -5.974469,2.9864 a 1.0000763,1.0001301 0 1 0 0.892557,1.7891 l 5.974469,-2.9884 a 1.0000763,1.0001301 0 0 0 -0.441396,-1.9004 z"/><path style="color:#000000;font-style:normal;font-variant:normal;font-weight:normal;font-stretch:normal;font-size:medium;line-height:normal;font-family:sans-serif;text-indent:0;text-align:start;text-decoration:none;text-decoration-line:none;text-decoration-style:solid;text-decoration-color:#000000;letter-spacing:normal;word-spacing:normal;text-transform:none;direction:ltr;block-progression:tb;writing-mode:lr-tb;baseline-shift:baseline;text-anchor:start;white-space:normal;clip-rule:nonzero;display:inline;overflow:visible;visibility:visible;opacity:1;isolation:auto;mix-blend-mode:normal;color-interpolation:sRGB;color-interpolation-filters:linearRGB;solid-color:#000000;solid-opacity:1;fill:#000000;fill-opacity:1;fill-rule:evenodd;stroke:none;stroke-width:2;stroke-linecap:round;stroke-linejoin:round;stroke-miterlimit:4;stroke-dasharray:none;stroke-dashoffset:0;stroke-opacity:1;color-rendering:auto;image-rendering:auto;shape-rendering:auto;text-rendering:auto;enable-background:accumulate" d="m 8.0297973,1039.363 a 1.0000764,1.0001302 0 0 0 -0.8378709,0.4101 l -2.9823514,3.9767 a 1.0001803,1.0002341 0 0 0 1.5995716,1.2012 l 2.9823515,-3.9786 a 1.0000764,1.0001302 0 0 0 -0.7617008,-1.6094 z"/><path style="color:#000000;font-style:normal;font-variant:normal;font-weight:normal;font-stretch:normal;font-size:medium;line-height:normal;font-family:sans-serif;text-indent:0;text-align:start;text-decoration:none;text-decoration-line:none;text-decoration-style:solid;text-decoration-color:#000000;letter-spacing:normal;word-spacing:normal;text-transform:none;direction:ltr;block-progression:tb;writing-mode:lr-tb;baseline-shift:baseline;text-anchor:start;white-space:normal;clip-rule:nonzero;display:inline;overflow:visible;visibility:visible;opacity:1;isolation:auto;mix-blend-mode:normal;color-interpolation:sRGB;color-interpolation-filters:linearRGB;solid-color:#000000;solid-opacity:1;fill:#000000;fill-opacity:1;fill-rule:evenodd;stroke:none;stroke-width:2;stroke-linecap:round;stroke-linejoin:round;stroke-miterlimit:4;stroke-dasharray:none;stroke-dashoffset:0;stroke-opacity:1;color-rendering:auto;image-rendering:auto;shape-rendering:auto;text-rendering:auto;enable-background:accumulate" d="m 24.02942,1039.363 a 1.0000764,1.0001302 0 0 0 -0.837871,0.4101 l -2.982352,3.9767 a 1.0001809,1.0002347 0 1 0 1.599573,1.2012 l 2.982351,-3.9786 a 1.0000764,1.0001302 0 0 0 -0.761701,-1.6094 z"/><path style="color:#000000;font-style:normal;font-variant:normal;font-weight:normal;font-stretch:normal;font-size:medium;line-height:normal;font-family:sans-serif;text-indent:0;text-align:start;text-decoration:none;text-decoration-line:none;text-decoration-style:solid;text-decoration-color:#000000;letter-spacing:normal;word-spacing:normal;text-transform:none;direction:ltr;block-progression:tb;writing-mode:lr-tb;baseline-shift:baseline;text-anchor:start;white-space:normal;clip-rule:nonzero;display:inline;overflow:visible;visibility:visible;opacity:1;isolation:auto;mix-blend-mode:normal;color-interpolation:sRGB;color-interpolation-filters:linearRGB;solid-color:#000000;solid-opacity:1;fill:#000000;fill-opacity:1;fill-rule:evenodd;stroke:none;stroke-width:2;stroke-linecap:round;stroke-linejoin:round;stroke-miterlimit:4;stroke-dasharray:none;stroke-dashoffset:0;stroke-opacity:1;color-rendering:auto;image-rendering:auto;shape-rendering:auto;text-rendering:auto;enable-background:accumulate" d="m 39.029066,1039.363 a 1.0000764,1.0001302 0 0 0 -0.837871,0.4101 l -2.982351,3.9767 a 1.0001806,1.0002344 0 1 0 1.599572,1.2012 l 2.982351,-3.9786 a 1.0000764,1.0001302 0 0 0 -0.761701,-1.6094 z"/><path style="color:#000000;font-style:normal;font-variant:normal;font-weight:normal;font-stretch:normal;font-size:medium;line-height:normal;font-family:sans-serif;text-indent:0;text-align:start;text-decoration:none;text-decoration-line:none;text-decoration-style:solid;text-decoration-color:#000000;letter-spacing:normal;word-spacing:normal;text-transform:none;direction:ltr;block-progression:tb;writing-mode:lr-tb;baseline-shift:baseline;text-anchor:start;white-space:normal;clip-rule:nonzero;display:inline;overflow:visible;visibility:visible;opacity:1;isolation:auto;mix-blend-mode:normal;color-interpolation:sRGB;color-interpolation-filters:linearRGB;solid-color:#000000;solid-opacity:1;fill:#000000;fill-opacity:1;fill-rule:nonzero;stroke:none;stroke-width:2;stroke-linecap:round;stroke-linejoin:round;stroke-miterlimit:4;stroke-dasharray:none;stroke-dashoffset:0;stroke-opacity:1;color-rendering:auto;image-rendering:auto;shape-rendering:auto;text-rendering:auto;enable-background:accumulate" d="m 35.861172,1006.362 a 1.0000764,1.0001302 0 0 0 -0.128903,0.012 l 0.0059,0 c -0.0048,7e-4 -0.0088,0 -0.01367,0 a 1.0000764,1.0001302 0 0 0 -0.316398,0.1074 c -4.252066,0.7831 -7.4031,4.4664 -7.408028,8.8342 a 1.0000764,1.0001302 0 0 0 0.002,0.055 c 0.0014,0.026 0.0023,0.051 0.0039,0.076 a 1.0000764,1.0001302 0 0 0 0.5703,0.8419 c 2.778275,1.3187 4.744707,3.9049 5.277219,6.9416 a 1.0000764,1.0001302 0 0 0 0.710921,0.789 c 0.797169,0.2268 1.622486,0.3411 2.451114,0.3418 a 1.0000764,1.0001302 0 0 0 0.002,0 c 3.25886,0 6.264143,-1.7736 7.855284,-4.6251 a 1.0000764,1.0001302 0 0 0 -1.025367,-1.4766 c -0.324223,0.05 -0.650544,0.076 -0.978492,0.08 -6.67e-4,0 -0.0013,0 -0.002,0 -3.883072,-6e-4 -7.013351,-3.1405 -7.013507,-7.0451 0.0014,-1.2067 0.311785,-2.3938 0.900369,-3.4454 a 1.0000764,1.0001302 0 0 0 -0.892557,-1.4863 z m -1.699179,2.6113 c -0.200342,0.7544 -0.307889,1.5335 -0.308586,2.3204 1.83e-4,4.6018 3.502506,8.2727 7.945125,8.8284 -1.294837,1.2972 -2.90098,2.236 -4.781137,2.2384 -0.477208,-4e-4 -0.945654,-0.1 -1.412076,-0.1973 -0.75711,-3.0999 -2.746556,-5.7191 -5.527213,-7.2756 0.168344,-2.6417 1.757712,-4.8618 4.083887,-5.9143 z"/><path style="color:#000000;font-style:normal;font-variant:normal;font-weight:normal;font-stretch:normal;font-size:medium;line-height:normal;font-family:sans-serif;text-indent:0;text-align:start;text-decoration:none;text-decoration-line:none;text-decoration-style:solid;text-decoration-color:#000000;letter-spacing:normal;word-spacing:normal;text-transform:none;direction:ltr;block-progression:tb;writing-mode:lr-tb;baseline-shift:baseline;text-anchor:start;white-space:normal;clip-rule:nonzero;display:inline;overflow:visible;visibility:visible;opacity:1;isolation:auto;mix-blend-mode:normal;color-interpolation:sRGB;color-interpolation-filters:linearRGB;solid-color:#000000;solid-opacity:1;fill:#000000;fill-opacity:1;fill-rule:nonzero;stroke:none;stroke-width:2;stroke-linecap:round;stroke-linejoin:round;stroke-miterlimit:4;stroke-dasharray:none;stroke-dashoffset:0;stroke-opacity:1;color-rendering:auto;image-rendering:auto;shape-rendering:auto;text-rendering:auto;enable-background:accumulate" d="m 25.027444,1013.3641 c -0.106981,0 -0.213806,0.011 -0.316399,0.041 -4.173067,-0.025 -8.096281,2.4067 -10.382568,6.0725 -3.25456,-1.0579 -6.9261433,-0.749 -9.4802453,1.7363 -2.690224,2.6182 -3.5692304,6.5788 -2.2304161,10.0765 1.3387961,3.4977 4.6398182,5.8801 8.4001924,6.0705 0.01692,4e-4 0.03386,4e-4 0.05078,0 l 13.486011,0 c 6.445161,0 10.418515,-5.2948 11.300514,-10.1666 0.883952,-5.7224 -2.357533,-11.2967 -7.72638,-13.2309 -1.019691,-0.3671 -2.064401,-0.5618 -3.101489,-0.5996 z m -0.07227,2.002 0.0098,0 c 0.833335,0.031 1.666767,0.1854 2.48627,0.4806 4.45742,1.6057 7.169291,6.2416 6.427582,11.0432 -0.738112,4.778 -4.668568,8.3085 -9.359154,8.4631 -4.459656,0.021 -8.94222,0.01 -13.409841,0.01 -2.9754232,-0.1547 -5.5690251,-2.0319 -6.6228909,-4.7852 -1.0550292,-2.7563 -0.3696644,-5.8595 1.755818,-7.928 2.0716701,-2.0159 5.2141039,-2.2468 8.0603569,-1.1212 l 0.01172,0 c 0.02691,0.011 0.05428,0.02 0.08203,0.029 0.02195,0.01 0.0441,0.011 0.06641,0.016 0.04308,0.01 0.0868,0.018 0.130856,0.022 0.02993,0 0.05991,0 0.08984,0 0.03318,0 0.06643,0 0.09961,0 0.09951,-0.01 0.196947,-0.035 0.289057,-0.074 0.03064,-0.013 0.06063,-0.027 0.08984,-0.043 0.02952,-0.016 0.0582,-0.034 0.08594,-0.053 0.02701,-0.019 0.05309,-0.039 0.07813,-0.06 0.01332,-0.011 0.02635,-0.023 0.03906,-0.035 l 0.03516,-0.033 0.113278,-0.1035 c 0.07526,-0.071 0.139162,-0.1522 0.189449,-0.2422 1.933966,-3.4482 5.623788,-5.7184 9.251734,-5.5861 z"/></g></svg>