<svg width='200' height='200' fill="#000000" xmlns:dc="http://purl.org/dc/elements/1.1/" xmlns:cc="http://creativecommons.org/ns#" xmlns:rdf="http://www.w3.org/1999/02/22-rdf-syntax-ns#" xmlns:svg="http://www.w3.org/2000/svg" xmlns="http://www.w3.org/2000/svg" xmlns:sodipodi="http://sodipodi.sourceforge.net/DTD/sodipodi-0.dtd" xmlns:inkscape="http://www.inkscape.org/namespaces/inkscape" viewBox="0 0 48 48.000001" version="1.1" x="0px" y="0px"><g transform="translate(0,-1004.3622)"><path style="color:#000000;font-style:normal;font-variant:normal;font-weight:normal;font-stretch:normal;font-size:medium;line-height:normal;font-family:sans-serif;text-indent:0;text-align:start;text-decoration:none;text-decoration-line:none;text-decoration-style:solid;text-decoration-color:#000000;letter-spacing:normal;word-spacing:normal;text-transform:none;direction:ltr;block-progression:tb;writing-mode:lr-tb;baseline-shift:baseline;text-anchor:start;white-space:normal;clip-rule:nonzero;display:inline;overflow:visible;visibility:visible;opacity:1;isolation:auto;mix-blend-mode:normal;color-interpolation:sRGB;color-interpolation-filters:linearRGB;solid-color:#000000;solid-opacity:1;fill:#000000;fill-opacity:1;fill-rule:nonzero;stroke:none;stroke-width:1.99999988;stroke-linecap:round;stroke-linejoin:round;stroke-miterlimit:4;stroke-dasharray:none;stroke-dashoffset:0;stroke-opacity:1;color-rendering:auto;image-rendering:auto;shape-rendering:auto;text-rendering:auto;enable-background:accumulate" d="m 40.055192,1029.3628 c -0.0817,0.01 -0.162385,0.022 -0.240238,0.047 -2.904105,0.026 -5.595899,1.6769 -7.211028,4.1703 -2.259373,-0.6465 -4.764813,-0.4967 -6.54891,1.2247 -1.93898,1.871 -2.576177,4.7129 -1.609397,7.2173 0.966772,2.5043 3.346765,4.2044 6.050859,4.3401 3.103606,0 6.217205,0 9.324334,0 5.37301,-0.6068 7.286606,-3.5449 8.076273,-7.2039 0.631151,-4.0513 -1.6845,-8.0016 -5.515694,-9.3698 -0.73159,-0.2615 -1.483199,-0.3991 -2.22659,-0.4259 l -0.09961,0 z m 0.02734,2.0059 c 0.01302,3e-4 0.02604,3e-4 0.03906,0 0.532299,0.023 1.063085,0.116 1.585957,0.3028 2.924754,1.0447 4.699491,4.0553 4.212944,7.1784 -0.484196,3.1078 -3.058992,5.4021 -6.136797,5.5023 -3.050073,0.021 -6.13089,0.01 -9.191521,0.01 -1.927242,-0.099 -3.601016,-1.3015 -4.279351,-3.0588 -0.679092,-1.7591 -0.241141,-3.735 1.130873,-5.059 1.320869,-1.2742 3.335094,-1.3907 5.222723,-0.6954 0.602261,0.222 1.020941,-0.042 1.337921,-0.5354 1.397658,-2.1781 3.715425,-3.7348 6.078201,-3.6489 z"/><path style="color:#000000;font-style:normal;font-variant:normal;font-weight:normal;font-stretch:normal;font-size:medium;line-height:normal;font-family:sans-serif;text-indent:0;text-align:start;text-decoration:none;text-decoration-line:none;text-decoration-style:solid;text-decoration-color:#000000;letter-spacing:normal;word-spacing:normal;text-transform:none;direction:ltr;block-progression:tb;writing-mode:lr-tb;baseline-shift:baseline;text-anchor:start;white-space:normal;clip-rule:nonzero;display:inline;overflow:visible;visibility:visible;opacity:1;isolation:auto;mix-blend-mode:normal;color-interpolation:sRGB;color-interpolation-filters:linearRGB;solid-color:#000000;solid-opacity:1;fill:#000000;fill-opacity:1;fill-rule:nonzero;stroke:none;stroke-width:1.99999988;stroke-linecap:round;stroke-linejoin:round;stroke-miterlimit:4;stroke-dasharray:none;stroke-dashoffset:0;stroke-opacity:1;color-rendering:auto;image-rendering:auto;shape-rendering:auto;text-rendering:auto;enable-background:accumulate" d="m 7.8653333,1016.3647 -0.019531,0 c -0.7433916,0.027 -1.4949995,0.1644 -2.2265905,0.4258 -3.831194,1.3681 -6.14684533,5.3179 -5.51569438,9.3686 0.60646828,3.8923 3.79881158,6.7894 7.65048678,7.1071 0.1331298,0.063 0.2785207,0.096 0.4257867,0.096 l 9.2735541,0 c 0.01692,4e-4 0.03386,4e-4 0.05078,0 2.704094,-0.1357 5.084087,-1.8356 6.050858,-4.3396 0.96678,-2.5041 0.329583,-5.3456 -1.609396,-7.2164 -1.784097,-1.7212 -4.289537,-1.871 -6.54891,-1.2245 -1.615493,-2.4936 -4.308145,-4.145 -7.2129808,-4.1698 -0.1027765,-0.033 -0.2102917,-0.05 -0.3183634,-0.049 z m 0.011719,2.0077 c 0.013671,3e-4 0.027345,3e-4 0.041017,0 2.3627757,-0.2579 4.7421397,1.4322 6.0782017,3.6484 0.378895,0.6284 0.719816,0.7124 1.337935,0.5291 1.928662,-0.5718 3.901854,-0.5788 5.222723,0.6952 1.372014,1.3239 1.809964,3.2995 1.130873,5.0584 -0.678336,1.7571 -2.352109,2.9592 -4.279351,3.0584 l -9.0801924,0 c -0.036894,-0.01 -0.074062,-0.01 -0.1113295,-0.01 -3.0778051,-0.1002 -5.6526015,-2.3942 -6.1367959,-5.5016 -0.4865472,-3.1227 1.2881887,-6.133 4.2129436,-7.1774 0.5222507,-0.1866 1.0523391,-0.2798 1.5840043,-0.3028 z"/><path style="color:#000000;font-style:normal;font-variant:normal;font-weight:normal;font-stretch:normal;font-size:medium;line-height:normal;font-family:sans-serif;text-indent:0;text-align:start;text-decoration:none;text-decoration-line:none;text-decoration-style:solid;text-decoration-color:#000000;letter-spacing:normal;word-spacing:normal;text-transform:none;direction:ltr;block-progression:tb;writing-mode:lr-tb;baseline-shift:baseline;text-anchor:start;white-space:normal;clip-rule:nonzero;display:inline;overflow:visible;visibility:visible;opacity:1;isolation:auto;mix-blend-mode:normal;color-interpolation:sRGB;color-interpolation-filters:linearRGB;solid-color:#000000;solid-opacity:1;fill:#000000;fill-opacity:1;fill-rule:nonzero;stroke:none;stroke-width:2;stroke-linecap:round;stroke-linejoin:round;stroke-miterlimit:4;stroke-dasharray:none;stroke-dashoffset:0;stroke-opacity:1;color-rendering:auto;image-rendering:auto;shape-rendering:auto;text-rendering:auto;enable-background:accumulate" d="m 26.137048,1010.4703 c -6.101584,-0.6216 -12.297643,1.45 -16.826384,5.881 a 1.0001126,1.0001099 0 1 0 1.398455,1.4297 c 5.466774,-5.3488 13.604837,-6.8993 20.658464,-3.9357 7.053638,2.9637 11.635511,9.8582 11.632958,17.5022 a 1.0001126,1.0001099 0 1 0 2.000025,0 c 0.0028,-8.4445 -5.067213,-16.0727 -12.857584,-19.3458 -1.947589,-0.8184 -3.972074,-1.3242 -6.005934,-1.5314 z"/><path style="color:#000000;font-style:normal;font-variant:normal;font-weight:normal;font-stretch:normal;font-size:medium;line-height:normal;font-family:sans-serif;text-indent:0;text-align:start;text-decoration:none;text-decoration-line:none;text-decoration-style:solid;text-decoration-color:#000000;letter-spacing:normal;word-spacing:normal;text-transform:none;direction:ltr;block-progression:tb;writing-mode:lr-tb;baseline-shift:baseline;text-anchor:start;white-space:normal;clip-rule:nonzero;display:inline;overflow:visible;visibility:visible;opacity:1;isolation:auto;mix-blend-mode:normal;color-interpolation:sRGB;color-interpolation-filters:linearRGB;solid-color:#000000;solid-opacity:1;fill:#000000;fill-opacity:1;fill-rule:nonzero;stroke:none;stroke-width:1.99999988;stroke-linecap:round;stroke-linejoin:round;stroke-miterlimit:4;stroke-dasharray:none;stroke-dashoffset:0;stroke-opacity:1;color-rendering:auto;image-rendering:auto;shape-rendering:auto;text-rendering:auto;enable-background:accumulate" d="m 26.088219,1014.4841 c -4.482801,-0.5353 -9.071315,0.7055 -12.697426,3.5722 a 1.0001125,1.0001098 0 1 0 1.24025,1.5684 c 4.270112,-3.3759 10.053703,-4.2009 15.115425,-2.1542 5.061721,2.0465 8.599878,6.637 9.259882,12 a 1.0001125,1.0001098 0 1 0 1.9844,-0.2441 c -0.749016,-6.0864 -4.768521,-11.2945 -10.494272,-13.6095 -1.431438,-0.5788 -2.913992,-0.9544 -4.408259,-1.1328 z"/><path style="color:#000000;font-style:normal;font-variant:normal;font-weight:normal;font-stretch:normal;font-size:medium;line-height:normal;font-family:sans-serif;text-indent:0;text-align:start;text-decoration:none;text-decoration-line:none;text-decoration-style:solid;text-decoration-color:#000000;letter-spacing:normal;word-spacing:normal;text-transform:none;direction:ltr;block-progression:tb;writing-mode:lr-tb;baseline-shift:baseline;text-anchor:start;white-space:normal;clip-rule:nonzero;display:inline;overflow:visible;visibility:visible;opacity:1;isolation:auto;mix-blend-mode:normal;color-interpolation:sRGB;color-interpolation-filters:linearRGB;solid-color:#000000;solid-opacity:1;fill:#000000;fill-opacity:1;fill-rule:nonzero;stroke:none;stroke-width:1.99999988;stroke-linecap:round;stroke-linejoin:round;stroke-miterlimit:4;stroke-dasharray:none;stroke-dashoffset:0;stroke-opacity:1;color-rendering:auto;image-rendering:auto;shape-rendering:auto;text-rendering:auto;enable-background:accumulate" d="m 24.01788,1018.361 c -2.245736,0 -4.49169,0.5758 -6.503988,1.7325 a 1.0001125,1.0001098 0 1 0 0.996107,1.7344 c 3.408263,-1.959 7.605595,-1.9561 11.009903,0.01 3.404245,1.9659 5.49121,5.5896 5.480538,9.5078 a 1.0001125,1.0001098 0 1 0 2.000025,0 c 0.01262,-4.6327 -2.460689,-8.9228 -6.48055,-11.2442 -2.009968,-1.1607 -4.256299,-1.7419 -6.502035,-1.7442 z"/></g></svg>