<svg width='200' height='200' fill="#000000" xmlns:dc="http://purl.org/dc/elements/1.1/" xmlns:cc="http://creativecommons.org/ns#" xmlns:rdf="http://www.w3.org/1999/02/22-rdf-syntax-ns#" xmlns:svg="http://www.w3.org/2000/svg" xmlns="http://www.w3.org/2000/svg" xmlns:sodipodi="http://sodipodi.sourceforge.net/DTD/sodipodi-0.dtd" xmlns:inkscape="http://www.inkscape.org/namespaces/inkscape" viewBox="0 0 48 48.000001" version="1.1" x="0px" y="0px"><g transform="translate(0,-1004.3622)"><path style="color:#000000;font-style:normal;font-variant:normal;font-weight:normal;font-stretch:normal;font-size:medium;line-height:normal;font-family:sans-serif;text-indent:0;text-align:start;text-decoration:none;text-decoration-line:none;text-decoration-style:solid;text-decoration-color:#000000;letter-spacing:normal;word-spacing:normal;text-transform:none;direction:ltr;block-progression:tb;writing-mode:lr-tb;baseline-shift:baseline;text-anchor:start;white-space:normal;clip-rule:nonzero;display:inline;overflow:visible;visibility:visible;opacity:1;isolation:auto;mix-blend-mode:normal;color-interpolation:sRGB;color-interpolation-filters:linearRGB;solid-color:#000000;solid-opacity:1;fill:#000000;fill-opacity:1;fill-rule:evenodd;stroke:none;stroke-width:2;stroke-linecap:round;stroke-linejoin:round;stroke-miterlimit:4;stroke-dasharray:none;stroke-dashoffset:0;stroke-opacity:1;color-rendering:auto;image-rendering:auto;shape-rendering:auto;text-rendering:auto;enable-background:accumulate" d="m 35.01416,1020.3621 a 1.0000185,1.0001 0 1 0 0,2 l 11.971681,0 a 1.0000185,1.0001 0 1 0 0,-2 l -11.971681,0 z"/><path style="color:#000000;font-style:normal;font-variant:normal;font-weight:normal;font-stretch:normal;font-size:medium;line-height:normal;font-family:sans-serif;text-indent:0;text-align:start;text-decoration:none;text-decoration-line:none;text-decoration-style:solid;text-decoration-color:#000000;letter-spacing:normal;word-spacing:normal;text-transform:none;direction:ltr;block-progression:tb;writing-mode:lr-tb;baseline-shift:baseline;text-anchor:start;white-space:normal;clip-rule:nonzero;display:inline;overflow:visible;visibility:visible;opacity:1;isolation:auto;mix-blend-mode:normal;color-interpolation:sRGB;color-interpolation-filters:linearRGB;solid-color:#000000;solid-opacity:1;fill:#000000;fill-opacity:1;fill-rule:evenodd;stroke:none;stroke-width:2;stroke-linecap:round;stroke-linejoin:round;stroke-miterlimit:4;stroke-dasharray:none;stroke-dashoffset:0;stroke-opacity:1;color-rendering:auto;image-rendering:auto;shape-rendering:auto;text-rendering:auto;enable-background:accumulate" d="m 1.0141653,1033.3621 a 1.0000239,1.0001 0 1 0 0,2 l 12.9716697,0 a 1.0000239,1.0001 0 1 0 0,-2 l -12.9716697,0 z"/><path style="color:#000000;font-style:normal;font-variant:normal;font-weight:normal;font-stretch:normal;font-size:medium;line-height:normal;font-family:sans-serif;text-indent:0;text-align:start;text-decoration:none;text-decoration-line:none;text-decoration-style:solid;text-decoration-color:#000000;letter-spacing:normal;word-spacing:normal;text-transform:none;direction:ltr;block-progression:tb;writing-mode:lr-tb;baseline-shift:baseline;text-anchor:start;white-space:normal;clip-rule:nonzero;display:inline;overflow:visible;visibility:visible;opacity:1;isolation:auto;mix-blend-mode:normal;color-interpolation:sRGB;color-interpolation-filters:linearRGB;solid-color:#000000;solid-opacity:1;fill:#000000;fill-opacity:1;fill-rule:evenodd;stroke:none;stroke-width:2;stroke-linecap:round;stroke-linejoin:round;stroke-miterlimit:4;stroke-dasharray:none;stroke-dashoffset:0;stroke-opacity:1;color-rendering:auto;image-rendering:auto;shape-rendering:auto;text-rendering:auto;enable-background:accumulate" d="m 24.014165,1038.3621 a 1.0000239,1.0001 0 1 0 0,2 l 12.971669,0 a 1.0000239,1.0001 0 1 0 0,-2 l -12.971669,0 z"/><path style="color:#000000;font-style:normal;font-variant:normal;font-weight:normal;font-stretch:normal;font-size:medium;line-height:normal;font-family:sans-serif;text-indent:0;text-align:start;text-decoration:none;text-decoration-line:none;text-decoration-style:solid;text-decoration-color:#000000;letter-spacing:normal;word-spacing:normal;text-transform:none;direction:ltr;block-progression:tb;writing-mode:lr-tb;baseline-shift:baseline;text-anchor:start;white-space:normal;clip-rule:nonzero;display:inline;overflow:visible;visibility:visible;opacity:1;isolation:auto;mix-blend-mode:normal;color-interpolation:sRGB;color-interpolation-filters:linearRGB;solid-color:#000000;solid-opacity:1;fill:#000000;fill-opacity:1;fill-rule:nonzero;stroke:none;stroke-width:2;stroke-linecap:round;stroke-linejoin:round;stroke-miterlimit:4;stroke-dasharray:none;stroke-dashoffset:0;stroke-opacity:1;color-rendering:auto;image-rendering:auto;shape-rendering:auto;text-rendering:auto;enable-background:accumulate" d="m 36.960938,7 c -0.131369,1.9e-6 -0.26145,0.025885 -0.382813,0.076172 l -0.0059,0 c -5.009441,0.2076819 -9.093678,4.0895911 -9.529297,9.0468751 -0.448069,-0.05851 -0.893105,-0.09499 -1.347657,-0.101563 -4.173166,-0.025 -8.080846,2.430003 -10.367187,6.095704 C 12.073488,21.059387 8.4018187,21.368316 5.8476562,23.853516 3.1573687,26.471616 2.2783416,30.432088 3.6171875,33.929688 4.9560152,37.427287 8.2571147,39.8096 12.017578,40 c 0.01692,4e-4 0.03386,4e-4 0.05078,0 l 13.486329,0 c 0.147263,-3e-4 0.292653,-0.03466 0.425781,-0.09766 5.472301,-0.3767 10.01692,-4.516013 10.875,-10.070313 0.147331,-0.953714 0.170277,-1.900754 0.09766,-2.830078 l 0.0098,0 c 3.800338,-0.01 7.26887,-2.185528 8.935547,-5.611328 0.304877,-0.624255 -0.103943,-1.361537 -0.794922,-1.433594 -4.062618,-0.422 -7.140113,-3.844925 -7.142578,-7.953125 0.0039,-1.2175 0.284929,-2.4178654 0.820312,-3.5097654 0.306551,-0.6240638 -0.101497,-1.3627718 -0.792969,-1.4355468 -0.340569,-0.036 -0.682952,-0.055641 -1.02539,-0.056641 l -0.002,0 z m -0.509766,2.0996094 0,0.00391 c -0.288076,0.9406004 -0.487508,1.9047314 -0.490234,2.8945314 5.31e-4,4.5837 3.174841,8.362412 7.470703,9.507812 -1.470036,2.1319 -3.838532,3.487288 -6.46875,3.492188 -0.114335,0 -0.227926,-0.01543 -0.341797,-0.02539 -0.820508,-3.260332 -2.959163,-6.081539 -5.966797,-7.68164 -0.09599,-0.05152 -0.191218,-0.103407 -0.289063,-0.152344 -0.387834,-0.192627 -0.784981,-0.370646 -1.199218,-0.521484 -0.01272,-0.0046 -0.02437,-0.01104 -0.03711,-0.01563 -0.01607,-0.0054 -0.03086,-0.0084 -0.04687,-0.01367 0.212785,-4.0503 3.357105,-7.2210816 7.369141,-7.4882816 z M 25.955078,18 l 0,0.0059 0.0098,0 c 0.612628,0.02279 1.22487,0.114305 1.832031,0.277344 3.76225,1.051366 6.166933,4.162407 7.029297,7.810547 l 0.0039,0.01953 c 0.200939,1.102168 0.228366,2.253819 0.04883,3.416016 -0.738129,4.7779 -4.668678,8.30829 -9.359375,8.462891 -0.03335,0 -0.06659,0.0098 -0.09961,0.0098 l -13.310547,0 C 9.1338811,37.847253 6.5402187,35.969997 5.4863281,33.216797 4.431274,30.460597 5.116655,27.357562 7.2421875,25.289062 9.3139065,23.273263 12.456414,23.042369 15.302734,24.167969 l 0.01172,0 c 0.02691,0.011 0.05428,0.0203 0.08203,0.0293 0.02195,0.01 0.0441,0.01063 0.06641,0.01563 0.04308,0.01 0.0868,0.01748 0.130859,0.02148 l 0.08984,0 c 0.100004,-2e-4 0.199417,-0.01492 0.294922,-0.04492 0.03178,-0.01 0.06307,-0.0212 0.09375,-0.0332 0.03064,-0.013 0.06063,-0.02697 0.08984,-0.04297 0.02952,-0.016 0.0582,-0.03373 0.08594,-0.05273 0.04143,-0.029 0.08061,-0.0607 0.117187,-0.0957 l 0.03516,-0.0332 0.113281,-0.103516 c 0.07526,-0.071 0.139165,-0.152188 0.189453,-0.242187 C 18.637137,20.137837 22.327046,17.8677 25.955078,18 Z" transform="translate(0,1004.3622)"/><path style="color:#000000;font-style:normal;font-variant:normal;font-weight:normal;font-stretch:normal;font-size:medium;line-height:normal;font-family:sans-serif;text-indent:0;text-align:start;text-decoration:none;text-decoration-line:none;text-decoration-style:solid;text-decoration-color:#000000;letter-spacing:normal;word-spacing:normal;text-transform:none;direction:ltr;block-progression:tb;writing-mode:lr-tb;baseline-shift:baseline;text-anchor:start;white-space:normal;clip-rule:nonzero;display:inline;overflow:visible;visibility:visible;opacity:1;isolation:auto;mix-blend-mode:normal;color-interpolation:sRGB;color-interpolation-filters:linearRGB;solid-color:#000000;solid-opacity:1;fill:#000000;fill-opacity:1;fill-rule:evenodd;stroke:none;stroke-width:2;stroke-linecap:round;stroke-linejoin:round;stroke-miterlimit:4;stroke-dasharray:none;stroke-dashoffset:0;stroke-opacity:1;color-rendering:auto;image-rendering:auto;shape-rendering:auto;text-rendering:auto;enable-background:accumulate" d="m 21.01416,1015.3621 a 1.0000185,1.0001 0 1 0 0,2 l 11.971681,0 a 1.0000185,1.0001 0 1 0 0,-2 l -11.971681,0 z"/></g></svg>