<svg width='200' height='200' fill="#000000" xmlns:dc="http://purl.org/dc/elements/1.1/" xmlns:cc="http://creativecommons.org/ns#" xmlns:rdf="http://www.w3.org/1999/02/22-rdf-syntax-ns#" xmlns:svg="http://www.w3.org/2000/svg" xmlns="http://www.w3.org/2000/svg" xmlns:sodipodi="http://sodipodi.sourceforge.net/DTD/sodipodi-0.dtd" xmlns:inkscape="http://www.inkscape.org/namespaces/inkscape" viewBox="0 0 48 48.000001" version="1.1" x="0px" y="0px"><g transform="translate(0,-1004.3622)"><path style="color:#000000;font-style:normal;font-variant:normal;font-weight:normal;font-stretch:normal;font-size:medium;line-height:normal;font-family:sans-serif;text-indent:0;text-align:start;text-decoration:none;text-decoration-line:none;text-decoration-style:solid;text-decoration-color:#000000;letter-spacing:normal;word-spacing:normal;text-transform:none;direction:ltr;block-progression:tb;writing-mode:lr-tb;baseline-shift:baseline;text-anchor:start;white-space:normal;clip-rule:nonzero;display:inline;overflow:visible;visibility:visible;opacity:1;isolation:auto;mix-blend-mode:normal;color-interpolation:sRGB;color-interpolation-filters:linearRGB;solid-color:#000000;solid-opacity:1;fill:#000000;fill-opacity:1;fill-rule:evenodd;stroke:none;stroke-width:2;stroke-linecap:round;stroke-linejoin:round;stroke-miterlimit:4;stroke-dasharray:none;stroke-dashoffset:0;stroke-opacity:1;color-rendering:auto;image-rendering:auto;shape-rendering:auto;text-rendering:auto;enable-background:accumulate" d="m 40.984375,1034.3633 a 1.0001,1.0001 0 0 0 -0.691406,0.291 l -2,2 a 1.0001,1.0001 0 1 0 1.414062,1.4141 L 41,1036.7754 l 1.583984,1.584 -1.998046,1.9961 -27.585938,0 a 1.0001,1.0001 0 0 0 -0.707031,0.2929 l -3.0000002,3.0039 a 1.0001,1.0001 0 0 0 0,1.4141 l 3.0000002,2.9981 A 1.0001,1.0001 0 0 0 13,1048.3574 l 23.585938,0 0.998046,0.9981 -1.291015,1.289 a 1.0005783,1.0005783 0 0 0 1.414062,1.416 l 2,-1.998 a 1.0001,1.0001 0 0 0 0,-1.416 l -2,-1.9961 A 1.0001,1.0001 0 0 0 37,1046.3574 l -23.585938,0 -2,-2 2,-2.0019 27.585938,0 a 1.0001,1.0001 0 0 0 0.707031,-0.291 l 3,-2.9961 a 1.0001,1.0001 0 0 0 0,-1.4141 l -3,-3 a 1.0001,1.0001 0 0 0 -0.722656,-0.291 z"/><path style="color:#000000;font-style:normal;font-variant:normal;font-weight:normal;font-stretch:normal;font-size:medium;line-height:normal;font-family:sans-serif;text-indent:0;text-align:start;text-decoration:none;text-decoration-line:none;text-decoration-style:solid;text-decoration-color:#000000;letter-spacing:normal;word-spacing:normal;text-transform:none;direction:ltr;block-progression:tb;writing-mode:lr-tb;baseline-shift:baseline;text-anchor:start;white-space:normal;clip-rule:nonzero;display:inline;overflow:visible;visibility:visible;opacity:1;isolation:auto;mix-blend-mode:normal;color-interpolation:sRGB;color-interpolation-filters:linearRGB;solid-color:#000000;solid-opacity:1;fill:#000000;fill-opacity:1;fill-rule:evenodd;stroke:none;stroke-width:2;stroke-linecap:round;stroke-linejoin:round;stroke-miterlimit:4;stroke-dasharray:none;stroke-dashoffset:0;stroke-opacity:1;color-rendering:auto;image-rendering:auto;shape-rendering:auto;text-rendering:auto;enable-background:accumulate" d="m 45,1041.3613 a 1.0001,1.0001 0 0 0 -0.697266,1.7188 l 1.283204,1.2812 -1.283204,1.2832 a 1.0001,1.0001 0 1 0 1.414063,1.4141 l 1.990234,-1.9902 a 1.0001,1.0001 0 0 0 0,-1.4141 l -1.990234,-1.9883 A 1.0001,1.0001 0 0 0 45,1041.3613 Z"/><path style="color:#000000;font-style:normal;font-variant:normal;font-weight:normal;font-stretch:normal;font-size:medium;line-height:normal;font-family:sans-serif;text-indent:0;text-align:start;text-decoration:none;text-decoration-line:none;text-decoration-style:solid;text-decoration-color:#000000;letter-spacing:normal;word-spacing:normal;text-transform:none;direction:ltr;block-progression:tb;writing-mode:lr-tb;baseline-shift:baseline;text-anchor:start;white-space:normal;clip-rule:nonzero;display:inline;overflow:visible;visibility:visible;opacity:1;isolation:auto;mix-blend-mode:normal;color-interpolation:sRGB;color-interpolation-filters:linearRGB;solid-color:#000000;solid-opacity:1;fill:#000000;fill-opacity:1;fill-rule:evenodd;stroke:none;stroke-width:2;stroke-linecap:round;stroke-linejoin:round;stroke-miterlimit:4;stroke-dasharray:none;stroke-dashoffset:0;stroke-opacity:1;color-rendering:auto;image-rendering:auto;shape-rendering:auto;text-rendering:auto;enable-background:accumulate" d="m 3.984375,1044.3613 a 1.0001,1.0001 0 0 0 -0.6914062,0.293 l -3.00000005,3 a 1.0001,1.0001 0 0 0 0,1.4141 l 2.99804685,3 a 1.0001,1.0001 0 0 0 0.7070313,0.2929 l 9.9882811,0 a 1.0001,1.0001 0 1 0 0,-2 l -9.5742186,0 -1.9980469,-1.998 L 4,1046.7754 l 1.2929688,1.293 a 1.0001,1.0001 0 1 0 1.4140624,-1.4141 l -2,-2 a 1.0001,1.0001 0 0 0 -0.7226562,-0.293 z"/><path style="color:#000000;font-style:normal;font-variant:normal;font-weight:normal;font-stretch:normal;font-size:medium;line-height:normal;font-family:sans-serif;text-indent:0;text-align:start;text-decoration:none;text-decoration-line:none;text-decoration-style:solid;text-decoration-color:#000000;letter-spacing:normal;word-spacing:normal;text-transform:none;direction:ltr;block-progression:tb;writing-mode:lr-tb;baseline-shift:baseline;text-anchor:start;white-space:normal;clip-rule:nonzero;display:inline;overflow:visible;visibility:visible;opacity:1;isolation:auto;mix-blend-mode:normal;color-interpolation:sRGB;color-interpolation-filters:linearRGB;solid-color:#000000;solid-opacity:1;fill:#000000;fill-opacity:1;fill-rule:nonzero;stroke:none;stroke-width:2;stroke-linecap:round;stroke-linejoin:round;stroke-miterlimit:4;stroke-dasharray:none;stroke-dashoffset:0;stroke-opacity:1;color-rendering:auto;image-rendering:auto;shape-rendering:auto;text-rendering:auto;enable-background:accumulate" d="m 22.705078,1014.3632 c -4.172248,-0.047 -8.09097,2.4502 -10.376953,6.1153 -3.2546087,-1.0577 -6.9262935,-0.7488 -9.4804688,1.7363 -2.69026864,2.6182 -3.56932481,6.5786 -2.2304687,10.0762 1.3388191,3.4976 4.6399263,5.8799 8.4003906,6.0703 0.016924,4e-4 0.033857,4e-4 0.050781,0 l 13.4863289,0 c 6.987669,0 10.418757,-5.2946 11.300781,-10.1663 0.883963,-5.7223 -2.357613,-11.2963 -7.726563,-13.2305 -1.217542,-0.3976 -2.308427,-0.5887 -3.423828,-0.6013 z m 0.249996,2.004 0.0098,0 c 0.833422,0.031 1.666856,0.1854 2.486328,0.4805 4.457556,1.6058 7.169459,6.2414 6.427734,11.0429 -0.738133,4.7779 -4.670621,8.3064 -9.361328,8.461 -4.45911,0.021 -8.941129,0.01 -13.408204,0.01 -2.9754949,-0.1547 -5.5691645,-2.0319 -6.6230469,-4.7851 -1.055061,-2.7562 -0.3696967,-5.8592 1.7558594,-7.9278 2.0717018,-2.0157 5.1593392,-2.0965 8.0605465,-1.1211 0.690073,0.232 1.131684,-0.1497 1.400399,-0.5807 2.09171,-3.3548 5.62393,-5.7182 9.251953,-5.5859 z"/><path style="color:#000000;font-style:normal;font-variant:normal;font-weight:normal;font-stretch:normal;font-size:medium;line-height:normal;font-family:sans-serif;text-indent:0;text-align:start;text-decoration:none;text-decoration-line:none;text-decoration-style:solid;text-decoration-color:#000000;letter-spacing:normal;word-spacing:normal;text-transform:none;direction:ltr;block-progression:tb;writing-mode:lr-tb;baseline-shift:baseline;text-anchor:start;white-space:normal;clip-rule:nonzero;display:inline;overflow:visible;visibility:visible;opacity:1;isolation:auto;mix-blend-mode:normal;color-interpolation:sRGB;color-interpolation-filters:linearRGB;solid-color:#000000;solid-opacity:1;fill:#000000;fill-opacity:1;fill-rule:nonzero;stroke:none;stroke-width:2;stroke-linecap:round;stroke-linejoin:round;stroke-miterlimit:4;stroke-dasharray:none;stroke-dashoffset:0;stroke-opacity:1;color-rendering:auto;image-rendering:auto;shape-rendering:auto;text-rendering:auto;enable-background:accumulate" d="m 32.609375,1011.3867 c -2.766872,0.2179 -5.264796,1.8589 -6.471431,4.5586 -0.632997,1.2493 1.316607,2.1198 1.824219,0.8145 1.216623,-2.7221 4.100775,-3.9935 6.865962,-3.1543 2.765202,0.8392 4.527947,3.646 4.111328,6.6172 -0.416587,2.9711 -2.864488,5.1388 -5.744141,5.1406 -1.352294,-0.018 -1.350256,2.0204 0.002,2 3.886416,0 7.173716,-2.9482 7.722656,-6.8633 0.548982,-3.9151 -1.785592,-7.6783 -5.509766,-8.8086 -0.931038,-0.2826 -1.87849,-0.3773 -2.800781,-0.3047 z"/><path style="color:#000000;font-style:normal;font-variant:normal;font-weight:normal;font-stretch:normal;font-size:medium;line-height:normal;font-family:sans-serif;text-indent:0;text-align:start;text-decoration:none;text-decoration-line:none;text-decoration-style:solid;text-decoration-color:#000000;letter-spacing:normal;word-spacing:normal;text-transform:none;direction:ltr;block-progression:tb;writing-mode:lr-tb;baseline-shift:baseline;text-anchor:start;white-space:normal;clip-rule:nonzero;display:inline;overflow:visible;visibility:visible;opacity:1;isolation:auto;mix-blend-mode:normal;color-interpolation:sRGB;color-interpolation-filters:linearRGB;solid-color:#000000;solid-opacity:1;fill:#000000;fill-opacity:1;fill-rule:evenodd;stroke:none;stroke-width:2;stroke-linecap:round;stroke-linejoin:round;stroke-miterlimit:4;stroke-dasharray:none;stroke-dashoffset:0;stroke-opacity:1;color-rendering:auto;image-rendering:auto;shape-rendering:auto;text-rendering:auto;enable-background:accumulate" d="M 32.984375,1004.3613 A 1.0001,1.0001 0 0 0 32,1005.377 l 0,2.9707 a 1.0001,1.0001 0 1 0 2,0 l 0,-2.9707 a 1.0001,1.0001 0 0 0 -1.015625,-1.0157 z"/><path style="color:#000000;font-style:normal;font-variant:normal;font-weight:normal;font-stretch:normal;font-size:medium;line-height:normal;font-family:sans-serif;text-indent:0;text-align:start;text-decoration:none;text-decoration-line:none;text-decoration-style:solid;text-decoration-color:#000000;letter-spacing:normal;word-spacing:normal;text-transform:none;direction:ltr;block-progression:tb;writing-mode:lr-tb;baseline-shift:baseline;text-anchor:start;white-space:normal;clip-rule:nonzero;display:inline;overflow:visible;visibility:visible;opacity:1;isolation:auto;mix-blend-mode:normal;color-interpolation:sRGB;color-interpolation-filters:linearRGB;solid-color:#000000;solid-opacity:1;fill:#000000;fill-opacity:1;fill-rule:evenodd;stroke:none;stroke-width:2;stroke-linecap:round;stroke-linejoin:round;stroke-miterlimit:4;stroke-dasharray:none;stroke-dashoffset:0;stroke-opacity:1;color-rendering:auto;image-rendering:auto;shape-rendering:auto;text-rendering:auto;enable-background:accumulate" d="m 42.970703,1008.3633 a 1.0001,1.0001 0 0 0 -0.6875,0.3027 l -1.980469,1.9785 a 1.0001,1.0001 0 1 0 1.414063,1.4141 l 1.980469,-1.9785 a 1.0001,1.0001 0 0 0 -0.726563,-1.7168 z"/><path style="color:#000000;font-style:normal;font-variant:normal;font-weight:normal;font-stretch:normal;font-size:medium;line-height:normal;font-family:sans-serif;text-indent:0;text-align:start;text-decoration:none;text-decoration-line:none;text-decoration-style:solid;text-decoration-color:#000000;letter-spacing:normal;word-spacing:normal;text-transform:none;direction:ltr;block-progression:tb;writing-mode:lr-tb;baseline-shift:baseline;text-anchor:start;white-space:normal;clip-rule:nonzero;display:inline;overflow:visible;visibility:visible;opacity:1;isolation:auto;mix-blend-mode:normal;color-interpolation:sRGB;color-interpolation-filters:linearRGB;solid-color:#000000;solid-opacity:1;fill:#000000;fill-opacity:1;fill-rule:evenodd;stroke:none;stroke-width:2;stroke-linecap:round;stroke-linejoin:round;stroke-miterlimit:4;stroke-dasharray:none;stroke-dashoffset:0;stroke-opacity:1;color-rendering:auto;image-rendering:auto;shape-rendering:auto;text-rendering:auto;enable-background:accumulate" d="m 41,1026.3633 a 1.0001,1.0001 0 0 0 -0.697266,1.7168 l 1.980469,1.9785 a 1.0001,1.0001 0 1 0 1.414063,-1.4141 l -1.980469,-1.9785 A 1.0001,1.0001 0 0 0 41,1026.3633 Z"/><path style="color:#000000;font-style:normal;font-variant:normal;font-weight:normal;font-stretch:normal;font-size:medium;line-height:normal;font-family:sans-serif;text-indent:0;text-align:start;text-decoration:none;text-decoration-line:none;text-decoration-style:solid;text-decoration-color:#000000;letter-spacing:normal;word-spacing:normal;text-transform:none;direction:ltr;block-progression:tb;writing-mode:lr-tb;baseline-shift:baseline;text-anchor:start;white-space:normal;clip-rule:nonzero;display:inline;overflow:visible;visibility:visible;opacity:1;isolation:auto;mix-blend-mode:normal;color-interpolation:sRGB;color-interpolation-filters:linearRGB;solid-color:#000000;solid-opacity:1;fill:#000000;fill-opacity:1;fill-rule:evenodd;stroke:none;stroke-width:2;stroke-linecap:round;stroke-linejoin:round;stroke-miterlimit:4;stroke-dasharray:none;stroke-dashoffset:0;stroke-opacity:1;color-rendering:auto;image-rendering:auto;shape-rendering:auto;text-rendering:auto;enable-background:accumulate" d="m 44.013672,1017.3613 a 1.0001,1.0001 0 1 0 0,2 l 2.972656,0 a 1.0001,1.0001 0 1 0 0,-2 l -2.972656,0 z"/><path style="color:#000000;font-style:normal;font-variant:normal;font-weight:normal;font-stretch:normal;font-size:medium;line-height:normal;font-family:sans-serif;text-indent:0;text-align:start;text-decoration:none;text-decoration-line:none;text-decoration-style:solid;text-decoration-color:#000000;letter-spacing:normal;word-spacing:normal;text-transform:none;direction:ltr;block-progression:tb;writing-mode:lr-tb;baseline-shift:baseline;text-anchor:start;white-space:normal;clip-rule:nonzero;display:inline;overflow:visible;visibility:visible;opacity:1;isolation:auto;mix-blend-mode:normal;color-interpolation:sRGB;color-interpolation-filters:linearRGB;solid-color:#000000;solid-opacity:1;fill:#000000;fill-opacity:1;fill-rule:evenodd;stroke:none;stroke-width:2;stroke-linecap:round;stroke-linejoin:round;stroke-miterlimit:4;stroke-dasharray:none;stroke-dashoffset:0;stroke-opacity:1;color-rendering:auto;image-rendering:auto;shape-rendering:auto;text-rendering:auto;enable-background:accumulate" d="m 23,1008.3633 a 1.0001,1.0001 0 0 0 -0.697266,1.7168 l 1.980469,1.9785 a 1.0001,1.0001 0 1 0 1.414063,-1.4141 l -1.980469,-1.9785 A 1.0001,1.0001 0 0 0 23,1008.3633 Z"/></g></svg>