<svg width='200' height='200' fill="#000000" xmlns:dc="http://purl.org/dc/elements/1.1/" xmlns:cc="http://creativecommons.org/ns#" xmlns:rdf="http://www.w3.org/1999/02/22-rdf-syntax-ns#" xmlns:svg="http://www.w3.org/2000/svg" xmlns="http://www.w3.org/2000/svg" xmlns:sodipodi="http://sodipodi.sourceforge.net/DTD/sodipodi-0.dtd" xmlns:inkscape="http://www.inkscape.org/namespaces/inkscape" viewBox="0 0 48 48.000001" version="1.1" x="0px" y="0px"><g transform="translate(0,-1004.3622)"><path style="color:#000000;font-style:normal;font-variant:normal;font-weight:normal;font-stretch:normal;font-size:medium;line-height:normal;font-family:sans-serif;text-indent:0;text-align:start;text-decoration:none;text-decoration-line:none;text-decoration-style:solid;text-decoration-color:#000000;letter-spacing:normal;word-spacing:normal;text-transform:none;direction:ltr;block-progression:tb;writing-mode:lr-tb;baseline-shift:baseline;text-anchor:start;white-space:normal;clip-rule:nonzero;display:inline;overflow:visible;visibility:visible;opacity:1;isolation:auto;mix-blend-mode:normal;color-interpolation:sRGB;color-interpolation-filters:linearRGB;solid-color:#000000;solid-opacity:1;fill:#000000;fill-opacity:1;fill-rule:evenodd;stroke:none;stroke-width:2;stroke-linecap:round;stroke-linejoin:round;stroke-miterlimit:4;stroke-dasharray:none;stroke-dashoffset:0;stroke-opacity:1;color-rendering:auto;image-rendering:auto;shape-rendering:auto;text-rendering:auto;enable-background:accumulate" d="M 23.984375,1032.3621 A 1.0001,0.99994702 0 0 0 23,1033.3776 l 0,2.9703 a 1.0001,0.99994702 0 1 0 2,0 l 0,-2.9703 a 1.0001,0.99994702 0 0 0 -1.015625,-1.0155 z"/><path style="color:#000000;font-style:normal;font-variant:normal;font-weight:normal;font-stretch:normal;font-size:medium;line-height:normal;font-family:sans-serif;text-indent:0;text-align:start;text-decoration:none;text-decoration-line:none;text-decoration-style:solid;text-decoration-color:#000000;letter-spacing:normal;word-spacing:normal;text-transform:none;direction:ltr;block-progression:tb;writing-mode:lr-tb;baseline-shift:baseline;text-anchor:start;white-space:normal;clip-rule:nonzero;display:inline;overflow:visible;visibility:visible;opacity:1;isolation:auto;mix-blend-mode:normal;color-interpolation:sRGB;color-interpolation-filters:linearRGB;solid-color:#000000;solid-opacity:1;fill:#000000;fill-opacity:1;fill-rule:nonzero;stroke:none;stroke-width:1.99999988;stroke-linecap:round;stroke-linejoin:round;stroke-miterlimit:4;stroke-dasharray:none;stroke-dashoffset:0;stroke-opacity:1;color-rendering:auto;image-rendering:auto;shape-rendering:auto;text-rendering:auto;enable-background:accumulate" d="m 24,1012.3613 c -4.958718,0 -9,4.0413 -9,9 0,4.9587 4.041282,9 9,9 4.958718,0 9,-4.0413 9,-9 0,-4.9587 -4.041282,-9 -9,-9 z m 0,2 c 3.877838,0 7,3.1222 7,7 0,3.8779 -3.122162,7 -7,7 -3.877838,0 -7,-3.1221 -7,-7 0,-3.8778 3.122162,-7 7,-7 z"/><path style="color:#000000;font-style:normal;font-variant:normal;font-weight:normal;font-stretch:normal;font-size:medium;line-height:normal;font-family:sans-serif;text-indent:0;text-align:start;text-decoration:none;text-decoration-line:none;text-decoration-style:solid;text-decoration-color:#000000;letter-spacing:normal;word-spacing:normal;text-transform:none;direction:ltr;block-progression:tb;writing-mode:lr-tb;baseline-shift:baseline;text-anchor:start;white-space:normal;clip-rule:nonzero;display:inline;overflow:visible;visibility:visible;opacity:1;isolation:auto;mix-blend-mode:normal;color-interpolation:sRGB;color-interpolation-filters:linearRGB;solid-color:#000000;solid-opacity:1;fill:#000000;fill-opacity:1;fill-rule:evenodd;stroke:none;stroke-width:2;stroke-linecap:round;stroke-linejoin:round;stroke-miterlimit:4;stroke-dasharray:none;stroke-dashoffset:0;stroke-opacity:1;color-rendering:auto;image-rendering:auto;shape-rendering:auto;text-rendering:auto;enable-background:accumulate" d="m 36.014011,1020.3621 a 0.99987183,1.0001 0 1 0 0,2 l 2.971977,0 a 0.99987183,1.0001 0 1 0 0,-2 l -2.971977,0 z"/><path style="color:#000000;font-style:normal;font-variant:normal;font-weight:normal;font-stretch:normal;font-size:medium;line-height:normal;font-family:sans-serif;text-indent:0;text-align:start;text-decoration:none;text-decoration-line:none;text-decoration-style:solid;text-decoration-color:#000000;letter-spacing:normal;word-spacing:normal;text-transform:none;direction:ltr;block-progression:tb;writing-mode:lr-tb;baseline-shift:baseline;text-anchor:start;white-space:normal;clip-rule:nonzero;display:inline;overflow:visible;visibility:visible;opacity:1;isolation:auto;mix-blend-mode:normal;color-interpolation:sRGB;color-interpolation-filters:linearRGB;solid-color:#000000;solid-opacity:1;fill:#000000;fill-opacity:1;fill-rule:evenodd;stroke:none;stroke-width:2;stroke-linecap:round;stroke-linejoin:round;stroke-miterlimit:4;stroke-dasharray:none;stroke-dashoffset:0;stroke-opacity:1;color-rendering:auto;image-rendering:auto;shape-rendering:auto;text-rendering:auto;enable-background:accumulate" d="M 23.984375,1005.3621 A 1.0001,0.99994702 0 0 0 23,1006.3776 l 0,2.9703 a 1.0001,0.99994702 0 1 0 2,0 l 0,-2.9703 a 1.0001,0.99994702 0 0 0 -1.015625,-1.0155 z"/><g><path d="m 33.970703,1009.3633 a 1.0000999,1.0000999 0 0 0 -0.6875,0.3027 l -1.980469,1.9785 a 1.0000999,1.0000999 0 1 0 1.414063,1.4141 l 1.980469,-1.9785 a 1.0000999,1.0000999 0 0 0 -0.726563,-1.7168 z" style="color:#000000;font-style:normal;font-variant:normal;font-weight:normal;font-stretch:normal;font-size:medium;line-height:normal;font-family:sans-serif;text-indent:0;text-align:start;text-decoration:none;text-decoration-line:none;text-decoration-style:solid;text-decoration-color:#000000;letter-spacing:normal;word-spacing:normal;text-transform:none;direction:ltr;block-progression:tb;writing-mode:lr-tb;baseline-shift:baseline;text-anchor:start;white-space:normal;clip-rule:nonzero;display:inline;overflow:visible;visibility:visible;opacity:1;isolation:auto;mix-blend-mode:normal;color-interpolation:sRGB;color-interpolation-filters:linearRGB;solid-color:#000000;solid-opacity:1;fill:#000000;fill-opacity:1;fill-rule:evenodd;stroke:none;stroke-width:1.99999988;stroke-linecap:round;stroke-linejoin:round;stroke-miterlimit:4;stroke-dasharray:none;stroke-dashoffset:0;stroke-opacity:1;color-rendering:auto;image-rendering:auto;shape-rendering:auto;text-rendering:auto;enable-background:accumulate"/><path d="m 14.000292,1009.3623 a 0.99856608,0.99903611 0 0 0 -0.696196,1.7169 l 1.977431,1.9764 a 0.99856608,0.99903611 0 1 0 1.411894,-1.4126 l -1.977431,-1.9764 a 0.99856608,0.99903611 0 0 0 -0.715698,-0.3043 z" style="color:#000000;font-style:normal;font-variant:normal;font-weight:normal;font-stretch:normal;font-size:medium;line-height:normal;font-family:sans-serif;text-indent:0;text-align:start;text-decoration:none;text-decoration-line:none;text-decoration-style:solid;text-decoration-color:#000000;letter-spacing:normal;word-spacing:normal;text-transform:none;direction:ltr;block-progression:tb;writing-mode:lr-tb;baseline-shift:baseline;text-anchor:start;white-space:normal;clip-rule:nonzero;display:inline;overflow:visible;visibility:visible;opacity:1;isolation:auto;mix-blend-mode:normal;color-interpolation:sRGB;color-interpolation-filters:linearRGB;solid-color:#000000;solid-opacity:1;fill:#000000;fill-opacity:1;fill-rule:evenodd;stroke:none;stroke-width:2;stroke-linecap:round;stroke-linejoin:round;stroke-miterlimit:4;stroke-dasharray:none;stroke-dashoffset:0;stroke-opacity:1;color-rendering:auto;image-rendering:auto;shape-rendering:auto;text-rendering:auto;enable-background:accumulate"/></g><path style="color:#000000;font-style:normal;font-variant:normal;font-weight:normal;font-stretch:normal;font-size:medium;line-height:normal;font-family:sans-serif;text-indent:0;text-align:start;text-decoration:none;text-decoration-line:none;text-decoration-style:solid;text-decoration-color:#000000;letter-spacing:normal;word-spacing:normal;text-transform:none;direction:ltr;block-progression:tb;writing-mode:lr-tb;baseline-shift:baseline;text-anchor:start;white-space:normal;clip-rule:nonzero;display:inline;overflow:visible;visibility:visible;opacity:1;isolation:auto;mix-blend-mode:normal;color-interpolation:sRGB;color-interpolation-filters:linearRGB;solid-color:#000000;solid-opacity:1;fill:#000000;fill-opacity:1;fill-rule:evenodd;stroke:none;stroke-width:2;stroke-linecap:round;stroke-linejoin:round;stroke-miterlimit:4;stroke-dasharray:none;stroke-dashoffset:0;stroke-opacity:1;color-rendering:auto;image-rendering:auto;shape-rendering:auto;text-rendering:auto;enable-background:accumulate" d="m 9.0140111,1020.3621 a 0.99987181,1.0001 0 1 0 0,2 l 2.9719779,0 a 0.99987181,1.0001 0 1 0 0,-2 l -2.9719779,0 z"/><path style="color:#000000;font-style:normal;font-variant:normal;font-weight:normal;font-stretch:normal;font-size:medium;line-height:normal;font-family:sans-serif;text-indent:0;text-align:start;text-decoration:none;text-decoration-line:none;text-decoration-style:solid;text-decoration-color:#000000;letter-spacing:normal;word-spacing:normal;text-transform:none;direction:ltr;block-progression:tb;writing-mode:lr-tb;baseline-shift:baseline;text-anchor:start;white-space:normal;clip-rule:nonzero;display:inline;overflow:visible;visibility:visible;opacity:1;isolation:auto;mix-blend-mode:normal;color-interpolation:sRGB;color-interpolation-filters:linearRGB;solid-color:#000000;solid-opacity:1;fill:#000000;fill-opacity:1;fill-rule:nonzero;stroke:none;stroke-width:2;stroke-linecap:round;stroke-linejoin:round;stroke-miterlimit:4;stroke-dasharray:none;stroke-dashoffset:0;stroke-opacity:1;color-rendering:auto;image-rendering:auto;shape-rendering:auto;text-rendering:auto;enable-background:accumulate" d="m 15.966797,1039.3628 a 1.0001,1.0002795 0 0 0 -0.789063,0.4297 c 0,0 -0.519709,0.7505 -1.042968,1.6526 -0.26163,0.4511 -0.52682,0.9427 -0.738282,1.4241 C 13.185023,1043.3507 13,1043.7837 13,1044.3617 c 0,1.6454 1.355009,3.0005 3,3.0005 1.644991,0 3,-1.3551 3,-3.0005 0,-0.578 -0.185023,-1.011 -0.396484,-1.4925 -0.211462,-0.4814 -0.476652,-0.973 -0.738282,-1.4241 -0.523259,-0.9021 -1.042968,-1.6526 -1.042968,-1.6526 a 1.0001,1.0002795 0 0 0 -0.855469,-0.4297 z M 16,1042.2344 c 0.06613,0.1095 0.06744,0.099 0.134766,0.2148 0.23837,0.411 0.47318,0.8526 0.636718,1.2248 0.163539,0.3724 0.228516,0.7133 0.228516,0.6877 0,0.5643 -0.435853,1.0001 -1,1.0001 -0.564147,0 -1,-0.4358 -1,-1.0001 0,0.026 0.06498,-0.3153 0.228516,-0.6877 0.163538,-0.3722 0.398348,-0.8138 0.636718,-1.2248 0.06733,-0.116 0.06863,-0.1053 0.134766,-0.2148 z"/><path style="color:#000000;font-style:normal;font-variant:normal;font-weight:normal;font-stretch:normal;font-size:medium;line-height:normal;font-family:sans-serif;text-indent:0;text-align:start;text-decoration:none;text-decoration-line:none;text-decoration-style:solid;text-decoration-color:#000000;letter-spacing:normal;word-spacing:normal;text-transform:none;direction:ltr;block-progression:tb;writing-mode:lr-tb;baseline-shift:baseline;text-anchor:start;white-space:normal;clip-rule:nonzero;display:inline;overflow:visible;visibility:visible;opacity:1;isolation:auto;mix-blend-mode:normal;color-interpolation:sRGB;color-interpolation-filters:linearRGB;solid-color:#000000;solid-opacity:1;fill:#000000;fill-opacity:1;fill-rule:nonzero;stroke:none;stroke-width:2;stroke-linecap:round;stroke-linejoin:round;stroke-miterlimit:4;stroke-dasharray:none;stroke-dashoffset:0;stroke-opacity:1;color-rendering:auto;image-rendering:auto;shape-rendering:auto;text-rendering:auto;enable-background:accumulate" d="m 31.966797,1039.3628 a 1.0001,1.0002795 0 0 0 -0.789063,0.4297 c 0,0 -0.519709,0.7505 -1.042968,1.6526 -0.26163,0.4511 -0.52682,0.9427 -0.738282,1.4241 C 29.185023,1043.3507 29,1043.7837 29,1044.3617 c 0,1.6454 1.355009,3.0005 3,3.0005 1.644991,0 3,-1.3551 3,-3.0005 0,-0.578 -0.185023,-1.011 -0.396484,-1.4925 -0.211462,-0.4814 -0.476652,-0.973 -0.738282,-1.4241 -0.523259,-0.9021 -1.042968,-1.6526 -1.042968,-1.6526 a 1.0001,1.0002795 0 0 0 -0.855469,-0.4297 z M 32,1042.2344 c 0.06613,0.1095 0.06744,0.099 0.134766,0.2148 0.23837,0.411 0.47318,0.8526 0.636718,1.2248 0.163539,0.3724 0.228516,0.7133 0.228516,0.6877 0,0.5643 -0.435853,1.0001 -1,1.0001 -0.564147,0 -1,-0.4358 -1,-1.0001 0,0.026 0.06498,-0.3153 0.228516,-0.6877 0.163538,-0.3722 0.398348,-0.8138 0.636718,-1.2248 0.06733,-0.116 0.06863,-0.1053 0.134766,-0.2148 z"/><path style="color:#000000;font-style:normal;font-variant:normal;font-weight:normal;font-stretch:normal;font-size:medium;line-height:normal;font-family:sans-serif;text-indent:0;text-align:start;text-decoration:none;text-decoration-line:none;text-decoration-style:solid;text-decoration-color:#000000;letter-spacing:normal;word-spacing:normal;text-transform:none;direction:ltr;block-progression:tb;writing-mode:lr-tb;baseline-shift:baseline;text-anchor:start;white-space:normal;clip-rule:nonzero;display:inline;overflow:visible;visibility:visible;opacity:1;isolation:auto;mix-blend-mode:normal;color-interpolation:sRGB;color-interpolation-filters:linearRGB;solid-color:#000000;solid-opacity:1;fill:#000000;fill-opacity:1;fill-rule:nonzero;stroke:none;stroke-width:2;stroke-linecap:round;stroke-linejoin:round;stroke-miterlimit:4;stroke-dasharray:none;stroke-dashoffset:0;stroke-opacity:1;color-rendering:auto;image-rendering:auto;shape-rendering:auto;text-rendering:auto;enable-background:accumulate" d="m 23.964844,1044.3628 a 1.0001,1.0002713 0 0 0 -0.789063,0.4298 c 0,0 -0.517756,0.7504 -1.041015,1.6526 -0.26163,0.4511 -0.52682,0.9426 -0.738282,1.424 C 21.185023,1048.3507 21,1048.7837 21,1049.3617 c 0,1.6454 1.355009,3.0005 3,3.0005 1.644991,0 3,-1.3551 3,-3.0005 0,-0.578 -0.185023,-1.011 -0.396484,-1.4925 -0.211462,-0.4814 -0.476652,-0.9729 -0.738282,-1.424 -0.523259,-0.9022 -1.042968,-1.6526 -1.042968,-1.6526 a 1.0001,1.0002713 0 0 0 -0.857422,-0.4298 z M 24,1047.2363 c 0.06568,0.1088 0.06791,0.098 0.134766,0.213 0.23837,0.4109 0.47318,0.8525 0.636718,1.2248 0.163539,0.3723 0.228516,0.7132 0.228516,0.6876 0,0.5643 -0.435853,1.0002 -1,1.0002 -0.564147,0 -1,-0.4359 -1,-1.0002 0,0.026 0.06498,-0.3153 0.228516,-0.6876 0.163538,-0.3723 0.398348,-0.8139 0.636718,-1.2248 0.06689,-0.1154 0.06905,-0.1041 0.134766,-0.213 z"/><path d="m 33.971991,1033.3618 a 0.99873951,0.99917282 0 0 1 -0.686565,-0.3024 l -1.977776,-1.9767 a 0.99873951,0.99917282 0 1 1 1.412139,-1.4127 l 1.977776,1.9766 a 0.99873951,0.99917282 0 0 1 -0.725574,1.7152 z" style="color:#000000;font-style:normal;font-variant:normal;font-weight:normal;font-stretch:normal;font-size:medium;line-height:normal;font-family:sans-serif;text-indent:0;text-align:start;text-decoration:none;text-decoration-line:none;text-decoration-style:solid;text-decoration-color:#000000;letter-spacing:normal;word-spacing:normal;text-transform:none;direction:ltr;block-progression:tb;writing-mode:lr-tb;baseline-shift:baseline;text-anchor:start;white-space:normal;clip-rule:nonzero;display:inline;overflow:visible;visibility:visible;opacity:1;isolation:auto;mix-blend-mode:normal;color-interpolation:sRGB;color-interpolation-filters:linearRGB;solid-color:#000000;solid-opacity:1;fill:#000000;fill-opacity:1;fill-rule:evenodd;stroke:none;stroke-width:1.99999988;stroke-linecap:round;stroke-linejoin:round;stroke-miterlimit:4;stroke-dasharray:none;stroke-dashoffset:0;stroke-opacity:1;color-rendering:auto;image-rendering:auto;shape-rendering:auto;text-rendering:auto;enable-background:accumulate"/><path d="m 14.000279,1033.3622 a 0.99855299,0.99903611 0 0 1 -0.696187,-1.7169 l 1.977405,-1.9764 a 0.99855299,0.99903611 0 1 1 1.411876,1.4126 l -1.977406,1.9764 a 0.99855299,0.99903611 0 0 1 -0.715688,0.3043 z" style="color:#000000;font-style:normal;font-variant:normal;font-weight:normal;font-stretch:normal;font-size:medium;line-height:normal;font-family:sans-serif;text-indent:0;text-align:start;text-decoration:none;text-decoration-line:none;text-decoration-style:solid;text-decoration-color:#000000;letter-spacing:normal;word-spacing:normal;text-transform:none;direction:ltr;block-progression:tb;writing-mode:lr-tb;baseline-shift:baseline;text-anchor:start;white-space:normal;clip-rule:nonzero;display:inline;overflow:visible;visibility:visible;opacity:1;isolation:auto;mix-blend-mode:normal;color-interpolation:sRGB;color-interpolation-filters:linearRGB;solid-color:#000000;solid-opacity:1;fill:#000000;fill-opacity:1;fill-rule:evenodd;stroke:none;stroke-width:2;stroke-linecap:round;stroke-linejoin:round;stroke-miterlimit:4;stroke-dasharray:none;stroke-dashoffset:0;stroke-opacity:1;color-rendering:auto;image-rendering:auto;shape-rendering:auto;text-rendering:auto;enable-background:accumulate"/></g></svg>