<svg width='200' height='200' fill="#000000" xmlns:dc="http://purl.org/dc/elements/1.1/" xmlns:cc="http://creativecommons.org/ns#" xmlns:rdf="http://www.w3.org/1999/02/22-rdf-syntax-ns#" xmlns:svg="http://www.w3.org/2000/svg" xmlns="http://www.w3.org/2000/svg" xmlns:sodipodi="http://sodipodi.sourceforge.net/DTD/sodipodi-0.dtd" xmlns:inkscape="http://www.inkscape.org/namespaces/inkscape" viewBox="0 0 48 48.000001" version="1.1" x="0px" y="0px"><g transform="translate(0,-1004.3622)"><path style="color:#000000;font-style:normal;font-variant:normal;font-weight:normal;font-stretch:normal;font-size:medium;line-height:normal;font-family:sans-serif;text-indent:0;text-align:start;text-decoration:none;text-decoration-line:none;text-decoration-style:solid;text-decoration-color:#000000;letter-spacing:normal;word-spacing:normal;text-transform:none;direction:ltr;block-progression:tb;writing-mode:lr-tb;baseline-shift:baseline;text-anchor:start;white-space:normal;clip-rule:nonzero;display:inline;overflow:visible;visibility:visible;opacity:1;isolation:auto;mix-blend-mode:normal;color-interpolation:sRGB;color-interpolation-filters:linearRGB;solid-color:#000000;solid-opacity:1;fill:#000000;fill-opacity:1;fill-rule:nonzero;stroke:none;stroke-width:2;stroke-linecap:round;stroke-linejoin:round;stroke-miterlimit:4;stroke-dasharray:none;stroke-dashoffset:0;stroke-opacity:1;color-rendering:auto;image-rendering:auto;shape-rendering:auto;text-rendering:auto;enable-background:accumulate" d="m 36.861328,1004.3633 a 1.0001,1.0001 0 0 0 -0.128906,0.012 l 0.0059,-0 c -0.0048,7e-4 -0.0088,0 -0.01367,0 a 1.0001,1.0001 0 0 0 -0.316406,0.1074 c -4.252166,0.7831 -7.403274,4.4663 -7.408203,8.834 a 1.0001,1.0001 0 0 0 0.002,0.055 c 0.0014,0.026 0.0023,0.051 0.0039,0.076 a 1.0001,1.0001 0 0 0 0.570313,0.8418 c 2.778341,1.3187 4.744819,3.9048 5.277344,6.9414 a 1.0001,1.0001 0 0 0 0.710937,0.789 c 0.797188,0.2268 1.622525,0.3411 2.451172,0.3418 a 1.0001,1.0001 0 0 0 0.002,0 c 3.258937,-0 6.264291,-1.7736 7.855469,-4.625 a 1.0001,1.0001 0 0 0 -1.025391,-1.4765 c -0.32423,0.05 -0.650559,0.076 -0.978515,0.08 -6.67e-4,0 -0.0013,0 -0.002,0 -3.883163,-6e-4 -7.013516,-3.1404 -7.013672,-7.0449 0.0014,-1.2067 0.311792,-2.3937 0.90039,-3.4453 a 1.0001,1.0001 0 0 0 -0.892578,-1.4863 z m -1.699219,2.6113 c -0.200347,0.7543 -0.307896,1.5334 -0.308593,2.3203 1.83e-4,4.6016 3.502588,8.2724 7.945312,8.8281 -1.294868,1.2972 -2.901048,2.2359 -4.78125,2.2383 -0.477219,-4e-4 -0.945676,-0.1 -1.412109,-0.1972 -0.757128,-3.0999 -2.746621,-5.719 -5.527344,-7.2754 0.168348,-2.6416 1.757754,-4.8617 4.083984,-5.9141 z"/><path style="color:#000000;font-style:normal;font-variant:normal;font-weight:normal;font-stretch:normal;font-size:medium;line-height:normal;font-family:sans-serif;text-indent:0;text-align:start;text-decoration:none;text-decoration-line:none;text-decoration-style:solid;text-decoration-color:#000000;letter-spacing:normal;word-spacing:normal;text-transform:none;direction:ltr;block-progression:tb;writing-mode:lr-tb;baseline-shift:baseline;text-anchor:start;white-space:normal;clip-rule:nonzero;display:inline;overflow:visible;visibility:visible;opacity:1;isolation:auto;mix-blend-mode:normal;color-interpolation:sRGB;color-interpolation-filters:linearRGB;solid-color:#000000;solid-opacity:1;fill:#000000;fill-opacity:1;fill-rule:nonzero;stroke:none;stroke-width:2;stroke-linecap:round;stroke-linejoin:round;stroke-miterlimit:4;stroke-dasharray:none;stroke-dashoffset:0;stroke-opacity:1;color-rendering:auto;image-rendering:auto;shape-rendering:auto;text-rendering:auto;enable-background:accumulate" d="m 25.691567,1011.3627 c -4.172975,-0.039 -8.076769,2.4391 -10.363062,6.1067 -3.254567,-1.0583 -6.9261587,-0.7493 -9.4802668,1.7373 -2.6902302,2.6195 -3.5692385,6.5821 -2.2304212,10.0816 1.3387992,3.4995 4.6398279,5.8831 8.400212,6.0736 0.01692,4e-4 0.03386,4e-4 0.05078,0 l 13.486041,0 c 6.788521,0 10.418539,-5.2975 11.300541,-10.1718 0.883954,-5.7253 -2.357539,-11.3025 -7.726399,-13.2376 -1.23036,-0.4073 -2.301622,-0.5794 -3.437424,-0.5898 z m 0.263661,1.9932 0.0098,0 c 0.833336,0.031 1.66677,0.1855 2.486275,0.4808 4.457431,1.6066 7.169308,6.2449 6.427597,11.0488 -0.738113,4.7805 -4.668579,8.3128 -9.359176,8.4675 -4.459666,0.021 -8.94224,0.01 -13.409871,0.01 -2.9754313,-0.1548 -5.569038,-2.033 -6.6229062,-4.7877 -1.0550316,-2.7576 -0.3696652,-5.8624 1.755822,-7.932 2.0716749,-2.0169 5.1903172,-2.1858 8.0603752,-1.1217 0.650717,0.2412 1.079103,-0.049 1.400367,-0.5771 2.057278,-3.3778 5.623801,-5.7212 9.251756,-5.5889 z"/><path style="color:#000000;font-style:normal;font-variant:normal;font-weight:normal;font-stretch:normal;font-size:medium;line-height:normal;font-family:sans-serif;text-indent:0;text-align:start;text-decoration:none;text-decoration-line:none;text-decoration-style:solid;text-decoration-color:#000000;letter-spacing:normal;word-spacing:normal;text-transform:none;direction:ltr;block-progression:tb;writing-mode:lr-tb;baseline-shift:baseline;text-anchor:start;white-space:normal;clip-rule:nonzero;display:inline;overflow:visible;visibility:visible;opacity:1;isolation:auto;mix-blend-mode:normal;color-interpolation:sRGB;color-interpolation-filters:linearRGB;solid-color:#000000;solid-opacity:1;fill:#000000;fill-opacity:1;fill-rule:nonzero;stroke:none;stroke-width:2;stroke-linecap:round;stroke-linejoin:round;stroke-miterlimit:4;stroke-dasharray:none;stroke-dashoffset:0;stroke-opacity:1;color-rendering:auto;image-rendering:auto;shape-rendering:auto;text-rendering:auto;enable-background:accumulate" d="m 11.966797,1038.3628 a 1.0001,1.0002795 0 0 0 -0.789063,0.4297 c 0,0 -0.519709,0.7505 -1.042968,1.6526 -0.26163,0.4511 -0.5268203,0.9427 -0.7382816,1.4241 C 9.1850231,1042.3507 9,1042.7837 9,1043.3617 c 0,1.6454 1.355009,3.0005 3,3.0005 1.644991,0 3,-1.3551 3,-3.0005 0,-0.578 -0.185023,-1.011 -0.396484,-1.4925 -0.211462,-0.4814 -0.476652,-0.973 -0.738282,-1.4241 -0.523259,-0.9021 -1.042968,-1.6526 -1.042968,-1.6526 a 1.0001,1.0002795 0 0 0 -0.855469,-0.4297 z M 12,1041.2344 c 0.06613,0.1095 0.06744,0.099 0.134766,0.2148 0.23837,0.411 0.47318,0.8526 0.636718,1.2248 0.163539,0.3724 0.228516,0.7133 0.228516,0.6877 0,0.5643 -0.435853,1.0001 -1,1.0001 -0.564147,0 -1,-0.4358 -1,-1.0001 0,0.026 0.06498,-0.3153 0.228516,-0.6877 0.163538,-0.3722 0.398348,-0.8138 0.636718,-1.2248 0.06733,-0.116 0.06863,-0.1053 0.134766,-0.2148 z"/><path style="color:#000000;font-style:normal;font-variant:normal;font-weight:normal;font-stretch:normal;font-size:medium;line-height:normal;font-family:sans-serif;text-indent:0;text-align:start;text-decoration:none;text-decoration-line:none;text-decoration-style:solid;text-decoration-color:#000000;letter-spacing:normal;word-spacing:normal;text-transform:none;direction:ltr;block-progression:tb;writing-mode:lr-tb;baseline-shift:baseline;text-anchor:start;white-space:normal;clip-rule:nonzero;display:inline;overflow:visible;visibility:visible;opacity:1;isolation:auto;mix-blend-mode:normal;color-interpolation:sRGB;color-interpolation-filters:linearRGB;solid-color:#000000;solid-opacity:1;fill:#000000;fill-opacity:1;fill-rule:nonzero;stroke:none;stroke-width:2;stroke-linecap:round;stroke-linejoin:round;stroke-miterlimit:4;stroke-dasharray:none;stroke-dashoffset:0;stroke-opacity:1;color-rendering:auto;image-rendering:auto;shape-rendering:auto;text-rendering:auto;enable-background:accumulate" d="m 27.966797,1038.3628 a 1.0001,1.0002795 0 0 0 -0.789063,0.4297 c 0,0 -0.519709,0.7505 -1.042968,1.6526 -0.26163,0.4511 -0.52682,0.9427 -0.738282,1.4241 C 25.185023,1042.3507 25,1042.7837 25,1043.3617 c 0,1.6454 1.355009,3.0005 3,3.0005 1.644991,0 3,-1.3551 3,-3.0005 0,-0.578 -0.185023,-1.011 -0.396484,-1.4925 -0.211462,-0.4814 -0.476652,-0.973 -0.738282,-1.4241 -0.523259,-0.9021 -1.042968,-1.6526 -1.042968,-1.6526 a 1.0001,1.0002795 0 0 0 -0.855469,-0.4297 z M 28,1041.2344 c 0.06613,0.1095 0.06744,0.099 0.134766,0.2148 0.23837,0.411 0.47318,0.8526 0.636718,1.2248 0.163539,0.3724 0.228516,0.7133 0.228516,0.6877 0,0.5643 -0.435853,1.0001 -1,1.0001 -0.564147,0 -1,-0.4358 -1,-1.0001 0,0.026 0.06498,-0.3153 0.228516,-0.6877 0.163538,-0.3722 0.398348,-0.8138 0.636718,-1.2248 0.06733,-0.116 0.06863,-0.1053 0.134766,-0.2148 z"/><path style="color:#000000;font-style:normal;font-variant:normal;font-weight:normal;font-stretch:normal;font-size:medium;line-height:normal;font-family:sans-serif;text-indent:0;text-align:start;text-decoration:none;text-decoration-line:none;text-decoration-style:solid;text-decoration-color:#000000;letter-spacing:normal;word-spacing:normal;text-transform:none;direction:ltr;block-progression:tb;writing-mode:lr-tb;baseline-shift:baseline;text-anchor:start;white-space:normal;clip-rule:nonzero;display:inline;overflow:visible;visibility:visible;opacity:1;isolation:auto;mix-blend-mode:normal;color-interpolation:sRGB;color-interpolation-filters:linearRGB;solid-color:#000000;solid-opacity:1;fill:#000000;fill-opacity:1;fill-rule:nonzero;stroke:none;stroke-width:2;stroke-linecap:round;stroke-linejoin:round;stroke-miterlimit:4;stroke-dasharray:none;stroke-dashoffset:0;stroke-opacity:1;color-rendering:auto;image-rendering:auto;shape-rendering:auto;text-rendering:auto;enable-background:accumulate" d="m 19.966797,1044.3628 a 1.0001,1.0002795 0 0 0 -0.789063,0.4297 c 0,0 -0.519709,0.7505 -1.042968,1.6526 -0.26163,0.4511 -0.52682,0.9427 -0.738282,1.4241 C 17.185023,1048.3507 17,1048.7837 17,1049.3617 c 0,1.6454 1.355009,3.0005 3,3.0005 1.644991,0 3,-1.3551 3,-3.0005 0,-0.578 -0.185023,-1.011 -0.396484,-1.4925 -0.211462,-0.4814 -0.476652,-0.973 -0.738282,-1.4241 -0.523259,-0.9021 -1.042968,-1.6526 -1.042968,-1.6526 a 1.0001,1.0002795 0 0 0 -0.855469,-0.4297 z M 20,1047.2344 c 0.06613,0.1095 0.06744,0.099 0.134766,0.2148 0.23837,0.411 0.47318,0.8526 0.636718,1.2248 0.163539,0.3724 0.228516,0.7133 0.228516,0.6877 0,0.5643 -0.435853,1.0001 -1,1.0001 -0.564147,0 -1,-0.4358 -1,-1.0001 0,0.026 0.06498,-0.3153 0.228516,-0.6877 0.163538,-0.3722 0.398348,-0.8138 0.636718,-1.2248 0.06733,-0.116 0.06863,-0.1053 0.134766,-0.2148 z"/></g></svg>