<svg width='200' height='200' fill="#000000" xmlns:dc="http://purl.org/dc/elements/1.1/" xmlns:cc="http://creativecommons.org/ns#" xmlns:rdf="http://www.w3.org/1999/02/22-rdf-syntax-ns#" xmlns:svg="http://www.w3.org/2000/svg" xmlns="http://www.w3.org/2000/svg" xmlns:sodipodi="http://sodipodi.sourceforge.net/DTD/sodipodi-0.dtd" xmlns:inkscape="http://www.inkscape.org/namespaces/inkscape" viewBox="0 0 48 48.000001" version="1.1" x="0px" y="0px"><g transform="translate(0,-1004.3622)"><path style="color:#000000;font-style:normal;font-variant:normal;font-weight:normal;font-stretch:normal;font-size:medium;line-height:normal;font-family:sans-serif;text-indent:0;text-align:start;text-decoration:none;text-decoration-line:none;text-decoration-style:solid;text-decoration-color:#000000;letter-spacing:normal;word-spacing:normal;text-transform:none;direction:ltr;block-progression:tb;writing-mode:lr-tb;baseline-shift:baseline;text-anchor:start;white-space:normal;clip-rule:nonzero;display:inline;overflow:visible;visibility:visible;opacity:1;isolation:auto;mix-blend-mode:normal;color-interpolation:sRGB;color-interpolation-filters:linearRGB;solid-color:#000000;solid-opacity:1;fill:#000000;fill-opacity:1;fill-rule:nonzero;stroke:none;stroke-width:2;stroke-linecap:round;stroke-linejoin:round;stroke-miterlimit:4;stroke-dasharray:none;stroke-dashoffset:0;stroke-opacity:1;color-rendering:auto;image-rendering:auto;shape-rendering:auto;text-rendering:auto;enable-background:accumulate" d="m 24,1010.3622 c -11.586135,0 -21,9.4139 -21,21 0,11.5862 9.413865,21 21,21 11.586135,0 21,-9.4138 21,-21 0,-11.5861 -9.413865,-21 -21,-21 z m 0,2 c 10.505255,0 19,8.4948 19,19 0,10.5053 -8.494745,19 -19,19 -10.505255,0 -19,-8.4947 -19,-19 0,-10.5052 8.494745,-19 19,-19 z"/><path style="color:#000000;font-style:normal;font-variant:normal;font-weight:normal;font-stretch:normal;font-size:medium;line-height:normal;font-family:sans-serif;text-indent:0;text-align:start;text-decoration:none;text-decoration-line:none;text-decoration-style:solid;text-decoration-color:#000000;letter-spacing:normal;word-spacing:normal;text-transform:none;direction:ltr;block-progression:tb;writing-mode:lr-tb;baseline-shift:baseline;text-anchor:start;white-space:normal;clip-rule:nonzero;display:inline;overflow:visible;visibility:visible;opacity:1;isolation:auto;mix-blend-mode:normal;color-interpolation:sRGB;color-interpolation-filters:linearRGB;solid-color:#000000;solid-opacity:1;fill:#000000;fill-opacity:1;fill-rule:nonzero;stroke:none;stroke-width:2;stroke-linecap:round;stroke-linejoin:round;stroke-miterlimit:4;stroke-dasharray:none;stroke-dashoffset:0;stroke-opacity:1;color-rendering:auto;image-rendering:auto;shape-rendering:auto;text-rendering:auto;enable-background:accumulate" d="m 24.008415,1004.3624 c -1.143873,0 -2.287576,0.3836 -3.216796,1.1573 a 1.0001,0.99928738 0 0 0 -0.002,0 c -1.857538,1.5483 -2.333796,4.2239 -1.123046,6.3151 a 1.0006646,0.99985153 0 0 0 1.732422,-1.0012 c -0.73037,-1.2614 -0.450764,-2.8423 0.671874,-3.7781 1.123189,-0.9351 2.745732,-0.9317 3.865235,0.01 1.120054,0.9389 1.396068,2.5207 0.662109,3.7801 a 1.0001,0.99928738 0 1 0 1.728516,1.0051 c 1.216682,-2.0879 0.74782,-4.7636 -1.105469,-6.3171 -0.926191,-0.7773 -2.069017,-1.1668 -3.212891,-1.169 z"/><path style="color:#000000;font-style:normal;font-variant:normal;font-weight:normal;font-stretch:normal;font-size:medium;line-height:normal;font-family:sans-serif;text-indent:0;text-align:start;text-decoration:none;text-decoration-line:none;text-decoration-style:solid;text-decoration-color:#000000;letter-spacing:normal;word-spacing:normal;text-transform:none;direction:ltr;block-progression:tb;writing-mode:lr-tb;baseline-shift:baseline;text-anchor:start;white-space:normal;clip-rule:nonzero;display:inline;overflow:visible;visibility:visible;opacity:1;isolation:auto;mix-blend-mode:normal;color-interpolation:sRGB;color-interpolation-filters:linearRGB;solid-color:#000000;solid-opacity:1;fill:#000000;fill-opacity:1;fill-rule:nonzero;stroke:none;stroke-width:2;stroke-linecap:round;stroke-linejoin:round;stroke-miterlimit:4;stroke-dasharray:none;stroke-dashoffset:0;stroke-opacity:1;color-rendering:auto;image-rendering:auto;shape-rendering:auto;text-rendering:auto;enable-background:accumulate" d="m 24.003906,1016.3622 c -3.458468,0 -6.917607,1.1645 -9.732422,3.4961 -5.6414712,4.6738 -6.8393645,12.7217 -3.185546,19.0078 a 1.0001,1.0001 0 0 0 0.865234,0.4961 l 24.095703,0 a 1.0001,1.0001 0 0 0 0.863281,-0.4961 c 3.660018,-6.2829 2.457995,-14.32 -3.177734,-18.998 -2.812194,-2.3347 -6.270048,-3.504 -9.728516,-3.5059 z m -0.002,1.9981 c 3.003876,0 6.00825,1.0171 8.453125,3.0468 4.738398,3.9332 5.776228,10.5543 2.91211,15.9551 l -22.738282,0 c -2.8596157,-5.4044 -1.822999,-12.0371 2.917969,-15.9648 2.447159,-2.0271 5.451202,-3.0388 8.455078,-3.0371 z"/><path style="color:#000000;font-style:normal;font-variant:normal;font-weight:normal;font-stretch:normal;font-size:medium;line-height:normal;font-family:sans-serif;text-indent:0;text-align:start;text-decoration:none;text-decoration-line:none;text-decoration-style:solid;text-decoration-color:#000000;letter-spacing:normal;word-spacing:normal;text-transform:none;direction:ltr;block-progression:tb;writing-mode:lr-tb;baseline-shift:baseline;text-anchor:start;white-space:normal;clip-rule:nonzero;display:inline;overflow:visible;visibility:visible;opacity:1;isolation:auto;mix-blend-mode:normal;color-interpolation:sRGB;color-interpolation-filters:linearRGB;solid-color:#000000;solid-opacity:1;fill:#000000;fill-opacity:1;fill-rule:evenodd;stroke:none;stroke-width:2;stroke-linecap:round;stroke-linejoin:round;stroke-miterlimit:4;stroke-dasharray:none;stroke-dashoffset:0;stroke-opacity:1;color-rendering:auto;image-rendering:auto;shape-rendering:auto;text-rendering:auto;enable-background:accumulate" d="M 23.984375,1023.3621 A 1.0001,1.0000305 0 0 0 23,1024.3777 l 0,8.9701 a 1.0001,1.0000305 0 1 0 2,0 l 0,-8.9701 a 1.0001,1.0000305 0 0 0 -1.015625,-1.0156 z"/><path style="color:#000000;font-style:normal;font-variant:normal;font-weight:normal;font-stretch:normal;font-size:medium;line-height:normal;font-family:sans-serif;text-indent:0;text-align:start;text-decoration:none;text-decoration-line:none;text-decoration-style:solid;text-decoration-color:#000000;letter-spacing:normal;word-spacing:normal;text-transform:none;direction:ltr;block-progression:tb;writing-mode:lr-tb;baseline-shift:baseline;text-anchor:start;white-space:normal;clip-rule:nonzero;display:inline;overflow:visible;visibility:visible;opacity:1;isolation:auto;mix-blend-mode:normal;color-interpolation:sRGB;color-interpolation-filters:linearRGB;solid-color:#000000;solid-opacity:1;fill:#000000;fill-opacity:1;fill-rule:evenodd;stroke:none;stroke-width:1.99999988;stroke-linecap:round;stroke-linejoin:round;stroke-miterlimit:4;stroke-dasharray:none;stroke-dashoffset:0;stroke-opacity:1;color-rendering:auto;image-rendering:auto;shape-rendering:auto;text-rendering:auto;enable-background:accumulate" d="m 18.990257,1028.362 a 1.0007191,0.99997987 0 0 0 -0.601935,1.7908 l 4.99137,3.9898 a 1.0007191,0.99997987 0 0 0 1.250774,0 l 4.991369,-3.9898 a 1.0011076,1.0003681 0 1 0 -1.250774,-1.5623 l -4.365982,3.4918 -4.365983,-3.4918 a 1.0007191,0.99997987 0 0 0 -0.648839,-0.2285 z"/></g></svg>