<svg width='200' height='200' fill="#000000" xmlns:dc="http://purl.org/dc/elements/1.1/" xmlns:cc="http://creativecommons.org/ns#" xmlns:rdf="http://www.w3.org/1999/02/22-rdf-syntax-ns#" xmlns:svg="http://www.w3.org/2000/svg" xmlns="http://www.w3.org/2000/svg" xmlns:sodipodi="http://sodipodi.sourceforge.net/DTD/sodipodi-0.dtd" xmlns:inkscape="http://www.inkscape.org/namespaces/inkscape" viewBox="0 0 48 48.000001" version="1.1" x="0px" y="0px"><g transform="translate(0,-1004.3622)"><path style="color:#000000;font-style:normal;font-variant:normal;font-weight:normal;font-stretch:normal;font-size:medium;line-height:normal;font-family:sans-serif;text-indent:0;text-align:start;text-decoration:none;text-decoration-line:none;text-decoration-style:solid;text-decoration-color:#000000;letter-spacing:normal;word-spacing:normal;text-transform:none;direction:ltr;block-progression:tb;writing-mode:lr-tb;baseline-shift:baseline;text-anchor:start;white-space:normal;clip-rule:nonzero;display:inline;overflow:visible;visibility:visible;opacity:1;isolation:auto;mix-blend-mode:normal;color-interpolation:sRGB;color-interpolation-filters:linearRGB;solid-color:#000000;solid-opacity:1;fill:#000000;fill-opacity:1;fill-rule:nonzero;stroke:none;stroke-width:4.92216873;stroke-linecap:round;stroke-linejoin:round;stroke-miterlimit:4;stroke-dasharray:none;stroke-dashoffset:0;stroke-opacity:1;color-rendering:auto;image-rendering:auto;shape-rendering:auto;text-rendering:auto;enable-background:accumulate" d="m 12.14236,1006.374 a 0.98398046,1.016484 0 0 0 -1.133175,0.9952 l 0.0036,0.8044 -0.742447,-0.2452 a 0.98418958,1.0167001 0 1 0 -0.5994088,1.9369 l 0.7424418,0.2451 -0.4550535,0.6533 a 0.98398046,1.016484 0 0 0 1.5968925,1.1871 l 0.455047,-0.6532 0.461117,0.6493 a 0.98398046,1.016484 0 0 0 1.586627,-1.2023 l -0.461116,-0.6494 0.740585,-0.252 a 0.98405871,1.0165649 0 0 0 -0.616475,-1.9309 l -0.740592,0.2522 -0.0034,-0.8053 a 0.98398046,1.016484 0 0 0 -0.834565,-0.9852 z"/><path style="color:#000000;font-style:normal;font-variant:normal;font-weight:normal;font-stretch:normal;font-size:medium;line-height:normal;font-family:sans-serif;text-indent:0;text-align:start;text-decoration:none;text-decoration-line:none;text-decoration-style:solid;text-decoration-color:#000000;letter-spacing:normal;word-spacing:normal;text-transform:none;direction:ltr;block-progression:tb;writing-mode:lr-tb;baseline-shift:baseline;text-anchor:start;white-space:normal;clip-rule:nonzero;display:inline;overflow:visible;visibility:visible;opacity:1;isolation:auto;mix-blend-mode:normal;color-interpolation:sRGB;color-interpolation-filters:linearRGB;solid-color:#000000;solid-opacity:1;fill:#000000;fill-opacity:1;fill-rule:nonzero;stroke:none;stroke-width:4.92216873;stroke-linecap:round;stroke-linejoin:round;stroke-miterlimit:4;stroke-dasharray:none;stroke-dashoffset:0;stroke-opacity:1;color-rendering:auto;image-rendering:auto;shape-rendering:auto;text-rendering:auto;enable-background:accumulate" d="m 36.14236,1006.374 a 0.98398046,1.016484 0 0 0 -1.133175,0.9952 l 0.0036,0.8044 -0.742447,-0.2452 a 0.98418958,1.0167001 0 1 0 -0.599409,1.9369 l 0.742442,0.2451 -0.455054,0.6533 a 0.98398046,1.016484 0 0 0 1.596893,1.1871 l 0.455047,-0.6532 0.461117,0.6493 a 0.98398046,1.016484 0 0 0 1.586627,-1.2023 l -0.461116,-0.6494 0.740585,-0.252 a 0.98405871,1.0165649 0 0 0 -0.616475,-1.9309 l -0.740592,0.2522 -0.0034,-0.8053 a 0.98398046,1.016484 0 0 0 -0.834565,-0.9852 z"/><path style="color:#000000;font-style:normal;font-variant:normal;font-weight:normal;font-stretch:normal;font-size:medium;line-height:normal;font-family:sans-serif;text-indent:0;text-align:start;text-decoration:none;text-decoration-line:none;text-decoration-style:solid;text-decoration-color:#000000;letter-spacing:normal;word-spacing:normal;text-transform:none;direction:ltr;block-progression:tb;writing-mode:lr-tb;baseline-shift:baseline;text-anchor:start;white-space:normal;clip-rule:nonzero;display:inline;overflow:visible;visibility:visible;opacity:1;isolation:auto;mix-blend-mode:normal;color-interpolation:sRGB;color-interpolation-filters:linearRGB;solid-color:#000000;solid-opacity:1;fill:#000000;fill-opacity:1;fill-rule:nonzero;stroke:none;stroke-width:4.92216873;stroke-linecap:round;stroke-linejoin:round;stroke-miterlimit:4;stroke-dasharray:none;stroke-dashoffset:0;stroke-opacity:1;color-rendering:auto;image-rendering:auto;shape-rendering:auto;text-rendering:auto;enable-background:accumulate" d="m 24.142502,1006.374 a 0.98398046,1.016484 0 0 0 -1.133175,0.9952 l 0.0036,0.8044 -0.742447,-0.2452 a 0.98418958,1.0167001 0 1 0 -0.599409,1.9369 l 0.742442,0.2451 -0.455054,0.6533 a 0.98398046,1.016484 0 0 0 1.596893,1.1871 l 0.455047,-0.6532 0.461117,0.6493 a 0.98398046,1.016484 0 0 0 1.586627,-1.2023 l -0.461116,-0.6494 0.740585,-0.252 a 0.98405871,1.0165649 0 0 0 -0.616475,-1.9309 l -0.740592,0.2522 -0.0034,-0.8053 a 0.98398046,1.016484 0 0 0 -0.834565,-0.9852 z"/><path style="color:#000000;font-style:normal;font-variant:normal;font-weight:normal;font-stretch:normal;font-size:medium;line-height:normal;font-family:sans-serif;text-indent:0;text-align:start;text-decoration:none;text-decoration-line:none;text-decoration-style:solid;text-decoration-color:#000000;letter-spacing:normal;word-spacing:normal;text-transform:none;direction:ltr;block-progression:tb;writing-mode:lr-tb;baseline-shift:baseline;text-anchor:start;white-space:normal;clip-rule:nonzero;display:inline;overflow:visible;visibility:visible;opacity:1;isolation:auto;mix-blend-mode:normal;color-interpolation:sRGB;color-interpolation-filters:linearRGB;solid-color:#000000;solid-opacity:1;fill:#000000;fill-opacity:1;fill-rule:nonzero;stroke:none;stroke-width:4.92216873;stroke-linecap:round;stroke-linejoin:round;stroke-miterlimit:4;stroke-dasharray:none;stroke-dashoffset:0;stroke-opacity:1;color-rendering:auto;image-rendering:auto;shape-rendering:auto;text-rendering:auto;enable-background:accumulate" d="m 12.14236,1043.374 a 0.98398046,1.016484 0 0 0 -1.133175,0.9952 l 0.0036,0.8044 -0.742447,-0.2451 a 0.98418958,1.0167001 0 1 0 -0.5994088,1.9368 l 0.7424418,0.2452 -0.4550535,0.6533 a 0.98398046,1.016484 0 0 0 1.5968925,1.1871 l 0.455047,-0.6533 0.461117,0.6494 a 0.98398046,1.016484 0 0 0 1.586627,-1.2024 l -0.461116,-0.6493 0.740585,-0.2521 a 0.98405871,1.0165649 0 1 0 -0.616475,-1.9308 l -0.740592,0.2521 -0.0034,-0.8052 a 0.98398046,1.016484 0 0 0 -0.834565,-0.9853 z"/><path style="color:#000000;font-style:normal;font-variant:normal;font-weight:normal;font-stretch:normal;font-size:medium;line-height:normal;font-family:sans-serif;text-indent:0;text-align:start;text-decoration:none;text-decoration-line:none;text-decoration-style:solid;text-decoration-color:#000000;letter-spacing:normal;word-spacing:normal;text-transform:none;direction:ltr;block-progression:tb;writing-mode:lr-tb;baseline-shift:baseline;text-anchor:start;white-space:normal;clip-rule:nonzero;display:inline;overflow:visible;visibility:visible;opacity:1;isolation:auto;mix-blend-mode:normal;color-interpolation:sRGB;color-interpolation-filters:linearRGB;solid-color:#000000;solid-opacity:1;fill:#000000;fill-opacity:1;fill-rule:nonzero;stroke:none;stroke-width:4.92216873;stroke-linecap:round;stroke-linejoin:round;stroke-miterlimit:4;stroke-dasharray:none;stroke-dashoffset:0;stroke-opacity:1;color-rendering:auto;image-rendering:auto;shape-rendering:auto;text-rendering:auto;enable-background:accumulate" d="m 36.14236,1043.374 a 0.98398046,1.016484 0 0 0 -1.133175,0.9952 l 0.0036,0.8044 -0.742447,-0.2451 a 0.98418958,1.0167001 0 1 0 -0.599409,1.9368 l 0.742442,0.2452 -0.455054,0.6533 a 0.98398046,1.016484 0 0 0 1.596893,1.1871 l 0.455047,-0.6533 0.461117,0.6494 a 0.98398046,1.016484 0 0 0 1.586627,-1.2024 l -0.461116,-0.6493 0.740585,-0.2521 a 0.98405871,1.0165649 0 1 0 -0.616475,-1.9308 l -0.740592,0.2521 -0.0034,-0.8052 a 0.98398046,1.016484 0 0 0 -0.834565,-0.9853 z"/><path style="color:#000000;font-style:normal;font-variant:normal;font-weight:normal;font-stretch:normal;font-size:medium;line-height:normal;font-family:sans-serif;text-indent:0;text-align:start;text-decoration:none;text-decoration-line:none;text-decoration-style:solid;text-decoration-color:#000000;letter-spacing:normal;word-spacing:normal;text-transform:none;direction:ltr;block-progression:tb;writing-mode:lr-tb;baseline-shift:baseline;text-anchor:start;white-space:normal;clip-rule:nonzero;display:inline;overflow:visible;visibility:visible;opacity:1;isolation:auto;mix-blend-mode:normal;color-interpolation:sRGB;color-interpolation-filters:linearRGB;solid-color:#000000;solid-opacity:1;fill:#000000;fill-opacity:1;fill-rule:nonzero;stroke:none;stroke-width:4.92216873;stroke-linecap:round;stroke-linejoin:round;stroke-miterlimit:4;stroke-dasharray:none;stroke-dashoffset:0;stroke-opacity:1;color-rendering:auto;image-rendering:auto;shape-rendering:auto;text-rendering:auto;enable-background:accumulate" d="m 24.142502,1043.374 a 0.98398046,1.016484 0 0 0 -1.133175,0.9952 l 0.0036,0.8044 -0.742447,-0.2451 a 0.98418958,1.0167001 0 1 0 -0.599409,1.9368 l 0.742442,0.2452 -0.455054,0.6533 a 0.98398046,1.016484 0 0 0 1.596893,1.1871 l 0.455047,-0.6533 0.461117,0.6494 a 0.98398046,1.016484 0 0 0 1.586627,-1.2024 l -0.461116,-0.6493 0.740585,-0.2521 a 0.98405871,1.0165649 0 1 0 -0.616475,-1.9308 l -0.740592,0.2521 -0.0034,-0.8052 a 0.98398046,1.016484 0 0 0 -0.834565,-0.9853 z"/><path style="color:#000000;font-style:normal;font-variant:normal;font-weight:normal;font-stretch:normal;font-size:medium;line-height:normal;font-family:sans-serif;text-indent:0;text-align:start;text-decoration:none;text-decoration-line:none;text-decoration-style:solid;text-decoration-color:#000000;letter-spacing:normal;word-spacing:normal;text-transform:none;direction:ltr;block-progression:tb;writing-mode:lr-tb;baseline-shift:baseline;text-anchor:start;white-space:normal;clip-rule:nonzero;display:inline;overflow:visible;visibility:visible;opacity:1;isolation:auto;mix-blend-mode:normal;color-interpolation:sRGB;color-interpolation-filters:linearRGB;solid-color:#000000;solid-opacity:1;fill:#000000;fill-opacity:1;fill-rule:nonzero;stroke:none;stroke-width:4.92216873;stroke-linecap:round;stroke-linejoin:round;stroke-miterlimit:4;stroke-dasharray:none;stroke-dashoffset:0;stroke-opacity:1;color-rendering:auto;image-rendering:auto;shape-rendering:auto;text-rendering:auto;enable-background:accumulate" d="m 6.1423595,1016.374 a 0.98398046,1.016484 0 0 0 -1.1331741,0.9952 l 0.00356,0.8044 -0.7424478,-0.2451 a 0.98418958,1.0167001 0 1 0 -0.5994083,1.9368 l 0.7424417,0.2452 -0.4550534,0.6533 a 0.98398046,1.016484 0 0 0 1.5968926,1.1871 l 0.4550474,-0.6533 0.4611161,0.6494 a 0.98398046,1.016484 0 0 0 1.5866279,-1.2024 l -0.4611166,-0.6493 0.7405855,-0.2521 a 0.98405871,1.0165649 0 1 0 -0.6164754,-1.9308 l -0.7405915,0.2521 -0.00344,-0.8052 a 0.98398046,1.016484 0 0 0 -0.8345656,-0.9853 z"/><path style="color:#000000;font-style:normal;font-variant:normal;font-weight:normal;font-stretch:normal;font-size:medium;line-height:normal;font-family:sans-serif;text-indent:0;text-align:start;text-decoration:none;text-decoration-line:none;text-decoration-style:solid;text-decoration-color:#000000;letter-spacing:normal;word-spacing:normal;text-transform:none;direction:ltr;block-progression:tb;writing-mode:lr-tb;baseline-shift:baseline;text-anchor:start;white-space:normal;clip-rule:nonzero;display:inline;overflow:visible;visibility:visible;opacity:1;isolation:auto;mix-blend-mode:normal;color-interpolation:sRGB;color-interpolation-filters:linearRGB;solid-color:#000000;solid-opacity:1;fill:#000000;fill-opacity:1;fill-rule:nonzero;stroke:none;stroke-width:4.92216873;stroke-linecap:round;stroke-linejoin:round;stroke-miterlimit:4;stroke-dasharray:none;stroke-dashoffset:0;stroke-opacity:1;color-rendering:auto;image-rendering:auto;shape-rendering:auto;text-rendering:auto;enable-background:accumulate" d="m 30.142431,1016.374 a 0.98398046,1.016484 0 0 0 -1.133175,0.9952 l 0.0036,0.8044 -0.742447,-0.2451 a 0.98418958,1.0167001 0 1 0 -0.599409,1.9368 l 0.742442,0.2452 -0.455054,0.6533 a 0.98398046,1.016484 0 0 0 1.596893,1.1871 l 0.455047,-0.6533 0.461117,0.6494 a 0.98398046,1.016484 0 0 0 1.586627,-1.2024 l -0.461116,-0.6493 0.740585,-0.2521 a 0.98405871,1.0165649 0 1 0 -0.616475,-1.9308 l -0.740592,0.2521 -0.0034,-0.8052 a 0.98398046,1.016484 0 0 0 -0.834565,-0.9853 z"/><path style="color:#000000;font-style:normal;font-variant:normal;font-weight:normal;font-stretch:normal;font-size:medium;line-height:normal;font-family:sans-serif;text-indent:0;text-align:start;text-decoration:none;text-decoration-line:none;text-decoration-style:solid;text-decoration-color:#000000;letter-spacing:normal;word-spacing:normal;text-transform:none;direction:ltr;block-progression:tb;writing-mode:lr-tb;baseline-shift:baseline;text-anchor:start;white-space:normal;clip-rule:nonzero;display:inline;overflow:visible;visibility:visible;opacity:1;isolation:auto;mix-blend-mode:normal;color-interpolation:sRGB;color-interpolation-filters:linearRGB;solid-color:#000000;solid-opacity:1;fill:#000000;fill-opacity:1;fill-rule:nonzero;stroke:none;stroke-width:4.92216873;stroke-linecap:round;stroke-linejoin:round;stroke-miterlimit:4;stroke-dasharray:none;stroke-dashoffset:0;stroke-opacity:1;color-rendering:auto;image-rendering:auto;shape-rendering:auto;text-rendering:auto;enable-background:accumulate" d="m 18.142431,1016.374 a 0.98398046,1.016484 0 0 0 -1.133175,0.9952 l 0.0036,0.8044 -0.742447,-0.2451 a 0.98418958,1.0167001 0 1 0 -0.599409,1.9368 l 0.742442,0.2452 -0.455054,0.6533 a 0.98398046,1.016484 0 0 0 1.596893,1.1871 l 0.455047,-0.6533 0.461117,0.6494 a 0.98398046,1.016484 0 0 0 1.586627,-1.2024 l -0.461116,-0.6493 0.740585,-0.2521 a 0.98405871,1.0165649 0 1 0 -0.616475,-1.9308 l -0.740592,0.2521 -0.0034,-0.8052 a 0.98398046,1.016484 0 0 0 -0.834565,-0.9853 z"/><path style="color:#000000;font-style:normal;font-variant:normal;font-weight:normal;font-stretch:normal;font-size:medium;line-height:normal;font-family:sans-serif;text-indent:0;text-align:start;text-decoration:none;text-decoration-line:none;text-decoration-style:solid;text-decoration-color:#000000;letter-spacing:normal;word-spacing:normal;text-transform:none;direction:ltr;block-progression:tb;writing-mode:lr-tb;baseline-shift:baseline;text-anchor:start;white-space:normal;clip-rule:nonzero;display:inline;overflow:visible;visibility:visible;opacity:1;isolation:auto;mix-blend-mode:normal;color-interpolation:sRGB;color-interpolation-filters:linearRGB;solid-color:#000000;solid-opacity:1;fill:#000000;fill-opacity:1;fill-rule:nonzero;stroke:none;stroke-width:4.92216873;stroke-linecap:round;stroke-linejoin:round;stroke-miterlimit:4;stroke-dasharray:none;stroke-dashoffset:0;stroke-opacity:1;color-rendering:auto;image-rendering:auto;shape-rendering:auto;text-rendering:auto;enable-background:accumulate" d="m 42.14236,1016.374 a 0.98398046,1.016484 0 0 0 -1.133175,0.9952 l 0.0036,0.8044 -0.742447,-0.2451 a 0.98418958,1.0167001 0 1 0 -0.599409,1.9368 l 0.742442,0.2452 -0.455054,0.6533 a 0.98398046,1.016484 0 0 0 1.596893,1.1871 l 0.455047,-0.6533 0.461117,0.6494 a 0.98398046,1.016484 0 0 0 1.586627,-1.2024 l -0.461116,-0.6493 0.740585,-0.2521 a 0.98405871,1.0165649 0 1 0 -0.616475,-1.9308 l -0.740592,0.2521 -0.0034,-0.8052 a 0.98398046,1.016484 0 0 0 -0.834565,-0.9853 z"/><path style="color:#000000;font-style:normal;font-variant:normal;font-weight:normal;font-stretch:normal;font-size:medium;line-height:normal;font-family:sans-serif;text-indent:0;text-align:start;text-decoration:none;text-decoration-line:none;text-decoration-style:solid;text-decoration-color:#000000;letter-spacing:normal;word-spacing:normal;text-transform:none;direction:ltr;block-progression:tb;writing-mode:lr-tb;baseline-shift:baseline;text-anchor:start;white-space:normal;clip-rule:nonzero;display:inline;overflow:visible;visibility:visible;opacity:1;isolation:auto;mix-blend-mode:normal;color-interpolation:sRGB;color-interpolation-filters:linearRGB;solid-color:#000000;solid-opacity:1;fill:#000000;fill-opacity:1;fill-rule:nonzero;stroke:none;stroke-width:4.92216873;stroke-linecap:round;stroke-linejoin:round;stroke-miterlimit:4;stroke-dasharray:none;stroke-dashoffset:0;stroke-opacity:1;color-rendering:auto;image-rendering:auto;shape-rendering:auto;text-rendering:auto;enable-background:accumulate" d="m 12.14236,1025.374 a 0.98398046,1.016484 0 0 0 -1.133175,0.9952 l 0.0036,0.8044 -0.742447,-0.2451 a 0.98418958,1.0167001 0 1 0 -0.5994088,1.9368 l 0.7424418,0.2452 -0.4550535,0.6533 a 0.98398046,1.016484 0 0 0 1.5968925,1.1871 l 0.455047,-0.6533 0.461117,0.6494 a 0.98398046,1.016484 0 0 0 1.586627,-1.2024 l -0.461116,-0.6493 0.740585,-0.2521 a 0.98405871,1.0165649 0 1 0 -0.616475,-1.9308 l -0.740592,0.2521 -0.0034,-0.8052 a 0.98398046,1.016484 0 0 0 -0.834565,-0.9853 z"/><path style="color:#000000;font-style:normal;font-variant:normal;font-weight:normal;font-stretch:normal;font-size:medium;line-height:normal;font-family:sans-serif;text-indent:0;text-align:start;text-decoration:none;text-decoration-line:none;text-decoration-style:solid;text-decoration-color:#000000;letter-spacing:normal;word-spacing:normal;text-transform:none;direction:ltr;block-progression:tb;writing-mode:lr-tb;baseline-shift:baseline;text-anchor:start;white-space:normal;clip-rule:nonzero;display:inline;overflow:visible;visibility:visible;opacity:1;isolation:auto;mix-blend-mode:normal;color-interpolation:sRGB;color-interpolation-filters:linearRGB;solid-color:#000000;solid-opacity:1;fill:#000000;fill-opacity:1;fill-rule:nonzero;stroke:none;stroke-width:4.92216873;stroke-linecap:round;stroke-linejoin:round;stroke-miterlimit:4;stroke-dasharray:none;stroke-dashoffset:0;stroke-opacity:1;color-rendering:auto;image-rendering:auto;shape-rendering:auto;text-rendering:auto;enable-background:accumulate" d="m 36.14236,1025.374 a 0.98398046,1.016484 0 0 0 -1.133175,0.9952 l 0.0036,0.8044 -0.742447,-0.2451 a 0.98418958,1.0167001 0 1 0 -0.599409,1.9368 l 0.742442,0.2452 -0.455054,0.6533 a 0.98398046,1.016484 0 0 0 1.596893,1.1871 l 0.455047,-0.6533 0.461117,0.6494 a 0.98398046,1.016484 0 0 0 1.586627,-1.2024 l -0.461116,-0.6493 0.740585,-0.2521 a 0.98405871,1.0165649 0 1 0 -0.616475,-1.9308 l -0.740592,0.2521 -0.0034,-0.8052 a 0.98398046,1.016484 0 0 0 -0.834565,-0.9853 z"/><path style="color:#000000;font-style:normal;font-variant:normal;font-weight:normal;font-stretch:normal;font-size:medium;line-height:normal;font-family:sans-serif;text-indent:0;text-align:start;text-decoration:none;text-decoration-line:none;text-decoration-style:solid;text-decoration-color:#000000;letter-spacing:normal;word-spacing:normal;text-transform:none;direction:ltr;block-progression:tb;writing-mode:lr-tb;baseline-shift:baseline;text-anchor:start;white-space:normal;clip-rule:nonzero;display:inline;overflow:visible;visibility:visible;opacity:1;isolation:auto;mix-blend-mode:normal;color-interpolation:sRGB;color-interpolation-filters:linearRGB;solid-color:#000000;solid-opacity:1;fill:#000000;fill-opacity:1;fill-rule:nonzero;stroke:none;stroke-width:4.92216873;stroke-linecap:round;stroke-linejoin:round;stroke-miterlimit:4;stroke-dasharray:none;stroke-dashoffset:0;stroke-opacity:1;color-rendering:auto;image-rendering:auto;shape-rendering:auto;text-rendering:auto;enable-background:accumulate" d="m 24.142502,1025.374 a 0.98398046,1.016484 0 0 0 -1.133175,0.9952 l 0.0036,0.8044 -0.742447,-0.2451 a 0.98418958,1.0167001 0 1 0 -0.599409,1.9368 l 0.742442,0.2452 -0.455054,0.6533 a 0.98398046,1.016484 0 0 0 1.596893,1.1871 l 0.455047,-0.6533 0.461117,0.6494 a 0.98398046,1.016484 0 0 0 1.586627,-1.2024 l -0.461116,-0.6493 0.740585,-0.2521 a 0.98405871,1.0165649 0 1 0 -0.616475,-1.9308 l -0.740592,0.2521 -0.0034,-0.8052 a 0.98398046,1.016484 0 0 0 -0.834565,-0.9853 z"/><path style="color:#000000;font-style:normal;font-variant:normal;font-weight:normal;font-stretch:normal;font-size:medium;line-height:normal;font-family:sans-serif;text-indent:0;text-align:start;text-decoration:none;text-decoration-line:none;text-decoration-style:solid;text-decoration-color:#000000;letter-spacing:normal;word-spacing:normal;text-transform:none;direction:ltr;block-progression:tb;writing-mode:lr-tb;baseline-shift:baseline;text-anchor:start;white-space:normal;clip-rule:nonzero;display:inline;overflow:visible;visibility:visible;opacity:1;isolation:auto;mix-blend-mode:normal;color-interpolation:sRGB;color-interpolation-filters:linearRGB;solid-color:#000000;solid-opacity:1;fill:#000000;fill-opacity:1;fill-rule:nonzero;stroke:none;stroke-width:4.92216873;stroke-linecap:round;stroke-linejoin:round;stroke-miterlimit:4;stroke-dasharray:none;stroke-dashoffset:0;stroke-opacity:1;color-rendering:auto;image-rendering:auto;shape-rendering:auto;text-rendering:auto;enable-background:accumulate" d="m 6.1423595,1034.374 a 0.98398046,1.016484 0 0 0 -1.1331741,0.9952 l 0.00356,0.8044 -0.7424478,-0.2451 a 0.98418958,1.0167001 0 1 0 -0.5994083,1.9368 l 0.7424417,0.2452 -0.4550534,0.6533 a 0.98398046,1.016484 0 0 0 1.5968926,1.1871 l 0.4550474,-0.6533 0.4611161,0.6494 a 0.98398046,1.016484 0 0 0 1.5866279,-1.2024 l -0.4611166,-0.6493 0.7405855,-0.2521 a 0.98405871,1.0165649 0 1 0 -0.6164754,-1.9308 l -0.7405915,0.2521 -0.00344,-0.8052 a 0.98398046,1.016484 0 0 0 -0.8345656,-0.9853 z"/><path style="color:#000000;font-style:normal;font-variant:normal;font-weight:normal;font-stretch:normal;font-size:medium;line-height:normal;font-family:sans-serif;text-indent:0;text-align:start;text-decoration:none;text-decoration-line:none;text-decoration-style:solid;text-decoration-color:#000000;letter-spacing:normal;word-spacing:normal;text-transform:none;direction:ltr;block-progression:tb;writing-mode:lr-tb;baseline-shift:baseline;text-anchor:start;white-space:normal;clip-rule:nonzero;display:inline;overflow:visible;visibility:visible;opacity:1;isolation:auto;mix-blend-mode:normal;color-interpolation:sRGB;color-interpolation-filters:linearRGB;solid-color:#000000;solid-opacity:1;fill:#000000;fill-opacity:1;fill-rule:nonzero;stroke:none;stroke-width:4.92216873;stroke-linecap:round;stroke-linejoin:round;stroke-miterlimit:4;stroke-dasharray:none;stroke-dashoffset:0;stroke-opacity:1;color-rendering:auto;image-rendering:auto;shape-rendering:auto;text-rendering:auto;enable-background:accumulate" d="m 30.142431,1034.374 a 0.98398046,1.016484 0 0 0 -1.133175,0.9952 l 0.0036,0.8044 -0.742447,-0.2451 a 0.98418958,1.0167001 0 1 0 -0.599409,1.9368 l 0.742442,0.2452 -0.455054,0.6533 a 0.98398046,1.016484 0 0 0 1.596893,1.1871 l 0.455047,-0.6533 0.461117,0.6494 a 0.98398046,1.016484 0 0 0 1.586627,-1.2024 l -0.461116,-0.6493 0.740585,-0.2521 a 0.98405871,1.0165649 0 1 0 -0.616475,-1.9308 l -0.740592,0.2521 -0.0034,-0.8052 a 0.98398046,1.016484 0 0 0 -0.834565,-0.9853 z"/><path style="color:#000000;font-style:normal;font-variant:normal;font-weight:normal;font-stretch:normal;font-size:medium;line-height:normal;font-family:sans-serif;text-indent:0;text-align:start;text-decoration:none;text-decoration-line:none;text-decoration-style:solid;text-decoration-color:#000000;letter-spacing:normal;word-spacing:normal;text-transform:none;direction:ltr;block-progression:tb;writing-mode:lr-tb;baseline-shift:baseline;text-anchor:start;white-space:normal;clip-rule:nonzero;display:inline;overflow:visible;visibility:visible;opacity:1;isolation:auto;mix-blend-mode:normal;color-interpolation:sRGB;color-interpolation-filters:linearRGB;solid-color:#000000;solid-opacity:1;fill:#000000;fill-opacity:1;fill-rule:nonzero;stroke:none;stroke-width:4.92216873;stroke-linecap:round;stroke-linejoin:round;stroke-miterlimit:4;stroke-dasharray:none;stroke-dashoffset:0;stroke-opacity:1;color-rendering:auto;image-rendering:auto;shape-rendering:auto;text-rendering:auto;enable-background:accumulate" d="m 18.142431,1034.374 a 0.98398046,1.016484 0 0 0 -1.133175,0.9952 l 0.0036,0.8044 -0.742447,-0.2451 a 0.98418958,1.0167001 0 1 0 -0.599409,1.9368 l 0.742442,0.2452 -0.455054,0.6533 a 0.98398046,1.016484 0 0 0 1.596893,1.1871 l 0.455047,-0.6533 0.461117,0.6494 a 0.98398046,1.016484 0 0 0 1.586627,-1.2024 l -0.461116,-0.6493 0.740585,-0.2521 a 0.98405871,1.0165649 0 1 0 -0.616475,-1.9308 l -0.740592,0.2521 -0.0034,-0.8052 a 0.98398046,1.016484 0 0 0 -0.834565,-0.9853 z"/><path style="color:#000000;font-style:normal;font-variant:normal;font-weight:normal;font-stretch:normal;font-size:medium;line-height:normal;font-family:sans-serif;text-indent:0;text-align:start;text-decoration:none;text-decoration-line:none;text-decoration-style:solid;text-decoration-color:#000000;letter-spacing:normal;word-spacing:normal;text-transform:none;direction:ltr;block-progression:tb;writing-mode:lr-tb;baseline-shift:baseline;text-anchor:start;white-space:normal;clip-rule:nonzero;display:inline;overflow:visible;visibility:visible;opacity:1;isolation:auto;mix-blend-mode:normal;color-interpolation:sRGB;color-interpolation-filters:linearRGB;solid-color:#000000;solid-opacity:1;fill:#000000;fill-opacity:1;fill-rule:nonzero;stroke:none;stroke-width:4.92216873;stroke-linecap:round;stroke-linejoin:round;stroke-miterlimit:4;stroke-dasharray:none;stroke-dashoffset:0;stroke-opacity:1;color-rendering:auto;image-rendering:auto;shape-rendering:auto;text-rendering:auto;enable-background:accumulate" d="m 42.14236,1034.374 a 0.98398046,1.016484 0 0 0 -1.133175,0.9952 l 0.0036,0.8044 -0.742447,-0.2451 a 0.98418958,1.0167001 0 1 0 -0.599409,1.9368 l 0.742442,0.2452 -0.455054,0.6533 a 0.98398046,1.016484 0 0 0 1.596893,1.1871 l 0.455047,-0.6533 0.461117,0.6494 a 0.98398046,1.016484 0 0 0 1.586627,-1.2024 l -0.461116,-0.6493 0.740585,-0.2521 a 0.98405871,1.0165649 0 1 0 -0.616475,-1.9308 l -0.740592,0.2521 -0.0034,-0.8052 a 0.98398046,1.016484 0 0 0 -0.834565,-0.9853 z"/></g></svg>